M48
; DRILL file {KiCad 6.0.11+dfsg-1} date di 22 jul 2025 20:07:27
; FORMAT={-:-/ absolute / metric / decimal}
; #@! TF.CreationDate,2025-07-22T20:07:27+02:00
; #@! TF.GenerationSoftware,Kicad,Pcbnew,6.0.11+dfsg-1
; #@! TF.FileFunction,Plated,1,2,PTH
FMAT,2
METRIC
; #@! TA.AperFunction,Plated,PTH,ComponentDrill
T1C0.800
; #@! TA.AperFunction,Plated,PTH,ComponentDrill
T2C0.900
; #@! TA.AperFunction,Plated,PTH,ComponentDrill
T3C1.000
; #@! TA.AperFunction,Plated,PTH,ComponentDrill
T4C1.100
; #@! TA.AperFunction,Plated,PTH,ComponentDrill
T5C1.200
; #@! TA.AperFunction,Plated,PTH,ComponentDrill
T6C1.300
; #@! TA.AperFunction,Plated,PTH,ComponentDrill
T7C1.600
; #@! TA.AperFunction,Plated,PTH,ComponentDrill
T8C1.700
%
G90
G05
T1
X128.938Y-101.393
X128.938Y-111.553
X144.145Y-99.06
X144.145Y-109.22
X153.67Y-116.205
X153.67Y-126.365
X158.675Y-120.665
X158.675Y-123.205
X158.675Y-125.745
X164.465Y-116.205
X164.465Y-126.365
X180.975Y-87.63
X180.975Y-90.17
X191.368Y-110.283
X191.368Y-120.443
X195.178Y-110.323
X195.178Y-115.323
T2
X139.7Y-102.87
X139.7Y-105.41
T3
X180.88Y-96.313
X184.88Y-96.313
X189.77Y-96.313
X193.77Y-96.313
T4
X133.818Y-101.393
X133.818Y-111.553
X162.97Y-109.365
X164.67Y-105.565
X166.37Y-109.365
X168.07Y-105.565
X169.77Y-109.365
T5
X141.605Y-116.679
X141.605Y-124.179
X180.34Y-112.365
X180.34Y-119.865
X200.449Y-99.06
X205.449Y-99.06
T6
X117.583Y-96.313
X121.823Y-103.053
X121.823Y-108.133
X140.693Y-96.313
X202.26Y-110.485
X202.26Y-115.565
T7
X149.225Y-88.9
X149.225Y-104.14
T8
X124.343Y-96.313
X133.933Y-96.313
T0
M30
