  0
SECTION
  2
HEADER
  9
$ANGBASE
  50
0.0
  9
$ANGDIR
  70
1
  9
$MEASUREMENT
  70
1
  0
ENDSEC
  0
SECTION
  2
TABLES
  0
TABLE
  2
LTYPE
  70
4
  0
LTYPE
  5
40F
  2
CONTINUOUS
  70
0
  3
Solid line
  72
65
  73
0
  40
0.0
  0
LTYPE
  5
410
  2
DASHDOT
 70
0
  3
Dash Dot ____ _ ____ _
 72
65
 73
4
 40
2.0
 49
1.25
 49
-0.25
 49
0.25
 49
-0.25
  0
LTYPE
  5
411
  2
DASHED
 70
0
  3
Dashed __ __ __ __ __
 72
65
 73
2
 40
0.75
 49
0.5
 49
-0.25
  0
LTYPE
  5
43B
  2
DOTTED
 70
0
  3
Dotted .  .  .  .
 72
65
 73
2
 40
0.2
 49
0.0
 49
-0.2
  0
ENDTAB
  0
TABLE
  2
STYLE
  70
4
  0
STYLE
  2
KICAD
  70
0
  40
0
  41
1
  42
1
  50
0
  71
0
  3
isocp.shx
  0
STYLE
  2
KICADB
  70
0
  40
0
  41
1
  42
1
  50
0
  71
0
  3
isocp.shx
  0
STYLE
  2
KICADI
  70
0
  40
0
  41
1
  42
1
  50
15
  71
0
  3
isocp.shx
  0
STYLE
  2
KICADBI
  70
0
  40
0
  41
1
  42
1
  50
15
  71
0
  3
isocp.shx
  0
ENDTAB
  0
TABLE
  2
LAYER
  70
1
  0
LAYER
  2
BLACK
  70
0
  62
7
  6
CONTINUOUS
  0
ENDTAB
  0
ENDSEC
  0
SECTION
  2
ENTITIES
0
CIRCLE
8
BLACK
10
115.57
20
-84.455
40
1.4199
0
LINE
8
BLACK
6
CONTINUOUS
10
212.09
20
-130.81
11
112.395
21
-130.81
0
CIRCLE
8
BLACK
10
116.205
20
-127
40
1.4199
0
LINE
8
BLACK
6
CONTINUOUS
10
112.395
20
-81.28
11
212.09
21
-81.28
0
LINE
8
BLACK
6
CONTINUOUS
10
212.09
20
-81.28
11
212.09
21
-130.81
0
CIRCLE
8
BLACK
10
208.28
20
-127
40
1.4199
0
CIRCLE
8
BLACK
10
208.915
20
-84.455
40
1.4199
0
LINE
8
BLACK
6
CONTINUOUS
10
112.395
20
-130.81
11
112.395
21
-81.28
0
LINE
8
BLACK
6
CONTINUOUS
10
128.538
20
-100.993
11
129.338
21
-101.793
0
LINE
8
BLACK
6
CONTINUOUS
10
129.338
20
-100.993
11
128.538
21
-101.793
0
LINE
8
BLACK
6
CONTINUOUS
10
128.538
20
-111.153
11
129.338
21
-111.953
0
LINE
8
BLACK
6
CONTINUOUS
10
129.338
20
-111.153
11
128.538
21
-111.953
0
LINE
8
BLACK
6
CONTINUOUS
10
143.745
20
-98.66
11
144.545
21
-99.46
0
LINE
8
BLACK
6
CONTINUOUS
10
144.545
20
-98.66
11
143.745
21
-99.46
0
LINE
8
BLACK
6
CONTINUOUS
10
143.745
20
-108.82
11
144.545
21
-109.62
0
LINE
8
BLACK
6
CONTINUOUS
10
144.545
20
-108.82
11
143.745
21
-109.62
0
LINE
8
BLACK
6
CONTINUOUS
10
153.27
20
-115.805
11
154.07
21
-116.605
0
LINE
8
BLACK
6
CONTINUOUS
10
154.07
20
-115.805
11
153.27
21
-116.605
0
LINE
8
BLACK
6
CONTINUOUS
10
153.27
20
-125.965
11
154.07
21
-126.765
0
LINE
8
BLACK
6
CONTINUOUS
10
154.07
20
-125.965
11
153.27
21
-126.765
0
LINE
8
BLACK
6
CONTINUOUS
10
158.275
20
-120.265
11
159.075
21
-121.065
0
LINE
8
BLACK
6
CONTINUOUS
10
159.075
20
-120.265
11
158.275
21
-121.065
0
LINE
8
BLACK
6
CONTINUOUS
10
158.275
20
-122.805
11
159.075
21
-123.605
0
LINE
8
BLACK
6
CONTINUOUS
10
159.075
20
-122.805
11
158.275
21
-123.605
0
LINE
8
BLACK
6
CONTINUOUS
10
158.275
20
-125.345
11
159.075
21
-126.145
0
LINE
8
BLACK
6
CONTINUOUS
10
159.075
20
-125.345
11
158.275
21
-126.145
0
LINE
8
BLACK
6
CONTINUOUS
10
164.065
20
-115.805
11
164.865
21
-116.605
0
LINE
8
BLACK
6
CONTINUOUS
10
164.865
20
-115.805
11
164.065
21
-116.605
0
LINE
8
BLACK
6
CONTINUOUS
10
164.065
20
-125.965
11
164.865
21
-126.765
0
LINE
8
BLACK
6
CONTINUOUS
10
164.865
20
-125.965
11
164.065
21
-126.765
0
LINE
8
BLACK
6
CONTINUOUS
10
180.575
20
-87.23
11
181.375
21
-88.03
0
LINE
8
BLACK
6
CONTINUOUS
10
181.375
20
-87.23
11
180.575
21
-88.03
0
LINE
8
BLACK
6
CONTINUOUS
10
180.575
20
-89.77
11
181.375
21
-90.57
0
LINE
8
BLACK
6
CONTINUOUS
10
181.375
20
-89.77
11
180.575
21
-90.57
0
LINE
8
BLACK
6
CONTINUOUS
10
190.968
20
-109.883
11
191.768
21
-110.683
0
LINE
8
BLACK
6
CONTINUOUS
10
191.768
20
-109.883
11
190.968
21
-110.683
0
LINE
8
BLACK
6
CONTINUOUS
10
190.968
20
-120.043
11
191.768
21
-120.843
0
LINE
8
BLACK
6
CONTINUOUS
10
191.768
20
-120.043
11
190.968
21
-120.843
0
LINE
8
BLACK
6
CONTINUOUS
10
194.778
20
-109.923
11
195.578
21
-110.723
0
LINE
8
BLACK
6
CONTINUOUS
10
195.578
20
-109.923
11
194.778
21
-110.723
0
LINE
8
BLACK
6
CONTINUOUS
10
194.778
20
-114.923
11
195.578
21
-115.723
0
LINE
8
BLACK
6
CONTINUOUS
10
195.578
20
-114.923
11
194.778
21
-115.723
0
CIRCLE
8
BLACK
10
139.7
20
-102.87
40
0.45
0
CIRCLE
8
BLACK
10
139.7
20
-105.41
40
0.45
0
LINE
8
BLACK
6
CONTINUOUS
10
180.88
20
-95.8131
11
180.88
21
-96.8131
0
LINE
8
BLACK
6
CONTINUOUS
10
180.38
20
-96.3131
11
181.38
21
-96.3131
0
LINE
8
BLACK
6
CONTINUOUS
10
184.88
20
-95.8131
11
184.88
21
-96.8131
0
LINE
8
BLACK
6
CONTINUOUS
10
184.38
20
-96.3131
11
185.38
21
-96.3131
0
LINE
8
BLACK
6
CONTINUOUS
10
189.77
20
-95.8131
11
189.77
21
-96.8131
0
LINE
8
BLACK
6
CONTINUOUS
10
189.27
20
-96.3131
11
190.27
21
-96.3131
0
LINE
8
BLACK
6
CONTINUOUS
10
193.77
20
-95.8131
11
193.77
21
-96.8131
0
LINE
8
BLACK
6
CONTINUOUS
10
193.27
20
-96.3131
11
194.27
21
-96.3131
0
LINE
8
BLACK
6
CONTINUOUS
10
134.207
20
-101.782
11
134.207
21
-101.004
0
LINE
8
BLACK
6
CONTINUOUS
10
134.207
20
-101.004
11
133.429
21
-101.004
0
LINE
8
BLACK
6
CONTINUOUS
10
133.429
20
-101.004
11
133.429
21
-101.782
0
LINE
8
BLACK
6
CONTINUOUS
10
133.429
20
-101.782
11
134.207
21
-101.782
0
LINE
8
BLACK
6
CONTINUOUS
10
134.207
20
-111.942
11
134.207
21
-111.164
0
LINE
8
BLACK
6
CONTINUOUS
10
134.207
20
-111.164
11
133.429
21
-111.164
0
LINE
8
BLACK
6
CONTINUOUS
10
133.429
20
-111.164
11
133.429
21
-111.942
0
LINE
8
BLACK
6
CONTINUOUS
10
133.429
20
-111.942
11
134.207
21
-111.942
0
LINE
8
BLACK
6
CONTINUOUS
10
163.359
20
-109.754
11
163.359
21
-108.976
0
LINE
8
BLACK
6
CONTINUOUS
10
163.359
20
-108.976
11
162.581
21
-108.976
0
LINE
8
BLACK
6
CONTINUOUS
10
162.581
20
-108.976
11
162.581
21
-109.754
0
LINE
8
BLACK
6
CONTINUOUS
10
162.581
20
-109.754
11
163.359
21
-109.754
0
LINE
8
BLACK
6
CONTINUOUS
10
165.059
20
-105.954
11
165.059
21
-105.176
0
LINE
8
BLACK
6
CONTINUOUS
10
165.059
20
-105.176
11
164.281
21
-105.176
0
LINE
8
BLACK
6
CONTINUOUS
10
164.281
20
-105.176
11
164.281
21
-105.954
0
LINE
8
BLACK
6
CONTINUOUS
10
164.281
20
-105.954
11
165.059
21
-105.954
0
LINE
8
BLACK
6
CONTINUOUS
10
166.759
20
-109.754
11
166.759
21
-108.976
0
LINE
8
BLACK
6
CONTINUOUS
10
166.759
20
-108.976
11
165.981
21
-108.976
0
LINE
8
BLACK
6
CONTINUOUS
10
165.981
20
-108.976
11
165.981
21
-109.754
0
LINE
8
BLACK
6
CONTINUOUS
10
165.981
20
-109.754
11
166.759
21
-109.754
0
LINE
8
BLACK
6
CONTINUOUS
10
168.459
20
-105.954
11
168.459
21
-105.176
0
LINE
8
BLACK
6
CONTINUOUS
10
168.459
20
-105.176
11
167.681
21
-105.176
0
LINE
8
BLACK
6
CONTINUOUS
10
167.681
20
-105.176
11
167.681
21
-105.954
0
LINE
8
BLACK
6
CONTINUOUS
10
167.681
20
-105.954
11
168.459
21
-105.954
0
LINE
8
BLACK
6
CONTINUOUS
10
170.159
20
-109.754
11
170.159
21
-108.976
0
LINE
8
BLACK
6
CONTINUOUS
10
170.159
20
-108.976
11
169.381
21
-108.976
0
LINE
8
BLACK
6
CONTINUOUS
10
169.381
20
-108.976
11
169.381
21
-109.754
0
LINE
8
BLACK
6
CONTINUOUS
10
169.381
20
-109.754
11
170.159
21
-109.754
0
LINE
8
BLACK
6
CONTINUOUS
10
141.605
20
-117.279
11
142.205
21
-116.679
0
LINE
8
BLACK
6
CONTINUOUS
10
142.205
20
-116.679
11
141.605
21
-116.079
0
LINE
8
BLACK
6
CONTINUOUS
10
141.605
20
-116.079
11
141.005
21
-116.679
0
LINE
8
BLACK
6
CONTINUOUS
10
141.005
20
-116.679
11
141.605
21
-117.279
0
LINE
8
BLACK
6
CONTINUOUS
10
141.605
20
-124.779
11
142.205
21
-124.179
0
LINE
8
BLACK
6
CONTINUOUS
10
142.205
20
-124.179
11
141.605
21
-123.579
0
LINE
8
BLACK
6
CONTINUOUS
10
141.605
20
-123.579
11
141.005
21
-124.179
0
LINE
8
BLACK
6
CONTINUOUS
10
141.005
20
-124.179
11
141.605
21
-124.779
0
LINE
8
BLACK
6
CONTINUOUS
10
180.34
20
-112.965
11
180.94
21
-112.365
0
LINE
8
BLACK
6
CONTINUOUS
10
180.94
20
-112.365
11
180.34
21
-111.765
0
LINE
8
BLACK
6
CONTINUOUS
10
180.34
20
-111.765
11
179.74
21
-112.365
0
LINE
8
BLACK
6
CONTINUOUS
10
179.74
20
-112.365
11
180.34
21
-112.965
0
LINE
8
BLACK
6
CONTINUOUS
10
180.34
20
-120.465
11
180.94
21
-119.865
0
LINE
8
BLACK
6
CONTINUOUS
10
180.94
20
-119.865
11
180.34
21
-119.265
0
LINE
8
BLACK
6
CONTINUOUS
10
180.34
20
-119.265
11
179.74
21
-119.865
0
LINE
8
BLACK
6
CONTINUOUS
10
179.74
20
-119.865
11
180.34
21
-120.465
0
LINE
8
BLACK
6
CONTINUOUS
10
200.449
20
-99.66
11
201.049
21
-99.06
0
LINE
8
BLACK
6
CONTINUOUS
10
201.049
20
-99.06
11
200.449
21
-98.46
0
LINE
8
BLACK
6
CONTINUOUS
10
200.449
20
-98.46
11
199.849
21
-99.06
0
LINE
8
BLACK
6
CONTINUOUS
10
199.849
20
-99.06
11
200.449
21
-99.66
0
LINE
8
BLACK
6
CONTINUOUS
10
205.449
20
-99.66
11
206.049
21
-99.06
0
LINE
8
BLACK
6
CONTINUOUS
10
206.049
20
-99.06
11
205.449
21
-98.46
0
LINE
8
BLACK
6
CONTINUOUS
10
205.449
20
-98.46
11
204.849
21
-99.06
0
LINE
8
BLACK
6
CONTINUOUS
10
204.849
20
-99.06
11
205.449
21
-99.66
0
LINE
8
BLACK
6
CONTINUOUS
10
116.933
20
-95.6631
11
118.233
21
-96.9631
0
LINE
8
BLACK
6
CONTINUOUS
10
118.233
20
-95.6631
11
116.933
21
-96.9631
0
CIRCLE
8
BLACK
10
117.583
20
-96.3131
40
0.65
0
LINE
8
BLACK
6
CONTINUOUS
10
121.173
20
-102.403
11
122.473
21
-103.703
0
LINE
8
BLACK
6
CONTINUOUS
10
122.473
20
-102.403
11
121.173
21
-103.703
0
CIRCLE
8
BLACK
10
121.823
20
-103.053
40
0.65
0
LINE
8
BLACK
6
CONTINUOUS
10
121.173
20
-107.483
11
122.473
21
-108.783
0
LINE
8
BLACK
6
CONTINUOUS
10
122.473
20
-107.483
11
121.173
21
-108.783
0
CIRCLE
8
BLACK
10
121.823
20
-108.133
40
0.65
0
LINE
8
BLACK
6
CONTINUOUS
10
140.043
20
-95.6631
11
141.343
21
-96.9631
0
LINE
8
BLACK
6
CONTINUOUS
10
141.343
20
-95.6631
11
140.043
21
-96.9631
0
CIRCLE
8
BLACK
10
140.693
20
-96.3131
40
0.65
0
LINE
8
BLACK
6
CONTINUOUS
10
201.61
20
-109.835
11
202.91
21
-111.135
0
LINE
8
BLACK
6
CONTINUOUS
10
202.91
20
-109.835
11
201.61
21
-111.135
0
CIRCLE
8
BLACK
10
202.26
20
-110.485
40
0.65
0
LINE
8
BLACK
6
CONTINUOUS
10
201.61
20
-114.915
11
202.91
21
-116.215
0
LINE
8
BLACK
6
CONTINUOUS
10
202.91
20
-114.915
11
201.61
21
-116.215
0
CIRCLE
8
BLACK
10
202.26
20
-115.565
40
0.65
0
LINE
8
BLACK
6
CONTINUOUS
10
148.425
20
-88.1
11
150.025
21
-89.7
0
LINE
8
BLACK
6
CONTINUOUS
10
150.025
20
-88.1
11
148.425
21
-89.7
0
LINE
8
BLACK
6
CONTINUOUS
10
149.225
20
-88.1
11
149.225
21
-89.7
0
LINE
8
BLACK
6
CONTINUOUS
10
148.425
20
-88.9
11
150.025
21
-88.9
0
LINE
8
BLACK
6
CONTINUOUS
10
148.425
20
-103.34
11
150.025
21
-104.94
0
LINE
8
BLACK
6
CONTINUOUS
10
150.025
20
-103.34
11
148.425
21
-104.94
0
LINE
8
BLACK
6
CONTINUOUS
10
149.225
20
-103.34
11
149.225
21
-104.94
0
LINE
8
BLACK
6
CONTINUOUS
10
148.425
20
-104.14
11
150.025
21
-104.14
0
LINE
8
BLACK
6
CONTINUOUS
10
123.493
20
-95.4631
11
125.193
21
-97.1631
0
LINE
8
BLACK
6
CONTINUOUS
10
125.193
20
-95.4631
11
123.493
21
-97.1631
0
LINE
8
BLACK
6
CONTINUOUS
10
124.944
20
-96.9141
11
124.944
21
-95.712
0
LINE
8
BLACK
6
CONTINUOUS
10
124.944
20
-95.712
11
123.742
21
-95.712
0
LINE
8
BLACK
6
CONTINUOUS
10
123.742
20
-95.712
11
123.742
21
-96.9141
0
LINE
8
BLACK
6
CONTINUOUS
10
123.742
20
-96.9141
11
124.944
21
-96.9141
0
LINE
8
BLACK
6
CONTINUOUS
10
133.083
20
-95.4631
11
134.783
21
-97.1631
0
LINE
8
BLACK
6
CONTINUOUS
10
134.783
20
-95.4631
11
133.083
21
-97.1631
0
LINE
8
BLACK
6
CONTINUOUS
10
134.534
20
-96.9141
11
134.534
21
-95.712
0
LINE
8
BLACK
6
CONTINUOUS
10
134.534
20
-95.712
11
133.332
21
-95.712
0
LINE
8
BLACK
6
CONTINUOUS
10
133.332
20
-95.712
11
133.332
21
-96.9141
0
LINE
8
BLACK
6
CONTINUOUS
10
133.332
20
-96.9141
11
134.534
21
-96.9141
0
LINE
8
BLACK
6
CONTINUOUS
10
114.921
20
-133.965
11
114.921
21
-131.965
0
LINE
8
BLACK
6
CONTINUOUS
10
114.921
20
-131.965
11
115.397
21
-131.965
0
LINE
8
BLACK
6
CONTINUOUS
10
115.397
20
-131.965
11
115.683
21
-132.06
0
LINE
8
BLACK
6
CONTINUOUS
10
115.683
20
-132.06
11
115.874
21
-132.25
0
LINE
8
BLACK
6
CONTINUOUS
10
115.874
20
-132.25
11
115.969
21
-132.441
0
LINE
8
BLACK
6
CONTINUOUS
10
115.969
20
-132.441
11
116.064
21
-132.822
0
LINE
8
BLACK
6
CONTINUOUS
10
116.064
20
-132.822
11
116.064
21
-133.108
0
LINE
8
BLACK
6
CONTINUOUS
10
116.064
20
-133.108
11
115.969
21
-133.489
0
LINE
8
BLACK
6
CONTINUOUS
10
115.969
20
-133.489
11
115.874
21
-133.679
0
LINE
8
BLACK
6
CONTINUOUS
10
115.874
20
-133.679
11
115.683
21
-133.87
0
LINE
8
BLACK
6
CONTINUOUS
10
115.683
20
-133.87
11
115.397
21
-133.965
0
LINE
8
BLACK
6
CONTINUOUS
10
115.397
20
-133.965
11
114.921
21
-133.965
0
LINE
8
BLACK
6
CONTINUOUS
10
116.921
20
-133.965
11
116.921
21
-132.631
0
LINE
8
BLACK
6
CONTINUOUS
10
116.921
20
-133.012
11
117.016
21
-132.822
0
LINE
8
BLACK
6
CONTINUOUS
10
117.016
20
-132.822
11
117.112
21
-132.727
0
LINE
8
BLACK
6
CONTINUOUS
10
117.112
20
-132.727
11
117.302
21
-132.631
0
LINE
8
BLACK
6
CONTINUOUS
10
117.302
20
-132.631
11
117.493
21
-132.631
0
LINE
8
BLACK
6
CONTINUOUS
10
118.159
20
-133.965
11
118.159
21
-132.631
0
LINE
8
BLACK
6
CONTINUOUS
10
118.159
20
-131.965
11
118.064
21
-132.06
0
LINE
8
BLACK
6
CONTINUOUS
10
118.064
20
-132.06
11
118.159
21
-132.155
0
LINE
8
BLACK
6
CONTINUOUS
10
118.159
20
-132.155
11
118.255
21
-132.06
0
LINE
8
BLACK
6
CONTINUOUS
10
118.255
20
-132.06
11
118.159
21
-131.965
0
LINE
8
BLACK
6
CONTINUOUS
10
118.159
20
-131.965
11
118.159
21
-132.155
0
LINE
8
BLACK
6
CONTINUOUS
10
119.397
20
-133.965
11
119.207
21
-133.87
0
LINE
8
BLACK
6
CONTINUOUS
10
119.207
20
-133.87
11
119.112
21
-133.679
0
LINE
8
BLACK
6
CONTINUOUS
10
119.112
20
-133.679
11
119.112
21
-131.965
0
LINE
8
BLACK
6
CONTINUOUS
10
120.445
20
-133.965
11
120.255
21
-133.87
0
LINE
8
BLACK
6
CONTINUOUS
10
120.255
20
-133.87
11
120.159
21
-133.679
0
LINE
8
BLACK
6
CONTINUOUS
10
120.159
20
-133.679
11
120.159
21
-131.965
0
LINE
8
BLACK
6
CONTINUOUS
10
122.731
20
-133.965
11
122.731
21
-131.965
0
LINE
8
BLACK
6
CONTINUOUS
10
122.731
20
-131.965
11
123.397
21
-133.393
0
LINE
8
BLACK
6
CONTINUOUS
10
123.397
20
-133.393
11
124.064
21
-131.965
0
LINE
8
BLACK
6
CONTINUOUS
10
124.064
20
-131.965
11
124.064
21
-133.965
0
LINE
8
BLACK
6
CONTINUOUS
10
125.874
20
-133.965
11
125.874
21
-132.917
0
LINE
8
BLACK
6
CONTINUOUS
10
125.874
20
-132.917
11
125.778
21
-132.727
0
LINE
8
BLACK
6
CONTINUOUS
10
125.778
20
-132.727
11
125.588
21
-132.631
0
LINE
8
BLACK
6
CONTINUOUS
10
125.588
20
-132.631
11
125.207
21
-132.631
0
LINE
8
BLACK
6
CONTINUOUS
10
125.207
20
-132.631
11
125.016
21
-132.727
0
LINE
8
BLACK
6
CONTINUOUS
10
125.874
20
-133.87
11
125.683
21
-133.965
0
LINE
8
BLACK
6
CONTINUOUS
10
125.683
20
-133.965
11
125.207
21
-133.965
0
LINE
8
BLACK
6
CONTINUOUS
10
125.207
20
-133.965
11
125.016
21
-133.87
0
LINE
8
BLACK
6
CONTINUOUS
10
125.016
20
-133.87
11
124.921
21
-133.679
0
LINE
8
BLACK
6
CONTINUOUS
10
124.921
20
-133.679
11
124.921
21
-133.489
0
LINE
8
BLACK
6
CONTINUOUS
10
124.921
20
-133.489
11
125.016
21
-133.298
0
LINE
8
BLACK
6
CONTINUOUS
10
125.016
20
-133.298
11
125.207
21
-133.203
0
LINE
8
BLACK
6
CONTINUOUS
10
125.207
20
-133.203
11
125.683
21
-133.203
0
LINE
8
BLACK
6
CONTINUOUS
10
125.683
20
-133.203
11
125.874
21
-133.108
0
LINE
8
BLACK
6
CONTINUOUS
10
126.826
20
-132.631
11
126.826
21
-134.631
0
LINE
8
BLACK
6
CONTINUOUS
10
126.826
20
-132.727
11
127.016
21
-132.631
0
LINE
8
BLACK
6
CONTINUOUS
10
127.016
20
-132.631
11
127.397
21
-132.631
0
LINE
8
BLACK
6
CONTINUOUS
10
127.397
20
-132.631
11
127.588
21
-132.727
0
LINE
8
BLACK
6
CONTINUOUS
10
127.588
20
-132.727
11
127.683
21
-132.822
0
LINE
8
BLACK
6
CONTINUOUS
10
127.683
20
-132.822
11
127.778
21
-133.012
0
LINE
8
BLACK
6
CONTINUOUS
10
127.778
20
-133.012
11
127.778
21
-133.584
0
LINE
8
BLACK
6
CONTINUOUS
10
127.778
20
-133.584
11
127.683
21
-133.774
0
LINE
8
BLACK
6
CONTINUOUS
10
127.683
20
-133.774
11
127.588
21
-133.87
0
LINE
8
BLACK
6
CONTINUOUS
10
127.588
20
-133.87
11
127.397
21
-133.965
0
LINE
8
BLACK
6
CONTINUOUS
10
127.397
20
-133.965
11
127.016
21
-133.965
0
LINE
8
BLACK
6
CONTINUOUS
10
127.016
20
-133.965
11
126.826
21
-133.87
0
LINE
8
BLACK
6
CONTINUOUS
10
128.635
20
-133.774
11
128.731
21
-133.87
0
LINE
8
BLACK
6
CONTINUOUS
10
128.731
20
-133.87
11
128.635
21
-133.965
0
LINE
8
BLACK
6
CONTINUOUS
10
128.635
20
-133.965
11
128.54
21
-133.87
0
LINE
8
BLACK
6
CONTINUOUS
10
128.54
20
-133.87
11
128.635
21
-133.774
0
LINE
8
BLACK
6
CONTINUOUS
10
128.635
20
-133.774
11
128.635
21
-133.965
0
LINE
8
BLACK
6
CONTINUOUS
10
128.635
20
-132.727
11
128.731
21
-132.822
0
LINE
8
BLACK
6
CONTINUOUS
10
128.731
20
-132.822
11
128.635
21
-132.917
0
LINE
8
BLACK
6
CONTINUOUS
10
128.635
20
-132.917
11
128.54
21
-132.822
0
LINE
8
BLACK
6
CONTINUOUS
10
128.54
20
-132.822
11
128.635
21
-132.727
0
LINE
8
BLACK
6
CONTINUOUS
10
128.635
20
-132.727
11
128.635
21
-132.917
0
LINE
8
BLACK
6
CONTINUOUS
10
111.545
20
-136.86
11
112.345
21
-137.66
0
LINE
8
BLACK
6
CONTINUOUS
10
112.345
20
-136.86
11
111.545
21
-137.66
0
LINE
8
BLACK
6
CONTINUOUS
10
115.302
20
-136.165
11
115.493
21
-136.165
0
LINE
8
BLACK
6
CONTINUOUS
10
115.493
20
-136.165
11
115.683
21
-136.26
0
LINE
8
BLACK
6
CONTINUOUS
10
115.683
20
-136.26
11
115.778
21
-136.355
0
LINE
8
BLACK
6
CONTINUOUS
10
115.778
20
-136.355
11
115.874
21
-136.546
0
LINE
8
BLACK
6
CONTINUOUS
10
115.874
20
-136.546
11
115.969
21
-136.927
0
LINE
8
BLACK
6
CONTINUOUS
10
115.969
20
-136.927
11
115.969
21
-137.403
0
LINE
8
BLACK
6
CONTINUOUS
10
115.969
20
-137.403
11
115.874
21
-137.784
0
LINE
8
BLACK
6
CONTINUOUS
10
115.874
20
-137.784
11
115.778
21
-137.974
0
LINE
8
BLACK
6
CONTINUOUS
10
115.778
20
-137.974
11
115.683
21
-138.07
0
LINE
8
BLACK
6
CONTINUOUS
10
115.683
20
-138.07
11
115.493
21
-138.165
0
LINE
8
BLACK
6
CONTINUOUS
10
115.493
20
-138.165
11
115.302
21
-138.165
0
LINE
8
BLACK
6
CONTINUOUS
10
115.302
20
-138.165
11
115.112
21
-138.07
0
LINE
8
BLACK
6
CONTINUOUS
10
115.112
20
-138.07
11
115.016
21
-137.974
0
LINE
8
BLACK
6
CONTINUOUS
10
115.016
20
-137.974
11
114.921
21
-137.784
0
LINE
8
BLACK
6
CONTINUOUS
10
114.921
20
-137.784
11
114.826
21
-137.403
0
LINE
8
BLACK
6
CONTINUOUS
10
114.826
20
-137.403
11
114.826
21
-136.927
0
LINE
8
BLACK
6
CONTINUOUS
10
114.826
20
-136.927
11
114.921
21
-136.546
0
LINE
8
BLACK
6
CONTINUOUS
10
114.921
20
-136.546
11
115.016
21
-136.355
0
LINE
8
BLACK
6
CONTINUOUS
10
115.016
20
-136.355
11
115.112
21
-136.26
0
LINE
8
BLACK
6
CONTINUOUS
10
115.112
20
-136.26
11
115.302
21
-136.165
0
LINE
8
BLACK
6
CONTINUOUS
10
116.826
20
-137.974
11
116.921
21
-138.07
0
LINE
8
BLACK
6
CONTINUOUS
10
116.921
20
-138.07
11
116.826
21
-138.165
0
LINE
8
BLACK
6
CONTINUOUS
10
116.826
20
-138.165
11
116.731
21
-138.07
0
LINE
8
BLACK
6
CONTINUOUS
10
116.731
20
-138.07
11
116.826
21
-137.974
0
LINE
8
BLACK
6
CONTINUOUS
10
116.826
20
-137.974
11
116.826
21
-138.165
0
LINE
8
BLACK
6
CONTINUOUS
10
118.064
20
-137.022
11
117.874
21
-136.927
0
LINE
8
BLACK
6
CONTINUOUS
10
117.874
20
-136.927
11
117.778
21
-136.831
0
LINE
8
BLACK
6
CONTINUOUS
10
117.778
20
-136.831
11
117.683
21
-136.641
0
LINE
8
BLACK
6
CONTINUOUS
10
117.683
20
-136.641
11
117.683
21
-136.546
0
LINE
8
BLACK
6
CONTINUOUS
10
117.683
20
-136.546
11
117.778
21
-136.355
0
LINE
8
BLACK
6
CONTINUOUS
10
117.778
20
-136.355
11
117.874
21
-136.26
0
LINE
8
BLACK
6
CONTINUOUS
10
117.874
20
-136.26
11
118.064
21
-136.165
0
LINE
8
BLACK
6
CONTINUOUS
10
118.064
20
-136.165
11
118.445
21
-136.165
0
LINE
8
BLACK
6
CONTINUOUS
10
118.445
20
-136.165
11
118.635
21
-136.26
0
LINE
8
BLACK
6
CONTINUOUS
10
118.635
20
-136.26
11
118.731
21
-136.355
0
LINE
8
BLACK
6
CONTINUOUS
10
118.731
20
-136.355
11
118.826
21
-136.546
0
LINE
8
BLACK
6
CONTINUOUS
10
118.826
20
-136.546
11
118.826
21
-136.641
0
LINE
8
BLACK
6
CONTINUOUS
10
118.826
20
-136.641
11
118.731
21
-136.831
0
LINE
8
BLACK
6
CONTINUOUS
10
118.731
20
-136.831
11
118.635
21
-136.927
0
LINE
8
BLACK
6
CONTINUOUS
10
118.635
20
-136.927
11
118.445
21
-137.022
0
LINE
8
BLACK
6
CONTINUOUS
10
118.445
20
-137.022
11
118.064
21
-137.022
0
LINE
8
BLACK
6
CONTINUOUS
10
118.064
20
-137.022
11
117.874
21
-137.117
0
LINE
8
BLACK
6
CONTINUOUS
10
117.874
20
-137.117
11
117.778
21
-137.212
0
LINE
8
BLACK
6
CONTINUOUS
10
117.778
20
-137.212
11
117.683
21
-137.403
0
LINE
8
BLACK
6
CONTINUOUS
10
117.683
20
-137.403
11
117.683
21
-137.784
0
LINE
8
BLACK
6
CONTINUOUS
10
117.683
20
-137.784
11
117.778
21
-137.974
0
LINE
8
BLACK
6
CONTINUOUS
10
117.778
20
-137.974
11
117.874
21
-138.07
0
LINE
8
BLACK
6
CONTINUOUS
10
117.874
20
-138.07
11
118.064
21
-138.165
0
LINE
8
BLACK
6
CONTINUOUS
10
118.064
20
-138.165
11
118.445
21
-138.165
0
LINE
8
BLACK
6
CONTINUOUS
10
118.445
20
-138.165
11
118.635
21
-138.07
0
LINE
8
BLACK
6
CONTINUOUS
10
118.635
20
-138.07
11
118.731
21
-137.974
0
LINE
8
BLACK
6
CONTINUOUS
10
118.731
20
-137.974
11
118.826
21
-137.784
0
LINE
8
BLACK
6
CONTINUOUS
10
118.826
20
-137.784
11
118.826
21
-137.403
0
LINE
8
BLACK
6
CONTINUOUS
10
118.826
20
-137.403
11
118.731
21
-137.212
0
LINE
8
BLACK
6
CONTINUOUS
10
118.731
20
-137.212
11
118.635
21
-137.117
0
LINE
8
BLACK
6
CONTINUOUS
10
118.635
20
-137.117
11
118.445
21
-137.022
0
LINE
8
BLACK
6
CONTINUOUS
10
120.064
20
-136.165
11
120.255
21
-136.165
0
LINE
8
BLACK
6
CONTINUOUS
10
120.255
20
-136.165
11
120.445
21
-136.26
0
LINE
8
BLACK
6
CONTINUOUS
10
120.445
20
-136.26
11
120.54
21
-136.355
0
LINE
8
BLACK
6
CONTINUOUS
10
120.54
20
-136.355
11
120.635
21
-136.546
0
LINE
8
BLACK
6
CONTINUOUS
10
120.635
20
-136.546
11
120.731
21
-136.927
0
LINE
8
BLACK
6
CONTINUOUS
10
120.731
20
-136.927
11
120.731
21
-137.403
0
LINE
8
BLACK
6
CONTINUOUS
10
120.731
20
-137.403
11
120.635
21
-137.784
0
LINE
8
BLACK
6
CONTINUOUS
10
120.635
20
-137.784
11
120.54
21
-137.974
0
LINE
8
BLACK
6
CONTINUOUS
10
120.54
20
-137.974
11
120.445
21
-138.07
0
LINE
8
BLACK
6
CONTINUOUS
10
120.445
20
-138.07
11
120.255
21
-138.165
0
LINE
8
BLACK
6
CONTINUOUS
10
120.255
20
-138.165
11
120.064
21
-138.165
0
LINE
8
BLACK
6
CONTINUOUS
10
120.064
20
-138.165
11
119.874
21
-138.07
0
LINE
8
BLACK
6
CONTINUOUS
10
119.874
20
-138.07
11
119.778
21
-137.974
0
LINE
8
BLACK
6
CONTINUOUS
10
119.778
20
-137.974
11
119.683
21
-137.784
0
LINE
8
BLACK
6
CONTINUOUS
10
119.683
20
-137.784
11
119.588
21
-137.403
0
LINE
8
BLACK
6
CONTINUOUS
10
119.588
20
-137.403
11
119.588
21
-136.927
0
LINE
8
BLACK
6
CONTINUOUS
10
119.588
20
-136.927
11
119.683
21
-136.546
0
LINE
8
BLACK
6
CONTINUOUS
10
119.683
20
-136.546
11
119.778
21
-136.355
0
LINE
8
BLACK
6
CONTINUOUS
10
119.778
20
-136.355
11
119.874
21
-136.26
0
LINE
8
BLACK
6
CONTINUOUS
10
119.874
20
-136.26
11
120.064
21
-136.165
0
LINE
8
BLACK
6
CONTINUOUS
10
121.969
20
-136.165
11
122.159
21
-136.165
0
LINE
8
BLACK
6
CONTINUOUS
10
122.159
20
-136.165
11
122.35
21
-136.26
0
LINE
8
BLACK
6
CONTINUOUS
10
122.35
20
-136.26
11
122.445
21
-136.355
0
LINE
8
BLACK
6
CONTINUOUS
10
122.445
20
-136.355
11
122.54
21
-136.546
0
LINE
8
BLACK
6
CONTINUOUS
10
122.54
20
-136.546
11
122.635
21
-136.927
0
LINE
8
BLACK
6
CONTINUOUS
10
122.635
20
-136.927
11
122.635
21
-137.403
0
LINE
8
BLACK
6
CONTINUOUS
10
122.635
20
-137.403
11
122.54
21
-137.784
0
LINE
8
BLACK
6
CONTINUOUS
10
122.54
20
-137.784
11
122.445
21
-137.974
0
LINE
8
BLACK
6
CONTINUOUS
10
122.445
20
-137.974
11
122.35
21
-138.07
0
LINE
8
BLACK
6
CONTINUOUS
10
122.35
20
-138.07
11
122.159
21
-138.165
0
LINE
8
BLACK
6
CONTINUOUS
10
122.159
20
-138.165
11
121.969
21
-138.165
0
LINE
8
BLACK
6
CONTINUOUS
10
121.969
20
-138.165
11
121.778
21
-138.07
0
LINE
8
BLACK
6
CONTINUOUS
10
121.778
20
-138.07
11
121.683
21
-137.974
0
LINE
8
BLACK
6
CONTINUOUS
10
121.683
20
-137.974
11
121.588
21
-137.784
0
LINE
8
BLACK
6
CONTINUOUS
10
121.588
20
-137.784
11
121.493
21
-137.403
0
LINE
8
BLACK
6
CONTINUOUS
10
121.493
20
-137.403
11
121.493
21
-136.927
0
LINE
8
BLACK
6
CONTINUOUS
10
121.493
20
-136.927
11
121.588
21
-136.546
0
LINE
8
BLACK
6
CONTINUOUS
10
121.588
20
-136.546
11
121.683
21
-136.355
0
LINE
8
BLACK
6
CONTINUOUS
10
121.683
20
-136.355
11
121.778
21
-136.26
0
LINE
8
BLACK
6
CONTINUOUS
10
121.778
20
-136.26
11
121.969
21
-136.165
0
LINE
8
BLACK
6
CONTINUOUS
10
123.493
20
-138.165
11
123.493
21
-136.831
0
LINE
8
BLACK
6
CONTINUOUS
10
123.493
20
-137.022
11
123.588
21
-136.927
0
LINE
8
BLACK
6
CONTINUOUS
10
123.588
20
-136.927
11
123.778
21
-136.831
0
LINE
8
BLACK
6
CONTINUOUS
10
123.778
20
-136.831
11
124.064
21
-136.831
0
LINE
8
BLACK
6
CONTINUOUS
10
124.064
20
-136.831
11
124.255
21
-136.927
0
LINE
8
BLACK
6
CONTINUOUS
10
124.255
20
-136.927
11
124.35
21
-137.117
0
LINE
8
BLACK
6
CONTINUOUS
10
124.35
20
-137.117
11
124.35
21
-138.165
0
LINE
8
BLACK
6
CONTINUOUS
10
124.35
20
-137.117
11
124.445
21
-136.927
0
LINE
8
BLACK
6
CONTINUOUS
10
124.445
20
-136.927
11
124.635
21
-136.831
0
LINE
8
BLACK
6
CONTINUOUS
10
124.635
20
-136.831
11
124.921
21
-136.831
0
LINE
8
BLACK
6
CONTINUOUS
10
124.921
20
-136.831
11
125.112
21
-136.927
0
LINE
8
BLACK
6
CONTINUOUS
10
125.112
20
-136.927
11
125.207
21
-137.117
0
LINE
8
BLACK
6
CONTINUOUS
10
125.207
20
-137.117
11
125.207
21
-138.165
0
LINE
8
BLACK
6
CONTINUOUS
10
126.159
20
-138.165
11
126.159
21
-136.831
0
LINE
8
BLACK
6
CONTINUOUS
10
126.159
20
-137.022
11
126.255
21
-136.927
0
LINE
8
BLACK
6
CONTINUOUS
10
126.255
20
-136.927
11
126.445
21
-136.831
0
LINE
8
BLACK
6
CONTINUOUS
10
126.445
20
-136.831
11
126.731
21
-136.831
0
LINE
8
BLACK
6
CONTINUOUS
10
126.731
20
-136.831
11
126.921
21
-136.927
0
LINE
8
BLACK
6
CONTINUOUS
10
126.921
20
-136.927
11
127.016
21
-137.117
0
LINE
8
BLACK
6
CONTINUOUS
10
127.016
20
-137.117
11
127.016
21
-138.165
0
LINE
8
BLACK
6
CONTINUOUS
10
127.016
20
-137.117
11
127.112
21
-136.927
0
LINE
8
BLACK
6
CONTINUOUS
10
127.112
20
-136.927
11
127.302
21
-136.831
0
LINE
8
BLACK
6
CONTINUOUS
10
127.302
20
-136.831
11
127.588
21
-136.831
0
LINE
8
BLACK
6
CONTINUOUS
10
127.588
20
-136.831
11
127.778
21
-136.927
0
LINE
8
BLACK
6
CONTINUOUS
10
127.778
20
-136.927
11
127.874
21
-137.117
0
LINE
8
BLACK
6
CONTINUOUS
10
127.874
20
-137.117
11
127.874
21
-138.165
0
LINE
8
BLACK
6
CONTINUOUS
10
131.778
20
-136.07
11
130.064
21
-138.641
0
LINE
8
BLACK
6
CONTINUOUS
10
134.35
20
-136.165
11
134.54
21
-136.165
0
LINE
8
BLACK
6
CONTINUOUS
10
134.54
20
-136.165
11
134.731
21
-136.26
0
LINE
8
BLACK
6
CONTINUOUS
10
134.731
20
-136.26
11
134.826
21
-136.355
0
LINE
8
BLACK
6
CONTINUOUS
10
134.826
20
-136.355
11
134.921
21
-136.546
0
LINE
8
BLACK
6
CONTINUOUS
10
134.921
20
-136.546
11
135.016
21
-136.927
0
LINE
8
BLACK
6
CONTINUOUS
10
135.016
20
-136.927
11
135.016
21
-137.403
0
LINE
8
BLACK
6
CONTINUOUS
10
135.016
20
-137.403
11
134.921
21
-137.784
0
LINE
8
BLACK
6
CONTINUOUS
10
134.921
20
-137.784
11
134.826
21
-137.974
0
LINE
8
BLACK
6
CONTINUOUS
10
134.826
20
-137.974
11
134.731
21
-138.07
0
LINE
8
BLACK
6
CONTINUOUS
10
134.731
20
-138.07
11
134.54
21
-138.165
0
LINE
8
BLACK
6
CONTINUOUS
10
134.54
20
-138.165
11
134.35
21
-138.165
0
LINE
8
BLACK
6
CONTINUOUS
10
134.35
20
-138.165
11
134.159
21
-138.07
0
LINE
8
BLACK
6
CONTINUOUS
10
134.159
20
-138.07
11
134.064
21
-137.974
0
LINE
8
BLACK
6
CONTINUOUS
10
134.064
20
-137.974
11
133.969
21
-137.784
0
LINE
8
BLACK
6
CONTINUOUS
10
133.969
20
-137.784
11
133.874
21
-137.403
0
LINE
8
BLACK
6
CONTINUOUS
10
133.874
20
-137.403
11
133.874
21
-136.927
0
LINE
8
BLACK
6
CONTINUOUS
10
133.874
20
-136.927
11
133.969
21
-136.546
0
LINE
8
BLACK
6
CONTINUOUS
10
133.969
20
-136.546
11
134.064
21
-136.355
0
LINE
8
BLACK
6
CONTINUOUS
10
134.064
20
-136.355
11
134.159
21
-136.26
0
LINE
8
BLACK
6
CONTINUOUS
10
134.159
20
-136.26
11
134.35
21
-136.165
0
LINE
8
BLACK
6
CONTINUOUS
10
135.874
20
-137.974
11
135.969
21
-138.07
0
LINE
8
BLACK
6
CONTINUOUS
10
135.969
20
-138.07
11
135.874
21
-138.165
0
LINE
8
BLACK
6
CONTINUOUS
10
135.874
20
-138.165
11
135.778
21
-138.07
0
LINE
8
BLACK
6
CONTINUOUS
10
135.778
20
-138.07
11
135.874
21
-137.974
0
LINE
8
BLACK
6
CONTINUOUS
10
135.874
20
-137.974
11
135.874
21
-138.165
0
LINE
8
BLACK
6
CONTINUOUS
10
137.207
20
-136.165
11
137.397
21
-136.165
0
LINE
8
BLACK
6
CONTINUOUS
10
137.397
20
-136.165
11
137.588
21
-136.26
0
LINE
8
BLACK
6
CONTINUOUS
10
137.588
20
-136.26
11
137.683
21
-136.355
0
LINE
8
BLACK
6
CONTINUOUS
10
137.683
20
-136.355
11
137.778
21
-136.546
0
LINE
8
BLACK
6
CONTINUOUS
10
137.778
20
-136.546
11
137.874
21
-136.927
0
LINE
8
BLACK
6
CONTINUOUS
10
137.874
20
-136.927
11
137.874
21
-137.403
0
LINE
8
BLACK
6
CONTINUOUS
10
137.874
20
-137.403
11
137.778
21
-137.784
0
LINE
8
BLACK
6
CONTINUOUS
10
137.778
20
-137.784
11
137.683
21
-137.974
0
LINE
8
BLACK
6
CONTINUOUS
10
137.683
20
-137.974
11
137.588
21
-138.07
0
LINE
8
BLACK
6
CONTINUOUS
10
137.588
20
-138.07
11
137.397
21
-138.165
0
LINE
8
BLACK
6
CONTINUOUS
10
137.397
20
-138.165
11
137.207
21
-138.165
0
LINE
8
BLACK
6
CONTINUOUS
10
137.207
20
-138.165
11
137.016
21
-138.07
0
LINE
8
BLACK
6
CONTINUOUS
10
137.016
20
-138.07
11
136.921
21
-137.974
0
LINE
8
BLACK
6
CONTINUOUS
10
136.921
20
-137.974
11
136.826
21
-137.784
0
LINE
8
BLACK
6
CONTINUOUS
10
136.826
20
-137.784
11
136.731
21
-137.403
0
LINE
8
BLACK
6
CONTINUOUS
10
136.731
20
-137.403
11
136.731
21
-136.927
0
LINE
8
BLACK
6
CONTINUOUS
10
136.731
20
-136.927
11
136.826
21
-136.546
0
LINE
8
BLACK
6
CONTINUOUS
10
136.826
20
-136.546
11
136.921
21
-136.355
0
LINE
8
BLACK
6
CONTINUOUS
10
136.921
20
-136.355
11
137.016
21
-136.26
0
LINE
8
BLACK
6
CONTINUOUS
10
137.016
20
-136.26
11
137.207
21
-136.165
0
LINE
8
BLACK
6
CONTINUOUS
10
138.54
20
-136.165
11
139.778
21
-136.165
0
LINE
8
BLACK
6
CONTINUOUS
10
139.778
20
-136.165
11
139.112
21
-136.927
0
LINE
8
BLACK
6
CONTINUOUS
10
139.112
20
-136.927
11
139.397
21
-136.927
0
LINE
8
BLACK
6
CONTINUOUS
10
139.397
20
-136.927
11
139.588
21
-137.022
0
LINE
8
BLACK
6
CONTINUOUS
10
139.588
20
-137.022
11
139.683
21
-137.117
0
LINE
8
BLACK
6
CONTINUOUS
10
139.683
20
-137.117
11
139.778
21
-137.308
0
LINE
8
BLACK
6
CONTINUOUS
10
139.778
20
-137.308
11
139.778
21
-137.784
0
LINE
8
BLACK
6
CONTINUOUS
10
139.778
20
-137.784
11
139.683
21
-137.974
0
LINE
8
BLACK
6
CONTINUOUS
10
139.683
20
-137.974
11
139.588
21
-138.07
0
LINE
8
BLACK
6
CONTINUOUS
10
139.588
20
-138.07
11
139.397
21
-138.165
0
LINE
8
BLACK
6
CONTINUOUS
10
139.397
20
-138.165
11
138.826
21
-138.165
0
LINE
8
BLACK
6
CONTINUOUS
10
138.826
20
-138.165
11
138.635
21
-138.07
0
LINE
8
BLACK
6
CONTINUOUS
10
138.635
20
-138.07
11
138.54
21
-137.974
0
LINE
8
BLACK
6
CONTINUOUS
10
141.683
20
-138.165
11
140.54
21
-138.165
0
LINE
8
BLACK
6
CONTINUOUS
10
141.112
20
-138.165
11
141.112
21
-136.165
0
LINE
8
BLACK
6
CONTINUOUS
10
141.112
20
-136.165
11
140.921
21
-136.45
0
LINE
8
BLACK
6
CONTINUOUS
10
140.921
20
-136.45
11
140.731
21
-136.641
0
LINE
8
BLACK
6
CONTINUOUS
10
140.731
20
-136.641
11
140.54
21
-136.736
0
LINE
8
BLACK
6
CONTINUOUS
10
143.493
20
-136.165
11
142.54
21
-136.165
0
LINE
8
BLACK
6
CONTINUOUS
10
142.54
20
-136.165
11
142.445
21
-137.117
0
LINE
8
BLACK
6
CONTINUOUS
10
142.445
20
-137.117
11
142.54
21
-137.022
0
LINE
8
BLACK
6
CONTINUOUS
10
142.54
20
-137.022
11
142.731
21
-136.927
0
LINE
8
BLACK
6
CONTINUOUS
10
142.731
20
-136.927
11
143.207
21
-136.927
0
LINE
8
BLACK
6
CONTINUOUS
10
143.207
20
-136.927
11
143.397
21
-137.022
0
LINE
8
BLACK
6
CONTINUOUS
10
143.397
20
-137.022
11
143.493
21
-137.117
0
LINE
8
BLACK
6
CONTINUOUS
10
143.493
20
-137.117
11
143.588
21
-137.308
0
LINE
8
BLACK
6
CONTINUOUS
10
143.588
20
-137.308
11
143.588
21
-137.784
0
LINE
8
BLACK
6
CONTINUOUS
10
143.588
20
-137.784
11
143.493
21
-137.974
0
LINE
8
BLACK
6
CONTINUOUS
10
143.493
20
-137.974
11
143.397
21
-138.07
0
LINE
8
BLACK
6
CONTINUOUS
10
143.397
20
-138.07
11
143.207
21
-138.165
0
LINE
8
BLACK
6
CONTINUOUS
10
143.207
20
-138.165
11
142.731
21
-138.165
0
LINE
8
BLACK
6
CONTINUOUS
10
142.731
20
-138.165
11
142.54
21
-138.07
0
LINE
8
BLACK
6
CONTINUOUS
10
142.54
20
-138.07
11
142.445
21
-137.974
0
LINE
8
BLACK
6
CONTINUOUS
10
144.35
20
-136.165
11
144.35
21
-136.546
0
LINE
8
BLACK
6
CONTINUOUS
10
145.112
20
-136.165
11
145.112
21
-136.546
0
LINE
8
BLACK
6
CONTINUOUS
10
148.064
20
-138.927
11
147.969
21
-138.831
0
LINE
8
BLACK
6
CONTINUOUS
10
147.969
20
-138.831
11
147.778
21
-138.546
0
LINE
8
BLACK
6
CONTINUOUS
10
147.778
20
-138.546
11
147.683
21
-138.355
0
LINE
8
BLACK
6
CONTINUOUS
10
147.683
20
-138.355
11
147.588
21
-138.07
0
LINE
8
BLACK
6
CONTINUOUS
10
147.588
20
-138.07
11
147.493
21
-137.593
0
LINE
8
BLACK
6
CONTINUOUS
10
147.493
20
-137.593
11
147.493
21
-137.212
0
LINE
8
BLACK
6
CONTINUOUS
10
147.493
20
-137.212
11
147.588
21
-136.736
0
LINE
8
BLACK
6
CONTINUOUS
10
147.588
20
-136.736
11
147.683
21
-136.45
0
LINE
8
BLACK
6
CONTINUOUS
10
147.683
20
-136.45
11
147.778
21
-136.26
0
LINE
8
BLACK
6
CONTINUOUS
10
147.778
20
-136.26
11
147.969
21
-135.974
0
LINE
8
BLACK
6
CONTINUOUS
10
147.969
20
-135.974
11
148.064
21
-135.879
0
LINE
8
BLACK
6
CONTINUOUS
10
149.874
20
-138.165
11
148.731
21
-138.165
0
LINE
8
BLACK
6
CONTINUOUS
10
149.302
20
-138.165
11
149.302
21
-136.165
0
LINE
8
BLACK
6
CONTINUOUS
10
149.302
20
-136.165
11
149.112
21
-136.45
0
LINE
8
BLACK
6
CONTINUOUS
10
149.112
20
-136.45
11
148.921
21
-136.641
0
LINE
8
BLACK
6
CONTINUOUS
10
148.921
20
-136.641
11
148.731
21
-136.736
0
LINE
8
BLACK
6
CONTINUOUS
10
150.54
20
-136.165
11
151.874
21
-136.165
0
LINE
8
BLACK
6
CONTINUOUS
10
151.874
20
-136.165
11
151.016
21
-138.165
0
LINE
8
BLACK
6
CONTINUOUS
10
154.159
20
-138.165
11
154.159
21
-136.165
0
LINE
8
BLACK
6
CONTINUOUS
10
155.016
20
-138.165
11
155.016
21
-137.117
0
LINE
8
BLACK
6
CONTINUOUS
10
155.016
20
-137.117
11
154.921
21
-136.927
0
LINE
8
BLACK
6
CONTINUOUS
10
154.921
20
-136.927
11
154.731
21
-136.831
0
LINE
8
BLACK
6
CONTINUOUS
10
154.731
20
-136.831
11
154.445
21
-136.831
0
LINE
8
BLACK
6
CONTINUOUS
10
154.445
20
-136.831
11
154.255
21
-136.927
0
LINE
8
BLACK
6
CONTINUOUS
10
154.255
20
-136.927
11
154.159
21
-137.022
0
LINE
8
BLACK
6
CONTINUOUS
10
156.255
20
-138.165
11
156.064
21
-138.07
0
LINE
8
BLACK
6
CONTINUOUS
10
156.064
20
-138.07
11
155.969
21
-137.974
0
LINE
8
BLACK
6
CONTINUOUS
10
155.969
20
-137.974
11
155.874
21
-137.784
0
LINE
8
BLACK
6
CONTINUOUS
10
155.874
20
-137.784
11
155.874
21
-137.212
0
LINE
8
BLACK
6
CONTINUOUS
10
155.874
20
-137.212
11
155.969
21
-137.022
0
LINE
8
BLACK
6
CONTINUOUS
10
155.969
20
-137.022
11
156.064
21
-136.927
0
LINE
8
BLACK
6
CONTINUOUS
10
156.064
20
-136.927
11
156.255
21
-136.831
0
LINE
8
BLACK
6
CONTINUOUS
10
156.255
20
-136.831
11
156.54
21
-136.831
0
LINE
8
BLACK
6
CONTINUOUS
10
156.54
20
-136.831
11
156.731
21
-136.927
0
LINE
8
BLACK
6
CONTINUOUS
10
156.731
20
-136.927
11
156.826
21
-137.022
0
LINE
8
BLACK
6
CONTINUOUS
10
156.826
20
-137.022
11
156.921
21
-137.212
0
LINE
8
BLACK
6
CONTINUOUS
10
156.921
20
-137.212
11
156.921
21
-137.784
0
LINE
8
BLACK
6
CONTINUOUS
10
156.921
20
-137.784
11
156.826
21
-137.974
0
LINE
8
BLACK
6
CONTINUOUS
10
156.826
20
-137.974
11
156.731
21
-138.07
0
LINE
8
BLACK
6
CONTINUOUS
10
156.731
20
-138.07
11
156.54
21
-138.165
0
LINE
8
BLACK
6
CONTINUOUS
10
156.54
20
-138.165
11
156.255
21
-138.165
0
LINE
8
BLACK
6
CONTINUOUS
10
158.064
20
-138.165
11
157.874
21
-138.07
0
LINE
8
BLACK
6
CONTINUOUS
10
157.874
20
-138.07
11
157.778
21
-137.879
0
LINE
8
BLACK
6
CONTINUOUS
10
157.778
20
-137.879
11
157.778
21
-136.165
0
LINE
8
BLACK
6
CONTINUOUS
10
159.588
20
-138.07
11
159.397
21
-138.165
0
LINE
8
BLACK
6
CONTINUOUS
10
159.397
20
-138.165
11
159.016
21
-138.165
0
LINE
8
BLACK
6
CONTINUOUS
10
159.016
20
-138.165
11
158.826
21
-138.07
0
LINE
8
BLACK
6
CONTINUOUS
10
158.826
20
-138.07
11
158.731
21
-137.879
0
LINE
8
BLACK
6
CONTINUOUS
10
158.731
20
-137.879
11
158.731
21
-137.117
0
LINE
8
BLACK
6
CONTINUOUS
10
158.731
20
-137.117
11
158.826
21
-136.927
0
LINE
8
BLACK
6
CONTINUOUS
10
158.826
20
-136.927
11
159.016
21
-136.831
0
LINE
8
BLACK
6
CONTINUOUS
10
159.016
20
-136.831
11
159.397
21
-136.831
0
LINE
8
BLACK
6
CONTINUOUS
10
159.397
20
-136.831
11
159.588
21
-136.927
0
LINE
8
BLACK
6
CONTINUOUS
10
159.588
20
-136.927
11
159.683
21
-137.117
0
LINE
8
BLACK
6
CONTINUOUS
10
159.683
20
-137.117
11
159.683
21
-137.308
0
LINE
8
BLACK
6
CONTINUOUS
10
159.683
20
-137.308
11
158.731
21
-137.498
0
LINE
8
BLACK
6
CONTINUOUS
10
160.445
20
-138.07
11
160.635
21
-138.165
0
LINE
8
BLACK
6
CONTINUOUS
10
160.635
20
-138.165
11
161.016
21
-138.165
0
LINE
8
BLACK
6
CONTINUOUS
10
161.016
20
-138.165
11
161.207
21
-138.07
0
LINE
8
BLACK
6
CONTINUOUS
10
161.207
20
-138.07
11
161.302
21
-137.879
0
LINE
8
BLACK
6
CONTINUOUS
10
161.302
20
-137.879
11
161.302
21
-137.784
0
LINE
8
BLACK
6
CONTINUOUS
10
161.302
20
-137.784
11
161.207
21
-137.593
0
LINE
8
BLACK
6
CONTINUOUS
10
161.207
20
-137.593
11
161.016
21
-137.498
0
LINE
8
BLACK
6
CONTINUOUS
10
161.016
20
-137.498
11
160.731
21
-137.498
0
LINE
8
BLACK
6
CONTINUOUS
10
160.731
20
-137.498
11
160.54
21
-137.403
0
LINE
8
BLACK
6
CONTINUOUS
10
160.54
20
-137.403
11
160.445
21
-137.212
0
LINE
8
BLACK
6
CONTINUOUS
10
160.445
20
-137.212
11
160.445
21
-137.117
0
LINE
8
BLACK
6
CONTINUOUS
10
160.445
20
-137.117
11
160.54
21
-136.927
0
LINE
8
BLACK
6
CONTINUOUS
10
160.54
20
-136.927
11
160.731
21
-136.831
0
LINE
8
BLACK
6
CONTINUOUS
10
160.731
20
-136.831
11
161.016
21
-136.831
0
LINE
8
BLACK
6
CONTINUOUS
10
161.016
20
-136.831
11
161.207
21
-136.927
0
LINE
8
BLACK
6
CONTINUOUS
10
161.969
20
-138.927
11
162.064
21
-138.831
0
LINE
8
BLACK
6
CONTINUOUS
10
162.064
20
-138.831
11
162.255
21
-138.546
0
LINE
8
BLACK
6
CONTINUOUS
10
162.255
20
-138.546
11
162.35
21
-138.355
0
LINE
8
BLACK
6
CONTINUOUS
10
162.35
20
-138.355
11
162.445
21
-138.07
0
LINE
8
BLACK
6
CONTINUOUS
10
162.445
20
-138.07
11
162.54
21
-137.593
0
LINE
8
BLACK
6
CONTINUOUS
10
162.54
20
-137.593
11
162.54
21
-137.212
0
LINE
8
BLACK
6
CONTINUOUS
10
162.54
20
-137.212
11
162.445
21
-136.736
0
LINE
8
BLACK
6
CONTINUOUS
10
162.445
20
-136.736
11
162.35
21
-136.45
0
LINE
8
BLACK
6
CONTINUOUS
10
162.35
20
-136.45
11
162.255
21
-136.26
0
LINE
8
BLACK
6
CONTINUOUS
10
162.255
20
-136.26
11
162.064
21
-135.974
0
LINE
8
BLACK
6
CONTINUOUS
10
162.064
20
-135.974
11
161.969
21
-135.879
0
CIRCLE
8
BLACK
10
111.895
20
-139.9
40
0.45
0
LINE
8
BLACK
6
CONTINUOUS
10
115.302
20
-138.805
11
115.493
21
-138.805
0
LINE
8
BLACK
6
CONTINUOUS
10
115.493
20
-138.805
11
115.683
21
-138.9
0
LINE
8
BLACK
6
CONTINUOUS
10
115.683
20
-138.9
11
115.778
21
-138.995
0
LINE
8
BLACK
6
CONTINUOUS
10
115.778
20
-138.995
11
115.874
21
-139.186
0
LINE
8
BLACK
6
CONTINUOUS
10
115.874
20
-139.186
11
115.969
21
-139.567
0
LINE
8
BLACK
6
CONTINUOUS
10
115.969
20
-139.567
11
115.969
21
-140.043
0
LINE
8
BLACK
6
CONTINUOUS
10
115.969
20
-140.043
11
115.874
21
-140.424
0
LINE
8
BLACK
6
CONTINUOUS
10
115.874
20
-140.424
11
115.778
21
-140.614
0
LINE
8
BLACK
6
CONTINUOUS
10
115.778
20
-140.614
11
115.683
21
-140.71
0
LINE
8
BLACK
6
CONTINUOUS
10
115.683
20
-140.71
11
115.493
21
-140.805
0
LINE
8
BLACK
6
CONTINUOUS
10
115.493
20
-140.805
11
115.302
21
-140.805
0
LINE
8
BLACK
6
CONTINUOUS
10
115.302
20
-140.805
11
115.112
21
-140.71
0
LINE
8
BLACK
6
CONTINUOUS
10
115.112
20
-140.71
11
115.016
21
-140.614
0
LINE
8
BLACK
6
CONTINUOUS
10
115.016
20
-140.614
11
114.921
21
-140.424
0
LINE
8
BLACK
6
CONTINUOUS
10
114.921
20
-140.424
11
114.826
21
-140.043
0
LINE
8
BLACK
6
CONTINUOUS
10
114.826
20
-140.043
11
114.826
21
-139.567
0
LINE
8
BLACK
6
CONTINUOUS
10
114.826
20
-139.567
11
114.921
21
-139.186
0
LINE
8
BLACK
6
CONTINUOUS
10
114.921
20
-139.186
11
115.016
21
-138.995
0
LINE
8
BLACK
6
CONTINUOUS
10
115.016
20
-138.995
11
115.112
21
-138.9
0
LINE
8
BLACK
6
CONTINUOUS
10
115.112
20
-138.9
11
115.302
21
-138.805
0
LINE
8
BLACK
6
CONTINUOUS
10
116.826
20
-140.614
11
116.921
21
-140.71
0
LINE
8
BLACK
6
CONTINUOUS
10
116.921
20
-140.71
11
116.826
21
-140.805
0
LINE
8
BLACK
6
CONTINUOUS
10
116.826
20
-140.805
11
116.731
21
-140.71
0
LINE
8
BLACK
6
CONTINUOUS
10
116.731
20
-140.71
11
116.826
21
-140.614
0
LINE
8
BLACK
6
CONTINUOUS
10
116.826
20
-140.614
11
116.826
21
-140.805
0
LINE
8
BLACK
6
CONTINUOUS
10
117.874
20
-140.805
11
118.255
21
-140.805
0
LINE
8
BLACK
6
CONTINUOUS
10
118.255
20
-140.805
11
118.445
21
-140.71
0
LINE
8
BLACK
6
CONTINUOUS
10
118.445
20
-140.71
11
118.54
21
-140.614
0
LINE
8
BLACK
6
CONTINUOUS
10
118.54
20
-140.614
11
118.731
21
-140.329
0
LINE
8
BLACK
6
CONTINUOUS
10
118.731
20
-140.329
11
118.826
21
-139.948
0
LINE
8
BLACK
6
CONTINUOUS
10
118.826
20
-139.948
11
118.826
21
-139.186
0
LINE
8
BLACK
6
CONTINUOUS
10
118.826
20
-139.186
11
118.731
21
-138.995
0
LINE
8
BLACK
6
CONTINUOUS
10
118.731
20
-138.995
11
118.635
21
-138.9
0
LINE
8
BLACK
6
CONTINUOUS
10
118.635
20
-138.9
11
118.445
21
-138.805
0
LINE
8
BLACK
6
CONTINUOUS
10
118.445
20
-138.805
11
118.064
21
-138.805
0
LINE
8
BLACK
6
CONTINUOUS
10
118.064
20
-138.805
11
117.874
21
-138.9
0
LINE
8
BLACK
6
CONTINUOUS
10
117.874
20
-138.9
11
117.778
21
-138.995
0
LINE
8
BLACK
6
CONTINUOUS
10
117.778
20
-138.995
11
117.683
21
-139.186
0
LINE
8
BLACK
6
CONTINUOUS
10
117.683
20
-139.186
11
117.683
21
-139.662
0
LINE
8
BLACK
6
CONTINUOUS
10
117.683
20
-139.662
11
117.778
21
-139.852
0
LINE
8
BLACK
6
CONTINUOUS
10
117.778
20
-139.852
11
117.874
21
-139.948
0
LINE
8
BLACK
6
CONTINUOUS
10
117.874
20
-139.948
11
118.064
21
-140.043
0
LINE
8
BLACK
6
CONTINUOUS
10
118.064
20
-140.043
11
118.445
21
-140.043
0
LINE
8
BLACK
6
CONTINUOUS
10
118.445
20
-140.043
11
118.635
21
-139.948
0
LINE
8
BLACK
6
CONTINUOUS
10
118.635
20
-139.948
11
118.731
21
-139.852
0
LINE
8
BLACK
6
CONTINUOUS
10
118.731
20
-139.852
11
118.826
21
-139.662
0
LINE
8
BLACK
6
CONTINUOUS
10
120.064
20
-138.805
11
120.255
21
-138.805
0
LINE
8
BLACK
6
CONTINUOUS
10
120.255
20
-138.805
11
120.445
21
-138.9
0
LINE
8
BLACK
6
CONTINUOUS
10
120.445
20
-138.9
11
120.54
21
-138.995
0
LINE
8
BLACK
6
CONTINUOUS
10
120.54
20
-138.995
11
120.635
21
-139.186
0
LINE
8
BLACK
6
CONTINUOUS
10
120.635
20
-139.186
11
120.731
21
-139.567
0
LINE
8
BLACK
6
CONTINUOUS
10
120.731
20
-139.567
11
120.731
21
-140.043
0
LINE
8
BLACK
6
CONTINUOUS
10
120.731
20
-140.043
11
120.635
21
-140.424
0
LINE
8
BLACK
6
CONTINUOUS
10
120.635
20
-140.424
11
120.54
21
-140.614
0
LINE
8
BLACK
6
CONTINUOUS
10
120.54
20
-140.614
11
120.445
21
-140.71
0
LINE
8
BLACK
6
CONTINUOUS
10
120.445
20
-140.71
11
120.255
21
-140.805
0
LINE
8
BLACK
6
CONTINUOUS
10
120.255
20
-140.805
11
120.064
21
-140.805
0
LINE
8
BLACK
6
CONTINUOUS
10
120.064
20
-140.805
11
119.874
21
-140.71
0
LINE
8
BLACK
6
CONTINUOUS
10
119.874
20
-140.71
11
119.778
21
-140.614
0
LINE
8
BLACK
6
CONTINUOUS
10
119.778
20
-140.614
11
119.683
21
-140.424
0
LINE
8
BLACK
6
CONTINUOUS
10
119.683
20
-140.424
11
119.588
21
-140.043
0
LINE
8
BLACK
6
CONTINUOUS
10
119.588
20
-140.043
11
119.588
21
-139.567
0
LINE
8
BLACK
6
CONTINUOUS
10
119.588
20
-139.567
11
119.683
21
-139.186
0
LINE
8
BLACK
6
CONTINUOUS
10
119.683
20
-139.186
11
119.778
21
-138.995
0
LINE
8
BLACK
6
CONTINUOUS
10
119.778
20
-138.995
11
119.874
21
-138.9
0
LINE
8
BLACK
6
CONTINUOUS
10
119.874
20
-138.9
11
120.064
21
-138.805
0
LINE
8
BLACK
6
CONTINUOUS
10
121.969
20
-138.805
11
122.159
21
-138.805
0
LINE
8
BLACK
6
CONTINUOUS
10
122.159
20
-138.805
11
122.35
21
-138.9
0
LINE
8
BLACK
6
CONTINUOUS
10
122.35
20
-138.9
11
122.445
21
-138.995
0
LINE
8
BLACK
6
CONTINUOUS
10
122.445
20
-138.995
11
122.54
21
-139.186
0
LINE
8
BLACK
6
CONTINUOUS
10
122.54
20
-139.186
11
122.635
21
-139.567
0
LINE
8
BLACK
6
CONTINUOUS
10
122.635
20
-139.567
11
122.635
21
-140.043
0
LINE
8
BLACK
6
CONTINUOUS
10
122.635
20
-140.043
11
122.54
21
-140.424
0
LINE
8
BLACK
6
CONTINUOUS
10
122.54
20
-140.424
11
122.445
21
-140.614
0
LINE
8
BLACK
6
CONTINUOUS
10
122.445
20
-140.614
11
122.35
21
-140.71
0
LINE
8
BLACK
6
CONTINUOUS
10
122.35
20
-140.71
11
122.159
21
-140.805
0
LINE
8
BLACK
6
CONTINUOUS
10
122.159
20
-140.805
11
121.969
21
-140.805
0
LINE
8
BLACK
6
CONTINUOUS
10
121.969
20
-140.805
11
121.778
21
-140.71
0
LINE
8
BLACK
6
CONTINUOUS
10
121.778
20
-140.71
11
121.683
21
-140.614
0
LINE
8
BLACK
6
CONTINUOUS
10
121.683
20
-140.614
11
121.588
21
-140.424
0
LINE
8
BLACK
6
CONTINUOUS
10
121.588
20
-140.424
11
121.493
21
-140.043
0
LINE
8
BLACK
6
CONTINUOUS
10
121.493
20
-140.043
11
121.493
21
-139.567
0
LINE
8
BLACK
6
CONTINUOUS
10
121.493
20
-139.567
11
121.588
21
-139.186
0
LINE
8
BLACK
6
CONTINUOUS
10
121.588
20
-139.186
11
121.683
21
-138.995
0
LINE
8
BLACK
6
CONTINUOUS
10
121.683
20
-138.995
11
121.778
21
-138.9
0
LINE
8
BLACK
6
CONTINUOUS
10
121.778
20
-138.9
11
121.969
21
-138.805
0
LINE
8
BLACK
6
CONTINUOUS
10
123.493
20
-140.805
11
123.493
21
-139.471
0
LINE
8
BLACK
6
CONTINUOUS
10
123.493
20
-139.662
11
123.588
21
-139.567
0
LINE
8
BLACK
6
CONTINUOUS
10
123.588
20
-139.567
11
123.778
21
-139.471
0
LINE
8
BLACK
6
CONTINUOUS
10
123.778
20
-139.471
11
124.064
21
-139.471
0
LINE
8
BLACK
6
CONTINUOUS
10
124.064
20
-139.471
11
124.255
21
-139.567
0
LINE
8
BLACK
6
CONTINUOUS
10
124.255
20
-139.567
11
124.35
21
-139.757
0
LINE
8
BLACK
6
CONTINUOUS
10
124.35
20
-139.757
11
124.35
21
-140.805
0
LINE
8
BLACK
6
CONTINUOUS
10
124.35
20
-139.757
11
124.445
21
-139.567
0
LINE
8
BLACK
6
CONTINUOUS
10
124.445
20
-139.567
11
124.635
21
-139.471
0
LINE
8
BLACK
6
CONTINUOUS
10
124.635
20
-139.471
11
124.921
21
-139.471
0
LINE
8
BLACK
6
CONTINUOUS
10
124.921
20
-139.471
11
125.112
21
-139.567
0
LINE
8
BLACK
6
CONTINUOUS
10
125.112
20
-139.567
11
125.207
21
-139.757
0
LINE
8
BLACK
6
CONTINUOUS
10
125.207
20
-139.757
11
125.207
21
-140.805
0
LINE
8
BLACK
6
CONTINUOUS
10
126.159
20
-140.805
11
126.159
21
-139.471
0
LINE
8
BLACK
6
CONTINUOUS
10
126.159
20
-139.662
11
126.255
21
-139.567
0
LINE
8
BLACK
6
CONTINUOUS
10
126.255
20
-139.567
11
126.445
21
-139.471
0
LINE
8
BLACK
6
CONTINUOUS
10
126.445
20
-139.471
11
126.731
21
-139.471
0
LINE
8
BLACK
6
CONTINUOUS
10
126.731
20
-139.471
11
126.921
21
-139.567
0
LINE
8
BLACK
6
CONTINUOUS
10
126.921
20
-139.567
11
127.016
21
-139.757
0
LINE
8
BLACK
6
CONTINUOUS
10
127.016
20
-139.757
11
127.016
21
-140.805
0
LINE
8
BLACK
6
CONTINUOUS
10
127.016
20
-139.757
11
127.112
21
-139.567
0
LINE
8
BLACK
6
CONTINUOUS
10
127.112
20
-139.567
11
127.302
21
-139.471
0
LINE
8
BLACK
6
CONTINUOUS
10
127.302
20
-139.471
11
127.588
21
-139.471
0
LINE
8
BLACK
6
CONTINUOUS
10
127.588
20
-139.471
11
127.778
21
-139.567
0
LINE
8
BLACK
6
CONTINUOUS
10
127.778
20
-139.567
11
127.874
21
-139.757
0
LINE
8
BLACK
6
CONTINUOUS
10
127.874
20
-139.757
11
127.874
21
-140.805
0
LINE
8
BLACK
6
CONTINUOUS
10
131.778
20
-138.71
11
130.064
21
-141.281
0
LINE
8
BLACK
6
CONTINUOUS
10
134.35
20
-138.805
11
134.54
21
-138.805
0
LINE
8
BLACK
6
CONTINUOUS
10
134.54
20
-138.805
11
134.731
21
-138.9
0
LINE
8
BLACK
6
CONTINUOUS
10
134.731
20
-138.9
11
134.826
21
-138.995
0
LINE
8
BLACK
6
CONTINUOUS
10
134.826
20
-138.995
11
134.921
21
-139.186
0
LINE
8
BLACK
6
CONTINUOUS
10
134.921
20
-139.186
11
135.016
21
-139.567
0
LINE
8
BLACK
6
CONTINUOUS
10
135.016
20
-139.567
11
135.016
21
-140.043
0
LINE
8
BLACK
6
CONTINUOUS
10
135.016
20
-140.043
11
134.921
21
-140.424
0
LINE
8
BLACK
6
CONTINUOUS
10
134.921
20
-140.424
11
134.826
21
-140.614
0
LINE
8
BLACK
6
CONTINUOUS
10
134.826
20
-140.614
11
134.731
21
-140.71
0
LINE
8
BLACK
6
CONTINUOUS
10
134.731
20
-140.71
11
134.54
21
-140.805
0
LINE
8
BLACK
6
CONTINUOUS
10
134.54
20
-140.805
11
134.35
21
-140.805
0
LINE
8
BLACK
6
CONTINUOUS
10
134.35
20
-140.805
11
134.159
21
-140.71
0
LINE
8
BLACK
6
CONTINUOUS
10
134.159
20
-140.71
11
134.064
21
-140.614
0
LINE
8
BLACK
6
CONTINUOUS
10
134.064
20
-140.614
11
133.969
21
-140.424
0
LINE
8
BLACK
6
CONTINUOUS
10
133.969
20
-140.424
11
133.874
21
-140.043
0
LINE
8
BLACK
6
CONTINUOUS
10
133.874
20
-140.043
11
133.874
21
-139.567
0
LINE
8
BLACK
6
CONTINUOUS
10
133.874
20
-139.567
11
133.969
21
-139.186
0
LINE
8
BLACK
6
CONTINUOUS
10
133.969
20
-139.186
11
134.064
21
-138.995
0
LINE
8
BLACK
6
CONTINUOUS
10
134.064
20
-138.995
11
134.159
21
-138.9
0
LINE
8
BLACK
6
CONTINUOUS
10
134.159
20
-138.9
11
134.35
21
-138.805
0
LINE
8
BLACK
6
CONTINUOUS
10
135.874
20
-140.614
11
135.969
21
-140.71
0
LINE
8
BLACK
6
CONTINUOUS
10
135.969
20
-140.71
11
135.874
21
-140.805
0
LINE
8
BLACK
6
CONTINUOUS
10
135.874
20
-140.805
11
135.778
21
-140.71
0
LINE
8
BLACK
6
CONTINUOUS
10
135.778
20
-140.71
11
135.874
21
-140.614
0
LINE
8
BLACK
6
CONTINUOUS
10
135.874
20
-140.614
11
135.874
21
-140.805
0
LINE
8
BLACK
6
CONTINUOUS
10
137.207
20
-138.805
11
137.397
21
-138.805
0
LINE
8
BLACK
6
CONTINUOUS
10
137.397
20
-138.805
11
137.588
21
-138.9
0
LINE
8
BLACK
6
CONTINUOUS
10
137.588
20
-138.9
11
137.683
21
-138.995
0
LINE
8
BLACK
6
CONTINUOUS
10
137.683
20
-138.995
11
137.778
21
-139.186
0
LINE
8
BLACK
6
CONTINUOUS
10
137.778
20
-139.186
11
137.874
21
-139.567
0
LINE
8
BLACK
6
CONTINUOUS
10
137.874
20
-139.567
11
137.874
21
-140.043
0
LINE
8
BLACK
6
CONTINUOUS
10
137.874
20
-140.043
11
137.778
21
-140.424
0
LINE
8
BLACK
6
CONTINUOUS
10
137.778
20
-140.424
11
137.683
21
-140.614
0
LINE
8
BLACK
6
CONTINUOUS
10
137.683
20
-140.614
11
137.588
21
-140.71
0
LINE
8
BLACK
6
CONTINUOUS
10
137.588
20
-140.71
11
137.397
21
-140.805
0
LINE
8
BLACK
6
CONTINUOUS
10
137.397
20
-140.805
11
137.207
21
-140.805
0
LINE
8
BLACK
6
CONTINUOUS
10
137.207
20
-140.805
11
137.016
21
-140.71
0
LINE
8
BLACK
6
CONTINUOUS
10
137.016
20
-140.71
11
136.921
21
-140.614
0
LINE
8
BLACK
6
CONTINUOUS
10
136.921
20
-140.614
11
136.826
21
-140.424
0
LINE
8
BLACK
6
CONTINUOUS
10
136.826
20
-140.424
11
136.731
21
-140.043
0
LINE
8
BLACK
6
CONTINUOUS
10
136.731
20
-140.043
11
136.731
21
-139.567
0
LINE
8
BLACK
6
CONTINUOUS
10
136.731
20
-139.567
11
136.826
21
-139.186
0
LINE
8
BLACK
6
CONTINUOUS
10
136.826
20
-139.186
11
136.921
21
-138.995
0
LINE
8
BLACK
6
CONTINUOUS
10
136.921
20
-138.995
11
137.016
21
-138.9
0
LINE
8
BLACK
6
CONTINUOUS
10
137.016
20
-138.9
11
137.207
21
-138.805
0
LINE
8
BLACK
6
CONTINUOUS
10
138.54
20
-138.805
11
139.778
21
-138.805
0
LINE
8
BLACK
6
CONTINUOUS
10
139.778
20
-138.805
11
139.112
21
-139.567
0
LINE
8
BLACK
6
CONTINUOUS
10
139.112
20
-139.567
11
139.397
21
-139.567
0
LINE
8
BLACK
6
CONTINUOUS
10
139.397
20
-139.567
11
139.588
21
-139.662
0
LINE
8
BLACK
6
CONTINUOUS
10
139.588
20
-139.662
11
139.683
21
-139.757
0
LINE
8
BLACK
6
CONTINUOUS
10
139.683
20
-139.757
11
139.778
21
-139.948
0
LINE
8
BLACK
6
CONTINUOUS
10
139.778
20
-139.948
11
139.778
21
-140.424
0
LINE
8
BLACK
6
CONTINUOUS
10
139.778
20
-140.424
11
139.683
21
-140.614
0
LINE
8
BLACK
6
CONTINUOUS
10
139.683
20
-140.614
11
139.588
21
-140.71
0
LINE
8
BLACK
6
CONTINUOUS
10
139.588
20
-140.71
11
139.397
21
-140.805
0
LINE
8
BLACK
6
CONTINUOUS
10
139.397
20
-140.805
11
138.826
21
-140.805
0
LINE
8
BLACK
6
CONTINUOUS
10
138.826
20
-140.805
11
138.635
21
-140.71
0
LINE
8
BLACK
6
CONTINUOUS
10
138.635
20
-140.71
11
138.54
21
-140.614
0
LINE
8
BLACK
6
CONTINUOUS
10
141.588
20
-138.805
11
140.635
21
-138.805
0
LINE
8
BLACK
6
CONTINUOUS
10
140.635
20
-138.805
11
140.54
21
-139.757
0
LINE
8
BLACK
6
CONTINUOUS
10
140.54
20
-139.757
11
140.635
21
-139.662
0
LINE
8
BLACK
6
CONTINUOUS
10
140.635
20
-139.662
11
140.826
21
-139.567
0
LINE
8
BLACK
6
CONTINUOUS
10
140.826
20
-139.567
11
141.302
21
-139.567
0
LINE
8
BLACK
6
CONTINUOUS
10
141.302
20
-139.567
11
141.493
21
-139.662
0
LINE
8
BLACK
6
CONTINUOUS
10
141.493
20
-139.662
11
141.588
21
-139.757
0
LINE
8
BLACK
6
CONTINUOUS
10
141.588
20
-139.757
11
141.683
21
-139.948
0
LINE
8
BLACK
6
CONTINUOUS
10
141.683
20
-139.948
11
141.683
21
-140.424
0
LINE
8
BLACK
6
CONTINUOUS
10
141.683
20
-140.424
11
141.588
21
-140.614
0
LINE
8
BLACK
6
CONTINUOUS
10
141.588
20
-140.614
11
141.493
21
-140.71
0
LINE
8
BLACK
6
CONTINUOUS
10
141.493
20
-140.71
11
141.302
21
-140.805
0
LINE
8
BLACK
6
CONTINUOUS
10
141.302
20
-140.805
11
140.826
21
-140.805
0
LINE
8
BLACK
6
CONTINUOUS
10
140.826
20
-140.805
11
140.635
21
-140.71
0
LINE
8
BLACK
6
CONTINUOUS
10
140.635
20
-140.71
11
140.54
21
-140.614
0
LINE
8
BLACK
6
CONTINUOUS
10
143.397
20
-139.471
11
143.397
21
-140.805
0
LINE
8
BLACK
6
CONTINUOUS
10
142.921
20
-138.71
11
142.445
21
-140.138
0
LINE
8
BLACK
6
CONTINUOUS
10
142.445
20
-140.138
11
143.683
21
-140.138
0
LINE
8
BLACK
6
CONTINUOUS
10
144.35
20
-138.805
11
144.35
21
-139.186
0
LINE
8
BLACK
6
CONTINUOUS
10
145.112
20
-138.805
11
145.112
21
-139.186
0
LINE
8
BLACK
6
CONTINUOUS
10
148.064
20
-141.567
11
147.969
21
-141.471
0
LINE
8
BLACK
6
CONTINUOUS
10
147.969
20
-141.471
11
147.778
21
-141.186
0
LINE
8
BLACK
6
CONTINUOUS
10
147.778
20
-141.186
11
147.683
21
-140.995
0
LINE
8
BLACK
6
CONTINUOUS
10
147.683
20
-140.995
11
147.588
21
-140.71
0
LINE
8
BLACK
6
CONTINUOUS
10
147.588
20
-140.71
11
147.493
21
-140.233
0
LINE
8
BLACK
6
CONTINUOUS
10
147.493
20
-140.233
11
147.493
21
-139.852
0
LINE
8
BLACK
6
CONTINUOUS
10
147.493
20
-139.852
11
147.588
21
-139.376
0
LINE
8
BLACK
6
CONTINUOUS
10
147.588
20
-139.376
11
147.683
21
-139.09
0
LINE
8
BLACK
6
CONTINUOUS
10
147.683
20
-139.09
11
147.778
21
-138.9
0
LINE
8
BLACK
6
CONTINUOUS
10
147.778
20
-138.9
11
147.969
21
-138.614
0
LINE
8
BLACK
6
CONTINUOUS
10
147.969
20
-138.614
11
148.064
21
-138.519
0
LINE
8
BLACK
6
CONTINUOUS
10
148.731
20
-138.995
11
148.826
21
-138.9
0
LINE
8
BLACK
6
CONTINUOUS
10
148.826
20
-138.9
11
149.016
21
-138.805
0
LINE
8
BLACK
6
CONTINUOUS
10
149.016
20
-138.805
11
149.493
21
-138.805
0
LINE
8
BLACK
6
CONTINUOUS
10
149.493
20
-138.805
11
149.683
21
-138.9
0
LINE
8
BLACK
6
CONTINUOUS
10
149.683
20
-138.9
11
149.778
21
-138.995
0
LINE
8
BLACK
6
CONTINUOUS
10
149.778
20
-138.995
11
149.874
21
-139.186
0
LINE
8
BLACK
6
CONTINUOUS
10
149.874
20
-139.186
11
149.874
21
-139.376
0
LINE
8
BLACK
6
CONTINUOUS
10
149.874
20
-139.376
11
149.778
21
-139.662
0
LINE
8
BLACK
6
CONTINUOUS
10
149.778
20
-139.662
11
148.635
21
-140.805
0
LINE
8
BLACK
6
CONTINUOUS
10
148.635
20
-140.805
11
149.874
21
-140.805
0
LINE
8
BLACK
6
CONTINUOUS
10
152.255
20
-140.805
11
152.255
21
-138.805
0
LINE
8
BLACK
6
CONTINUOUS
10
153.112
20
-140.805
11
153.112
21
-139.757
0
LINE
8
BLACK
6
CONTINUOUS
10
153.112
20
-139.757
11
153.016
21
-139.567
0
LINE
8
BLACK
6
CONTINUOUS
10
153.016
20
-139.567
11
152.826
21
-139.471
0
LINE
8
BLACK
6
CONTINUOUS
10
152.826
20
-139.471
11
152.54
21
-139.471
0
LINE
8
BLACK
6
CONTINUOUS
10
152.54
20
-139.471
11
152.35
21
-139.567
0
LINE
8
BLACK
6
CONTINUOUS
10
152.35
20
-139.567
11
152.255
21
-139.662
0
LINE
8
BLACK
6
CONTINUOUS
10
154.35
20
-140.805
11
154.159
21
-140.71
0
LINE
8
BLACK
6
CONTINUOUS
10
154.159
20
-140.71
11
154.064
21
-140.614
0
LINE
8
BLACK
6
CONTINUOUS
10
154.064
20
-140.614
11
153.969
21
-140.424
0
LINE
8
BLACK
6
CONTINUOUS
10
153.969
20
-140.424
11
153.969
21
-139.852
0
LINE
8
BLACK
6
CONTINUOUS
10
153.969
20
-139.852
11
154.064
21
-139.662
0
LINE
8
BLACK
6
CONTINUOUS
10
154.064
20
-139.662
11
154.159
21
-139.567
0
LINE
8
BLACK
6
CONTINUOUS
10
154.159
20
-139.567
11
154.35
21
-139.471
0
LINE
8
BLACK
6
CONTINUOUS
10
154.35
20
-139.471
11
154.635
21
-139.471
0
LINE
8
BLACK
6
CONTINUOUS
10
154.635
20
-139.471
11
154.826
21
-139.567
0
LINE
8
BLACK
6
CONTINUOUS
10
154.826
20
-139.567
11
154.921
21
-139.662
0
LINE
8
BLACK
6
CONTINUOUS
10
154.921
20
-139.662
11
155.016
21
-139.852
0
LINE
8
BLACK
6
CONTINUOUS
10
155.016
20
-139.852
11
155.016
21
-140.424
0
LINE
8
BLACK
6
CONTINUOUS
10
155.016
20
-140.424
11
154.921
21
-140.614
0
LINE
8
BLACK
6
CONTINUOUS
10
154.921
20
-140.614
11
154.826
21
-140.71
0
LINE
8
BLACK
6
CONTINUOUS
10
154.826
20
-140.71
11
154.635
21
-140.805
0
LINE
8
BLACK
6
CONTINUOUS
10
154.635
20
-140.805
11
154.35
21
-140.805
0
LINE
8
BLACK
6
CONTINUOUS
10
156.159
20
-140.805
11
155.969
21
-140.71
0
LINE
8
BLACK
6
CONTINUOUS
10
155.969
20
-140.71
11
155.874
21
-140.519
0
LINE
8
BLACK
6
CONTINUOUS
10
155.874
20
-140.519
11
155.874
21
-138.805
0
LINE
8
BLACK
6
CONTINUOUS
10
157.683
20
-140.71
11
157.493
21
-140.805
0
LINE
8
BLACK
6
CONTINUOUS
10
157.493
20
-140.805
11
157.112
21
-140.805
0
LINE
8
BLACK
6
CONTINUOUS
10
157.112
20
-140.805
11
156.921
21
-140.71
0
LINE
8
BLACK
6
CONTINUOUS
10
156.921
20
-140.71
11
156.826
21
-140.519
0
LINE
8
BLACK
6
CONTINUOUS
10
156.826
20
-140.519
11
156.826
21
-139.757
0
LINE
8
BLACK
6
CONTINUOUS
10
156.826
20
-139.757
11
156.921
21
-139.567
0
LINE
8
BLACK
6
CONTINUOUS
10
156.921
20
-139.567
11
157.112
21
-139.471
0
LINE
8
BLACK
6
CONTINUOUS
10
157.112
20
-139.471
11
157.493
21
-139.471
0
LINE
8
BLACK
6
CONTINUOUS
10
157.493
20
-139.471
11
157.683
21
-139.567
0
LINE
8
BLACK
6
CONTINUOUS
10
157.683
20
-139.567
11
157.778
21
-139.757
0
LINE
8
BLACK
6
CONTINUOUS
10
157.778
20
-139.757
11
157.778
21
-139.948
0
LINE
8
BLACK
6
CONTINUOUS
10
157.778
20
-139.948
11
156.826
21
-140.138
0
LINE
8
BLACK
6
CONTINUOUS
10
158.54
20
-140.71
11
158.731
21
-140.805
0
LINE
8
BLACK
6
CONTINUOUS
10
158.731
20
-140.805
11
159.112
21
-140.805
0
LINE
8
BLACK
6
CONTINUOUS
10
159.112
20
-140.805
11
159.302
21
-140.71
0
LINE
8
BLACK
6
CONTINUOUS
10
159.302
20
-140.71
11
159.397
21
-140.519
0
LINE
8
BLACK
6
CONTINUOUS
10
159.397
20
-140.519
11
159.397
21
-140.424
0
LINE
8
BLACK
6
CONTINUOUS
10
159.397
20
-140.424
11
159.302
21
-140.233
0
LINE
8
BLACK
6
CONTINUOUS
10
159.302
20
-140.233
11
159.112
21
-140.138
0
LINE
8
BLACK
6
CONTINUOUS
10
159.112
20
-140.138
11
158.826
21
-140.138
0
LINE
8
BLACK
6
CONTINUOUS
10
158.826
20
-140.138
11
158.635
21
-140.043
0
LINE
8
BLACK
6
CONTINUOUS
10
158.635
20
-140.043
11
158.54
21
-139.852
0
LINE
8
BLACK
6
CONTINUOUS
10
158.54
20
-139.852
11
158.54
21
-139.757
0
LINE
8
BLACK
6
CONTINUOUS
10
158.54
20
-139.757
11
158.635
21
-139.567
0
LINE
8
BLACK
6
CONTINUOUS
10
158.635
20
-139.567
11
158.826
21
-139.471
0
LINE
8
BLACK
6
CONTINUOUS
10
158.826
20
-139.471
11
159.112
21
-139.471
0
LINE
8
BLACK
6
CONTINUOUS
10
159.112
20
-139.471
11
159.302
21
-139.567
0
LINE
8
BLACK
6
CONTINUOUS
10
160.064
20
-141.567
11
160.159
21
-141.471
0
LINE
8
BLACK
6
CONTINUOUS
10
160.159
20
-141.471
11
160.35
21
-141.186
0
LINE
8
BLACK
6
CONTINUOUS
10
160.35
20
-141.186
11
160.445
21
-140.995
0
LINE
8
BLACK
6
CONTINUOUS
10
160.445
20
-140.995
11
160.54
21
-140.71
0
LINE
8
BLACK
6
CONTINUOUS
10
160.54
20
-140.71
11
160.635
21
-140.233
0
LINE
8
BLACK
6
CONTINUOUS
10
160.635
20
-140.233
11
160.635
21
-139.852
0
LINE
8
BLACK
6
CONTINUOUS
10
160.635
20
-139.852
11
160.54
21
-139.376
0
LINE
8
BLACK
6
CONTINUOUS
10
160.54
20
-139.376
11
160.445
21
-139.09
0
LINE
8
BLACK
6
CONTINUOUS
10
160.445
20
-139.09
11
160.35
21
-138.9
0
LINE
8
BLACK
6
CONTINUOUS
10
160.35
20
-138.9
11
160.159
21
-138.614
0
LINE
8
BLACK
6
CONTINUOUS
10
160.159
20
-138.614
11
160.064
21
-138.519
0
LINE
8
BLACK
6
CONTINUOUS
10
111.845
20
-142.04
11
111.845
21
-143.04
0
LINE
8
BLACK
6
CONTINUOUS
10
111.345
20
-142.54
11
112.345
21
-142.54
0
LINE
8
BLACK
6
CONTINUOUS
10
115.969
20
-143.445
11
114.826
21
-143.445
0
LINE
8
BLACK
6
CONTINUOUS
10
115.397
20
-143.445
11
115.397
21
-141.445
0
LINE
8
BLACK
6
CONTINUOUS
10
115.397
20
-141.445
11
115.207
21
-141.73
0
LINE
8
BLACK
6
CONTINUOUS
10
115.207
20
-141.73
11
115.016
21
-141.921
0
LINE
8
BLACK
6
CONTINUOUS
10
115.016
20
-141.921
11
114.826
21
-142.016
0
LINE
8
BLACK
6
CONTINUOUS
10
116.826
20
-143.254
11
116.921
21
-143.35
0
LINE
8
BLACK
6
CONTINUOUS
10
116.921
20
-143.35
11
116.826
21
-143.445
0
LINE
8
BLACK
6
CONTINUOUS
10
116.826
20
-143.445
11
116.731
21
-143.35
0
LINE
8
BLACK
6
CONTINUOUS
10
116.731
20
-143.35
11
116.826
21
-143.254
0
LINE
8
BLACK
6
CONTINUOUS
10
116.826
20
-143.254
11
116.826
21
-143.445
0
LINE
8
BLACK
6
CONTINUOUS
10
118.159
20
-141.445
11
118.35
21
-141.445
0
LINE
8
BLACK
6
CONTINUOUS
10
118.35
20
-141.445
11
118.54
21
-141.54
0
LINE
8
BLACK
6
CONTINUOUS
10
118.54
20
-141.54
11
118.635
21
-141.635
0
LINE
8
BLACK
6
CONTINUOUS
10
118.635
20
-141.635
11
118.731
21
-141.826
0
LINE
8
BLACK
6
CONTINUOUS
10
118.731
20
-141.826
11
118.826
21
-142.207
0
LINE
8
BLACK
6
CONTINUOUS
10
118.826
20
-142.207
11
118.826
21
-142.683
0
LINE
8
BLACK
6
CONTINUOUS
10
118.826
20
-142.683
11
118.731
21
-143.064
0
LINE
8
BLACK
6
CONTINUOUS
10
118.731
20
-143.064
11
118.635
21
-143.254
0
LINE
8
BLACK
6
CONTINUOUS
10
118.635
20
-143.254
11
118.54
21
-143.35
0
LINE
8
BLACK
6
CONTINUOUS
10
118.54
20
-143.35
11
118.35
21
-143.445
0
LINE
8
BLACK
6
CONTINUOUS
10
118.35
20
-143.445
11
118.159
21
-143.445
0
LINE
8
BLACK
6
CONTINUOUS
10
118.159
20
-143.445
11
117.969
21
-143.35
0
LINE
8
BLACK
6
CONTINUOUS
10
117.969
20
-143.35
11
117.874
21
-143.254
0
LINE
8
BLACK
6
CONTINUOUS
10
117.874
20
-143.254
11
117.778
21
-143.064
0
LINE
8
BLACK
6
CONTINUOUS
10
117.778
20
-143.064
11
117.683
21
-142.683
0
LINE
8
BLACK
6
CONTINUOUS
10
117.683
20
-142.683
11
117.683
21
-142.207
0
LINE
8
BLACK
6
CONTINUOUS
10
117.683
20
-142.207
11
117.778
21
-141.826
0
LINE
8
BLACK
6
CONTINUOUS
10
117.778
20
-141.826
11
117.874
21
-141.635
0
LINE
8
BLACK
6
CONTINUOUS
10
117.874
20
-141.635
11
117.969
21
-141.54
0
LINE
8
BLACK
6
CONTINUOUS
10
117.969
20
-141.54
11
118.159
21
-141.445
0
LINE
8
BLACK
6
CONTINUOUS
10
120.064
20
-141.445
11
120.255
21
-141.445
0
LINE
8
BLACK
6
CONTINUOUS
10
120.255
20
-141.445
11
120.445
21
-141.54
0
LINE
8
BLACK
6
CONTINUOUS
10
120.445
20
-141.54
11
120.54
21
-141.635
0
LINE
8
BLACK
6
CONTINUOUS
10
120.54
20
-141.635
11
120.635
21
-141.826
0
LINE
8
BLACK
6
CONTINUOUS
10
120.635
20
-141.826
11
120.731
21
-142.207
0
LINE
8
BLACK
6
CONTINUOUS
10
120.731
20
-142.207
11
120.731
21
-142.683
0
LINE
8
BLACK
6
CONTINUOUS
10
120.731
20
-142.683
11
120.635
21
-143.064
0
LINE
8
BLACK
6
CONTINUOUS
10
120.635
20
-143.064
11
120.54
21
-143.254
0
LINE
8
BLACK
6
CONTINUOUS
10
120.54
20
-143.254
11
120.445
21
-143.35
0
LINE
8
BLACK
6
CONTINUOUS
10
120.445
20
-143.35
11
120.255
21
-143.445
0
LINE
8
BLACK
6
CONTINUOUS
10
120.255
20
-143.445
11
120.064
21
-143.445
0
LINE
8
BLACK
6
CONTINUOUS
10
120.064
20
-143.445
11
119.874
21
-143.35
0
LINE
8
BLACK
6
CONTINUOUS
10
119.874
20
-143.35
11
119.778
21
-143.254
0
LINE
8
BLACK
6
CONTINUOUS
10
119.778
20
-143.254
11
119.683
21
-143.064
0
LINE
8
BLACK
6
CONTINUOUS
10
119.683
20
-143.064
11
119.588
21
-142.683
0
LINE
8
BLACK
6
CONTINUOUS
10
119.588
20
-142.683
11
119.588
21
-142.207
0
LINE
8
BLACK
6
CONTINUOUS
10
119.588
20
-142.207
11
119.683
21
-141.826
0
LINE
8
BLACK
6
CONTINUOUS
10
119.683
20
-141.826
11
119.778
21
-141.635
0
LINE
8
BLACK
6
CONTINUOUS
10
119.778
20
-141.635
11
119.874
21
-141.54
0
LINE
8
BLACK
6
CONTINUOUS
10
119.874
20
-141.54
11
120.064
21
-141.445
0
LINE
8
BLACK
6
CONTINUOUS
10
121.969
20
-141.445
11
122.159
21
-141.445
0
LINE
8
BLACK
6
CONTINUOUS
10
122.159
20
-141.445
11
122.35
21
-141.54
0
LINE
8
BLACK
6
CONTINUOUS
10
122.35
20
-141.54
11
122.445
21
-141.635
0
LINE
8
BLACK
6
CONTINUOUS
10
122.445
20
-141.635
11
122.54
21
-141.826
0
LINE
8
BLACK
6
CONTINUOUS
10
122.54
20
-141.826
11
122.635
21
-142.207
0
LINE
8
BLACK
6
CONTINUOUS
10
122.635
20
-142.207
11
122.635
21
-142.683
0
LINE
8
BLACK
6
CONTINUOUS
10
122.635
20
-142.683
11
122.54
21
-143.064
0
LINE
8
BLACK
6
CONTINUOUS
10
122.54
20
-143.064
11
122.445
21
-143.254
0
LINE
8
BLACK
6
CONTINUOUS
10
122.445
20
-143.254
11
122.35
21
-143.35
0
LINE
8
BLACK
6
CONTINUOUS
10
122.35
20
-143.35
11
122.159
21
-143.445
0
LINE
8
BLACK
6
CONTINUOUS
10
122.159
20
-143.445
11
121.969
21
-143.445
0
LINE
8
BLACK
6
CONTINUOUS
10
121.969
20
-143.445
11
121.778
21
-143.35
0
LINE
8
BLACK
6
CONTINUOUS
10
121.778
20
-143.35
11
121.683
21
-143.254
0
LINE
8
BLACK
6
CONTINUOUS
10
121.683
20
-143.254
11
121.588
21
-143.064
0
LINE
8
BLACK
6
CONTINUOUS
10
121.588
20
-143.064
11
121.493
21
-142.683
0
LINE
8
BLACK
6
CONTINUOUS
10
121.493
20
-142.683
11
121.493
21
-142.207
0
LINE
8
BLACK
6
CONTINUOUS
10
121.493
20
-142.207
11
121.588
21
-141.826
0
LINE
8
BLACK
6
CONTINUOUS
10
121.588
20
-141.826
11
121.683
21
-141.635
0
LINE
8
BLACK
6
CONTINUOUS
10
121.683
20
-141.635
11
121.778
21
-141.54
0
LINE
8
BLACK
6
CONTINUOUS
10
121.778
20
-141.54
11
121.969
21
-141.445
0
LINE
8
BLACK
6
CONTINUOUS
10
123.493
20
-143.445
11
123.493
21
-142.111
0
LINE
8
BLACK
6
CONTINUOUS
10
123.493
20
-142.302
11
123.588
21
-142.207
0
LINE
8
BLACK
6
CONTINUOUS
10
123.588
20
-142.207
11
123.778
21
-142.111
0
LINE
8
BLACK
6
CONTINUOUS
10
123.778
20
-142.111
11
124.064
21
-142.111
0
LINE
8
BLACK
6
CONTINUOUS
10
124.064
20
-142.111
11
124.255
21
-142.207
0
LINE
8
BLACK
6
CONTINUOUS
10
124.255
20
-142.207
11
124.35
21
-142.397
0
LINE
8
BLACK
6
CONTINUOUS
10
124.35
20
-142.397
11
124.35
21
-143.445
0
LINE
8
BLACK
6
CONTINUOUS
10
124.35
20
-142.397
11
124.445
21
-142.207
0
LINE
8
BLACK
6
CONTINUOUS
10
124.445
20
-142.207
11
124.635
21
-142.111
0
LINE
8
BLACK
6
CONTINUOUS
10
124.635
20
-142.111
11
124.921
21
-142.111
0
LINE
8
BLACK
6
CONTINUOUS
10
124.921
20
-142.111
11
125.112
21
-142.207
0
LINE
8
BLACK
6
CONTINUOUS
10
125.112
20
-142.207
11
125.207
21
-142.397
0
LINE
8
BLACK
6
CONTINUOUS
10
125.207
20
-142.397
11
125.207
21
-143.445
0
LINE
8
BLACK
6
CONTINUOUS
10
126.159
20
-143.445
11
126.159
21
-142.111
0
LINE
8
BLACK
6
CONTINUOUS
10
126.159
20
-142.302
11
126.255
21
-142.207
0
LINE
8
BLACK
6
CONTINUOUS
10
126.255
20
-142.207
11
126.445
21
-142.111
0
LINE
8
BLACK
6
CONTINUOUS
10
126.445
20
-142.111
11
126.731
21
-142.111
0
LINE
8
BLACK
6
CONTINUOUS
10
126.731
20
-142.111
11
126.921
21
-142.207
0
LINE
8
BLACK
6
CONTINUOUS
10
126.921
20
-142.207
11
127.016
21
-142.397
0
LINE
8
BLACK
6
CONTINUOUS
10
127.016
20
-142.397
11
127.016
21
-143.445
0
LINE
8
BLACK
6
CONTINUOUS
10
127.016
20
-142.397
11
127.112
21
-142.207
0
LINE
8
BLACK
6
CONTINUOUS
10
127.112
20
-142.207
11
127.302
21
-142.111
0
LINE
8
BLACK
6
CONTINUOUS
10
127.302
20
-142.111
11
127.588
21
-142.111
0
LINE
8
BLACK
6
CONTINUOUS
10
127.588
20
-142.111
11
127.778
21
-142.207
0
LINE
8
BLACK
6
CONTINUOUS
10
127.778
20
-142.207
11
127.874
21
-142.397
0
LINE
8
BLACK
6
CONTINUOUS
10
127.874
20
-142.397
11
127.874
21
-143.445
0
LINE
8
BLACK
6
CONTINUOUS
10
131.778
20
-141.35
11
130.064
21
-143.921
0
LINE
8
BLACK
6
CONTINUOUS
10
134.35
20
-141.445
11
134.54
21
-141.445
0
LINE
8
BLACK
6
CONTINUOUS
10
134.54
20
-141.445
11
134.731
21
-141.54
0
LINE
8
BLACK
6
CONTINUOUS
10
134.731
20
-141.54
11
134.826
21
-141.635
0
LINE
8
BLACK
6
CONTINUOUS
10
134.826
20
-141.635
11
134.921
21
-141.826
0
LINE
8
BLACK
6
CONTINUOUS
10
134.921
20
-141.826
11
135.016
21
-142.207
0
LINE
8
BLACK
6
CONTINUOUS
10
135.016
20
-142.207
11
135.016
21
-142.683
0
LINE
8
BLACK
6
CONTINUOUS
10
135.016
20
-142.683
11
134.921
21
-143.064
0
LINE
8
BLACK
6
CONTINUOUS
10
134.921
20
-143.064
11
134.826
21
-143.254
0
LINE
8
BLACK
6
CONTINUOUS
10
134.826
20
-143.254
11
134.731
21
-143.35
0
LINE
8
BLACK
6
CONTINUOUS
10
134.731
20
-143.35
11
134.54
21
-143.445
0
LINE
8
BLACK
6
CONTINUOUS
10
134.54
20
-143.445
11
134.35
21
-143.445
0
LINE
8
BLACK
6
CONTINUOUS
10
134.35
20
-143.445
11
134.159
21
-143.35
0
LINE
8
BLACK
6
CONTINUOUS
10
134.159
20
-143.35
11
134.064
21
-143.254
0
LINE
8
BLACK
6
CONTINUOUS
10
134.064
20
-143.254
11
133.969
21
-143.064
0
LINE
8
BLACK
6
CONTINUOUS
10
133.969
20
-143.064
11
133.874
21
-142.683
0
LINE
8
BLACK
6
CONTINUOUS
10
133.874
20
-142.683
11
133.874
21
-142.207
0
LINE
8
BLACK
6
CONTINUOUS
10
133.874
20
-142.207
11
133.969
21
-141.826
0
LINE
8
BLACK
6
CONTINUOUS
10
133.969
20
-141.826
11
134.064
21
-141.635
0
LINE
8
BLACK
6
CONTINUOUS
10
134.064
20
-141.635
11
134.159
21
-141.54
0
LINE
8
BLACK
6
CONTINUOUS
10
134.159
20
-141.54
11
134.35
21
-141.445
0
LINE
8
BLACK
6
CONTINUOUS
10
135.874
20
-143.254
11
135.969
21
-143.35
0
LINE
8
BLACK
6
CONTINUOUS
10
135.969
20
-143.35
11
135.874
21
-143.445
0
LINE
8
BLACK
6
CONTINUOUS
10
135.874
20
-143.445
11
135.778
21
-143.35
0
LINE
8
BLACK
6
CONTINUOUS
10
135.778
20
-143.35
11
135.874
21
-143.254
0
LINE
8
BLACK
6
CONTINUOUS
10
135.874
20
-143.254
11
135.874
21
-143.445
0
LINE
8
BLACK
6
CONTINUOUS
10
137.207
20
-141.445
11
137.397
21
-141.445
0
LINE
8
BLACK
6
CONTINUOUS
10
137.397
20
-141.445
11
137.588
21
-141.54
0
LINE
8
BLACK
6
CONTINUOUS
10
137.588
20
-141.54
11
137.683
21
-141.635
0
LINE
8
BLACK
6
CONTINUOUS
10
137.683
20
-141.635
11
137.778
21
-141.826
0
LINE
8
BLACK
6
CONTINUOUS
10
137.778
20
-141.826
11
137.874
21
-142.207
0
LINE
8
BLACK
6
CONTINUOUS
10
137.874
20
-142.207
11
137.874
21
-142.683
0
LINE
8
BLACK
6
CONTINUOUS
10
137.874
20
-142.683
11
137.778
21
-143.064
0
LINE
8
BLACK
6
CONTINUOUS
10
137.778
20
-143.064
11
137.683
21
-143.254
0
LINE
8
BLACK
6
CONTINUOUS
10
137.683
20
-143.254
11
137.588
21
-143.35
0
LINE
8
BLACK
6
CONTINUOUS
10
137.588
20
-143.35
11
137.397
21
-143.445
0
LINE
8
BLACK
6
CONTINUOUS
10
137.397
20
-143.445
11
137.207
21
-143.445
0
LINE
8
BLACK
6
CONTINUOUS
10
137.207
20
-143.445
11
137.016
21
-143.35
0
LINE
8
BLACK
6
CONTINUOUS
10
137.016
20
-143.35
11
136.921
21
-143.254
0
LINE
8
BLACK
6
CONTINUOUS
10
136.921
20
-143.254
11
136.826
21
-143.064
0
LINE
8
BLACK
6
CONTINUOUS
10
136.826
20
-143.064
11
136.731
21
-142.683
0
LINE
8
BLACK
6
CONTINUOUS
10
136.731
20
-142.683
11
136.731
21
-142.207
0
LINE
8
BLACK
6
CONTINUOUS
10
136.731
20
-142.207
11
136.826
21
-141.826
0
LINE
8
BLACK
6
CONTINUOUS
10
136.826
20
-141.826
11
136.921
21
-141.635
0
LINE
8
BLACK
6
CONTINUOUS
10
136.921
20
-141.635
11
137.016
21
-141.54
0
LINE
8
BLACK
6
CONTINUOUS
10
137.016
20
-141.54
11
137.207
21
-141.445
0
LINE
8
BLACK
6
CONTINUOUS
10
138.54
20
-141.445
11
139.778
21
-141.445
0
LINE
8
BLACK
6
CONTINUOUS
10
139.778
20
-141.445
11
139.112
21
-142.207
0
LINE
8
BLACK
6
CONTINUOUS
10
139.112
20
-142.207
11
139.397
21
-142.207
0
LINE
8
BLACK
6
CONTINUOUS
10
139.397
20
-142.207
11
139.588
21
-142.302
0
LINE
8
BLACK
6
CONTINUOUS
10
139.588
20
-142.302
11
139.683
21
-142.397
0
LINE
8
BLACK
6
CONTINUOUS
10
139.683
20
-142.397
11
139.778
21
-142.588
0
LINE
8
BLACK
6
CONTINUOUS
10
139.778
20
-142.588
11
139.778
21
-143.064
0
LINE
8
BLACK
6
CONTINUOUS
10
139.778
20
-143.064
11
139.683
21
-143.254
0
LINE
8
BLACK
6
CONTINUOUS
10
139.683
20
-143.254
11
139.588
21
-143.35
0
LINE
8
BLACK
6
CONTINUOUS
10
139.588
20
-143.35
11
139.397
21
-143.445
0
LINE
8
BLACK
6
CONTINUOUS
10
139.397
20
-143.445
11
138.826
21
-143.445
0
LINE
8
BLACK
6
CONTINUOUS
10
138.826
20
-143.445
11
138.635
21
-143.35
0
LINE
8
BLACK
6
CONTINUOUS
10
138.635
20
-143.35
11
138.54
21
-143.254
0
LINE
8
BLACK
6
CONTINUOUS
10
140.731
20
-143.445
11
141.112
21
-143.445
0
LINE
8
BLACK
6
CONTINUOUS
10
141.112
20
-143.445
11
141.302
21
-143.35
0
LINE
8
BLACK
6
CONTINUOUS
10
141.302
20
-143.35
11
141.397
21
-143.254
0
LINE
8
BLACK
6
CONTINUOUS
10
141.397
20
-143.254
11
141.588
21
-142.969
0
LINE
8
BLACK
6
CONTINUOUS
10
141.588
20
-142.969
11
141.683
21
-142.588
0
LINE
8
BLACK
6
CONTINUOUS
10
141.683
20
-142.588
11
141.683
21
-141.826
0
LINE
8
BLACK
6
CONTINUOUS
10
141.683
20
-141.826
11
141.588
21
-141.635
0
LINE
8
BLACK
6
CONTINUOUS
10
141.588
20
-141.635
11
141.493
21
-141.54
0
LINE
8
BLACK
6
CONTINUOUS
10
141.493
20
-141.54
11
141.302
21
-141.445
0
LINE
8
BLACK
6
CONTINUOUS
10
141.302
20
-141.445
11
140.921
21
-141.445
0
LINE
8
BLACK
6
CONTINUOUS
10
140.921
20
-141.445
11
140.731
21
-141.54
0
LINE
8
BLACK
6
CONTINUOUS
10
140.731
20
-141.54
11
140.635
21
-141.635
0
LINE
8
BLACK
6
CONTINUOUS
10
140.635
20
-141.635
11
140.54
21
-141.826
0
LINE
8
BLACK
6
CONTINUOUS
10
140.54
20
-141.826
11
140.54
21
-142.302
0
LINE
8
BLACK
6
CONTINUOUS
10
140.54
20
-142.302
11
140.635
21
-142.492
0
LINE
8
BLACK
6
CONTINUOUS
10
140.635
20
-142.492
11
140.731
21
-142.588
0
LINE
8
BLACK
6
CONTINUOUS
10
140.731
20
-142.588
11
140.921
21
-142.683
0
LINE
8
BLACK
6
CONTINUOUS
10
140.921
20
-142.683
11
141.302
21
-142.683
0
LINE
8
BLACK
6
CONTINUOUS
10
141.302
20
-142.683
11
141.493
21
-142.588
0
LINE
8
BLACK
6
CONTINUOUS
10
141.493
20
-142.588
11
141.588
21
-142.492
0
LINE
8
BLACK
6
CONTINUOUS
10
141.588
20
-142.492
11
141.683
21
-142.302
0
LINE
8
BLACK
6
CONTINUOUS
10
143.397
20
-142.111
11
143.397
21
-143.445
0
LINE
8
BLACK
6
CONTINUOUS
10
142.921
20
-141.35
11
142.445
21
-142.778
0
LINE
8
BLACK
6
CONTINUOUS
10
142.445
20
-142.778
11
143.683
21
-142.778
0
LINE
8
BLACK
6
CONTINUOUS
10
144.35
20
-141.445
11
144.35
21
-141.826
0
LINE
8
BLACK
6
CONTINUOUS
10
145.112
20
-141.445
11
145.112
21
-141.826
0
LINE
8
BLACK
6
CONTINUOUS
10
148.064
20
-144.207
11
147.969
21
-144.111
0
LINE
8
BLACK
6
CONTINUOUS
10
147.969
20
-144.111
11
147.778
21
-143.826
0
LINE
8
BLACK
6
CONTINUOUS
10
147.778
20
-143.826
11
147.683
21
-143.635
0
LINE
8
BLACK
6
CONTINUOUS
10
147.683
20
-143.635
11
147.588
21
-143.35
0
LINE
8
BLACK
6
CONTINUOUS
10
147.588
20
-143.35
11
147.493
21
-142.873
0
LINE
8
BLACK
6
CONTINUOUS
10
147.493
20
-142.873
11
147.493
21
-142.492
0
LINE
8
BLACK
6
CONTINUOUS
10
147.493
20
-142.492
11
147.588
21
-142.016
0
LINE
8
BLACK
6
CONTINUOUS
10
147.588
20
-142.016
11
147.683
21
-141.73
0
LINE
8
BLACK
6
CONTINUOUS
10
147.683
20
-141.73
11
147.778
21
-141.54
0
LINE
8
BLACK
6
CONTINUOUS
10
147.778
20
-141.54
11
147.969
21
-141.254
0
LINE
8
BLACK
6
CONTINUOUS
10
147.969
20
-141.254
11
148.064
21
-141.159
0
LINE
8
BLACK
6
CONTINUOUS
10
149.683
20
-142.111
11
149.683
21
-143.445
0
LINE
8
BLACK
6
CONTINUOUS
10
149.207
20
-141.35
11
148.731
21
-142.778
0
LINE
8
BLACK
6
CONTINUOUS
10
148.731
20
-142.778
11
149.969
21
-142.778
0
LINE
8
BLACK
6
CONTINUOUS
10
152.255
20
-143.445
11
152.255
21
-141.445
0
LINE
8
BLACK
6
CONTINUOUS
10
153.112
20
-143.445
11
153.112
21
-142.397
0
LINE
8
BLACK
6
CONTINUOUS
10
153.112
20
-142.397
11
153.016
21
-142.207
0
LINE
8
BLACK
6
CONTINUOUS
10
153.016
20
-142.207
11
152.826
21
-142.111
0
LINE
8
BLACK
6
CONTINUOUS
10
152.826
20
-142.111
11
152.54
21
-142.111
0
LINE
8
BLACK
6
CONTINUOUS
10
152.54
20
-142.111
11
152.35
21
-142.207
0
LINE
8
BLACK
6
CONTINUOUS
10
152.35
20
-142.207
11
152.255
21
-142.302
0
LINE
8
BLACK
6
CONTINUOUS
10
154.35
20
-143.445
11
154.159
21
-143.35
0
LINE
8
BLACK
6
CONTINUOUS
10
154.159
20
-143.35
11
154.064
21
-143.254
0
LINE
8
BLACK
6
CONTINUOUS
10
154.064
20
-143.254
11
153.969
21
-143.064
0
LINE
8
BLACK
6
CONTINUOUS
10
153.969
20
-143.064
11
153.969
21
-142.492
0
LINE
8
BLACK
6
CONTINUOUS
10
153.969
20
-142.492
11
154.064
21
-142.302
0
LINE
8
BLACK
6
CONTINUOUS
10
154.064
20
-142.302
11
154.159
21
-142.207
0
LINE
8
BLACK
6
CONTINUOUS
10
154.159
20
-142.207
11
154.35
21
-142.111
0
LINE
8
BLACK
6
CONTINUOUS
10
154.35
20
-142.111
11
154.635
21
-142.111
0
LINE
8
BLACK
6
CONTINUOUS
10
154.635
20
-142.111
11
154.826
21
-142.207
0
LINE
8
BLACK
6
CONTINUOUS
10
154.826
20
-142.207
11
154.921
21
-142.302
0
LINE
8
BLACK
6
CONTINUOUS
10
154.921
20
-142.302
11
155.016
21
-142.492
0
LINE
8
BLACK
6
CONTINUOUS
10
155.016
20
-142.492
11
155.016
21
-143.064
0
LINE
8
BLACK
6
CONTINUOUS
10
155.016
20
-143.064
11
154.921
21
-143.254
0
LINE
8
BLACK
6
CONTINUOUS
10
154.921
20
-143.254
11
154.826
21
-143.35
0
LINE
8
BLACK
6
CONTINUOUS
10
154.826
20
-143.35
11
154.635
21
-143.445
0
LINE
8
BLACK
6
CONTINUOUS
10
154.635
20
-143.445
11
154.35
21
-143.445
0
LINE
8
BLACK
6
CONTINUOUS
10
156.159
20
-143.445
11
155.969
21
-143.35
0
LINE
8
BLACK
6
CONTINUOUS
10
155.969
20
-143.35
11
155.874
21
-143.159
0
LINE
8
BLACK
6
CONTINUOUS
10
155.874
20
-143.159
11
155.874
21
-141.445
0
LINE
8
BLACK
6
CONTINUOUS
10
157.683
20
-143.35
11
157.493
21
-143.445
0
LINE
8
BLACK
6
CONTINUOUS
10
157.493
20
-143.445
11
157.112
21
-143.445
0
LINE
8
BLACK
6
CONTINUOUS
10
157.112
20
-143.445
11
156.921
21
-143.35
0
LINE
8
BLACK
6
CONTINUOUS
10
156.921
20
-143.35
11
156.826
21
-143.159
0
LINE
8
BLACK
6
CONTINUOUS
10
156.826
20
-143.159
11
156.826
21
-142.397
0
LINE
8
BLACK
6
CONTINUOUS
10
156.826
20
-142.397
11
156.921
21
-142.207
0
LINE
8
BLACK
6
CONTINUOUS
10
156.921
20
-142.207
11
157.112
21
-142.111
0
LINE
8
BLACK
6
CONTINUOUS
10
157.112
20
-142.111
11
157.493
21
-142.111
0
LINE
8
BLACK
6
CONTINUOUS
10
157.493
20
-142.111
11
157.683
21
-142.207
0
LINE
8
BLACK
6
CONTINUOUS
10
157.683
20
-142.207
11
157.778
21
-142.397
0
LINE
8
BLACK
6
CONTINUOUS
10
157.778
20
-142.397
11
157.778
21
-142.588
0
LINE
8
BLACK
6
CONTINUOUS
10
157.778
20
-142.588
11
156.826
21
-142.778
0
LINE
8
BLACK
6
CONTINUOUS
10
158.54
20
-143.35
11
158.731
21
-143.445
0
LINE
8
BLACK
6
CONTINUOUS
10
158.731
20
-143.445
11
159.112
21
-143.445
0
LINE
8
BLACK
6
CONTINUOUS
10
159.112
20
-143.445
11
159.302
21
-143.35
0
LINE
8
BLACK
6
CONTINUOUS
10
159.302
20
-143.35
11
159.397
21
-143.159
0
LINE
8
BLACK
6
CONTINUOUS
10
159.397
20
-143.159
11
159.397
21
-143.064
0
LINE
8
BLACK
6
CONTINUOUS
10
159.397
20
-143.064
11
159.302
21
-142.873
0
LINE
8
BLACK
6
CONTINUOUS
10
159.302
20
-142.873
11
159.112
21
-142.778
0
LINE
8
BLACK
6
CONTINUOUS
10
159.112
20
-142.778
11
158.826
21
-142.778
0
LINE
8
BLACK
6
CONTINUOUS
10
158.826
20
-142.778
11
158.635
21
-142.683
0
LINE
8
BLACK
6
CONTINUOUS
10
158.635
20
-142.683
11
158.54
21
-142.492
0
LINE
8
BLACK
6
CONTINUOUS
10
158.54
20
-142.492
11
158.54
21
-142.397
0
LINE
8
BLACK
6
CONTINUOUS
10
158.54
20
-142.397
11
158.635
21
-142.207
0
LINE
8
BLACK
6
CONTINUOUS
10
158.635
20
-142.207
11
158.826
21
-142.111
0
LINE
8
BLACK
6
CONTINUOUS
10
158.826
20
-142.111
11
159.112
21
-142.111
0
LINE
8
BLACK
6
CONTINUOUS
10
159.112
20
-142.111
11
159.302
21
-142.207
0
LINE
8
BLACK
6
CONTINUOUS
10
160.064
20
-144.207
11
160.159
21
-144.111
0
LINE
8
BLACK
6
CONTINUOUS
10
160.159
20
-144.111
11
160.35
21
-143.826
0
LINE
8
BLACK
6
CONTINUOUS
10
160.35
20
-143.826
11
160.445
21
-143.635
0
LINE
8
BLACK
6
CONTINUOUS
10
160.445
20
-143.635
11
160.54
21
-143.35
0
LINE
8
BLACK
6
CONTINUOUS
10
160.54
20
-143.35
11
160.635
21
-142.873
0
LINE
8
BLACK
6
CONTINUOUS
10
160.635
20
-142.873
11
160.635
21
-142.492
0
LINE
8
BLACK
6
CONTINUOUS
10
160.635
20
-142.492
11
160.54
21
-142.016
0
LINE
8
BLACK
6
CONTINUOUS
10
160.54
20
-142.016
11
160.445
21
-141.73
0
LINE
8
BLACK
6
CONTINUOUS
10
160.445
20
-141.73
11
160.35
21
-141.54
0
LINE
8
BLACK
6
CONTINUOUS
10
160.35
20
-141.54
11
160.159
21
-141.254
0
LINE
8
BLACK
6
CONTINUOUS
10
160.159
20
-141.254
11
160.064
21
-141.159
0
LINE
8
BLACK
6
CONTINUOUS
10
112.184
20
-145.569
11
112.184
21
-144.791
0
LINE
8
BLACK
6
CONTINUOUS
10
112.184
20
-144.791
11
111.406
21
-144.791
0
LINE
8
BLACK
6
CONTINUOUS
10
111.406
20
-144.791
11
111.406
21
-145.569
0
LINE
8
BLACK
6
CONTINUOUS
10
111.406
20
-145.569
11
112.184
21
-145.569
0
LINE
8
BLACK
6
CONTINUOUS
10
115.969
20
-146.085
11
114.826
21
-146.085
0
LINE
8
BLACK
6
CONTINUOUS
10
115.397
20
-146.085
11
115.397
21
-144.085
0
LINE
8
BLACK
6
CONTINUOUS
10
115.397
20
-144.085
11
115.207
21
-144.37
0
LINE
8
BLACK
6
CONTINUOUS
10
115.207
20
-144.37
11
115.016
21
-144.561
0
LINE
8
BLACK
6
CONTINUOUS
10
115.016
20
-144.561
11
114.826
21
-144.656
0
LINE
8
BLACK
6
CONTINUOUS
10
116.826
20
-145.894
11
116.921
21
-145.99
0
LINE
8
BLACK
6
CONTINUOUS
10
116.921
20
-145.99
11
116.826
21
-146.085
0
LINE
8
BLACK
6
CONTINUOUS
10
116.826
20
-146.085
11
116.731
21
-145.99
0
LINE
8
BLACK
6
CONTINUOUS
10
116.731
20
-145.99
11
116.826
21
-145.894
0
LINE
8
BLACK
6
CONTINUOUS
10
116.826
20
-145.894
11
116.826
21
-146.085
0
LINE
8
BLACK
6
CONTINUOUS
10
118.826
20
-146.085
11
117.683
21
-146.085
0
LINE
8
BLACK
6
CONTINUOUS
10
118.255
20
-146.085
11
118.255
21
-144.085
0
LINE
8
BLACK
6
CONTINUOUS
10
118.255
20
-144.085
11
118.064
21
-144.37
0
LINE
8
BLACK
6
CONTINUOUS
10
118.064
20
-144.37
11
117.874
21
-144.561
0
LINE
8
BLACK
6
CONTINUOUS
10
117.874
20
-144.561
11
117.683
21
-144.656
0
LINE
8
BLACK
6
CONTINUOUS
10
120.064
20
-144.085
11
120.255
21
-144.085
0
LINE
8
BLACK
6
CONTINUOUS
10
120.255
20
-144.085
11
120.445
21
-144.18
0
LINE
8
BLACK
6
CONTINUOUS
10
120.445
20
-144.18
11
120.54
21
-144.275
0
LINE
8
BLACK
6
CONTINUOUS
10
120.54
20
-144.275
11
120.635
21
-144.466
0
LINE
8
BLACK
6
CONTINUOUS
10
120.635
20
-144.466
11
120.731
21
-144.847
0
LINE
8
BLACK
6
CONTINUOUS
10
120.731
20
-144.847
11
120.731
21
-145.323
0
LINE
8
BLACK
6
CONTINUOUS
10
120.731
20
-145.323
11
120.635
21
-145.704
0
LINE
8
BLACK
6
CONTINUOUS
10
120.635
20
-145.704
11
120.54
21
-145.894
0
LINE
8
BLACK
6
CONTINUOUS
10
120.54
20
-145.894
11
120.445
21
-145.99
0
LINE
8
BLACK
6
CONTINUOUS
10
120.445
20
-145.99
11
120.255
21
-146.085
0
LINE
8
BLACK
6
CONTINUOUS
10
120.255
20
-146.085
11
120.064
21
-146.085
0
LINE
8
BLACK
6
CONTINUOUS
10
120.064
20
-146.085
11
119.874
21
-145.99
0
LINE
8
BLACK
6
CONTINUOUS
10
119.874
20
-145.99
11
119.778
21
-145.894
0
LINE
8
BLACK
6
CONTINUOUS
10
119.778
20
-145.894
11
119.683
21
-145.704
0
LINE
8
BLACK
6
CONTINUOUS
10
119.683
20
-145.704
11
119.588
21
-145.323
0
LINE
8
BLACK
6
CONTINUOUS
10
119.588
20
-145.323
11
119.588
21
-144.847
0
LINE
8
BLACK
6
CONTINUOUS
10
119.588
20
-144.847
11
119.683
21
-144.466
0
LINE
8
BLACK
6
CONTINUOUS
10
119.683
20
-144.466
11
119.778
21
-144.275
0
LINE
8
BLACK
6
CONTINUOUS
10
119.778
20
-144.275
11
119.874
21
-144.18
0
LINE
8
BLACK
6
CONTINUOUS
10
119.874
20
-144.18
11
120.064
21
-144.085
0
LINE
8
BLACK
6
CONTINUOUS
10
121.969
20
-144.085
11
122.159
21
-144.085
0
LINE
8
BLACK
6
CONTINUOUS
10
122.159
20
-144.085
11
122.35
21
-144.18
0
LINE
8
BLACK
6
CONTINUOUS
10
122.35
20
-144.18
11
122.445
21
-144.275
0
LINE
8
BLACK
6
CONTINUOUS
10
122.445
20
-144.275
11
122.54
21
-144.466
0
LINE
8
BLACK
6
CONTINUOUS
10
122.54
20
-144.466
11
122.635
21
-144.847
0
LINE
8
BLACK
6
CONTINUOUS
10
122.635
20
-144.847
11
122.635
21
-145.323
0
LINE
8
BLACK
6
CONTINUOUS
10
122.635
20
-145.323
11
122.54
21
-145.704
0
LINE
8
BLACK
6
CONTINUOUS
10
122.54
20
-145.704
11
122.445
21
-145.894
0
LINE
8
BLACK
6
CONTINUOUS
10
122.445
20
-145.894
11
122.35
21
-145.99
0
LINE
8
BLACK
6
CONTINUOUS
10
122.35
20
-145.99
11
122.159
21
-146.085
0
LINE
8
BLACK
6
CONTINUOUS
10
122.159
20
-146.085
11
121.969
21
-146.085
0
LINE
8
BLACK
6
CONTINUOUS
10
121.969
20
-146.085
11
121.778
21
-145.99
0
LINE
8
BLACK
6
CONTINUOUS
10
121.778
20
-145.99
11
121.683
21
-145.894
0
LINE
8
BLACK
6
CONTINUOUS
10
121.683
20
-145.894
11
121.588
21
-145.704
0
LINE
8
BLACK
6
CONTINUOUS
10
121.588
20
-145.704
11
121.493
21
-145.323
0
LINE
8
BLACK
6
CONTINUOUS
10
121.493
20
-145.323
11
121.493
21
-144.847
0
LINE
8
BLACK
6
CONTINUOUS
10
121.493
20
-144.847
11
121.588
21
-144.466
0
LINE
8
BLACK
6
CONTINUOUS
10
121.588
20
-144.466
11
121.683
21
-144.275
0
LINE
8
BLACK
6
CONTINUOUS
10
121.683
20
-144.275
11
121.778
21
-144.18
0
LINE
8
BLACK
6
CONTINUOUS
10
121.778
20
-144.18
11
121.969
21
-144.085
0
LINE
8
BLACK
6
CONTINUOUS
10
123.493
20
-146.085
11
123.493
21
-144.751
0
LINE
8
BLACK
6
CONTINUOUS
10
123.493
20
-144.942
11
123.588
21
-144.847
0
LINE
8
BLACK
6
CONTINUOUS
10
123.588
20
-144.847
11
123.778
21
-144.751
0
LINE
8
BLACK
6
CONTINUOUS
10
123.778
20
-144.751
11
124.064
21
-144.751
0
LINE
8
BLACK
6
CONTINUOUS
10
124.064
20
-144.751
11
124.255
21
-144.847
0
LINE
8
BLACK
6
CONTINUOUS
10
124.255
20
-144.847
11
124.35
21
-145.037
0
LINE
8
BLACK
6
CONTINUOUS
10
124.35
20
-145.037
11
124.35
21
-146.085
0
LINE
8
BLACK
6
CONTINUOUS
10
124.35
20
-145.037
11
124.445
21
-144.847
0
LINE
8
BLACK
6
CONTINUOUS
10
124.445
20
-144.847
11
124.635
21
-144.751
0
LINE
8
BLACK
6
CONTINUOUS
10
124.635
20
-144.751
11
124.921
21
-144.751
0
LINE
8
BLACK
6
CONTINUOUS
10
124.921
20
-144.751
11
125.112
21
-144.847
0
LINE
8
BLACK
6
CONTINUOUS
10
125.112
20
-144.847
11
125.207
21
-145.037
0
LINE
8
BLACK
6
CONTINUOUS
10
125.207
20
-145.037
11
125.207
21
-146.085
0
LINE
8
BLACK
6
CONTINUOUS
10
126.159
20
-146.085
11
126.159
21
-144.751
0
LINE
8
BLACK
6
CONTINUOUS
10
126.159
20
-144.942
11
126.255
21
-144.847
0
LINE
8
BLACK
6
CONTINUOUS
10
126.255
20
-144.847
11
126.445
21
-144.751
0
LINE
8
BLACK
6
CONTINUOUS
10
126.445
20
-144.751
11
126.731
21
-144.751
0
LINE
8
BLACK
6
CONTINUOUS
10
126.731
20
-144.751
11
126.921
21
-144.847
0
LINE
8
BLACK
6
CONTINUOUS
10
126.921
20
-144.847
11
127.016
21
-145.037
0
LINE
8
BLACK
6
CONTINUOUS
10
127.016
20
-145.037
11
127.016
21
-146.085
0
LINE
8
BLACK
6
CONTINUOUS
10
127.016
20
-145.037
11
127.112
21
-144.847
0
LINE
8
BLACK
6
CONTINUOUS
10
127.112
20
-144.847
11
127.302
21
-144.751
0
LINE
8
BLACK
6
CONTINUOUS
10
127.302
20
-144.751
11
127.588
21
-144.751
0
LINE
8
BLACK
6
CONTINUOUS
10
127.588
20
-144.751
11
127.778
21
-144.847
0
LINE
8
BLACK
6
CONTINUOUS
10
127.778
20
-144.847
11
127.874
21
-145.037
0
LINE
8
BLACK
6
CONTINUOUS
10
127.874
20
-145.037
11
127.874
21
-146.085
0
LINE
8
BLACK
6
CONTINUOUS
10
131.778
20
-143.99
11
130.064
21
-146.561
0
LINE
8
BLACK
6
CONTINUOUS
10
134.35
20
-144.085
11
134.54
21
-144.085
0
LINE
8
BLACK
6
CONTINUOUS
10
134.54
20
-144.085
11
134.731
21
-144.18
0
LINE
8
BLACK
6
CONTINUOUS
10
134.731
20
-144.18
11
134.826
21
-144.275
0
LINE
8
BLACK
6
CONTINUOUS
10
134.826
20
-144.275
11
134.921
21
-144.466
0
LINE
8
BLACK
6
CONTINUOUS
10
134.921
20
-144.466
11
135.016
21
-144.847
0
LINE
8
BLACK
6
CONTINUOUS
10
135.016
20
-144.847
11
135.016
21
-145.323
0
LINE
8
BLACK
6
CONTINUOUS
10
135.016
20
-145.323
11
134.921
21
-145.704
0
LINE
8
BLACK
6
CONTINUOUS
10
134.921
20
-145.704
11
134.826
21
-145.894
0
LINE
8
BLACK
6
CONTINUOUS
10
134.826
20
-145.894
11
134.731
21
-145.99
0
LINE
8
BLACK
6
CONTINUOUS
10
134.731
20
-145.99
11
134.54
21
-146.085
0
LINE
8
BLACK
6
CONTINUOUS
10
134.54
20
-146.085
11
134.35
21
-146.085
0
LINE
8
BLACK
6
CONTINUOUS
10
134.35
20
-146.085
11
134.159
21
-145.99
0
LINE
8
BLACK
6
CONTINUOUS
10
134.159
20
-145.99
11
134.064
21
-145.894
0
LINE
8
BLACK
6
CONTINUOUS
10
134.064
20
-145.894
11
133.969
21
-145.704
0
LINE
8
BLACK
6
CONTINUOUS
10
133.969
20
-145.704
11
133.874
21
-145.323
0
LINE
8
BLACK
6
CONTINUOUS
10
133.874
20
-145.323
11
133.874
21
-144.847
0
LINE
8
BLACK
6
CONTINUOUS
10
133.874
20
-144.847
11
133.969
21
-144.466
0
LINE
8
BLACK
6
CONTINUOUS
10
133.969
20
-144.466
11
134.064
21
-144.275
0
LINE
8
BLACK
6
CONTINUOUS
10
134.064
20
-144.275
11
134.159
21
-144.18
0
LINE
8
BLACK
6
CONTINUOUS
10
134.159
20
-144.18
11
134.35
21
-144.085
0
LINE
8
BLACK
6
CONTINUOUS
10
135.874
20
-145.894
11
135.969
21
-145.99
0
LINE
8
BLACK
6
CONTINUOUS
10
135.969
20
-145.99
11
135.874
21
-146.085
0
LINE
8
BLACK
6
CONTINUOUS
10
135.874
20
-146.085
11
135.778
21
-145.99
0
LINE
8
BLACK
6
CONTINUOUS
10
135.778
20
-145.99
11
135.874
21
-145.894
0
LINE
8
BLACK
6
CONTINUOUS
10
135.874
20
-145.894
11
135.874
21
-146.085
0
LINE
8
BLACK
6
CONTINUOUS
10
137.207
20
-144.085
11
137.397
21
-144.085
0
LINE
8
BLACK
6
CONTINUOUS
10
137.397
20
-144.085
11
137.588
21
-144.18
0
LINE
8
BLACK
6
CONTINUOUS
10
137.588
20
-144.18
11
137.683
21
-144.275
0
LINE
8
BLACK
6
CONTINUOUS
10
137.683
20
-144.275
11
137.778
21
-144.466
0
LINE
8
BLACK
6
CONTINUOUS
10
137.778
20
-144.466
11
137.874
21
-144.847
0
LINE
8
BLACK
6
CONTINUOUS
10
137.874
20
-144.847
11
137.874
21
-145.323
0
LINE
8
BLACK
6
CONTINUOUS
10
137.874
20
-145.323
11
137.778
21
-145.704
0
LINE
8
BLACK
6
CONTINUOUS
10
137.778
20
-145.704
11
137.683
21
-145.894
0
LINE
8
BLACK
6
CONTINUOUS
10
137.683
20
-145.894
11
137.588
21
-145.99
0
LINE
8
BLACK
6
CONTINUOUS
10
137.588
20
-145.99
11
137.397
21
-146.085
0
LINE
8
BLACK
6
CONTINUOUS
10
137.397
20
-146.085
11
137.207
21
-146.085
0
LINE
8
BLACK
6
CONTINUOUS
10
137.207
20
-146.085
11
137.016
21
-145.99
0
LINE
8
BLACK
6
CONTINUOUS
10
137.016
20
-145.99
11
136.921
21
-145.894
0
LINE
8
BLACK
6
CONTINUOUS
10
136.921
20
-145.894
11
136.826
21
-145.704
0
LINE
8
BLACK
6
CONTINUOUS
10
136.826
20
-145.704
11
136.731
21
-145.323
0
LINE
8
BLACK
6
CONTINUOUS
10
136.731
20
-145.323
11
136.731
21
-144.847
0
LINE
8
BLACK
6
CONTINUOUS
10
136.731
20
-144.847
11
136.826
21
-144.466
0
LINE
8
BLACK
6
CONTINUOUS
10
136.826
20
-144.466
11
136.921
21
-144.275
0
LINE
8
BLACK
6
CONTINUOUS
10
136.921
20
-144.275
11
137.016
21
-144.18
0
LINE
8
BLACK
6
CONTINUOUS
10
137.016
20
-144.18
11
137.207
21
-144.085
0
LINE
8
BLACK
6
CONTINUOUS
10
139.588
20
-144.751
11
139.588
21
-146.085
0
LINE
8
BLACK
6
CONTINUOUS
10
139.112
20
-143.99
11
138.635
21
-145.418
0
LINE
8
BLACK
6
CONTINUOUS
10
138.635
20
-145.418
11
139.874
21
-145.418
0
LINE
8
BLACK
6
CONTINUOUS
10
140.445
20
-144.085
11
141.683
21
-144.085
0
LINE
8
BLACK
6
CONTINUOUS
10
141.683
20
-144.085
11
141.016
21
-144.847
0
LINE
8
BLACK
6
CONTINUOUS
10
141.016
20
-144.847
11
141.302
21
-144.847
0
LINE
8
BLACK
6
CONTINUOUS
10
141.302
20
-144.847
11
141.493
21
-144.942
0
LINE
8
BLACK
6
CONTINUOUS
10
141.493
20
-144.942
11
141.588
21
-145.037
0
LINE
8
BLACK
6
CONTINUOUS
10
141.588
20
-145.037
11
141.683
21
-145.228
0
LINE
8
BLACK
6
CONTINUOUS
10
141.683
20
-145.228
11
141.683
21
-145.704
0
LINE
8
BLACK
6
CONTINUOUS
10
141.683
20
-145.704
11
141.588
21
-145.894
0
LINE
8
BLACK
6
CONTINUOUS
10
141.588
20
-145.894
11
141.493
21
-145.99
0
LINE
8
BLACK
6
CONTINUOUS
10
141.493
20
-145.99
11
141.302
21
-146.085
0
LINE
8
BLACK
6
CONTINUOUS
10
141.302
20
-146.085
11
140.731
21
-146.085
0
LINE
8
BLACK
6
CONTINUOUS
10
140.731
20
-146.085
11
140.54
21
-145.99
0
LINE
8
BLACK
6
CONTINUOUS
10
140.54
20
-145.99
11
140.445
21
-145.894
0
LINE
8
BLACK
6
CONTINUOUS
10
142.35
20
-144.085
11
143.588
21
-144.085
0
LINE
8
BLACK
6
CONTINUOUS
10
143.588
20
-144.085
11
142.921
21
-144.847
0
LINE
8
BLACK
6
CONTINUOUS
10
142.921
20
-144.847
11
143.207
21
-144.847
0
LINE
8
BLACK
6
CONTINUOUS
10
143.207
20
-144.847
11
143.397
21
-144.942
0
LINE
8
BLACK
6
CONTINUOUS
10
143.397
20
-144.942
11
143.493
21
-145.037
0
LINE
8
BLACK
6
CONTINUOUS
10
143.493
20
-145.037
11
143.588
21
-145.228
0
LINE
8
BLACK
6
CONTINUOUS
10
143.588
20
-145.228
11
143.588
21
-145.704
0
LINE
8
BLACK
6
CONTINUOUS
10
143.588
20
-145.704
11
143.493
21
-145.894
0
LINE
8
BLACK
6
CONTINUOUS
10
143.493
20
-145.894
11
143.397
21
-145.99
0
LINE
8
BLACK
6
CONTINUOUS
10
143.397
20
-145.99
11
143.207
21
-146.085
0
LINE
8
BLACK
6
CONTINUOUS
10
143.207
20
-146.085
11
142.635
21
-146.085
0
LINE
8
BLACK
6
CONTINUOUS
10
142.635
20
-146.085
11
142.445
21
-145.99
0
LINE
8
BLACK
6
CONTINUOUS
10
142.445
20
-145.99
11
142.35
21
-145.894
0
LINE
8
BLACK
6
CONTINUOUS
10
144.35
20
-144.085
11
144.35
21
-144.466
0
LINE
8
BLACK
6
CONTINUOUS
10
145.112
20
-144.085
11
145.112
21
-144.466
0
LINE
8
BLACK
6
CONTINUOUS
10
148.064
20
-146.847
11
147.969
21
-146.751
0
LINE
8
BLACK
6
CONTINUOUS
10
147.969
20
-146.751
11
147.778
21
-146.466
0
LINE
8
BLACK
6
CONTINUOUS
10
147.778
20
-146.466
11
147.683
21
-146.275
0
LINE
8
BLACK
6
CONTINUOUS
10
147.683
20
-146.275
11
147.588
21
-145.99
0
LINE
8
BLACK
6
CONTINUOUS
10
147.588
20
-145.99
11
147.493
21
-145.513
0
LINE
8
BLACK
6
CONTINUOUS
10
147.493
20
-145.513
11
147.493
21
-145.132
0
LINE
8
BLACK
6
CONTINUOUS
10
147.493
20
-145.132
11
147.588
21
-144.656
0
LINE
8
BLACK
6
CONTINUOUS
10
147.588
20
-144.656
11
147.683
21
-144.37
0
LINE
8
BLACK
6
CONTINUOUS
10
147.683
20
-144.37
11
147.778
21
-144.18
0
LINE
8
BLACK
6
CONTINUOUS
10
147.778
20
-144.18
11
147.969
21
-143.894
0
LINE
8
BLACK
6
CONTINUOUS
10
147.969
20
-143.894
11
148.064
21
-143.799
0
LINE
8
BLACK
6
CONTINUOUS
10
148.635
20
-144.085
11
149.969
21
-144.085
0
LINE
8
BLACK
6
CONTINUOUS
10
149.969
20
-144.085
11
149.112
21
-146.085
0
LINE
8
BLACK
6
CONTINUOUS
10
152.255
20
-146.085
11
152.255
21
-144.085
0
LINE
8
BLACK
6
CONTINUOUS
10
153.112
20
-146.085
11
153.112
21
-145.037
0
LINE
8
BLACK
6
CONTINUOUS
10
153.112
20
-145.037
11
153.016
21
-144.847
0
LINE
8
BLACK
6
CONTINUOUS
10
153.016
20
-144.847
11
152.826
21
-144.751
0
LINE
8
BLACK
6
CONTINUOUS
10
152.826
20
-144.751
11
152.54
21
-144.751
0
LINE
8
BLACK
6
CONTINUOUS
10
152.54
20
-144.751
11
152.35
21
-144.847
0
LINE
8
BLACK
6
CONTINUOUS
10
152.35
20
-144.847
11
152.255
21
-144.942
0
LINE
8
BLACK
6
CONTINUOUS
10
154.35
20
-146.085
11
154.159
21
-145.99
0
LINE
8
BLACK
6
CONTINUOUS
10
154.159
20
-145.99
11
154.064
21
-145.894
0
LINE
8
BLACK
6
CONTINUOUS
10
154.064
20
-145.894
11
153.969
21
-145.704
0
LINE
8
BLACK
6
CONTINUOUS
10
153.969
20
-145.704
11
153.969
21
-145.132
0
LINE
8
BLACK
6
CONTINUOUS
10
153.969
20
-145.132
11
154.064
21
-144.942
0
LINE
8
BLACK
6
CONTINUOUS
10
154.064
20
-144.942
11
154.159
21
-144.847
0
LINE
8
BLACK
6
CONTINUOUS
10
154.159
20
-144.847
11
154.35
21
-144.751
0
LINE
8
BLACK
6
CONTINUOUS
10
154.35
20
-144.751
11
154.635
21
-144.751
0
LINE
8
BLACK
6
CONTINUOUS
10
154.635
20
-144.751
11
154.826
21
-144.847
0
LINE
8
BLACK
6
CONTINUOUS
10
154.826
20
-144.847
11
154.921
21
-144.942
0
LINE
8
BLACK
6
CONTINUOUS
10
154.921
20
-144.942
11
155.016
21
-145.132
0
LINE
8
BLACK
6
CONTINUOUS
10
155.016
20
-145.132
11
155.016
21
-145.704
0
LINE
8
BLACK
6
CONTINUOUS
10
155.016
20
-145.704
11
154.921
21
-145.894
0
LINE
8
BLACK
6
CONTINUOUS
10
154.921
20
-145.894
11
154.826
21
-145.99
0
LINE
8
BLACK
6
CONTINUOUS
10
154.826
20
-145.99
11
154.635
21
-146.085
0
LINE
8
BLACK
6
CONTINUOUS
10
154.635
20
-146.085
11
154.35
21
-146.085
0
LINE
8
BLACK
6
CONTINUOUS
10
156.159
20
-146.085
11
155.969
21
-145.99
0
LINE
8
BLACK
6
CONTINUOUS
10
155.969
20
-145.99
11
155.874
21
-145.799
0
LINE
8
BLACK
6
CONTINUOUS
10
155.874
20
-145.799
11
155.874
21
-144.085
0
LINE
8
BLACK
6
CONTINUOUS
10
157.683
20
-145.99
11
157.493
21
-146.085
0
LINE
8
BLACK
6
CONTINUOUS
10
157.493
20
-146.085
11
157.112
21
-146.085
0
LINE
8
BLACK
6
CONTINUOUS
10
157.112
20
-146.085
11
156.921
21
-145.99
0
LINE
8
BLACK
6
CONTINUOUS
10
156.921
20
-145.99
11
156.826
21
-145.799
0
LINE
8
BLACK
6
CONTINUOUS
10
156.826
20
-145.799
11
156.826
21
-145.037
0
LINE
8
BLACK
6
CONTINUOUS
10
156.826
20
-145.037
11
156.921
21
-144.847
0
LINE
8
BLACK
6
CONTINUOUS
10
156.921
20
-144.847
11
157.112
21
-144.751
0
LINE
8
BLACK
6
CONTINUOUS
10
157.112
20
-144.751
11
157.493
21
-144.751
0
LINE
8
BLACK
6
CONTINUOUS
10
157.493
20
-144.751
11
157.683
21
-144.847
0
LINE
8
BLACK
6
CONTINUOUS
10
157.683
20
-144.847
11
157.778
21
-145.037
0
LINE
8
BLACK
6
CONTINUOUS
10
157.778
20
-145.037
11
157.778
21
-145.228
0
LINE
8
BLACK
6
CONTINUOUS
10
157.778
20
-145.228
11
156.826
21
-145.418
0
LINE
8
BLACK
6
CONTINUOUS
10
158.54
20
-145.99
11
158.731
21
-146.085
0
LINE
8
BLACK
6
CONTINUOUS
10
158.731
20
-146.085
11
159.112
21
-146.085
0
LINE
8
BLACK
6
CONTINUOUS
10
159.112
20
-146.085
11
159.302
21
-145.99
0
LINE
8
BLACK
6
CONTINUOUS
10
159.302
20
-145.99
11
159.397
21
-145.799
0
LINE
8
BLACK
6
CONTINUOUS
10
159.397
20
-145.799
11
159.397
21
-145.704
0
LINE
8
BLACK
6
CONTINUOUS
10
159.397
20
-145.704
11
159.302
21
-145.513
0
LINE
8
BLACK
6
CONTINUOUS
10
159.302
20
-145.513
11
159.112
21
-145.418
0
LINE
8
BLACK
6
CONTINUOUS
10
159.112
20
-145.418
11
158.826
21
-145.418
0
LINE
8
BLACK
6
CONTINUOUS
10
158.826
20
-145.418
11
158.635
21
-145.323
0
LINE
8
BLACK
6
CONTINUOUS
10
158.635
20
-145.323
11
158.54
21
-145.132
0
LINE
8
BLACK
6
CONTINUOUS
10
158.54
20
-145.132
11
158.54
21
-145.037
0
LINE
8
BLACK
6
CONTINUOUS
10
158.54
20
-145.037
11
158.635
21
-144.847
0
LINE
8
BLACK
6
CONTINUOUS
10
158.635
20
-144.847
11
158.826
21
-144.751
0
LINE
8
BLACK
6
CONTINUOUS
10
158.826
20
-144.751
11
159.112
21
-144.751
0
LINE
8
BLACK
6
CONTINUOUS
10
159.112
20
-144.751
11
159.302
21
-144.847
0
LINE
8
BLACK
6
CONTINUOUS
10
160.064
20
-146.847
11
160.159
21
-146.751
0
LINE
8
BLACK
6
CONTINUOUS
10
160.159
20
-146.751
11
160.35
21
-146.466
0
LINE
8
BLACK
6
CONTINUOUS
10
160.35
20
-146.466
11
160.445
21
-146.275
0
LINE
8
BLACK
6
CONTINUOUS
10
160.445
20
-146.275
11
160.54
21
-145.99
0
LINE
8
BLACK
6
CONTINUOUS
10
160.54
20
-145.99
11
160.635
21
-145.513
0
LINE
8
BLACK
6
CONTINUOUS
10
160.635
20
-145.513
11
160.635
21
-145.132
0
LINE
8
BLACK
6
CONTINUOUS
10
160.635
20
-145.132
11
160.54
21
-144.656
0
LINE
8
BLACK
6
CONTINUOUS
10
160.54
20
-144.656
11
160.445
21
-144.37
0
LINE
8
BLACK
6
CONTINUOUS
10
160.445
20
-144.37
11
160.35
21
-144.18
0
LINE
8
BLACK
6
CONTINUOUS
10
160.35
20
-144.18
11
160.159
21
-143.894
0
LINE
8
BLACK
6
CONTINUOUS
10
160.159
20
-143.894
11
160.064
21
-143.799
0
LINE
8
BLACK
6
CONTINUOUS
10
111.745
20
-148.42
11
112.345
21
-147.82
0
LINE
8
BLACK
6
CONTINUOUS
10
112.345
20
-147.82
11
111.745
21
-147.22
0
LINE
8
BLACK
6
CONTINUOUS
10
111.745
20
-147.22
11
111.145
21
-147.82
0
LINE
8
BLACK
6
CONTINUOUS
10
111.145
20
-147.82
11
111.745
21
-148.42
0
LINE
8
BLACK
6
CONTINUOUS
10
115.969
20
-148.725
11
114.826
21
-148.725
0
LINE
8
BLACK
6
CONTINUOUS
10
115.397
20
-148.725
11
115.397
21
-146.725
0
LINE
8
BLACK
6
CONTINUOUS
10
115.397
20
-146.725
11
115.207
21
-147.01
0
LINE
8
BLACK
6
CONTINUOUS
10
115.207
20
-147.01
11
115.016
21
-147.201
0
LINE
8
BLACK
6
CONTINUOUS
10
115.016
20
-147.201
11
114.826
21
-147.296
0
LINE
8
BLACK
6
CONTINUOUS
10
116.826
20
-148.534
11
116.921
21
-148.63
0
LINE
8
BLACK
6
CONTINUOUS
10
116.921
20
-148.63
11
116.826
21
-148.725
0
LINE
8
BLACK
6
CONTINUOUS
10
116.826
20
-148.725
11
116.731
21
-148.63
0
LINE
8
BLACK
6
CONTINUOUS
10
116.731
20
-148.63
11
116.826
21
-148.534
0
LINE
8
BLACK
6
CONTINUOUS
10
116.826
20
-148.534
11
116.826
21
-148.725
0
LINE
8
BLACK
6
CONTINUOUS
10
117.683
20
-146.915
11
117.778
21
-146.82
0
LINE
8
BLACK
6
CONTINUOUS
10
117.778
20
-146.82
11
117.969
21
-146.725
0
LINE
8
BLACK
6
CONTINUOUS
10
117.969
20
-146.725
11
118.445
21
-146.725
0
LINE
8
BLACK
6
CONTINUOUS
10
118.445
20
-146.725
11
118.635
21
-146.82
0
LINE
8
BLACK
6
CONTINUOUS
10
118.635
20
-146.82
11
118.731
21
-146.915
0
LINE
8
BLACK
6
CONTINUOUS
10
118.731
20
-146.915
11
118.826
21
-147.106
0
LINE
8
BLACK
6
CONTINUOUS
10
118.826
20
-147.106
11
118.826
21
-147.296
0
LINE
8
BLACK
6
CONTINUOUS
10
118.826
20
-147.296
11
118.731
21
-147.582
0
LINE
8
BLACK
6
CONTINUOUS
10
118.731
20
-147.582
11
117.588
21
-148.725
0
LINE
8
BLACK
6
CONTINUOUS
10
117.588
20
-148.725
11
118.826
21
-148.725
0
LINE
8
BLACK
6
CONTINUOUS
10
120.064
20
-146.725
11
120.255
21
-146.725
0
LINE
8
BLACK
6
CONTINUOUS
10
120.255
20
-146.725
11
120.445
21
-146.82
0
LINE
8
BLACK
6
CONTINUOUS
10
120.445
20
-146.82
11
120.54
21
-146.915
0
LINE
8
BLACK
6
CONTINUOUS
10
120.54
20
-146.915
11
120.635
21
-147.106
0
LINE
8
BLACK
6
CONTINUOUS
10
120.635
20
-147.106
11
120.731
21
-147.487
0
LINE
8
BLACK
6
CONTINUOUS
10
120.731
20
-147.487
11
120.731
21
-147.963
0
LINE
8
BLACK
6
CONTINUOUS
10
120.731
20
-147.963
11
120.635
21
-148.344
0
LINE
8
BLACK
6
CONTINUOUS
10
120.635
20
-148.344
11
120.54
21
-148.534
0
LINE
8
BLACK
6
CONTINUOUS
10
120.54
20
-148.534
11
120.445
21
-148.63
0
LINE
8
BLACK
6
CONTINUOUS
10
120.445
20
-148.63
11
120.255
21
-148.725
0
LINE
8
BLACK
6
CONTINUOUS
10
120.255
20
-148.725
11
120.064
21
-148.725
0
LINE
8
BLACK
6
CONTINUOUS
10
120.064
20
-148.725
11
119.874
21
-148.63
0
LINE
8
BLACK
6
CONTINUOUS
10
119.874
20
-148.63
11
119.778
21
-148.534
0
LINE
8
BLACK
6
CONTINUOUS
10
119.778
20
-148.534
11
119.683
21
-148.344
0
LINE
8
BLACK
6
CONTINUOUS
10
119.683
20
-148.344
11
119.588
21
-147.963
0
LINE
8
BLACK
6
CONTINUOUS
10
119.588
20
-147.963
11
119.588
21
-147.487
0
LINE
8
BLACK
6
CONTINUOUS
10
119.588
20
-147.487
11
119.683
21
-147.106
0
LINE
8
BLACK
6
CONTINUOUS
10
119.683
20
-147.106
11
119.778
21
-146.915
0
LINE
8
BLACK
6
CONTINUOUS
10
119.778
20
-146.915
11
119.874
21
-146.82
0
LINE
8
BLACK
6
CONTINUOUS
10
119.874
20
-146.82
11
120.064
21
-146.725
0
LINE
8
BLACK
6
CONTINUOUS
10
121.969
20
-146.725
11
122.159
21
-146.725
0
LINE
8
BLACK
6
CONTINUOUS
10
122.159
20
-146.725
11
122.35
21
-146.82
0
LINE
8
BLACK
6
CONTINUOUS
10
122.35
20
-146.82
11
122.445
21
-146.915
0
LINE
8
BLACK
6
CONTINUOUS
10
122.445
20
-146.915
11
122.54
21
-147.106
0
LINE
8
BLACK
6
CONTINUOUS
10
122.54
20
-147.106
11
122.635
21
-147.487
0
LINE
8
BLACK
6
CONTINUOUS
10
122.635
20
-147.487
11
122.635
21
-147.963
0
LINE
8
BLACK
6
CONTINUOUS
10
122.635
20
-147.963
11
122.54
21
-148.344
0
LINE
8
BLACK
6
CONTINUOUS
10
122.54
20
-148.344
11
122.445
21
-148.534
0
LINE
8
BLACK
6
CONTINUOUS
10
122.445
20
-148.534
11
122.35
21
-148.63
0
LINE
8
BLACK
6
CONTINUOUS
10
122.35
20
-148.63
11
122.159
21
-148.725
0
LINE
8
BLACK
6
CONTINUOUS
10
122.159
20
-148.725
11
121.969
21
-148.725
0
LINE
8
BLACK
6
CONTINUOUS
10
121.969
20
-148.725
11
121.778
21
-148.63
0
LINE
8
BLACK
6
CONTINUOUS
10
121.778
20
-148.63
11
121.683
21
-148.534
0
LINE
8
BLACK
6
CONTINUOUS
10
121.683
20
-148.534
11
121.588
21
-148.344
0
LINE
8
BLACK
6
CONTINUOUS
10
121.588
20
-148.344
11
121.493
21
-147.963
0
LINE
8
BLACK
6
CONTINUOUS
10
121.493
20
-147.963
11
121.493
21
-147.487
0
LINE
8
BLACK
6
CONTINUOUS
10
121.493
20
-147.487
11
121.588
21
-147.106
0
LINE
8
BLACK
6
CONTINUOUS
10
121.588
20
-147.106
11
121.683
21
-146.915
0
LINE
8
BLACK
6
CONTINUOUS
10
121.683
20
-146.915
11
121.778
21
-146.82
0
LINE
8
BLACK
6
CONTINUOUS
10
121.778
20
-146.82
11
121.969
21
-146.725
0
LINE
8
BLACK
6
CONTINUOUS
10
123.493
20
-148.725
11
123.493
21
-147.391
0
LINE
8
BLACK
6
CONTINUOUS
10
123.493
20
-147.582
11
123.588
21
-147.487
0
LINE
8
BLACK
6
CONTINUOUS
10
123.588
20
-147.487
11
123.778
21
-147.391
0
LINE
8
BLACK
6
CONTINUOUS
10
123.778
20
-147.391
11
124.064
21
-147.391
0
LINE
8
BLACK
6
CONTINUOUS
10
124.064
20
-147.391
11
124.255
21
-147.487
0
LINE
8
BLACK
6
CONTINUOUS
10
124.255
20
-147.487
11
124.35
21
-147.677
0
LINE
8
BLACK
6
CONTINUOUS
10
124.35
20
-147.677
11
124.35
21
-148.725
0
LINE
8
BLACK
6
CONTINUOUS
10
124.35
20
-147.677
11
124.445
21
-147.487
0
LINE
8
BLACK
6
CONTINUOUS
10
124.445
20
-147.487
11
124.635
21
-147.391
0
LINE
8
BLACK
6
CONTINUOUS
10
124.635
20
-147.391
11
124.921
21
-147.391
0
LINE
8
BLACK
6
CONTINUOUS
10
124.921
20
-147.391
11
125.112
21
-147.487
0
LINE
8
BLACK
6
CONTINUOUS
10
125.112
20
-147.487
11
125.207
21
-147.677
0
LINE
8
BLACK
6
CONTINUOUS
10
125.207
20
-147.677
11
125.207
21
-148.725
0
LINE
8
BLACK
6
CONTINUOUS
10
126.159
20
-148.725
11
126.159
21
-147.391
0
LINE
8
BLACK
6
CONTINUOUS
10
126.159
20
-147.582
11
126.255
21
-147.487
0
LINE
8
BLACK
6
CONTINUOUS
10
126.255
20
-147.487
11
126.445
21
-147.391
0
LINE
8
BLACK
6
CONTINUOUS
10
126.445
20
-147.391
11
126.731
21
-147.391
0
LINE
8
BLACK
6
CONTINUOUS
10
126.731
20
-147.391
11
126.921
21
-147.487
0
LINE
8
BLACK
6
CONTINUOUS
10
126.921
20
-147.487
11
127.016
21
-147.677
0
LINE
8
BLACK
6
CONTINUOUS
10
127.016
20
-147.677
11
127.016
21
-148.725
0
LINE
8
BLACK
6
CONTINUOUS
10
127.016
20
-147.677
11
127.112
21
-147.487
0
LINE
8
BLACK
6
CONTINUOUS
10
127.112
20
-147.487
11
127.302
21
-147.391
0
LINE
8
BLACK
6
CONTINUOUS
10
127.302
20
-147.391
11
127.588
21
-147.391
0
LINE
8
BLACK
6
CONTINUOUS
10
127.588
20
-147.391
11
127.778
21
-147.487
0
LINE
8
BLACK
6
CONTINUOUS
10
127.778
20
-147.487
11
127.874
21
-147.677
0
LINE
8
BLACK
6
CONTINUOUS
10
127.874
20
-147.677
11
127.874
21
-148.725
0
LINE
8
BLACK
6
CONTINUOUS
10
131.778
20
-146.63
11
130.064
21
-149.201
0
LINE
8
BLACK
6
CONTINUOUS
10
134.35
20
-146.725
11
134.54
21
-146.725
0
LINE
8
BLACK
6
CONTINUOUS
10
134.54
20
-146.725
11
134.731
21
-146.82
0
LINE
8
BLACK
6
CONTINUOUS
10
134.731
20
-146.82
11
134.826
21
-146.915
0
LINE
8
BLACK
6
CONTINUOUS
10
134.826
20
-146.915
11
134.921
21
-147.106
0
LINE
8
BLACK
6
CONTINUOUS
10
134.921
20
-147.106
11
135.016
21
-147.487
0
LINE
8
BLACK
6
CONTINUOUS
10
135.016
20
-147.487
11
135.016
21
-147.963
0
LINE
8
BLACK
6
CONTINUOUS
10
135.016
20
-147.963
11
134.921
21
-148.344
0
LINE
8
BLACK
6
CONTINUOUS
10
134.921
20
-148.344
11
134.826
21
-148.534
0
LINE
8
BLACK
6
CONTINUOUS
10
134.826
20
-148.534
11
134.731
21
-148.63
0
LINE
8
BLACK
6
CONTINUOUS
10
134.731
20
-148.63
11
134.54
21
-148.725
0
LINE
8
BLACK
6
CONTINUOUS
10
134.54
20
-148.725
11
134.35
21
-148.725
0
LINE
8
BLACK
6
CONTINUOUS
10
134.35
20
-148.725
11
134.159
21
-148.63
0
LINE
8
BLACK
6
CONTINUOUS
10
134.159
20
-148.63
11
134.064
21
-148.534
0
LINE
8
BLACK
6
CONTINUOUS
10
134.064
20
-148.534
11
133.969
21
-148.344
0
LINE
8
BLACK
6
CONTINUOUS
10
133.969
20
-148.344
11
133.874
21
-147.963
0
LINE
8
BLACK
6
CONTINUOUS
10
133.874
20
-147.963
11
133.874
21
-147.487
0
LINE
8
BLACK
6
CONTINUOUS
10
133.874
20
-147.487
11
133.969
21
-147.106
0
LINE
8
BLACK
6
CONTINUOUS
10
133.969
20
-147.106
11
134.064
21
-146.915
0
LINE
8
BLACK
6
CONTINUOUS
10
134.064
20
-146.915
11
134.159
21
-146.82
0
LINE
8
BLACK
6
CONTINUOUS
10
134.159
20
-146.82
11
134.35
21
-146.725
0
LINE
8
BLACK
6
CONTINUOUS
10
135.874
20
-148.534
11
135.969
21
-148.63
0
LINE
8
BLACK
6
CONTINUOUS
10
135.969
20
-148.63
11
135.874
21
-148.725
0
LINE
8
BLACK
6
CONTINUOUS
10
135.874
20
-148.725
11
135.778
21
-148.63
0
LINE
8
BLACK
6
CONTINUOUS
10
135.778
20
-148.63
11
135.874
21
-148.534
0
LINE
8
BLACK
6
CONTINUOUS
10
135.874
20
-148.534
11
135.874
21
-148.725
0
LINE
8
BLACK
6
CONTINUOUS
10
137.207
20
-146.725
11
137.397
21
-146.725
0
LINE
8
BLACK
6
CONTINUOUS
10
137.397
20
-146.725
11
137.588
21
-146.82
0
LINE
8
BLACK
6
CONTINUOUS
10
137.588
20
-146.82
11
137.683
21
-146.915
0
LINE
8
BLACK
6
CONTINUOUS
10
137.683
20
-146.915
11
137.778
21
-147.106
0
LINE
8
BLACK
6
CONTINUOUS
10
137.778
20
-147.106
11
137.874
21
-147.487
0
LINE
8
BLACK
6
CONTINUOUS
10
137.874
20
-147.487
11
137.874
21
-147.963
0
LINE
8
BLACK
6
CONTINUOUS
10
137.874
20
-147.963
11
137.778
21
-148.344
0
LINE
8
BLACK
6
CONTINUOUS
10
137.778
20
-148.344
11
137.683
21
-148.534
0
LINE
8
BLACK
6
CONTINUOUS
10
137.683
20
-148.534
11
137.588
21
-148.63
0
LINE
8
BLACK
6
CONTINUOUS
10
137.588
20
-148.63
11
137.397
21
-148.725
0
LINE
8
BLACK
6
CONTINUOUS
10
137.397
20
-148.725
11
137.207
21
-148.725
0
LINE
8
BLACK
6
CONTINUOUS
10
137.207
20
-148.725
11
137.016
21
-148.63
0
LINE
8
BLACK
6
CONTINUOUS
10
137.016
20
-148.63
11
136.921
21
-148.534
0
LINE
8
BLACK
6
CONTINUOUS
10
136.921
20
-148.534
11
136.826
21
-148.344
0
LINE
8
BLACK
6
CONTINUOUS
10
136.826
20
-148.344
11
136.731
21
-147.963
0
LINE
8
BLACK
6
CONTINUOUS
10
136.731
20
-147.963
11
136.731
21
-147.487
0
LINE
8
BLACK
6
CONTINUOUS
10
136.731
20
-147.487
11
136.826
21
-147.106
0
LINE
8
BLACK
6
CONTINUOUS
10
136.826
20
-147.106
11
136.921
21
-146.915
0
LINE
8
BLACK
6
CONTINUOUS
10
136.921
20
-146.915
11
137.016
21
-146.82
0
LINE
8
BLACK
6
CONTINUOUS
10
137.016
20
-146.82
11
137.207
21
-146.725
0
LINE
8
BLACK
6
CONTINUOUS
10
139.588
20
-147.391
11
139.588
21
-148.725
0
LINE
8
BLACK
6
CONTINUOUS
10
139.112
20
-146.63
11
138.635
21
-148.058
0
LINE
8
BLACK
6
CONTINUOUS
10
138.635
20
-148.058
11
139.874
21
-148.058
0
LINE
8
BLACK
6
CONTINUOUS
10
140.445
20
-146.725
11
141.778
21
-146.725
0
LINE
8
BLACK
6
CONTINUOUS
10
141.778
20
-146.725
11
140.921
21
-148.725
0
LINE
8
BLACK
6
CONTINUOUS
10
142.445
20
-146.915
11
142.54
21
-146.82
0
LINE
8
BLACK
6
CONTINUOUS
10
142.54
20
-146.82
11
142.731
21
-146.725
0
LINE
8
BLACK
6
CONTINUOUS
10
142.731
20
-146.725
11
143.207
21
-146.725
0
LINE
8
BLACK
6
CONTINUOUS
10
143.207
20
-146.725
11
143.397
21
-146.82
0
LINE
8
BLACK
6
CONTINUOUS
10
143.397
20
-146.82
11
143.493
21
-146.915
0
LINE
8
BLACK
6
CONTINUOUS
10
143.493
20
-146.915
11
143.588
21
-147.106
0
LINE
8
BLACK
6
CONTINUOUS
10
143.588
20
-147.106
11
143.588
21
-147.296
0
LINE
8
BLACK
6
CONTINUOUS
10
143.588
20
-147.296
11
143.493
21
-147.582
0
LINE
8
BLACK
6
CONTINUOUS
10
143.493
20
-147.582
11
142.35
21
-148.725
0
LINE
8
BLACK
6
CONTINUOUS
10
142.35
20
-148.725
11
143.588
21
-148.725
0
LINE
8
BLACK
6
CONTINUOUS
10
144.35
20
-146.725
11
144.35
21
-147.106
0
LINE
8
BLACK
6
CONTINUOUS
10
145.112
20
-146.725
11
145.112
21
-147.106
0
LINE
8
BLACK
6
CONTINUOUS
10
148.064
20
-149.487
11
147.969
21
-149.391
0
LINE
8
BLACK
6
CONTINUOUS
10
147.969
20
-149.391
11
147.778
21
-149.106
0
LINE
8
BLACK
6
CONTINUOUS
10
147.778
20
-149.106
11
147.683
21
-148.915
0
LINE
8
BLACK
6
CONTINUOUS
10
147.683
20
-148.915
11
147.588
21
-148.63
0
LINE
8
BLACK
6
CONTINUOUS
10
147.588
20
-148.63
11
147.493
21
-148.153
0
LINE
8
BLACK
6
CONTINUOUS
10
147.493
20
-148.153
11
147.493
21
-147.772
0
LINE
8
BLACK
6
CONTINUOUS
10
147.493
20
-147.772
11
147.588
21
-147.296
0
LINE
8
BLACK
6
CONTINUOUS
10
147.588
20
-147.296
11
147.683
21
-147.01
0
LINE
8
BLACK
6
CONTINUOUS
10
147.683
20
-147.01
11
147.778
21
-146.82
0
LINE
8
BLACK
6
CONTINUOUS
10
147.778
20
-146.82
11
147.969
21
-146.534
0
LINE
8
BLACK
6
CONTINUOUS
10
147.969
20
-146.534
11
148.064
21
-146.439
0
LINE
8
BLACK
6
CONTINUOUS
10
149.683
20
-146.725
11
149.302
21
-146.725
0
LINE
8
BLACK
6
CONTINUOUS
10
149.302
20
-146.725
11
149.112
21
-146.82
0
LINE
8
BLACK
6
CONTINUOUS
10
149.112
20
-146.82
11
149.016
21
-146.915
0
LINE
8
BLACK
6
CONTINUOUS
10
149.016
20
-146.915
11
148.826
21
-147.201
0
LINE
8
BLACK
6
CONTINUOUS
10
148.826
20
-147.201
11
148.731
21
-147.582
0
LINE
8
BLACK
6
CONTINUOUS
10
148.731
20
-147.582
11
148.731
21
-148.344
0
LINE
8
BLACK
6
CONTINUOUS
10
148.731
20
-148.344
11
148.826
21
-148.534
0
LINE
8
BLACK
6
CONTINUOUS
10
148.826
20
-148.534
11
148.921
21
-148.63
0
LINE
8
BLACK
6
CONTINUOUS
10
148.921
20
-148.63
11
149.112
21
-148.725
0
LINE
8
BLACK
6
CONTINUOUS
10
149.112
20
-148.725
11
149.493
21
-148.725
0
LINE
8
BLACK
6
CONTINUOUS
10
149.493
20
-148.725
11
149.683
21
-148.63
0
LINE
8
BLACK
6
CONTINUOUS
10
149.683
20
-148.63
11
149.778
21
-148.534
0
LINE
8
BLACK
6
CONTINUOUS
10
149.778
20
-148.534
11
149.874
21
-148.344
0
LINE
8
BLACK
6
CONTINUOUS
10
149.874
20
-148.344
11
149.874
21
-147.868
0
LINE
8
BLACK
6
CONTINUOUS
10
149.874
20
-147.868
11
149.778
21
-147.677
0
LINE
8
BLACK
6
CONTINUOUS
10
149.778
20
-147.677
11
149.683
21
-147.582
0
LINE
8
BLACK
6
CONTINUOUS
10
149.683
20
-147.582
11
149.493
21
-147.487
0
LINE
8
BLACK
6
CONTINUOUS
10
149.493
20
-147.487
11
149.112
21
-147.487
0
LINE
8
BLACK
6
CONTINUOUS
10
149.112
20
-147.487
11
148.921
21
-147.582
0
LINE
8
BLACK
6
CONTINUOUS
10
148.921
20
-147.582
11
148.826
21
-147.677
0
LINE
8
BLACK
6
CONTINUOUS
10
148.826
20
-147.677
11
148.731
21
-147.868
0
LINE
8
BLACK
6
CONTINUOUS
10
152.255
20
-148.725
11
152.255
21
-146.725
0
LINE
8
BLACK
6
CONTINUOUS
10
153.112
20
-148.725
11
153.112
21
-147.677
0
LINE
8
BLACK
6
CONTINUOUS
10
153.112
20
-147.677
11
153.016
21
-147.487
0
LINE
8
BLACK
6
CONTINUOUS
10
153.016
20
-147.487
11
152.826
21
-147.391
0
LINE
8
BLACK
6
CONTINUOUS
10
152.826
20
-147.391
11
152.54
21
-147.391
0
LINE
8
BLACK
6
CONTINUOUS
10
152.54
20
-147.391
11
152.35
21
-147.487
0
LINE
8
BLACK
6
CONTINUOUS
10
152.35
20
-147.487
11
152.255
21
-147.582
0
LINE
8
BLACK
6
CONTINUOUS
10
154.35
20
-148.725
11
154.159
21
-148.63
0
LINE
8
BLACK
6
CONTINUOUS
10
154.159
20
-148.63
11
154.064
21
-148.534
0
LINE
8
BLACK
6
CONTINUOUS
10
154.064
20
-148.534
11
153.969
21
-148.344
0
LINE
8
BLACK
6
CONTINUOUS
10
153.969
20
-148.344
11
153.969
21
-147.772
0
LINE
8
BLACK
6
CONTINUOUS
10
153.969
20
-147.772
11
154.064
21
-147.582
0
LINE
8
BLACK
6
CONTINUOUS
10
154.064
20
-147.582
11
154.159
21
-147.487
0
LINE
8
BLACK
6
CONTINUOUS
10
154.159
20
-147.487
11
154.35
21
-147.391
0
LINE
8
BLACK
6
CONTINUOUS
10
154.35
20
-147.391
11
154.635
21
-147.391
0
LINE
8
BLACK
6
CONTINUOUS
10
154.635
20
-147.391
11
154.826
21
-147.487
0
LINE
8
BLACK
6
CONTINUOUS
10
154.826
20
-147.487
11
154.921
21
-147.582
0
LINE
8
BLACK
6
CONTINUOUS
10
154.921
20
-147.582
11
155.016
21
-147.772
0
LINE
8
BLACK
6
CONTINUOUS
10
155.016
20
-147.772
11
155.016
21
-148.344
0
LINE
8
BLACK
6
CONTINUOUS
10
155.016
20
-148.344
11
154.921
21
-148.534
0
LINE
8
BLACK
6
CONTINUOUS
10
154.921
20
-148.534
11
154.826
21
-148.63
0
LINE
8
BLACK
6
CONTINUOUS
10
154.826
20
-148.63
11
154.635
21
-148.725
0
LINE
8
BLACK
6
CONTINUOUS
10
154.635
20
-148.725
11
154.35
21
-148.725
0
LINE
8
BLACK
6
CONTINUOUS
10
156.159
20
-148.725
11
155.969
21
-148.63
0
LINE
8
BLACK
6
CONTINUOUS
10
155.969
20
-148.63
11
155.874
21
-148.439
0
LINE
8
BLACK
6
CONTINUOUS
10
155.874
20
-148.439
11
155.874
21
-146.725
0
LINE
8
BLACK
6
CONTINUOUS
10
157.683
20
-148.63
11
157.493
21
-148.725
0
LINE
8
BLACK
6
CONTINUOUS
10
157.493
20
-148.725
11
157.112
21
-148.725
0
LINE
8
BLACK
6
CONTINUOUS
10
157.112
20
-148.725
11
156.921
21
-148.63
0
LINE
8
BLACK
6
CONTINUOUS
10
156.921
20
-148.63
11
156.826
21
-148.439
0
LINE
8
BLACK
6
CONTINUOUS
10
156.826
20
-148.439
11
156.826
21
-147.677
0
LINE
8
BLACK
6
CONTINUOUS
10
156.826
20
-147.677
11
156.921
21
-147.487
0
LINE
8
BLACK
6
CONTINUOUS
10
156.921
20
-147.487
11
157.112
21
-147.391
0
LINE
8
BLACK
6
CONTINUOUS
10
157.112
20
-147.391
11
157.493
21
-147.391
0
LINE
8
BLACK
6
CONTINUOUS
10
157.493
20
-147.391
11
157.683
21
-147.487
0
LINE
8
BLACK
6
CONTINUOUS
10
157.683
20
-147.487
11
157.778
21
-147.677
0
LINE
8
BLACK
6
CONTINUOUS
10
157.778
20
-147.677
11
157.778
21
-147.868
0
LINE
8
BLACK
6
CONTINUOUS
10
157.778
20
-147.868
11
156.826
21
-148.058
0
LINE
8
BLACK
6
CONTINUOUS
10
158.54
20
-148.63
11
158.731
21
-148.725
0
LINE
8
BLACK
6
CONTINUOUS
10
158.731
20
-148.725
11
159.112
21
-148.725
0
LINE
8
BLACK
6
CONTINUOUS
10
159.112
20
-148.725
11
159.302
21
-148.63
0
LINE
8
BLACK
6
CONTINUOUS
10
159.302
20
-148.63
11
159.397
21
-148.439
0
LINE
8
BLACK
6
CONTINUOUS
10
159.397
20
-148.439
11
159.397
21
-148.344
0
LINE
8
BLACK
6
CONTINUOUS
10
159.397
20
-148.344
11
159.302
21
-148.153
0
LINE
8
BLACK
6
CONTINUOUS
10
159.302
20
-148.153
11
159.112
21
-148.058
0
LINE
8
BLACK
6
CONTINUOUS
10
159.112
20
-148.058
11
158.826
21
-148.058
0
LINE
8
BLACK
6
CONTINUOUS
10
158.826
20
-148.058
11
158.635
21
-147.963
0
LINE
8
BLACK
6
CONTINUOUS
10
158.635
20
-147.963
11
158.54
21
-147.772
0
LINE
8
BLACK
6
CONTINUOUS
10
158.54
20
-147.772
11
158.54
21
-147.677
0
LINE
8
BLACK
6
CONTINUOUS
10
158.54
20
-147.677
11
158.635
21
-147.487
0
LINE
8
BLACK
6
CONTINUOUS
10
158.635
20
-147.487
11
158.826
21
-147.391
0
LINE
8
BLACK
6
CONTINUOUS
10
158.826
20
-147.391
11
159.112
21
-147.391
0
LINE
8
BLACK
6
CONTINUOUS
10
159.112
20
-147.391
11
159.302
21
-147.487
0
LINE
8
BLACK
6
CONTINUOUS
10
160.064
20
-149.487
11
160.159
21
-149.391
0
LINE
8
BLACK
6
CONTINUOUS
10
160.159
20
-149.391
11
160.35
21
-149.106
0
LINE
8
BLACK
6
CONTINUOUS
10
160.35
20
-149.106
11
160.445
21
-148.915
0
LINE
8
BLACK
6
CONTINUOUS
10
160.445
20
-148.915
11
160.54
21
-148.63
0
LINE
8
BLACK
6
CONTINUOUS
10
160.54
20
-148.63
11
160.635
21
-148.153
0
LINE
8
BLACK
6
CONTINUOUS
10
160.635
20
-148.153
11
160.635
21
-147.772
0
LINE
8
BLACK
6
CONTINUOUS
10
160.635
20
-147.772
11
160.54
21
-147.296
0
LINE
8
BLACK
6
CONTINUOUS
10
160.54
20
-147.296
11
160.445
21
-147.01
0
LINE
8
BLACK
6
CONTINUOUS
10
160.445
20
-147.01
11
160.35
21
-146.82
0
LINE
8
BLACK
6
CONTINUOUS
10
160.35
20
-146.82
11
160.159
21
-146.534
0
LINE
8
BLACK
6
CONTINUOUS
10
160.159
20
-146.534
11
160.064
21
-146.439
0
LINE
8
BLACK
6
CONTINUOUS
10
111.045
20
-149.81
11
112.345
21
-151.11
0
LINE
8
BLACK
6
CONTINUOUS
10
112.345
20
-149.81
11
111.045
21
-151.11
0
CIRCLE
8
BLACK
10
111.695
20
-150.46
40
0.65
0
LINE
8
BLACK
6
CONTINUOUS
10
115.969
20
-151.365
11
114.826
21
-151.365
0
LINE
8
BLACK
6
CONTINUOUS
10
115.397
20
-151.365
11
115.397
21
-149.365
0
LINE
8
BLACK
6
CONTINUOUS
10
115.397
20
-149.365
11
115.207
21
-149.65
0
LINE
8
BLACK
6
CONTINUOUS
10
115.207
20
-149.65
11
115.016
21
-149.841
0
LINE
8
BLACK
6
CONTINUOUS
10
115.016
20
-149.841
11
114.826
21
-149.936
0
LINE
8
BLACK
6
CONTINUOUS
10
116.826
20
-151.174
11
116.921
21
-151.27
0
LINE
8
BLACK
6
CONTINUOUS
10
116.921
20
-151.27
11
116.826
21
-151.365
0
LINE
8
BLACK
6
CONTINUOUS
10
116.826
20
-151.365
11
116.731
21
-151.27
0
LINE
8
BLACK
6
CONTINUOUS
10
116.731
20
-151.27
11
116.826
21
-151.174
0
LINE
8
BLACK
6
CONTINUOUS
10
116.826
20
-151.174
11
116.826
21
-151.365
0
LINE
8
BLACK
6
CONTINUOUS
10
117.588
20
-149.365
11
118.826
21
-149.365
0
LINE
8
BLACK
6
CONTINUOUS
10
118.826
20
-149.365
11
118.159
21
-150.127
0
LINE
8
BLACK
6
CONTINUOUS
10
118.159
20
-150.127
11
118.445
21
-150.127
0
LINE
8
BLACK
6
CONTINUOUS
10
118.445
20
-150.127
11
118.635
21
-150.222
0
LINE
8
BLACK
6
CONTINUOUS
10
118.635
20
-150.222
11
118.731
21
-150.317
0
LINE
8
BLACK
6
CONTINUOUS
10
118.731
20
-150.317
11
118.826
21
-150.508
0
LINE
8
BLACK
6
CONTINUOUS
10
118.826
20
-150.508
11
118.826
21
-150.984
0
LINE
8
BLACK
6
CONTINUOUS
10
118.826
20
-150.984
11
118.731
21
-151.174
0
LINE
8
BLACK
6
CONTINUOUS
10
118.731
20
-151.174
11
118.635
21
-151.27
0
LINE
8
BLACK
6
CONTINUOUS
10
118.635
20
-151.27
11
118.445
21
-151.365
0
LINE
8
BLACK
6
CONTINUOUS
10
118.445
20
-151.365
11
117.874
21
-151.365
0
LINE
8
BLACK
6
CONTINUOUS
10
117.874
20
-151.365
11
117.683
21
-151.27
0
LINE
8
BLACK
6
CONTINUOUS
10
117.683
20
-151.27
11
117.588
21
-151.174
0
LINE
8
BLACK
6
CONTINUOUS
10
120.064
20
-149.365
11
120.255
21
-149.365
0
LINE
8
BLACK
6
CONTINUOUS
10
120.255
20
-149.365
11
120.445
21
-149.46
0
LINE
8
BLACK
6
CONTINUOUS
10
120.445
20
-149.46
11
120.54
21
-149.555
0
LINE
8
BLACK
6
CONTINUOUS
10
120.54
20
-149.555
11
120.635
21
-149.746
0
LINE
8
BLACK
6
CONTINUOUS
10
120.635
20
-149.746
11
120.731
21
-150.127
0
LINE
8
BLACK
6
CONTINUOUS
10
120.731
20
-150.127
11
120.731
21
-150.603
0
LINE
8
BLACK
6
CONTINUOUS
10
120.731
20
-150.603
11
120.635
21
-150.984
0
LINE
8
BLACK
6
CONTINUOUS
10
120.635
20
-150.984
11
120.54
21
-151.174
0
LINE
8
BLACK
6
CONTINUOUS
10
120.54
20
-151.174
11
120.445
21
-151.27
0
LINE
8
BLACK
6
CONTINUOUS
10
120.445
20
-151.27
11
120.255
21
-151.365
0
LINE
8
BLACK
6
CONTINUOUS
10
120.255
20
-151.365
11
120.064
21
-151.365
0
LINE
8
BLACK
6
CONTINUOUS
10
120.064
20
-151.365
11
119.874
21
-151.27
0
LINE
8
BLACK
6
CONTINUOUS
10
119.874
20
-151.27
11
119.778
21
-151.174
0
LINE
8
BLACK
6
CONTINUOUS
10
119.778
20
-151.174
11
119.683
21
-150.984
0
LINE
8
BLACK
6
CONTINUOUS
10
119.683
20
-150.984
11
119.588
21
-150.603
0
LINE
8
BLACK
6
CONTINUOUS
10
119.588
20
-150.603
11
119.588
21
-150.127
0
LINE
8
BLACK
6
CONTINUOUS
10
119.588
20
-150.127
11
119.683
21
-149.746
0
LINE
8
BLACK
6
CONTINUOUS
10
119.683
20
-149.746
11
119.778
21
-149.555
0
LINE
8
BLACK
6
CONTINUOUS
10
119.778
20
-149.555
11
119.874
21
-149.46
0
LINE
8
BLACK
6
CONTINUOUS
10
119.874
20
-149.46
11
120.064
21
-149.365
0
LINE
8
BLACK
6
CONTINUOUS
10
121.969
20
-149.365
11
122.159
21
-149.365
0
LINE
8
BLACK
6
CONTINUOUS
10
122.159
20
-149.365
11
122.35
21
-149.46
0
LINE
8
BLACK
6
CONTINUOUS
10
122.35
20
-149.46
11
122.445
21
-149.555
0
LINE
8
BLACK
6
CONTINUOUS
10
122.445
20
-149.555
11
122.54
21
-149.746
0
LINE
8
BLACK
6
CONTINUOUS
10
122.54
20
-149.746
11
122.635
21
-150.127
0
LINE
8
BLACK
6
CONTINUOUS
10
122.635
20
-150.127
11
122.635
21
-150.603
0
LINE
8
BLACK
6
CONTINUOUS
10
122.635
20
-150.603
11
122.54
21
-150.984
0
LINE
8
BLACK
6
CONTINUOUS
10
122.54
20
-150.984
11
122.445
21
-151.174
0
LINE
8
BLACK
6
CONTINUOUS
10
122.445
20
-151.174
11
122.35
21
-151.27
0
LINE
8
BLACK
6
CONTINUOUS
10
122.35
20
-151.27
11
122.159
21
-151.365
0
LINE
8
BLACK
6
CONTINUOUS
10
122.159
20
-151.365
11
121.969
21
-151.365
0
LINE
8
BLACK
6
CONTINUOUS
10
121.969
20
-151.365
11
121.778
21
-151.27
0
LINE
8
BLACK
6
CONTINUOUS
10
121.778
20
-151.27
11
121.683
21
-151.174
0
LINE
8
BLACK
6
CONTINUOUS
10
121.683
20
-151.174
11
121.588
21
-150.984
0
LINE
8
BLACK
6
CONTINUOUS
10
121.588
20
-150.984
11
121.493
21
-150.603
0
LINE
8
BLACK
6
CONTINUOUS
10
121.493
20
-150.603
11
121.493
21
-150.127
0
LINE
8
BLACK
6
CONTINUOUS
10
121.493
20
-150.127
11
121.588
21
-149.746
0
LINE
8
BLACK
6
CONTINUOUS
10
121.588
20
-149.746
11
121.683
21
-149.555
0
LINE
8
BLACK
6
CONTINUOUS
10
121.683
20
-149.555
11
121.778
21
-149.46
0
LINE
8
BLACK
6
CONTINUOUS
10
121.778
20
-149.46
11
121.969
21
-149.365
0
LINE
8
BLACK
6
CONTINUOUS
10
123.493
20
-151.365
11
123.493
21
-150.031
0
LINE
8
BLACK
6
CONTINUOUS
10
123.493
20
-150.222
11
123.588
21
-150.127
0
LINE
8
BLACK
6
CONTINUOUS
10
123.588
20
-150.127
11
123.778
21
-150.031
0
LINE
8
BLACK
6
CONTINUOUS
10
123.778
20
-150.031
11
124.064
21
-150.031
0
LINE
8
BLACK
6
CONTINUOUS
10
124.064
20
-150.031
11
124.255
21
-150.127
0
LINE
8
BLACK
6
CONTINUOUS
10
124.255
20
-150.127
11
124.35
21
-150.317
0
LINE
8
BLACK
6
CONTINUOUS
10
124.35
20
-150.317
11
124.35
21
-151.365
0
LINE
8
BLACK
6
CONTINUOUS
10
124.35
20
-150.317
11
124.445
21
-150.127
0
LINE
8
BLACK
6
CONTINUOUS
10
124.445
20
-150.127
11
124.635
21
-150.031
0
LINE
8
BLACK
6
CONTINUOUS
10
124.635
20
-150.031
11
124.921
21
-150.031
0
LINE
8
BLACK
6
CONTINUOUS
10
124.921
20
-150.031
11
125.112
21
-150.127
0
LINE
8
BLACK
6
CONTINUOUS
10
125.112
20
-150.127
11
125.207
21
-150.317
0
LINE
8
BLACK
6
CONTINUOUS
10
125.207
20
-150.317
11
125.207
21
-151.365
0
LINE
8
BLACK
6
CONTINUOUS
10
126.159
20
-151.365
11
126.159
21
-150.031
0
LINE
8
BLACK
6
CONTINUOUS
10
126.159
20
-150.222
11
126.255
21
-150.127
0
LINE
8
BLACK
6
CONTINUOUS
10
126.255
20
-150.127
11
126.445
21
-150.031
0
LINE
8
BLACK
6
CONTINUOUS
10
126.445
20
-150.031
11
126.731
21
-150.031
0
LINE
8
BLACK
6
CONTINUOUS
10
126.731
20
-150.031
11
126.921
21
-150.127
0
LINE
8
BLACK
6
CONTINUOUS
10
126.921
20
-150.127
11
127.016
21
-150.317
0
LINE
8
BLACK
6
CONTINUOUS
10
127.016
20
-150.317
11
127.016
21
-151.365
0
LINE
8
BLACK
6
CONTINUOUS
10
127.016
20
-150.317
11
127.112
21
-150.127
0
LINE
8
BLACK
6
CONTINUOUS
10
127.112
20
-150.127
11
127.302
21
-150.031
0
LINE
8
BLACK
6
CONTINUOUS
10
127.302
20
-150.031
11
127.588
21
-150.031
0
LINE
8
BLACK
6
CONTINUOUS
10
127.588
20
-150.031
11
127.778
21
-150.127
0
LINE
8
BLACK
6
CONTINUOUS
10
127.778
20
-150.127
11
127.874
21
-150.317
0
LINE
8
BLACK
6
CONTINUOUS
10
127.874
20
-150.317
11
127.874
21
-151.365
0
LINE
8
BLACK
6
CONTINUOUS
10
131.778
20
-149.27
11
130.064
21
-151.841
0
LINE
8
BLACK
6
CONTINUOUS
10
134.35
20
-149.365
11
134.54
21
-149.365
0
LINE
8
BLACK
6
CONTINUOUS
10
134.54
20
-149.365
11
134.731
21
-149.46
0
LINE
8
BLACK
6
CONTINUOUS
10
134.731
20
-149.46
11
134.826
21
-149.555
0
LINE
8
BLACK
6
CONTINUOUS
10
134.826
20
-149.555
11
134.921
21
-149.746
0
LINE
8
BLACK
6
CONTINUOUS
10
134.921
20
-149.746
11
135.016
21
-150.127
0
LINE
8
BLACK
6
CONTINUOUS
10
135.016
20
-150.127
11
135.016
21
-150.603
0
LINE
8
BLACK
6
CONTINUOUS
10
135.016
20
-150.603
11
134.921
21
-150.984
0
LINE
8
BLACK
6
CONTINUOUS
10
134.921
20
-150.984
11
134.826
21
-151.174
0
LINE
8
BLACK
6
CONTINUOUS
10
134.826
20
-151.174
11
134.731
21
-151.27
0
LINE
8
BLACK
6
CONTINUOUS
10
134.731
20
-151.27
11
134.54
21
-151.365
0
LINE
8
BLACK
6
CONTINUOUS
10
134.54
20
-151.365
11
134.35
21
-151.365
0
LINE
8
BLACK
6
CONTINUOUS
10
134.35
20
-151.365
11
134.159
21
-151.27
0
LINE
8
BLACK
6
CONTINUOUS
10
134.159
20
-151.27
11
134.064
21
-151.174
0
LINE
8
BLACK
6
CONTINUOUS
10
134.064
20
-151.174
11
133.969
21
-150.984
0
LINE
8
BLACK
6
CONTINUOUS
10
133.969
20
-150.984
11
133.874
21
-150.603
0
LINE
8
BLACK
6
CONTINUOUS
10
133.874
20
-150.603
11
133.874
21
-150.127
0
LINE
8
BLACK
6
CONTINUOUS
10
133.874
20
-150.127
11
133.969
21
-149.746
0
LINE
8
BLACK
6
CONTINUOUS
10
133.969
20
-149.746
11
134.064
21
-149.555
0
LINE
8
BLACK
6
CONTINUOUS
10
134.064
20
-149.555
11
134.159
21
-149.46
0
LINE
8
BLACK
6
CONTINUOUS
10
134.159
20
-149.46
11
134.35
21
-149.365
0
LINE
8
BLACK
6
CONTINUOUS
10
135.874
20
-151.174
11
135.969
21
-151.27
0
LINE
8
BLACK
6
CONTINUOUS
10
135.969
20
-151.27
11
135.874
21
-151.365
0
LINE
8
BLACK
6
CONTINUOUS
10
135.874
20
-151.365
11
135.778
21
-151.27
0
LINE
8
BLACK
6
CONTINUOUS
10
135.778
20
-151.27
11
135.874
21
-151.174
0
LINE
8
BLACK
6
CONTINUOUS
10
135.874
20
-151.174
11
135.874
21
-151.365
0
LINE
8
BLACK
6
CONTINUOUS
10
137.207
20
-149.365
11
137.397
21
-149.365
0
LINE
8
BLACK
6
CONTINUOUS
10
137.397
20
-149.365
11
137.588
21
-149.46
0
LINE
8
BLACK
6
CONTINUOUS
10
137.588
20
-149.46
11
137.683
21
-149.555
0
LINE
8
BLACK
6
CONTINUOUS
10
137.683
20
-149.555
11
137.778
21
-149.746
0
LINE
8
BLACK
6
CONTINUOUS
10
137.778
20
-149.746
11
137.874
21
-150.127
0
LINE
8
BLACK
6
CONTINUOUS
10
137.874
20
-150.127
11
137.874
21
-150.603
0
LINE
8
BLACK
6
CONTINUOUS
10
137.874
20
-150.603
11
137.778
21
-150.984
0
LINE
8
BLACK
6
CONTINUOUS
10
137.778
20
-150.984
11
137.683
21
-151.174
0
LINE
8
BLACK
6
CONTINUOUS
10
137.683
20
-151.174
11
137.588
21
-151.27
0
LINE
8
BLACK
6
CONTINUOUS
10
137.588
20
-151.27
11
137.397
21
-151.365
0
LINE
8
BLACK
6
CONTINUOUS
10
137.397
20
-151.365
11
137.207
21
-151.365
0
LINE
8
BLACK
6
CONTINUOUS
10
137.207
20
-151.365
11
137.016
21
-151.27
0
LINE
8
BLACK
6
CONTINUOUS
10
137.016
20
-151.27
11
136.921
21
-151.174
0
LINE
8
BLACK
6
CONTINUOUS
10
136.921
20
-151.174
11
136.826
21
-150.984
0
LINE
8
BLACK
6
CONTINUOUS
10
136.826
20
-150.984
11
136.731
21
-150.603
0
LINE
8
BLACK
6
CONTINUOUS
10
136.731
20
-150.603
11
136.731
21
-150.127
0
LINE
8
BLACK
6
CONTINUOUS
10
136.731
20
-150.127
11
136.826
21
-149.746
0
LINE
8
BLACK
6
CONTINUOUS
10
136.826
20
-149.746
11
136.921
21
-149.555
0
LINE
8
BLACK
6
CONTINUOUS
10
136.921
20
-149.555
11
137.016
21
-149.46
0
LINE
8
BLACK
6
CONTINUOUS
10
137.016
20
-149.46
11
137.207
21
-149.365
0
LINE
8
BLACK
6
CONTINUOUS
10
139.683
20
-149.365
11
138.731
21
-149.365
0
LINE
8
BLACK
6
CONTINUOUS
10
138.731
20
-149.365
11
138.635
21
-150.317
0
LINE
8
BLACK
6
CONTINUOUS
10
138.635
20
-150.317
11
138.731
21
-150.222
0
LINE
8
BLACK
6
CONTINUOUS
10
138.731
20
-150.222
11
138.921
21
-150.127
0
LINE
8
BLACK
6
CONTINUOUS
10
138.921
20
-150.127
11
139.397
21
-150.127
0
LINE
8
BLACK
6
CONTINUOUS
10
139.397
20
-150.127
11
139.588
21
-150.222
0
LINE
8
BLACK
6
CONTINUOUS
10
139.588
20
-150.222
11
139.683
21
-150.317
0
LINE
8
BLACK
6
CONTINUOUS
10
139.683
20
-150.317
11
139.778
21
-150.508
0
LINE
8
BLACK
6
CONTINUOUS
10
139.778
20
-150.508
11
139.778
21
-150.984
0
LINE
8
BLACK
6
CONTINUOUS
10
139.778
20
-150.984
11
139.683
21
-151.174
0
LINE
8
BLACK
6
CONTINUOUS
10
139.683
20
-151.174
11
139.588
21
-151.27
0
LINE
8
BLACK
6
CONTINUOUS
10
139.588
20
-151.27
11
139.397
21
-151.365
0
LINE
8
BLACK
6
CONTINUOUS
10
139.397
20
-151.365
11
138.921
21
-151.365
0
LINE
8
BLACK
6
CONTINUOUS
10
138.921
20
-151.365
11
138.731
21
-151.27
0
LINE
8
BLACK
6
CONTINUOUS
10
138.731
20
-151.27
11
138.635
21
-151.174
0
LINE
8
BLACK
6
CONTINUOUS
10
141.683
20
-151.365
11
140.54
21
-151.365
0
LINE
8
BLACK
6
CONTINUOUS
10
141.112
20
-151.365
11
141.112
21
-149.365
0
LINE
8
BLACK
6
CONTINUOUS
10
141.112
20
-149.365
11
140.921
21
-149.65
0
LINE
8
BLACK
6
CONTINUOUS
10
140.921
20
-149.65
11
140.731
21
-149.841
0
LINE
8
BLACK
6
CONTINUOUS
10
140.731
20
-149.841
11
140.54
21
-149.936
0
LINE
8
BLACK
6
CONTINUOUS
10
142.445
20
-149.555
11
142.54
21
-149.46
0
LINE
8
BLACK
6
CONTINUOUS
10
142.54
20
-149.46
11
142.731
21
-149.365
0
LINE
8
BLACK
6
CONTINUOUS
10
142.731
20
-149.365
11
143.207
21
-149.365
0
LINE
8
BLACK
6
CONTINUOUS
10
143.207
20
-149.365
11
143.397
21
-149.46
0
LINE
8
BLACK
6
CONTINUOUS
10
143.397
20
-149.46
11
143.493
21
-149.555
0
LINE
8
BLACK
6
CONTINUOUS
10
143.493
20
-149.555
11
143.588
21
-149.746
0
LINE
8
BLACK
6
CONTINUOUS
10
143.588
20
-149.746
11
143.588
21
-149.936
0
LINE
8
BLACK
6
CONTINUOUS
10
143.588
20
-149.936
11
143.493
21
-150.222
0
LINE
8
BLACK
6
CONTINUOUS
10
143.493
20
-150.222
11
142.35
21
-151.365
0
LINE
8
BLACK
6
CONTINUOUS
10
142.35
20
-151.365
11
143.588
21
-151.365
0
LINE
8
BLACK
6
CONTINUOUS
10
144.35
20
-149.365
11
144.35
21
-149.746
0
LINE
8
BLACK
6
CONTINUOUS
10
145.112
20
-149.365
11
145.112
21
-149.746
0
LINE
8
BLACK
6
CONTINUOUS
10
148.064
20
-152.127
11
147.969
21
-152.031
0
LINE
8
BLACK
6
CONTINUOUS
10
147.969
20
-152.031
11
147.778
21
-151.746
0
LINE
8
BLACK
6
CONTINUOUS
10
147.778
20
-151.746
11
147.683
21
-151.555
0
LINE
8
BLACK
6
CONTINUOUS
10
147.683
20
-151.555
11
147.588
21
-151.27
0
LINE
8
BLACK
6
CONTINUOUS
10
147.588
20
-151.27
11
147.493
21
-150.793
0
LINE
8
BLACK
6
CONTINUOUS
10
147.493
20
-150.793
11
147.493
21
-150.412
0
LINE
8
BLACK
6
CONTINUOUS
10
147.493
20
-150.412
11
147.588
21
-149.936
0
LINE
8
BLACK
6
CONTINUOUS
10
147.588
20
-149.936
11
147.683
21
-149.65
0
LINE
8
BLACK
6
CONTINUOUS
10
147.683
20
-149.65
11
147.778
21
-149.46
0
LINE
8
BLACK
6
CONTINUOUS
10
147.778
20
-149.46
11
147.969
21
-149.174
0
LINE
8
BLACK
6
CONTINUOUS
10
147.969
20
-149.174
11
148.064
21
-149.079
0
LINE
8
BLACK
6
CONTINUOUS
10
149.683
20
-149.365
11
149.302
21
-149.365
0
LINE
8
BLACK
6
CONTINUOUS
10
149.302
20
-149.365
11
149.112
21
-149.46
0
LINE
8
BLACK
6
CONTINUOUS
10
149.112
20
-149.46
11
149.016
21
-149.555
0
LINE
8
BLACK
6
CONTINUOUS
10
149.016
20
-149.555
11
148.826
21
-149.841
0
LINE
8
BLACK
6
CONTINUOUS
10
148.826
20
-149.841
11
148.731
21
-150.222
0
LINE
8
BLACK
6
CONTINUOUS
10
148.731
20
-150.222
11
148.731
21
-150.984
0
LINE
8
BLACK
6
CONTINUOUS
10
148.731
20
-150.984
11
148.826
21
-151.174
0
LINE
8
BLACK
6
CONTINUOUS
10
148.826
20
-151.174
11
148.921
21
-151.27
0
LINE
8
BLACK
6
CONTINUOUS
10
148.921
20
-151.27
11
149.112
21
-151.365
0
LINE
8
BLACK
6
CONTINUOUS
10
149.112
20
-151.365
11
149.493
21
-151.365
0
LINE
8
BLACK
6
CONTINUOUS
10
149.493
20
-151.365
11
149.683
21
-151.27
0
LINE
8
BLACK
6
CONTINUOUS
10
149.683
20
-151.27
11
149.778
21
-151.174
0
LINE
8
BLACK
6
CONTINUOUS
10
149.778
20
-151.174
11
149.874
21
-150.984
0
LINE
8
BLACK
6
CONTINUOUS
10
149.874
20
-150.984
11
149.874
21
-150.508
0
LINE
8
BLACK
6
CONTINUOUS
10
149.874
20
-150.508
11
149.778
21
-150.317
0
LINE
8
BLACK
6
CONTINUOUS
10
149.778
20
-150.317
11
149.683
21
-150.222
0
LINE
8
BLACK
6
CONTINUOUS
10
149.683
20
-150.222
11
149.493
21
-150.127
0
LINE
8
BLACK
6
CONTINUOUS
10
149.493
20
-150.127
11
149.112
21
-150.127
0
LINE
8
BLACK
6
CONTINUOUS
10
149.112
20
-150.127
11
148.921
21
-150.222
0
LINE
8
BLACK
6
CONTINUOUS
10
148.921
20
-150.222
11
148.826
21
-150.317
0
LINE
8
BLACK
6
CONTINUOUS
10
148.826
20
-150.317
11
148.731
21
-150.508
0
LINE
8
BLACK
6
CONTINUOUS
10
152.255
20
-151.365
11
152.255
21
-149.365
0
LINE
8
BLACK
6
CONTINUOUS
10
153.112
20
-151.365
11
153.112
21
-150.317
0
LINE
8
BLACK
6
CONTINUOUS
10
153.112
20
-150.317
11
153.016
21
-150.127
0
LINE
8
BLACK
6
CONTINUOUS
10
153.016
20
-150.127
11
152.826
21
-150.031
0
LINE
8
BLACK
6
CONTINUOUS
10
152.826
20
-150.031
11
152.54
21
-150.031
0
LINE
8
BLACK
6
CONTINUOUS
10
152.54
20
-150.031
11
152.35
21
-150.127
0
LINE
8
BLACK
6
CONTINUOUS
10
152.35
20
-150.127
11
152.255
21
-150.222
0
LINE
8
BLACK
6
CONTINUOUS
10
154.35
20
-151.365
11
154.159
21
-151.27
0
LINE
8
BLACK
6
CONTINUOUS
10
154.159
20
-151.27
11
154.064
21
-151.174
0
LINE
8
BLACK
6
CONTINUOUS
10
154.064
20
-151.174
11
153.969
21
-150.984
0
LINE
8
BLACK
6
CONTINUOUS
10
153.969
20
-150.984
11
153.969
21
-150.412
0
LINE
8
BLACK
6
CONTINUOUS
10
153.969
20
-150.412
11
154.064
21
-150.222
0
LINE
8
BLACK
6
CONTINUOUS
10
154.064
20
-150.222
11
154.159
21
-150.127
0
LINE
8
BLACK
6
CONTINUOUS
10
154.159
20
-150.127
11
154.35
21
-150.031
0
LINE
8
BLACK
6
CONTINUOUS
10
154.35
20
-150.031
11
154.635
21
-150.031
0
LINE
8
BLACK
6
CONTINUOUS
10
154.635
20
-150.031
11
154.826
21
-150.127
0
LINE
8
BLACK
6
CONTINUOUS
10
154.826
20
-150.127
11
154.921
21
-150.222
0
LINE
8
BLACK
6
CONTINUOUS
10
154.921
20
-150.222
11
155.016
21
-150.412
0
LINE
8
BLACK
6
CONTINUOUS
10
155.016
20
-150.412
11
155.016
21
-150.984
0
LINE
8
BLACK
6
CONTINUOUS
10
155.016
20
-150.984
11
154.921
21
-151.174
0
LINE
8
BLACK
6
CONTINUOUS
10
154.921
20
-151.174
11
154.826
21
-151.27
0
LINE
8
BLACK
6
CONTINUOUS
10
154.826
20
-151.27
11
154.635
21
-151.365
0
LINE
8
BLACK
6
CONTINUOUS
10
154.635
20
-151.365
11
154.35
21
-151.365
0
LINE
8
BLACK
6
CONTINUOUS
10
156.159
20
-151.365
11
155.969
21
-151.27
0
LINE
8
BLACK
6
CONTINUOUS
10
155.969
20
-151.27
11
155.874
21
-151.079
0
LINE
8
BLACK
6
CONTINUOUS
10
155.874
20
-151.079
11
155.874
21
-149.365
0
LINE
8
BLACK
6
CONTINUOUS
10
157.683
20
-151.27
11
157.493
21
-151.365
0
LINE
8
BLACK
6
CONTINUOUS
10
157.493
20
-151.365
11
157.112
21
-151.365
0
LINE
8
BLACK
6
CONTINUOUS
10
157.112
20
-151.365
11
156.921
21
-151.27
0
LINE
8
BLACK
6
CONTINUOUS
10
156.921
20
-151.27
11
156.826
21
-151.079
0
LINE
8
BLACK
6
CONTINUOUS
10
156.826
20
-151.079
11
156.826
21
-150.317
0
LINE
8
BLACK
6
CONTINUOUS
10
156.826
20
-150.317
11
156.921
21
-150.127
0
LINE
8
BLACK
6
CONTINUOUS
10
156.921
20
-150.127
11
157.112
21
-150.031
0
LINE
8
BLACK
6
CONTINUOUS
10
157.112
20
-150.031
11
157.493
21
-150.031
0
LINE
8
BLACK
6
CONTINUOUS
10
157.493
20
-150.031
11
157.683
21
-150.127
0
LINE
8
BLACK
6
CONTINUOUS
10
157.683
20
-150.127
11
157.778
21
-150.317
0
LINE
8
BLACK
6
CONTINUOUS
10
157.778
20
-150.317
11
157.778
21
-150.508
0
LINE
8
BLACK
6
CONTINUOUS
10
157.778
20
-150.508
11
156.826
21
-150.698
0
LINE
8
BLACK
6
CONTINUOUS
10
158.54
20
-151.27
11
158.731
21
-151.365
0
LINE
8
BLACK
6
CONTINUOUS
10
158.731
20
-151.365
11
159.112
21
-151.365
0
LINE
8
BLACK
6
CONTINUOUS
10
159.112
20
-151.365
11
159.302
21
-151.27
0
LINE
8
BLACK
6
CONTINUOUS
10
159.302
20
-151.27
11
159.397
21
-151.079
0
LINE
8
BLACK
6
CONTINUOUS
10
159.397
20
-151.079
11
159.397
21
-150.984
0
LINE
8
BLACK
6
CONTINUOUS
10
159.397
20
-150.984
11
159.302
21
-150.793
0
LINE
8
BLACK
6
CONTINUOUS
10
159.302
20
-150.793
11
159.112
21
-150.698
0
LINE
8
BLACK
6
CONTINUOUS
10
159.112
20
-150.698
11
158.826
21
-150.698
0
LINE
8
BLACK
6
CONTINUOUS
10
158.826
20
-150.698
11
158.635
21
-150.603
0
LINE
8
BLACK
6
CONTINUOUS
10
158.635
20
-150.603
11
158.54
21
-150.412
0
LINE
8
BLACK
6
CONTINUOUS
10
158.54
20
-150.412
11
158.54
21
-150.317
0
LINE
8
BLACK
6
CONTINUOUS
10
158.54
20
-150.317
11
158.635
21
-150.127
0
LINE
8
BLACK
6
CONTINUOUS
10
158.635
20
-150.127
11
158.826
21
-150.031
0
LINE
8
BLACK
6
CONTINUOUS
10
158.826
20
-150.031
11
159.112
21
-150.031
0
LINE
8
BLACK
6
CONTINUOUS
10
159.112
20
-150.031
11
159.302
21
-150.127
0
LINE
8
BLACK
6
CONTINUOUS
10
160.064
20
-152.127
11
160.159
21
-152.031
0
LINE
8
BLACK
6
CONTINUOUS
10
160.159
20
-152.031
11
160.35
21
-151.746
0
LINE
8
BLACK
6
CONTINUOUS
10
160.35
20
-151.746
11
160.445
21
-151.555
0
LINE
8
BLACK
6
CONTINUOUS
10
160.445
20
-151.555
11
160.54
21
-151.27
0
LINE
8
BLACK
6
CONTINUOUS
10
160.54
20
-151.27
11
160.635
21
-150.793
0
LINE
8
BLACK
6
CONTINUOUS
10
160.635
20
-150.793
11
160.635
21
-150.412
0
LINE
8
BLACK
6
CONTINUOUS
10
160.635
20
-150.412
11
160.54
21
-149.936
0
LINE
8
BLACK
6
CONTINUOUS
10
160.54
20
-149.936
11
160.445
21
-149.65
0
LINE
8
BLACK
6
CONTINUOUS
10
160.445
20
-149.65
11
160.35
21
-149.46
0
LINE
8
BLACK
6
CONTINUOUS
10
160.35
20
-149.46
11
160.159
21
-149.174
0
LINE
8
BLACK
6
CONTINUOUS
10
160.159
20
-149.174
11
160.064
21
-149.079
0
LINE
8
BLACK
6
CONTINUOUS
10
110.745
20
-152.3
11
112.345
21
-153.9
0
LINE
8
BLACK
6
CONTINUOUS
10
112.345
20
-152.3
11
110.745
21
-153.9
0
LINE
8
BLACK
6
CONTINUOUS
10
111.545
20
-152.3
11
111.545
21
-153.9
0
LINE
8
BLACK
6
CONTINUOUS
10
110.745
20
-153.1
11
112.345
21
-153.1
0
LINE
8
BLACK
6
CONTINUOUS
10
115.969
20
-154.005
11
114.826
21
-154.005
0
LINE
8
BLACK
6
CONTINUOUS
10
115.397
20
-154.005
11
115.397
21
-152.005
0
LINE
8
BLACK
6
CONTINUOUS
10
115.397
20
-152.005
11
115.207
21
-152.29
0
LINE
8
BLACK
6
CONTINUOUS
10
115.207
20
-152.29
11
115.016
21
-152.481
0
LINE
8
BLACK
6
CONTINUOUS
10
115.016
20
-152.481
11
114.826
21
-152.576
0
LINE
8
BLACK
6
CONTINUOUS
10
116.826
20
-153.814
11
116.921
21
-153.91
0
LINE
8
BLACK
6
CONTINUOUS
10
116.921
20
-153.91
11
116.826
21
-154.005
0
LINE
8
BLACK
6
CONTINUOUS
10
116.826
20
-154.005
11
116.731
21
-153.91
0
LINE
8
BLACK
6
CONTINUOUS
10
116.731
20
-153.91
11
116.826
21
-153.814
0
LINE
8
BLACK
6
CONTINUOUS
10
116.826
20
-153.814
11
116.826
21
-154.005
0
LINE
8
BLACK
6
CONTINUOUS
10
118.635
20
-152.005
11
118.255
21
-152.005
0
LINE
8
BLACK
6
CONTINUOUS
10
118.255
20
-152.005
11
118.064
21
-152.1
0
LINE
8
BLACK
6
CONTINUOUS
10
118.064
20
-152.1
11
117.969
21
-152.195
0
LINE
8
BLACK
6
CONTINUOUS
10
117.969
20
-152.195
11
117.778
21
-152.481
0
LINE
8
BLACK
6
CONTINUOUS
10
117.778
20
-152.481
11
117.683
21
-152.862
0
LINE
8
BLACK
6
CONTINUOUS
10
117.683
20
-152.862
11
117.683
21
-153.624
0
LINE
8
BLACK
6
CONTINUOUS
10
117.683
20
-153.624
11
117.778
21
-153.814
0
LINE
8
BLACK
6
CONTINUOUS
10
117.778
20
-153.814
11
117.874
21
-153.91
0
LINE
8
BLACK
6
CONTINUOUS
10
117.874
20
-153.91
11
118.064
21
-154.005
0
LINE
8
BLACK
6
CONTINUOUS
10
118.064
20
-154.005
11
118.445
21
-154.005
0
LINE
8
BLACK
6
CONTINUOUS
10
118.445
20
-154.005
11
118.635
21
-153.91
0
LINE
8
BLACK
6
CONTINUOUS
10
118.635
20
-153.91
11
118.731
21
-153.814
0
LINE
8
BLACK
6
CONTINUOUS
10
118.731
20
-153.814
11
118.826
21
-153.624
0
LINE
8
BLACK
6
CONTINUOUS
10
118.826
20
-153.624
11
118.826
21
-153.148
0
LINE
8
BLACK
6
CONTINUOUS
10
118.826
20
-153.148
11
118.731
21
-152.957
0
LINE
8
BLACK
6
CONTINUOUS
10
118.731
20
-152.957
11
118.635
21
-152.862
0
LINE
8
BLACK
6
CONTINUOUS
10
118.635
20
-152.862
11
118.445
21
-152.767
0
LINE
8
BLACK
6
CONTINUOUS
10
118.445
20
-152.767
11
118.064
21
-152.767
0
LINE
8
BLACK
6
CONTINUOUS
10
118.064
20
-152.767
11
117.874
21
-152.862
0
LINE
8
BLACK
6
CONTINUOUS
10
117.874
20
-152.862
11
117.778
21
-152.957
0
LINE
8
BLACK
6
CONTINUOUS
10
117.778
20
-152.957
11
117.683
21
-153.148
0
LINE
8
BLACK
6
CONTINUOUS
10
120.064
20
-152.005
11
120.255
21
-152.005
0
LINE
8
BLACK
6
CONTINUOUS
10
120.255
20
-152.005
11
120.445
21
-152.1
0
LINE
8
BLACK
6
CONTINUOUS
10
120.445
20
-152.1
11
120.54
21
-152.195
0
LINE
8
BLACK
6
CONTINUOUS
10
120.54
20
-152.195
11
120.635
21
-152.386
0
LINE
8
BLACK
6
CONTINUOUS
10
120.635
20
-152.386
11
120.731
21
-152.767
0
LINE
8
BLACK
6
CONTINUOUS
10
120.731
20
-152.767
11
120.731
21
-153.243
0
LINE
8
BLACK
6
CONTINUOUS
10
120.731
20
-153.243
11
120.635
21
-153.624
0
LINE
8
BLACK
6
CONTINUOUS
10
120.635
20
-153.624
11
120.54
21
-153.814
0
LINE
8
BLACK
6
CONTINUOUS
10
120.54
20
-153.814
11
120.445
21
-153.91
0
LINE
8
BLACK
6
CONTINUOUS
10
120.445
20
-153.91
11
120.255
21
-154.005
0
LINE
8
BLACK
6
CONTINUOUS
10
120.255
20
-154.005
11
120.064
21
-154.005
0
LINE
8
BLACK
6
CONTINUOUS
10
120.064
20
-154.005
11
119.874
21
-153.91
0
LINE
8
BLACK
6
CONTINUOUS
10
119.874
20
-153.91
11
119.778
21
-153.814
0
LINE
8
BLACK
6
CONTINUOUS
10
119.778
20
-153.814
11
119.683
21
-153.624
0
LINE
8
BLACK
6
CONTINUOUS
10
119.683
20
-153.624
11
119.588
21
-153.243
0
LINE
8
BLACK
6
CONTINUOUS
10
119.588
20
-153.243
11
119.588
21
-152.767
0
LINE
8
BLACK
6
CONTINUOUS
10
119.588
20
-152.767
11
119.683
21
-152.386
0
LINE
8
BLACK
6
CONTINUOUS
10
119.683
20
-152.386
11
119.778
21
-152.195
0
LINE
8
BLACK
6
CONTINUOUS
10
119.778
20
-152.195
11
119.874
21
-152.1
0
LINE
8
BLACK
6
CONTINUOUS
10
119.874
20
-152.1
11
120.064
21
-152.005
0
LINE
8
BLACK
6
CONTINUOUS
10
121.969
20
-152.005
11
122.159
21
-152.005
0
LINE
8
BLACK
6
CONTINUOUS
10
122.159
20
-152.005
11
122.35
21
-152.1
0
LINE
8
BLACK
6
CONTINUOUS
10
122.35
20
-152.1
11
122.445
21
-152.195
0
LINE
8
BLACK
6
CONTINUOUS
10
122.445
20
-152.195
11
122.54
21
-152.386
0
LINE
8
BLACK
6
CONTINUOUS
10
122.54
20
-152.386
11
122.635
21
-152.767
0
LINE
8
BLACK
6
CONTINUOUS
10
122.635
20
-152.767
11
122.635
21
-153.243
0
LINE
8
BLACK
6
CONTINUOUS
10
122.635
20
-153.243
11
122.54
21
-153.624
0
LINE
8
BLACK
6
CONTINUOUS
10
122.54
20
-153.624
11
122.445
21
-153.814
0
LINE
8
BLACK
6
CONTINUOUS
10
122.445
20
-153.814
11
122.35
21
-153.91
0
LINE
8
BLACK
6
CONTINUOUS
10
122.35
20
-153.91
11
122.159
21
-154.005
0
LINE
8
BLACK
6
CONTINUOUS
10
122.159
20
-154.005
11
121.969
21
-154.005
0
LINE
8
BLACK
6
CONTINUOUS
10
121.969
20
-154.005
11
121.778
21
-153.91
0
LINE
8
BLACK
6
CONTINUOUS
10
121.778
20
-153.91
11
121.683
21
-153.814
0
LINE
8
BLACK
6
CONTINUOUS
10
121.683
20
-153.814
11
121.588
21
-153.624
0
LINE
8
BLACK
6
CONTINUOUS
10
121.588
20
-153.624
11
121.493
21
-153.243
0
LINE
8
BLACK
6
CONTINUOUS
10
121.493
20
-153.243
11
121.493
21
-152.767
0
LINE
8
BLACK
6
CONTINUOUS
10
121.493
20
-152.767
11
121.588
21
-152.386
0
LINE
8
BLACK
6
CONTINUOUS
10
121.588
20
-152.386
11
121.683
21
-152.195
0
LINE
8
BLACK
6
CONTINUOUS
10
121.683
20
-152.195
11
121.778
21
-152.1
0
LINE
8
BLACK
6
CONTINUOUS
10
121.778
20
-152.1
11
121.969
21
-152.005
0
LINE
8
BLACK
6
CONTINUOUS
10
123.493
20
-154.005
11
123.493
21
-152.671
0
LINE
8
BLACK
6
CONTINUOUS
10
123.493
20
-152.862
11
123.588
21
-152.767
0
LINE
8
BLACK
6
CONTINUOUS
10
123.588
20
-152.767
11
123.778
21
-152.671
0
LINE
8
BLACK
6
CONTINUOUS
10
123.778
20
-152.671
11
124.064
21
-152.671
0
LINE
8
BLACK
6
CONTINUOUS
10
124.064
20
-152.671
11
124.255
21
-152.767
0
LINE
8
BLACK
6
CONTINUOUS
10
124.255
20
-152.767
11
124.35
21
-152.957
0
LINE
8
BLACK
6
CONTINUOUS
10
124.35
20
-152.957
11
124.35
21
-154.005
0
LINE
8
BLACK
6
CONTINUOUS
10
124.35
20
-152.957
11
124.445
21
-152.767
0
LINE
8
BLACK
6
CONTINUOUS
10
124.445
20
-152.767
11
124.635
21
-152.671
0
LINE
8
BLACK
6
CONTINUOUS
10
124.635
20
-152.671
11
124.921
21
-152.671
0
LINE
8
BLACK
6
CONTINUOUS
10
124.921
20
-152.671
11
125.112
21
-152.767
0
LINE
8
BLACK
6
CONTINUOUS
10
125.112
20
-152.767
11
125.207
21
-152.957
0
LINE
8
BLACK
6
CONTINUOUS
10
125.207
20
-152.957
11
125.207
21
-154.005
0
LINE
8
BLACK
6
CONTINUOUS
10
126.159
20
-154.005
11
126.159
21
-152.671
0
LINE
8
BLACK
6
CONTINUOUS
10
126.159
20
-152.862
11
126.255
21
-152.767
0
LINE
8
BLACK
6
CONTINUOUS
10
126.255
20
-152.767
11
126.445
21
-152.671
0
LINE
8
BLACK
6
CONTINUOUS
10
126.445
20
-152.671
11
126.731
21
-152.671
0
LINE
8
BLACK
6
CONTINUOUS
10
126.731
20
-152.671
11
126.921
21
-152.767
0
LINE
8
BLACK
6
CONTINUOUS
10
126.921
20
-152.767
11
127.016
21
-152.957
0
LINE
8
BLACK
6
CONTINUOUS
10
127.016
20
-152.957
11
127.016
21
-154.005
0
LINE
8
BLACK
6
CONTINUOUS
10
127.016
20
-152.957
11
127.112
21
-152.767
0
LINE
8
BLACK
6
CONTINUOUS
10
127.112
20
-152.767
11
127.302
21
-152.671
0
LINE
8
BLACK
6
CONTINUOUS
10
127.302
20
-152.671
11
127.588
21
-152.671
0
LINE
8
BLACK
6
CONTINUOUS
10
127.588
20
-152.671
11
127.778
21
-152.767
0
LINE
8
BLACK
6
CONTINUOUS
10
127.778
20
-152.767
11
127.874
21
-152.957
0
LINE
8
BLACK
6
CONTINUOUS
10
127.874
20
-152.957
11
127.874
21
-154.005
0
LINE
8
BLACK
6
CONTINUOUS
10
131.778
20
-151.91
11
130.064
21
-154.481
0
LINE
8
BLACK
6
CONTINUOUS
10
134.35
20
-152.005
11
134.54
21
-152.005
0
LINE
8
BLACK
6
CONTINUOUS
10
134.54
20
-152.005
11
134.731
21
-152.1
0
LINE
8
BLACK
6
CONTINUOUS
10
134.731
20
-152.1
11
134.826
21
-152.195
0
LINE
8
BLACK
6
CONTINUOUS
10
134.826
20
-152.195
11
134.921
21
-152.386
0
LINE
8
BLACK
6
CONTINUOUS
10
134.921
20
-152.386
11
135.016
21
-152.767
0
LINE
8
BLACK
6
CONTINUOUS
10
135.016
20
-152.767
11
135.016
21
-153.243
0
LINE
8
BLACK
6
CONTINUOUS
10
135.016
20
-153.243
11
134.921
21
-153.624
0
LINE
8
BLACK
6
CONTINUOUS
10
134.921
20
-153.624
11
134.826
21
-153.814
0
LINE
8
BLACK
6
CONTINUOUS
10
134.826
20
-153.814
11
134.731
21
-153.91
0
LINE
8
BLACK
6
CONTINUOUS
10
134.731
20
-153.91
11
134.54
21
-154.005
0
LINE
8
BLACK
6
CONTINUOUS
10
134.54
20
-154.005
11
134.35
21
-154.005
0
LINE
8
BLACK
6
CONTINUOUS
10
134.35
20
-154.005
11
134.159
21
-153.91
0
LINE
8
BLACK
6
CONTINUOUS
10
134.159
20
-153.91
11
134.064
21
-153.814
0
LINE
8
BLACK
6
CONTINUOUS
10
134.064
20
-153.814
11
133.969
21
-153.624
0
LINE
8
BLACK
6
CONTINUOUS
10
133.969
20
-153.624
11
133.874
21
-153.243
0
LINE
8
BLACK
6
CONTINUOUS
10
133.874
20
-153.243
11
133.874
21
-152.767
0
LINE
8
BLACK
6
CONTINUOUS
10
133.874
20
-152.767
11
133.969
21
-152.386
0
LINE
8
BLACK
6
CONTINUOUS
10
133.969
20
-152.386
11
134.064
21
-152.195
0
LINE
8
BLACK
6
CONTINUOUS
10
134.064
20
-152.195
11
134.159
21
-152.1
0
LINE
8
BLACK
6
CONTINUOUS
10
134.159
20
-152.1
11
134.35
21
-152.005
0
LINE
8
BLACK
6
CONTINUOUS
10
135.874
20
-153.814
11
135.969
21
-153.91
0
LINE
8
BLACK
6
CONTINUOUS
10
135.969
20
-153.91
11
135.874
21
-154.005
0
LINE
8
BLACK
6
CONTINUOUS
10
135.874
20
-154.005
11
135.778
21
-153.91
0
LINE
8
BLACK
6
CONTINUOUS
10
135.778
20
-153.91
11
135.874
21
-153.814
0
LINE
8
BLACK
6
CONTINUOUS
10
135.874
20
-153.814
11
135.874
21
-154.005
0
LINE
8
BLACK
6
CONTINUOUS
10
137.207
20
-152.005
11
137.397
21
-152.005
0
LINE
8
BLACK
6
CONTINUOUS
10
137.397
20
-152.005
11
137.588
21
-152.1
0
LINE
8
BLACK
6
CONTINUOUS
10
137.588
20
-152.1
11
137.683
21
-152.195
0
LINE
8
BLACK
6
CONTINUOUS
10
137.683
20
-152.195
11
137.778
21
-152.386
0
LINE
8
BLACK
6
CONTINUOUS
10
137.778
20
-152.386
11
137.874
21
-152.767
0
LINE
8
BLACK
6
CONTINUOUS
10
137.874
20
-152.767
11
137.874
21
-153.243
0
LINE
8
BLACK
6
CONTINUOUS
10
137.874
20
-153.243
11
137.778
21
-153.624
0
LINE
8
BLACK
6
CONTINUOUS
10
137.778
20
-153.624
11
137.683
21
-153.814
0
LINE
8
BLACK
6
CONTINUOUS
10
137.683
20
-153.814
11
137.588
21
-153.91
0
LINE
8
BLACK
6
CONTINUOUS
10
137.588
20
-153.91
11
137.397
21
-154.005
0
LINE
8
BLACK
6
CONTINUOUS
10
137.397
20
-154.005
11
137.207
21
-154.005
0
LINE
8
BLACK
6
CONTINUOUS
10
137.207
20
-154.005
11
137.016
21
-153.91
0
LINE
8
BLACK
6
CONTINUOUS
10
137.016
20
-153.91
11
136.921
21
-153.814
0
LINE
8
BLACK
6
CONTINUOUS
10
136.921
20
-153.814
11
136.826
21
-153.624
0
LINE
8
BLACK
6
CONTINUOUS
10
136.826
20
-153.624
11
136.731
21
-153.243
0
LINE
8
BLACK
6
CONTINUOUS
10
136.731
20
-153.243
11
136.731
21
-152.767
0
LINE
8
BLACK
6
CONTINUOUS
10
136.731
20
-152.767
11
136.826
21
-152.386
0
LINE
8
BLACK
6
CONTINUOUS
10
136.826
20
-152.386
11
136.921
21
-152.195
0
LINE
8
BLACK
6
CONTINUOUS
10
136.921
20
-152.195
11
137.016
21
-152.1
0
LINE
8
BLACK
6
CONTINUOUS
10
137.016
20
-152.1
11
137.207
21
-152.005
0
LINE
8
BLACK
6
CONTINUOUS
10
139.588
20
-152.005
11
139.207
21
-152.005
0
LINE
8
BLACK
6
CONTINUOUS
10
139.207
20
-152.005
11
139.016
21
-152.1
0
LINE
8
BLACK
6
CONTINUOUS
10
139.016
20
-152.1
11
138.921
21
-152.195
0
LINE
8
BLACK
6
CONTINUOUS
10
138.921
20
-152.195
11
138.731
21
-152.481
0
LINE
8
BLACK
6
CONTINUOUS
10
138.731
20
-152.481
11
138.635
21
-152.862
0
LINE
8
BLACK
6
CONTINUOUS
10
138.635
20
-152.862
11
138.635
21
-153.624
0
LINE
8
BLACK
6
CONTINUOUS
10
138.635
20
-153.624
11
138.731
21
-153.814
0
LINE
8
BLACK
6
CONTINUOUS
10
138.731
20
-153.814
11
138.826
21
-153.91
0
LINE
8
BLACK
6
CONTINUOUS
10
138.826
20
-153.91
11
139.016
21
-154.005
0
LINE
8
BLACK
6
CONTINUOUS
10
139.016
20
-154.005
11
139.397
21
-154.005
0
LINE
8
BLACK
6
CONTINUOUS
10
139.397
20
-154.005
11
139.588
21
-153.91
0
LINE
8
BLACK
6
CONTINUOUS
10
139.588
20
-153.91
11
139.683
21
-153.814
0
LINE
8
BLACK
6
CONTINUOUS
10
139.683
20
-153.814
11
139.778
21
-153.624
0
LINE
8
BLACK
6
CONTINUOUS
10
139.778
20
-153.624
11
139.778
21
-153.148
0
LINE
8
BLACK
6
CONTINUOUS
10
139.778
20
-153.148
11
139.683
21
-152.957
0
LINE
8
BLACK
6
CONTINUOUS
10
139.683
20
-152.957
11
139.588
21
-152.862
0
LINE
8
BLACK
6
CONTINUOUS
10
139.588
20
-152.862
11
139.397
21
-152.767
0
LINE
8
BLACK
6
CONTINUOUS
10
139.397
20
-152.767
11
139.016
21
-152.767
0
LINE
8
BLACK
6
CONTINUOUS
10
139.016
20
-152.767
11
138.826
21
-152.862
0
LINE
8
BLACK
6
CONTINUOUS
10
138.826
20
-152.862
11
138.731
21
-152.957
0
LINE
8
BLACK
6
CONTINUOUS
10
138.731
20
-152.957
11
138.635
21
-153.148
0
LINE
8
BLACK
6
CONTINUOUS
10
140.445
20
-152.005
11
141.683
21
-152.005
0
LINE
8
BLACK
6
CONTINUOUS
10
141.683
20
-152.005
11
141.016
21
-152.767
0
LINE
8
BLACK
6
CONTINUOUS
10
141.016
20
-152.767
11
141.302
21
-152.767
0
LINE
8
BLACK
6
CONTINUOUS
10
141.302
20
-152.767
11
141.493
21
-152.862
0
LINE
8
BLACK
6
CONTINUOUS
10
141.493
20
-152.862
11
141.588
21
-152.957
0
LINE
8
BLACK
6
CONTINUOUS
10
141.588
20
-152.957
11
141.683
21
-153.148
0
LINE
8
BLACK
6
CONTINUOUS
10
141.683
20
-153.148
11
141.683
21
-153.624
0
LINE
8
BLACK
6
CONTINUOUS
10
141.683
20
-153.624
11
141.588
21
-153.814
0
LINE
8
BLACK
6
CONTINUOUS
10
141.588
20
-153.814
11
141.493
21
-153.91
0
LINE
8
BLACK
6
CONTINUOUS
10
141.493
20
-153.91
11
141.302
21
-154.005
0
LINE
8
BLACK
6
CONTINUOUS
10
141.302
20
-154.005
11
140.731
21
-154.005
0
LINE
8
BLACK
6
CONTINUOUS
10
140.731
20
-154.005
11
140.54
21
-153.91
0
LINE
8
BLACK
6
CONTINUOUS
10
140.54
20
-153.91
11
140.445
21
-153.814
0
LINE
8
BLACK
6
CONTINUOUS
10
142.921
20
-152.005
11
143.112
21
-152.005
0
LINE
8
BLACK
6
CONTINUOUS
10
143.112
20
-152.005
11
143.302
21
-152.1
0
LINE
8
BLACK
6
CONTINUOUS
10
143.302
20
-152.1
11
143.397
21
-152.195
0
LINE
8
BLACK
6
CONTINUOUS
10
143.397
20
-152.195
11
143.493
21
-152.386
0
LINE
8
BLACK
6
CONTINUOUS
10
143.493
20
-152.386
11
143.588
21
-152.767
0
LINE
8
BLACK
6
CONTINUOUS
10
143.588
20
-152.767
11
143.588
21
-153.243
0
LINE
8
BLACK
6
CONTINUOUS
10
143.588
20
-153.243
11
143.493
21
-153.624
0
LINE
8
BLACK
6
CONTINUOUS
10
143.493
20
-153.624
11
143.397
21
-153.814
0
LINE
8
BLACK
6
CONTINUOUS
10
143.397
20
-153.814
11
143.302
21
-153.91
0
LINE
8
BLACK
6
CONTINUOUS
10
143.302
20
-153.91
11
143.112
21
-154.005
0
LINE
8
BLACK
6
CONTINUOUS
10
143.112
20
-154.005
11
142.921
21
-154.005
0
LINE
8
BLACK
6
CONTINUOUS
10
142.921
20
-154.005
11
142.731
21
-153.91
0
LINE
8
BLACK
6
CONTINUOUS
10
142.731
20
-153.91
11
142.635
21
-153.814
0
LINE
8
BLACK
6
CONTINUOUS
10
142.635
20
-153.814
11
142.54
21
-153.624
0
LINE
8
BLACK
6
CONTINUOUS
10
142.54
20
-153.624
11
142.445
21
-153.243
0
LINE
8
BLACK
6
CONTINUOUS
10
142.445
20
-153.243
11
142.445
21
-152.767
0
LINE
8
BLACK
6
CONTINUOUS
10
142.445
20
-152.767
11
142.54
21
-152.386
0
LINE
8
BLACK
6
CONTINUOUS
10
142.54
20
-152.386
11
142.635
21
-152.195
0
LINE
8
BLACK
6
CONTINUOUS
10
142.635
20
-152.195
11
142.731
21
-152.1
0
LINE
8
BLACK
6
CONTINUOUS
10
142.731
20
-152.1
11
142.921
21
-152.005
0
LINE
8
BLACK
6
CONTINUOUS
10
144.35
20
-152.005
11
144.35
21
-152.386
0
LINE
8
BLACK
6
CONTINUOUS
10
145.112
20
-152.005
11
145.112
21
-152.386
0
LINE
8
BLACK
6
CONTINUOUS
10
148.064
20
-154.767
11
147.969
21
-154.671
0
LINE
8
BLACK
6
CONTINUOUS
10
147.969
20
-154.671
11
147.778
21
-154.386
0
LINE
8
BLACK
6
CONTINUOUS
10
147.778
20
-154.386
11
147.683
21
-154.195
0
LINE
8
BLACK
6
CONTINUOUS
10
147.683
20
-154.195
11
147.588
21
-153.91
0
LINE
8
BLACK
6
CONTINUOUS
10
147.588
20
-153.91
11
147.493
21
-153.433
0
LINE
8
BLACK
6
CONTINUOUS
10
147.493
20
-153.433
11
147.493
21
-153.052
0
LINE
8
BLACK
6
CONTINUOUS
10
147.493
20
-153.052
11
147.588
21
-152.576
0
LINE
8
BLACK
6
CONTINUOUS
10
147.588
20
-152.576
11
147.683
21
-152.29
0
LINE
8
BLACK
6
CONTINUOUS
10
147.683
20
-152.29
11
147.778
21
-152.1
0
LINE
8
BLACK
6
CONTINUOUS
10
147.778
20
-152.1
11
147.969
21
-151.814
0
LINE
8
BLACK
6
CONTINUOUS
10
147.969
20
-151.814
11
148.064
21
-151.719
0
LINE
8
BLACK
6
CONTINUOUS
10
148.731
20
-152.195
11
148.826
21
-152.1
0
LINE
8
BLACK
6
CONTINUOUS
10
148.826
20
-152.1
11
149.016
21
-152.005
0
LINE
8
BLACK
6
CONTINUOUS
10
149.016
20
-152.005
11
149.493
21
-152.005
0
LINE
8
BLACK
6
CONTINUOUS
10
149.493
20
-152.005
11
149.683
21
-152.1
0
LINE
8
BLACK
6
CONTINUOUS
10
149.683
20
-152.1
11
149.778
21
-152.195
0
LINE
8
BLACK
6
CONTINUOUS
10
149.778
20
-152.195
11
149.874
21
-152.386
0
LINE
8
BLACK
6
CONTINUOUS
10
149.874
20
-152.386
11
149.874
21
-152.576
0
LINE
8
BLACK
6
CONTINUOUS
10
149.874
20
-152.576
11
149.778
21
-152.862
0
LINE
8
BLACK
6
CONTINUOUS
10
149.778
20
-152.862
11
148.635
21
-154.005
0
LINE
8
BLACK
6
CONTINUOUS
10
148.635
20
-154.005
11
149.874
21
-154.005
0
LINE
8
BLACK
6
CONTINUOUS
10
152.255
20
-154.005
11
152.255
21
-152.005
0
LINE
8
BLACK
6
CONTINUOUS
10
153.112
20
-154.005
11
153.112
21
-152.957
0
LINE
8
BLACK
6
CONTINUOUS
10
153.112
20
-152.957
11
153.016
21
-152.767
0
LINE
8
BLACK
6
CONTINUOUS
10
153.016
20
-152.767
11
152.826
21
-152.671
0
LINE
8
BLACK
6
CONTINUOUS
10
152.826
20
-152.671
11
152.54
21
-152.671
0
LINE
8
BLACK
6
CONTINUOUS
10
152.54
20
-152.671
11
152.35
21
-152.767
0
LINE
8
BLACK
6
CONTINUOUS
10
152.35
20
-152.767
11
152.255
21
-152.862
0
LINE
8
BLACK
6
CONTINUOUS
10
154.35
20
-154.005
11
154.159
21
-153.91
0
LINE
8
BLACK
6
CONTINUOUS
10
154.159
20
-153.91
11
154.064
21
-153.814
0
LINE
8
BLACK
6
CONTINUOUS
10
154.064
20
-153.814
11
153.969
21
-153.624
0
LINE
8
BLACK
6
CONTINUOUS
10
153.969
20
-153.624
11
153.969
21
-153.052
0
LINE
8
BLACK
6
CONTINUOUS
10
153.969
20
-153.052
11
154.064
21
-152.862
0
LINE
8
BLACK
6
CONTINUOUS
10
154.064
20
-152.862
11
154.159
21
-152.767
0
LINE
8
BLACK
6
CONTINUOUS
10
154.159
20
-152.767
11
154.35
21
-152.671
0
LINE
8
BLACK
6
CONTINUOUS
10
154.35
20
-152.671
11
154.635
21
-152.671
0
LINE
8
BLACK
6
CONTINUOUS
10
154.635
20
-152.671
11
154.826
21
-152.767
0
LINE
8
BLACK
6
CONTINUOUS
10
154.826
20
-152.767
11
154.921
21
-152.862
0
LINE
8
BLACK
6
CONTINUOUS
10
154.921
20
-152.862
11
155.016
21
-153.052
0
LINE
8
BLACK
6
CONTINUOUS
10
155.016
20
-153.052
11
155.016
21
-153.624
0
LINE
8
BLACK
6
CONTINUOUS
10
155.016
20
-153.624
11
154.921
21
-153.814
0
LINE
8
BLACK
6
CONTINUOUS
10
154.921
20
-153.814
11
154.826
21
-153.91
0
LINE
8
BLACK
6
CONTINUOUS
10
154.826
20
-153.91
11
154.635
21
-154.005
0
LINE
8
BLACK
6
CONTINUOUS
10
154.635
20
-154.005
11
154.35
21
-154.005
0
LINE
8
BLACK
6
CONTINUOUS
10
156.159
20
-154.005
11
155.969
21
-153.91
0
LINE
8
BLACK
6
CONTINUOUS
10
155.969
20
-153.91
11
155.874
21
-153.719
0
LINE
8
BLACK
6
CONTINUOUS
10
155.874
20
-153.719
11
155.874
21
-152.005
0
LINE
8
BLACK
6
CONTINUOUS
10
157.683
20
-153.91
11
157.493
21
-154.005
0
LINE
8
BLACK
6
CONTINUOUS
10
157.493
20
-154.005
11
157.112
21
-154.005
0
LINE
8
BLACK
6
CONTINUOUS
10
157.112
20
-154.005
11
156.921
21
-153.91
0
LINE
8
BLACK
6
CONTINUOUS
10
156.921
20
-153.91
11
156.826
21
-153.719
0
LINE
8
BLACK
6
CONTINUOUS
10
156.826
20
-153.719
11
156.826
21
-152.957
0
LINE
8
BLACK
6
CONTINUOUS
10
156.826
20
-152.957
11
156.921
21
-152.767
0
LINE
8
BLACK
6
CONTINUOUS
10
156.921
20
-152.767
11
157.112
21
-152.671
0
LINE
8
BLACK
6
CONTINUOUS
10
157.112
20
-152.671
11
157.493
21
-152.671
0
LINE
8
BLACK
6
CONTINUOUS
10
157.493
20
-152.671
11
157.683
21
-152.767
0
LINE
8
BLACK
6
CONTINUOUS
10
157.683
20
-152.767
11
157.778
21
-152.957
0
LINE
8
BLACK
6
CONTINUOUS
10
157.778
20
-152.957
11
157.778
21
-153.148
0
LINE
8
BLACK
6
CONTINUOUS
10
157.778
20
-153.148
11
156.826
21
-153.338
0
LINE
8
BLACK
6
CONTINUOUS
10
158.54
20
-153.91
11
158.731
21
-154.005
0
LINE
8
BLACK
6
CONTINUOUS
10
158.731
20
-154.005
11
159.112
21
-154.005
0
LINE
8
BLACK
6
CONTINUOUS
10
159.112
20
-154.005
11
159.302
21
-153.91
0
LINE
8
BLACK
6
CONTINUOUS
10
159.302
20
-153.91
11
159.397
21
-153.719
0
LINE
8
BLACK
6
CONTINUOUS
10
159.397
20
-153.719
11
159.397
21
-153.624
0
LINE
8
BLACK
6
CONTINUOUS
10
159.397
20
-153.624
11
159.302
21
-153.433
0
LINE
8
BLACK
6
CONTINUOUS
10
159.302
20
-153.433
11
159.112
21
-153.338
0
LINE
8
BLACK
6
CONTINUOUS
10
159.112
20
-153.338
11
158.826
21
-153.338
0
LINE
8
BLACK
6
CONTINUOUS
10
158.826
20
-153.338
11
158.635
21
-153.243
0
LINE
8
BLACK
6
CONTINUOUS
10
158.635
20
-153.243
11
158.54
21
-153.052
0
LINE
8
BLACK
6
CONTINUOUS
10
158.54
20
-153.052
11
158.54
21
-152.957
0
LINE
8
BLACK
6
CONTINUOUS
10
158.54
20
-152.957
11
158.635
21
-152.767
0
LINE
8
BLACK
6
CONTINUOUS
10
158.635
20
-152.767
11
158.826
21
-152.671
0
LINE
8
BLACK
6
CONTINUOUS
10
158.826
20
-152.671
11
159.112
21
-152.671
0
LINE
8
BLACK
6
CONTINUOUS
10
159.112
20
-152.671
11
159.302
21
-152.767
0
LINE
8
BLACK
6
CONTINUOUS
10
160.064
20
-154.767
11
160.159
21
-154.671
0
LINE
8
BLACK
6
CONTINUOUS
10
160.159
20
-154.671
11
160.35
21
-154.386
0
LINE
8
BLACK
6
CONTINUOUS
10
160.35
20
-154.386
11
160.445
21
-154.195
0
LINE
8
BLACK
6
CONTINUOUS
10
160.445
20
-154.195
11
160.54
21
-153.91
0
LINE
8
BLACK
6
CONTINUOUS
10
160.54
20
-153.91
11
160.635
21
-153.433
0
LINE
8
BLACK
6
CONTINUOUS
10
160.635
20
-153.433
11
160.635
21
-153.052
0
LINE
8
BLACK
6
CONTINUOUS
10
160.635
20
-153.052
11
160.54
21
-152.576
0
LINE
8
BLACK
6
CONTINUOUS
10
160.54
20
-152.576
11
160.445
21
-152.29
0
LINE
8
BLACK
6
CONTINUOUS
10
160.445
20
-152.29
11
160.35
21
-152.1
0
LINE
8
BLACK
6
CONTINUOUS
10
160.35
20
-152.1
11
160.159
21
-151.814
0
LINE
8
BLACK
6
CONTINUOUS
10
160.159
20
-151.814
11
160.064
21
-151.719
0
LINE
8
BLACK
6
CONTINUOUS
10
110.645
20
-155.05
11
112.345
21
-156.75
0
LINE
8
BLACK
6
CONTINUOUS
10
112.345
20
-155.05
11
110.645
21
-156.75
0
LINE
8
BLACK
6
CONTINUOUS
10
112.096
20
-156.501
11
112.096
21
-155.299
0
LINE
8
BLACK
6
CONTINUOUS
10
112.096
20
-155.299
11
110.894
21
-155.299
0
LINE
8
BLACK
6
CONTINUOUS
10
110.894
20
-155.299
11
110.894
21
-156.501
0
LINE
8
BLACK
6
CONTINUOUS
10
110.894
20
-156.501
11
112.096
21
-156.501
0
LINE
8
BLACK
6
CONTINUOUS
10
115.969
20
-156.805
11
114.826
21
-156.805
0
LINE
8
BLACK
6
CONTINUOUS
10
115.397
20
-156.805
11
115.397
21
-154.805
0
LINE
8
BLACK
6
CONTINUOUS
10
115.397
20
-154.805
11
115.207
21
-155.09
0
LINE
8
BLACK
6
CONTINUOUS
10
115.207
20
-155.09
11
115.016
21
-155.281
0
LINE
8
BLACK
6
CONTINUOUS
10
115.016
20
-155.281
11
114.826
21
-155.376
0
LINE
8
BLACK
6
CONTINUOUS
10
116.826
20
-156.614
11
116.921
21
-156.71
0
LINE
8
BLACK
6
CONTINUOUS
10
116.921
20
-156.71
11
116.826
21
-156.805
0
LINE
8
BLACK
6
CONTINUOUS
10
116.826
20
-156.805
11
116.731
21
-156.71
0
LINE
8
BLACK
6
CONTINUOUS
10
116.731
20
-156.71
11
116.826
21
-156.614
0
LINE
8
BLACK
6
CONTINUOUS
10
116.826
20
-156.614
11
116.826
21
-156.805
0
LINE
8
BLACK
6
CONTINUOUS
10
117.588
20
-154.805
11
118.921
21
-154.805
0
LINE
8
BLACK
6
CONTINUOUS
10
118.921
20
-154.805
11
118.064
21
-156.805
0
LINE
8
BLACK
6
CONTINUOUS
10
120.064
20
-154.805
11
120.255
21
-154.805
0
LINE
8
BLACK
6
CONTINUOUS
10
120.255
20
-154.805
11
120.445
21
-154.9
0
LINE
8
BLACK
6
CONTINUOUS
10
120.445
20
-154.9
11
120.54
21
-154.995
0
LINE
8
BLACK
6
CONTINUOUS
10
120.54
20
-154.995
11
120.635
21
-155.186
0
LINE
8
BLACK
6
CONTINUOUS
10
120.635
20
-155.186
11
120.731
21
-155.567
0
LINE
8
BLACK
6
CONTINUOUS
10
120.731
20
-155.567
11
120.731
21
-156.043
0
LINE
8
BLACK
6
CONTINUOUS
10
120.731
20
-156.043
11
120.635
21
-156.424
0
LINE
8
BLACK
6
CONTINUOUS
10
120.635
20
-156.424
11
120.54
21
-156.614
0
LINE
8
BLACK
6
CONTINUOUS
10
120.54
20
-156.614
11
120.445
21
-156.71
0
LINE
8
BLACK
6
CONTINUOUS
10
120.445
20
-156.71
11
120.255
21
-156.805
0
LINE
8
BLACK
6
CONTINUOUS
10
120.255
20
-156.805
11
120.064
21
-156.805
0
LINE
8
BLACK
6
CONTINUOUS
10
120.064
20
-156.805
11
119.874
21
-156.71
0
LINE
8
BLACK
6
CONTINUOUS
10
119.874
20
-156.71
11
119.778
21
-156.614
0
LINE
8
BLACK
6
CONTINUOUS
10
119.778
20
-156.614
11
119.683
21
-156.424
0
LINE
8
BLACK
6
CONTINUOUS
10
119.683
20
-156.424
11
119.588
21
-156.043
0
LINE
8
BLACK
6
CONTINUOUS
10
119.588
20
-156.043
11
119.588
21
-155.567
0
LINE
8
BLACK
6
CONTINUOUS
10
119.588
20
-155.567
11
119.683
21
-155.186
0
LINE
8
BLACK
6
CONTINUOUS
10
119.683
20
-155.186
11
119.778
21
-154.995
0
LINE
8
BLACK
6
CONTINUOUS
10
119.778
20
-154.995
11
119.874
21
-154.9
0
LINE
8
BLACK
6
CONTINUOUS
10
119.874
20
-154.9
11
120.064
21
-154.805
0
LINE
8
BLACK
6
CONTINUOUS
10
121.969
20
-154.805
11
122.159
21
-154.805
0
LINE
8
BLACK
6
CONTINUOUS
10
122.159
20
-154.805
11
122.35
21
-154.9
0
LINE
8
BLACK
6
CONTINUOUS
10
122.35
20
-154.9
11
122.445
21
-154.995
0
LINE
8
BLACK
6
CONTINUOUS
10
122.445
20
-154.995
11
122.54
21
-155.186
0
LINE
8
BLACK
6
CONTINUOUS
10
122.54
20
-155.186
11
122.635
21
-155.567
0
LINE
8
BLACK
6
CONTINUOUS
10
122.635
20
-155.567
11
122.635
21
-156.043
0
LINE
8
BLACK
6
CONTINUOUS
10
122.635
20
-156.043
11
122.54
21
-156.424
0
LINE
8
BLACK
6
CONTINUOUS
10
122.54
20
-156.424
11
122.445
21
-156.614
0
LINE
8
BLACK
6
CONTINUOUS
10
122.445
20
-156.614
11
122.35
21
-156.71
0
LINE
8
BLACK
6
CONTINUOUS
10
122.35
20
-156.71
11
122.159
21
-156.805
0
LINE
8
BLACK
6
CONTINUOUS
10
122.159
20
-156.805
11
121.969
21
-156.805
0
LINE
8
BLACK
6
CONTINUOUS
10
121.969
20
-156.805
11
121.778
21
-156.71
0
LINE
8
BLACK
6
CONTINUOUS
10
121.778
20
-156.71
11
121.683
21
-156.614
0
LINE
8
BLACK
6
CONTINUOUS
10
121.683
20
-156.614
11
121.588
21
-156.424
0
LINE
8
BLACK
6
CONTINUOUS
10
121.588
20
-156.424
11
121.493
21
-156.043
0
LINE
8
BLACK
6
CONTINUOUS
10
121.493
20
-156.043
11
121.493
21
-155.567
0
LINE
8
BLACK
6
CONTINUOUS
10
121.493
20
-155.567
11
121.588
21
-155.186
0
LINE
8
BLACK
6
CONTINUOUS
10
121.588
20
-155.186
11
121.683
21
-154.995
0
LINE
8
BLACK
6
CONTINUOUS
10
121.683
20
-154.995
11
121.778
21
-154.9
0
LINE
8
BLACK
6
CONTINUOUS
10
121.778
20
-154.9
11
121.969
21
-154.805
0
LINE
8
BLACK
6
CONTINUOUS
10
123.493
20
-156.805
11
123.493
21
-155.471
0
LINE
8
BLACK
6
CONTINUOUS
10
123.493
20
-155.662
11
123.588
21
-155.567
0
LINE
8
BLACK
6
CONTINUOUS
10
123.588
20
-155.567
11
123.778
21
-155.471
0
LINE
8
BLACK
6
CONTINUOUS
10
123.778
20
-155.471
11
124.064
21
-155.471
0
LINE
8
BLACK
6
CONTINUOUS
10
124.064
20
-155.471
11
124.255
21
-155.567
0
LINE
8
BLACK
6
CONTINUOUS
10
124.255
20
-155.567
11
124.35
21
-155.757
0
LINE
8
BLACK
6
CONTINUOUS
10
124.35
20
-155.757
11
124.35
21
-156.805
0
LINE
8
BLACK
6
CONTINUOUS
10
124.35
20
-155.757
11
124.445
21
-155.567
0
LINE
8
BLACK
6
CONTINUOUS
10
124.445
20
-155.567
11
124.635
21
-155.471
0
LINE
8
BLACK
6
CONTINUOUS
10
124.635
20
-155.471
11
124.921
21
-155.471
0
LINE
8
BLACK
6
CONTINUOUS
10
124.921
20
-155.471
11
125.112
21
-155.567
0
LINE
8
BLACK
6
CONTINUOUS
10
125.112
20
-155.567
11
125.207
21
-155.757
0
LINE
8
BLACK
6
CONTINUOUS
10
125.207
20
-155.757
11
125.207
21
-156.805
0
LINE
8
BLACK
6
CONTINUOUS
10
126.159
20
-156.805
11
126.159
21
-155.471
0
LINE
8
BLACK
6
CONTINUOUS
10
126.159
20
-155.662
11
126.255
21
-155.567
0
LINE
8
BLACK
6
CONTINUOUS
10
126.255
20
-155.567
11
126.445
21
-155.471
0
LINE
8
BLACK
6
CONTINUOUS
10
126.445
20
-155.471
11
126.731
21
-155.471
0
LINE
8
BLACK
6
CONTINUOUS
10
126.731
20
-155.471
11
126.921
21
-155.567
0
LINE
8
BLACK
6
CONTINUOUS
10
126.921
20
-155.567
11
127.016
21
-155.757
0
LINE
8
BLACK
6
CONTINUOUS
10
127.016
20
-155.757
11
127.016
21
-156.805
0
LINE
8
BLACK
6
CONTINUOUS
10
127.016
20
-155.757
11
127.112
21
-155.567
0
LINE
8
BLACK
6
CONTINUOUS
10
127.112
20
-155.567
11
127.302
21
-155.471
0
LINE
8
BLACK
6
CONTINUOUS
10
127.302
20
-155.471
11
127.588
21
-155.471
0
LINE
8
BLACK
6
CONTINUOUS
10
127.588
20
-155.471
11
127.778
21
-155.567
0
LINE
8
BLACK
6
CONTINUOUS
10
127.778
20
-155.567
11
127.874
21
-155.757
0
LINE
8
BLACK
6
CONTINUOUS
10
127.874
20
-155.757
11
127.874
21
-156.805
0
LINE
8
BLACK
6
CONTINUOUS
10
131.778
20
-154.71
11
130.064
21
-157.281
0
LINE
8
BLACK
6
CONTINUOUS
10
134.35
20
-154.805
11
134.54
21
-154.805
0
LINE
8
BLACK
6
CONTINUOUS
10
134.54
20
-154.805
11
134.731
21
-154.9
0
LINE
8
BLACK
6
CONTINUOUS
10
134.731
20
-154.9
11
134.826
21
-154.995
0
LINE
8
BLACK
6
CONTINUOUS
10
134.826
20
-154.995
11
134.921
21
-155.186
0
LINE
8
BLACK
6
CONTINUOUS
10
134.921
20
-155.186
11
135.016
21
-155.567
0
LINE
8
BLACK
6
CONTINUOUS
10
135.016
20
-155.567
11
135.016
21
-156.043
0
LINE
8
BLACK
6
CONTINUOUS
10
135.016
20
-156.043
11
134.921
21
-156.424
0
LINE
8
BLACK
6
CONTINUOUS
10
134.921
20
-156.424
11
134.826
21
-156.614
0
LINE
8
BLACK
6
CONTINUOUS
10
134.826
20
-156.614
11
134.731
21
-156.71
0
LINE
8
BLACK
6
CONTINUOUS
10
134.731
20
-156.71
11
134.54
21
-156.805
0
LINE
8
BLACK
6
CONTINUOUS
10
134.54
20
-156.805
11
134.35
21
-156.805
0
LINE
8
BLACK
6
CONTINUOUS
10
134.35
20
-156.805
11
134.159
21
-156.71
0
LINE
8
BLACK
6
CONTINUOUS
10
134.159
20
-156.71
11
134.064
21
-156.614
0
LINE
8
BLACK
6
CONTINUOUS
10
134.064
20
-156.614
11
133.969
21
-156.424
0
LINE
8
BLACK
6
CONTINUOUS
10
133.969
20
-156.424
11
133.874
21
-156.043
0
LINE
8
BLACK
6
CONTINUOUS
10
133.874
20
-156.043
11
133.874
21
-155.567
0
LINE
8
BLACK
6
CONTINUOUS
10
133.874
20
-155.567
11
133.969
21
-155.186
0
LINE
8
BLACK
6
CONTINUOUS
10
133.969
20
-155.186
11
134.064
21
-154.995
0
LINE
8
BLACK
6
CONTINUOUS
10
134.064
20
-154.995
11
134.159
21
-154.9
0
LINE
8
BLACK
6
CONTINUOUS
10
134.159
20
-154.9
11
134.35
21
-154.805
0
LINE
8
BLACK
6
CONTINUOUS
10
135.874
20
-156.614
11
135.969
21
-156.71
0
LINE
8
BLACK
6
CONTINUOUS
10
135.969
20
-156.71
11
135.874
21
-156.805
0
LINE
8
BLACK
6
CONTINUOUS
10
135.874
20
-156.805
11
135.778
21
-156.71
0
LINE
8
BLACK
6
CONTINUOUS
10
135.778
20
-156.71
11
135.874
21
-156.614
0
LINE
8
BLACK
6
CONTINUOUS
10
135.874
20
-156.614
11
135.874
21
-156.805
0
LINE
8
BLACK
6
CONTINUOUS
10
137.207
20
-154.805
11
137.397
21
-154.805
0
LINE
8
BLACK
6
CONTINUOUS
10
137.397
20
-154.805
11
137.588
21
-154.9
0
LINE
8
BLACK
6
CONTINUOUS
10
137.588
20
-154.9
11
137.683
21
-154.995
0
LINE
8
BLACK
6
CONTINUOUS
10
137.683
20
-154.995
11
137.778
21
-155.186
0
LINE
8
BLACK
6
CONTINUOUS
10
137.778
20
-155.186
11
137.874
21
-155.567
0
LINE
8
BLACK
6
CONTINUOUS
10
137.874
20
-155.567
11
137.874
21
-156.043
0
LINE
8
BLACK
6
CONTINUOUS
10
137.874
20
-156.043
11
137.778
21
-156.424
0
LINE
8
BLACK
6
CONTINUOUS
10
137.778
20
-156.424
11
137.683
21
-156.614
0
LINE
8
BLACK
6
CONTINUOUS
10
137.683
20
-156.614
11
137.588
21
-156.71
0
LINE
8
BLACK
6
CONTINUOUS
10
137.588
20
-156.71
11
137.397
21
-156.805
0
LINE
8
BLACK
6
CONTINUOUS
10
137.397
20
-156.805
11
137.207
21
-156.805
0
LINE
8
BLACK
6
CONTINUOUS
10
137.207
20
-156.805
11
137.016
21
-156.71
0
LINE
8
BLACK
6
CONTINUOUS
10
137.016
20
-156.71
11
136.921
21
-156.614
0
LINE
8
BLACK
6
CONTINUOUS
10
136.921
20
-156.614
11
136.826
21
-156.424
0
LINE
8
BLACK
6
CONTINUOUS
10
136.826
20
-156.424
11
136.731
21
-156.043
0
LINE
8
BLACK
6
CONTINUOUS
10
136.731
20
-156.043
11
136.731
21
-155.567
0
LINE
8
BLACK
6
CONTINUOUS
10
136.731
20
-155.567
11
136.826
21
-155.186
0
LINE
8
BLACK
6
CONTINUOUS
10
136.826
20
-155.186
11
136.921
21
-154.995
0
LINE
8
BLACK
6
CONTINUOUS
10
136.921
20
-154.995
11
137.016
21
-154.9
0
LINE
8
BLACK
6
CONTINUOUS
10
137.016
20
-154.9
11
137.207
21
-154.805
0
LINE
8
BLACK
6
CONTINUOUS
10
139.588
20
-154.805
11
139.207
21
-154.805
0
LINE
8
BLACK
6
CONTINUOUS
10
139.207
20
-154.805
11
139.016
21
-154.9
0
LINE
8
BLACK
6
CONTINUOUS
10
139.016
20
-154.9
11
138.921
21
-154.995
0
LINE
8
BLACK
6
CONTINUOUS
10
138.921
20
-154.995
11
138.731
21
-155.281
0
LINE
8
BLACK
6
CONTINUOUS
10
138.731
20
-155.281
11
138.635
21
-155.662
0
LINE
8
BLACK
6
CONTINUOUS
10
138.635
20
-155.662
11
138.635
21
-156.424
0
LINE
8
BLACK
6
CONTINUOUS
10
138.635
20
-156.424
11
138.731
21
-156.614
0
LINE
8
BLACK
6
CONTINUOUS
10
138.731
20
-156.614
11
138.826
21
-156.71
0
LINE
8
BLACK
6
CONTINUOUS
10
138.826
20
-156.71
11
139.016
21
-156.805
0
LINE
8
BLACK
6
CONTINUOUS
10
139.016
20
-156.805
11
139.397
21
-156.805
0
LINE
8
BLACK
6
CONTINUOUS
10
139.397
20
-156.805
11
139.588
21
-156.71
0
LINE
8
BLACK
6
CONTINUOUS
10
139.588
20
-156.71
11
139.683
21
-156.614
0
LINE
8
BLACK
6
CONTINUOUS
10
139.683
20
-156.614
11
139.778
21
-156.424
0
LINE
8
BLACK
6
CONTINUOUS
10
139.778
20
-156.424
11
139.778
21
-155.948
0
LINE
8
BLACK
6
CONTINUOUS
10
139.778
20
-155.948
11
139.683
21
-155.757
0
LINE
8
BLACK
6
CONTINUOUS
10
139.683
20
-155.757
11
139.588
21
-155.662
0
LINE
8
BLACK
6
CONTINUOUS
10
139.588
20
-155.662
11
139.397
21
-155.567
0
LINE
8
BLACK
6
CONTINUOUS
10
139.397
20
-155.567
11
139.016
21
-155.567
0
LINE
8
BLACK
6
CONTINUOUS
10
139.016
20
-155.567
11
138.826
21
-155.662
0
LINE
8
BLACK
6
CONTINUOUS
10
138.826
20
-155.662
11
138.731
21
-155.757
0
LINE
8
BLACK
6
CONTINUOUS
10
138.731
20
-155.757
11
138.635
21
-155.948
0
LINE
8
BLACK
6
CONTINUOUS
10
141.493
20
-154.805
11
141.112
21
-154.805
0
LINE
8
BLACK
6
CONTINUOUS
10
141.112
20
-154.805
11
140.921
21
-154.9
0
LINE
8
BLACK
6
CONTINUOUS
10
140.921
20
-154.9
11
140.826
21
-154.995
0
LINE
8
BLACK
6
CONTINUOUS
10
140.826
20
-154.995
11
140.635
21
-155.281
0
LINE
8
BLACK
6
CONTINUOUS
10
140.635
20
-155.281
11
140.54
21
-155.662
0
LINE
8
BLACK
6
CONTINUOUS
10
140.54
20
-155.662
11
140.54
21
-156.424
0
LINE
8
BLACK
6
CONTINUOUS
10
140.54
20
-156.424
11
140.635
21
-156.614
0
LINE
8
BLACK
6
CONTINUOUS
10
140.635
20
-156.614
11
140.731
21
-156.71
0
LINE
8
BLACK
6
CONTINUOUS
10
140.731
20
-156.71
11
140.921
21
-156.805
0
LINE
8
BLACK
6
CONTINUOUS
10
140.921
20
-156.805
11
141.302
21
-156.805
0
LINE
8
BLACK
6
CONTINUOUS
10
141.302
20
-156.805
11
141.493
21
-156.71
0
LINE
8
BLACK
6
CONTINUOUS
10
141.493
20
-156.71
11
141.588
21
-156.614
0
LINE
8
BLACK
6
CONTINUOUS
10
141.588
20
-156.614
11
141.683
21
-156.424
0
LINE
8
BLACK
6
CONTINUOUS
10
141.683
20
-156.424
11
141.683
21
-155.948
0
LINE
8
BLACK
6
CONTINUOUS
10
141.683
20
-155.948
11
141.588
21
-155.757
0
LINE
8
BLACK
6
CONTINUOUS
10
141.588
20
-155.757
11
141.493
21
-155.662
0
LINE
8
BLACK
6
CONTINUOUS
10
141.493
20
-155.662
11
141.302
21
-155.567
0
LINE
8
BLACK
6
CONTINUOUS
10
141.302
20
-155.567
11
140.921
21
-155.567
0
LINE
8
BLACK
6
CONTINUOUS
10
140.921
20
-155.567
11
140.731
21
-155.662
0
LINE
8
BLACK
6
CONTINUOUS
10
140.731
20
-155.662
11
140.635
21
-155.757
0
LINE
8
BLACK
6
CONTINUOUS
10
140.635
20
-155.757
11
140.54
21
-155.948
0
LINE
8
BLACK
6
CONTINUOUS
10
142.635
20
-156.805
11
143.016
21
-156.805
0
LINE
8
BLACK
6
CONTINUOUS
10
143.016
20
-156.805
11
143.207
21
-156.71
0
LINE
8
BLACK
6
CONTINUOUS
10
143.207
20
-156.71
11
143.302
21
-156.614
0
LINE
8
BLACK
6
CONTINUOUS
10
143.302
20
-156.614
11
143.493
21
-156.329
0
LINE
8
BLACK
6
CONTINUOUS
10
143.493
20
-156.329
11
143.588
21
-155.948
0
LINE
8
BLACK
6
CONTINUOUS
10
143.588
20
-155.948
11
143.588
21
-155.186
0
LINE
8
BLACK
6
CONTINUOUS
10
143.588
20
-155.186
11
143.493
21
-154.995
0
LINE
8
BLACK
6
CONTINUOUS
10
143.493
20
-154.995
11
143.397
21
-154.9
0
LINE
8
BLACK
6
CONTINUOUS
10
143.397
20
-154.9
11
143.207
21
-154.805
0
LINE
8
BLACK
6
CONTINUOUS
10
143.207
20
-154.805
11
142.826
21
-154.805
0
LINE
8
BLACK
6
CONTINUOUS
10
142.826
20
-154.805
11
142.635
21
-154.9
0
LINE
8
BLACK
6
CONTINUOUS
10
142.635
20
-154.9
11
142.54
21
-154.995
0
LINE
8
BLACK
6
CONTINUOUS
10
142.54
20
-154.995
11
142.445
21
-155.186
0
LINE
8
BLACK
6
CONTINUOUS
10
142.445
20
-155.186
11
142.445
21
-155.662
0
LINE
8
BLACK
6
CONTINUOUS
10
142.445
20
-155.662
11
142.54
21
-155.852
0
LINE
8
BLACK
6
CONTINUOUS
10
142.54
20
-155.852
11
142.635
21
-155.948
0
LINE
8
BLACK
6
CONTINUOUS
10
142.635
20
-155.948
11
142.826
21
-156.043
0
LINE
8
BLACK
6
CONTINUOUS
10
142.826
20
-156.043
11
143.207
21
-156.043
0
LINE
8
BLACK
6
CONTINUOUS
10
143.207
20
-156.043
11
143.397
21
-155.948
0
LINE
8
BLACK
6
CONTINUOUS
10
143.397
20
-155.948
11
143.493
21
-155.852
0
LINE
8
BLACK
6
CONTINUOUS
10
143.493
20
-155.852
11
143.588
21
-155.662
0
LINE
8
BLACK
6
CONTINUOUS
10
144.35
20
-154.805
11
144.35
21
-155.186
0
LINE
8
BLACK
6
CONTINUOUS
10
145.112
20
-154.805
11
145.112
21
-155.186
0
LINE
8
BLACK
6
CONTINUOUS
10
148.064
20
-157.567
11
147.969
21
-157.471
0
LINE
8
BLACK
6
CONTINUOUS
10
147.969
20
-157.471
11
147.778
21
-157.186
0
LINE
8
BLACK
6
CONTINUOUS
10
147.778
20
-157.186
11
147.683
21
-156.995
0
LINE
8
BLACK
6
CONTINUOUS
10
147.683
20
-156.995
11
147.588
21
-156.71
0
LINE
8
BLACK
6
CONTINUOUS
10
147.588
20
-156.71
11
147.493
21
-156.233
0
LINE
8
BLACK
6
CONTINUOUS
10
147.493
20
-156.233
11
147.493
21
-155.852
0
LINE
8
BLACK
6
CONTINUOUS
10
147.493
20
-155.852
11
147.588
21
-155.376
0
LINE
8
BLACK
6
CONTINUOUS
10
147.588
20
-155.376
11
147.683
21
-155.09
0
LINE
8
BLACK
6
CONTINUOUS
10
147.683
20
-155.09
11
147.778
21
-154.9
0
LINE
8
BLACK
6
CONTINUOUS
10
147.778
20
-154.9
11
147.969
21
-154.614
0
LINE
8
BLACK
6
CONTINUOUS
10
147.969
20
-154.614
11
148.064
21
-154.519
0
LINE
8
BLACK
6
CONTINUOUS
10
148.731
20
-154.995
11
148.826
21
-154.9
0
LINE
8
BLACK
6
CONTINUOUS
10
148.826
20
-154.9
11
149.016
21
-154.805
0
LINE
8
BLACK
6
CONTINUOUS
10
149.016
20
-154.805
11
149.493
21
-154.805
0
LINE
8
BLACK
6
CONTINUOUS
10
149.493
20
-154.805
11
149.683
21
-154.9
0
LINE
8
BLACK
6
CONTINUOUS
10
149.683
20
-154.9
11
149.778
21
-154.995
0
LINE
8
BLACK
6
CONTINUOUS
10
149.778
20
-154.995
11
149.874
21
-155.186
0
LINE
8
BLACK
6
CONTINUOUS
10
149.874
20
-155.186
11
149.874
21
-155.376
0
LINE
8
BLACK
6
CONTINUOUS
10
149.874
20
-155.376
11
149.778
21
-155.662
0
LINE
8
BLACK
6
CONTINUOUS
10
149.778
20
-155.662
11
148.635
21
-156.805
0
LINE
8
BLACK
6
CONTINUOUS
10
148.635
20
-156.805
11
149.874
21
-156.805
0
LINE
8
BLACK
6
CONTINUOUS
10
152.255
20
-156.805
11
152.255
21
-154.805
0
LINE
8
BLACK
6
CONTINUOUS
10
153.112
20
-156.805
11
153.112
21
-155.757
0
LINE
8
BLACK
6
CONTINUOUS
10
153.112
20
-155.757
11
153.016
21
-155.567
0
LINE
8
BLACK
6
CONTINUOUS
10
153.016
20
-155.567
11
152.826
21
-155.471
0
LINE
8
BLACK
6
CONTINUOUS
10
152.826
20
-155.471
11
152.54
21
-155.471
0
LINE
8
BLACK
6
CONTINUOUS
10
152.54
20
-155.471
11
152.35
21
-155.567
0
LINE
8
BLACK
6
CONTINUOUS
10
152.35
20
-155.567
11
152.255
21
-155.662
0
LINE
8
BLACK
6
CONTINUOUS
10
154.35
20
-156.805
11
154.159
21
-156.71
0
LINE
8
BLACK
6
CONTINUOUS
10
154.159
20
-156.71
11
154.064
21
-156.614
0
LINE
8
BLACK
6
CONTINUOUS
10
154.064
20
-156.614
11
153.969
21
-156.424
0
LINE
8
BLACK
6
CONTINUOUS
10
153.969
20
-156.424
11
153.969
21
-155.852
0
LINE
8
BLACK
6
CONTINUOUS
10
153.969
20
-155.852
11
154.064
21
-155.662
0
LINE
8
BLACK
6
CONTINUOUS
10
154.064
20
-155.662
11
154.159
21
-155.567
0
LINE
8
BLACK
6
CONTINUOUS
10
154.159
20
-155.567
11
154.35
21
-155.471
0
LINE
8
BLACK
6
CONTINUOUS
10
154.35
20
-155.471
11
154.635
21
-155.471
0
LINE
8
BLACK
6
CONTINUOUS
10
154.635
20
-155.471
11
154.826
21
-155.567
0
LINE
8
BLACK
6
CONTINUOUS
10
154.826
20
-155.567
11
154.921
21
-155.662
0
LINE
8
BLACK
6
CONTINUOUS
10
154.921
20
-155.662
11
155.016
21
-155.852
0
LINE
8
BLACK
6
CONTINUOUS
10
155.016
20
-155.852
11
155.016
21
-156.424
0
LINE
8
BLACK
6
CONTINUOUS
10
155.016
20
-156.424
11
154.921
21
-156.614
0
LINE
8
BLACK
6
CONTINUOUS
10
154.921
20
-156.614
11
154.826
21
-156.71
0
LINE
8
BLACK
6
CONTINUOUS
10
154.826
20
-156.71
11
154.635
21
-156.805
0
LINE
8
BLACK
6
CONTINUOUS
10
154.635
20
-156.805
11
154.35
21
-156.805
0
LINE
8
BLACK
6
CONTINUOUS
10
156.159
20
-156.805
11
155.969
21
-156.71
0
LINE
8
BLACK
6
CONTINUOUS
10
155.969
20
-156.71
11
155.874
21
-156.519
0
LINE
8
BLACK
6
CONTINUOUS
10
155.874
20
-156.519
11
155.874
21
-154.805
0
LINE
8
BLACK
6
CONTINUOUS
10
157.683
20
-156.71
11
157.493
21
-156.805
0
LINE
8
BLACK
6
CONTINUOUS
10
157.493
20
-156.805
11
157.112
21
-156.805
0
LINE
8
BLACK
6
CONTINUOUS
10
157.112
20
-156.805
11
156.921
21
-156.71
0
LINE
8
BLACK
6
CONTINUOUS
10
156.921
20
-156.71
11
156.826
21
-156.519
0
LINE
8
BLACK
6
CONTINUOUS
10
156.826
20
-156.519
11
156.826
21
-155.757
0
LINE
8
BLACK
6
CONTINUOUS
10
156.826
20
-155.757
11
156.921
21
-155.567
0
LINE
8
BLACK
6
CONTINUOUS
10
156.921
20
-155.567
11
157.112
21
-155.471
0
LINE
8
BLACK
6
CONTINUOUS
10
157.112
20
-155.471
11
157.493
21
-155.471
0
LINE
8
BLACK
6
CONTINUOUS
10
157.493
20
-155.471
11
157.683
21
-155.567
0
LINE
8
BLACK
6
CONTINUOUS
10
157.683
20
-155.567
11
157.778
21
-155.757
0
LINE
8
BLACK
6
CONTINUOUS
10
157.778
20
-155.757
11
157.778
21
-155.948
0
LINE
8
BLACK
6
CONTINUOUS
10
157.778
20
-155.948
11
156.826
21
-156.138
0
LINE
8
BLACK
6
CONTINUOUS
10
158.54
20
-156.71
11
158.731
21
-156.805
0
LINE
8
BLACK
6
CONTINUOUS
10
158.731
20
-156.805
11
159.112
21
-156.805
0
LINE
8
BLACK
6
CONTINUOUS
10
159.112
20
-156.805
11
159.302
21
-156.71
0
LINE
8
BLACK
6
CONTINUOUS
10
159.302
20
-156.71
11
159.397
21
-156.519
0
LINE
8
BLACK
6
CONTINUOUS
10
159.397
20
-156.519
11
159.397
21
-156.424
0
LINE
8
BLACK
6
CONTINUOUS
10
159.397
20
-156.424
11
159.302
21
-156.233
0
LINE
8
BLACK
6
CONTINUOUS
10
159.302
20
-156.233
11
159.112
21
-156.138
0
LINE
8
BLACK
6
CONTINUOUS
10
159.112
20
-156.138
11
158.826
21
-156.138
0
LINE
8
BLACK
6
CONTINUOUS
10
158.826
20
-156.138
11
158.635
21
-156.043
0
LINE
8
BLACK
6
CONTINUOUS
10
158.635
20
-156.043
11
158.54
21
-155.852
0
LINE
8
BLACK
6
CONTINUOUS
10
158.54
20
-155.852
11
158.54
21
-155.757
0
LINE
8
BLACK
6
CONTINUOUS
10
158.54
20
-155.757
11
158.635
21
-155.567
0
LINE
8
BLACK
6
CONTINUOUS
10
158.635
20
-155.567
11
158.826
21
-155.471
0
LINE
8
BLACK
6
CONTINUOUS
10
158.826
20
-155.471
11
159.112
21
-155.471
0
LINE
8
BLACK
6
CONTINUOUS
10
159.112
20
-155.471
11
159.302
21
-155.567
0
LINE
8
BLACK
6
CONTINUOUS
10
160.064
20
-157.567
11
160.159
21
-157.471
0
LINE
8
BLACK
6
CONTINUOUS
10
160.159
20
-157.471
11
160.35
21
-157.186
0
LINE
8
BLACK
6
CONTINUOUS
10
160.35
20
-157.186
11
160.445
21
-156.995
0
LINE
8
BLACK
6
CONTINUOUS
10
160.445
20
-156.995
11
160.54
21
-156.71
0
LINE
8
BLACK
6
CONTINUOUS
10
160.54
20
-156.71
11
160.635
21
-156.233
0
LINE
8
BLACK
6
CONTINUOUS
10
160.635
20
-156.233
11
160.635
21
-155.852
0
LINE
8
BLACK
6
CONTINUOUS
10
160.635
20
-155.852
11
160.54
21
-155.376
0
LINE
8
BLACK
6
CONTINUOUS
10
160.54
20
-155.376
11
160.445
21
-155.09
0
LINE
8
BLACK
6
CONTINUOUS
10
160.445
20
-155.09
11
160.35
21
-154.9
0
LINE
8
BLACK
6
CONTINUOUS
10
160.35
20
-154.9
11
160.159
21
-154.614
0
LINE
8
BLACK
6
CONTINUOUS
10
160.159
20
-154.614
11
160.064
21
-154.519
  0
ENDSEC
  0
EOF
