  0
SECTION
  2
HEADER
  9
$ANGBASE
  50
0.0
  9
$ANGDIR
  70
1
  9
$MEASUREMENT
  70
1
  0
ENDSEC
  0
SECTION
  2
TABLES
  0
TABLE
  2
LTYPE
  70
4
  0
LTYPE
  5
40F
  2
CONTINUOUS
  70
0
  3
Solid line
  72
65
  73
0
  40
0.0
  0
LTYPE
  5
410
  2
DASHDOT
 70
0
  3
Dash Dot ____ _ ____ _
 72
65
 73
4
 40
2.0
 49
1.25
 49
-0.25
 49
0.25
 49
-0.25
  0
LTYPE
  5
411
  2
DASHED
 70
0
  3
Dashed __ __ __ __ __
 72
65
 73
2
 40
0.75
 49
0.5
 49
-0.25
  0
LTYPE
  5
43B
  2
DOTTED
 70
0
  3
Dotted .  .  .  .
 72
65
 73
2
 40
0.2
 49
0.0
 49
-0.2
  0
ENDTAB
  0
TABLE
  2
STYLE
  70
4
  0
STYLE
  2
KICAD
  70
0
  40
0
  41
1
  42
1
  50
0
  71
0
  3
isocp.shx
  0
STYLE
  2
KICADB
  70
0
  40
0
  41
1
  42
1
  50
0
  71
0
  3
isocp.shx
  0
STYLE
  2
KICADI
  70
0
  40
0
  41
1
  42
1
  50
15
  71
0
  3
isocp.shx
  0
STYLE
  2
KICADBI
  70
0
  40
0
  41
1
  42
1
  50
15
  71
0
  3
isocp.shx
  0
ENDTAB
  0
TABLE
  2
LAYER
  70
1
  0
LAYER
  2
BLACK
  70
0
  62
7
  6
CONTINUOUS
  0
ENDTAB
  0
ENDSEC
  0
SECTION
  2
ENTITIES
0
LINE
8
BLACK
6
CONTINUOUS
10
112.36
20
-130.845
11
112.345
21
-130.81
0
LINE
8
BLACK
6
CONTINUOUS
10
112.345
20
-130.81
11
112.345
21
-81.28
0
LINE
8
BLACK
6
CONTINUOUS
10
112.345
20
-81.28
11
112.36
21
-81.2446
0
LINE
8
BLACK
6
CONTINUOUS
10
112.36
20
-81.2446
11
112.395
21
-81.23
0
LINE
8
BLACK
6
CONTINUOUS
10
112.395
20
-81.23
11
212.09
21
-81.23
0
LINE
8
BLACK
6
CONTINUOUS
10
212.09
20
-81.23
11
212.125
21
-81.2446
0
LINE
8
BLACK
6
CONTINUOUS
10
212.125
20
-81.2446
11
212.14
21
-81.28
0
LINE
8
BLACK
6
CONTINUOUS
10
212.14
20
-81.28
11
212.14
21
-130.81
0
LINE
8
BLACK
6
CONTINUOUS
10
212.14
20
-130.81
11
212.125
21
-130.845
0
LINE
8
BLACK
6
CONTINUOUS
10
212.125
20
-130.845
11
212.09
21
-130.86
0
LINE
8
BLACK
6
CONTINUOUS
10
212.09
20
-130.86
11
112.395
21
-130.86
0
LINE
8
BLACK
6
CONTINUOUS
10
112.395
20
-130.86
11
112.36
21
-130.845
0
LINE
8
BLACK
6
CONTINUOUS
10
112.445
20
-81.33
11
112.445
21
-130.76
0
LINE
8
BLACK
6
CONTINUOUS
10
112.445
20
-130.76
11
212.04
21
-130.76
0
LINE
8
BLACK
6
CONTINUOUS
10
212.04
20
-130.76
11
212.04
21
-81.33
0
LINE
8
BLACK
6
CONTINUOUS
10
212.04
20
-81.33
11
112.445
21
-81.33
0
LINE
8
BLACK
6
CONTINUOUS
10
114.761
20
-126.725
11
114.826
21
-126.492
0
LINE
8
BLACK
6
CONTINUOUS
10
114.826
20
-126.492
11
114.927
21
-126.274
0
LINE
8
BLACK
6
CONTINUOUS
10
114.927
20
-126.274
11
115.063
21
-126.075
0
LINE
8
BLACK
6
CONTINUOUS
10
115.063
20
-126.075
11
115.229
21
-125.901
0
LINE
8
BLACK
6
CONTINUOUS
10
115.229
20
-125.901
11
115.422
21
-125.756
0
LINE
8
BLACK
6
CONTINUOUS
10
115.422
20
-125.756
11
115.635
21
-125.645
0
LINE
8
BLACK
6
CONTINUOUS
10
115.635
20
-125.645
11
115.864
21
-125.57
0
LINE
8
BLACK
6
CONTINUOUS
10
115.864
20
-125.57
11
116.102
21
-125.534
0
LINE
8
BLACK
6
CONTINUOUS
10
116.102
20
-125.534
11
116.343
21
-125.537
0
LINE
8
BLACK
6
CONTINUOUS
10
116.343
20
-125.537
11
116.58
21
-125.579
0
LINE
8
BLACK
6
CONTINUOUS
10
116.58
20
-125.579
11
116.808
21
-125.659
0
LINE
8
BLACK
6
CONTINUOUS
10
116.808
20
-125.659
11
117.018
21
-125.776
0
LINE
8
BLACK
6
CONTINUOUS
10
117.018
20
-125.776
11
117.207
21
-125.925
0
LINE
8
BLACK
6
CONTINUOUS
10
117.207
20
-125.925
11
117.37
21
-126.103
0
LINE
8
BLACK
6
CONTINUOUS
10
117.37
20
-126.103
11
117.5
21
-126.305
0
LINE
8
BLACK
6
CONTINUOUS
10
117.5
20
-126.305
11
117.596
21
-126.526
0
LINE
8
BLACK
6
CONTINUOUS
10
117.596
20
-126.526
11
117.655
21
-126.76
0
LINE
8
BLACK
6
CONTINUOUS
10
117.655
20
-126.76
11
117.675
21
-127
0
LINE
8
BLACK
6
CONTINUOUS
10
117.675
20
-127
11
117.673
21
-127.072
0
LINE
8
BLACK
6
CONTINUOUS
10
117.673
20
-127.072
11
117.642
21
-127.311
0
LINE
8
BLACK
6
CONTINUOUS
10
117.642
20
-127.311
11
117.572
21
-127.541
0
LINE
8
BLACK
6
CONTINUOUS
10
117.572
20
-127.541
11
117.465
21
-127.757
0
LINE
8
BLACK
6
CONTINUOUS
10
117.465
20
-127.757
11
117.324
21
-127.953
0
LINE
8
BLACK
6
CONTINUOUS
10
117.324
20
-127.953
11
117.154
21
-128.123
0
LINE
8
BLACK
6
CONTINUOUS
10
117.154
20
-128.123
11
116.958
21
-128.263
0
LINE
8
BLACK
6
CONTINUOUS
10
116.958
20
-128.263
11
116.741
21
-128.369
0
LINE
8
BLACK
6
CONTINUOUS
10
116.741
20
-128.369
11
116.511
21
-128.438
0
LINE
8
BLACK
6
CONTINUOUS
10
116.511
20
-128.438
11
116.272
21
-128.468
0
LINE
8
BLACK
6
CONTINUOUS
10
116.272
20
-128.468
11
116.031
21
-128.46
0
LINE
8
BLACK
6
CONTINUOUS
10
116.031
20
-128.46
11
115.795
21
-128.412
0
LINE
8
BLACK
6
CONTINUOUS
10
115.795
20
-128.412
11
115.57
21
-128.326
0
LINE
8
BLACK
6
CONTINUOUS
10
115.57
20
-128.326
11
115.362
21
-128.204
0
LINE
8
BLACK
6
CONTINUOUS
10
115.362
20
-128.204
11
115.177
21
-128.05
0
LINE
8
BLACK
6
CONTINUOUS
10
115.177
20
-128.05
11
115.019
21
-127.868
0
LINE
8
BLACK
6
CONTINUOUS
10
115.019
20
-127.868
11
114.893
21
-127.663
0
LINE
8
BLACK
6
CONTINUOUS
10
114.893
20
-127.663
11
114.802
21
-127.44
0
LINE
8
BLACK
6
CONTINUOUS
10
114.802
20
-127.44
11
114.749
21
-127.205
0
LINE
8
BLACK
6
CONTINUOUS
10
114.749
20
-127.205
11
114.736
21
-126.966
0
LINE
8
BLACK
6
CONTINUOUS
10
114.736
20
-126.966
11
114.736
21
-126.964
0
LINE
8
BLACK
6
CONTINUOUS
10
114.736
20
-126.964
11
114.761
21
-126.725
0
LINE
8
BLACK
6
CONTINUOUS
10
114.893
20
-127.411
11
114.978
21
-127.62
0
LINE
8
BLACK
6
CONTINUOUS
10
114.978
20
-127.62
11
115.096
21
-127.812
0
LINE
8
BLACK
6
CONTINUOUS
10
115.096
20
-127.812
11
115.243
21
-127.982
0
LINE
8
BLACK
6
CONTINUOUS
10
115.243
20
-127.982
11
115.417
21
-128.126
0
LINE
8
BLACK
6
CONTINUOUS
10
115.417
20
-128.126
11
115.611
21
-128.24
0
LINE
8
BLACK
6
CONTINUOUS
10
115.611
20
-128.24
11
115.821
21
-128.32
0
LINE
8
BLACK
6
CONTINUOUS
10
115.821
20
-128.32
11
116.042
21
-128.365
0
LINE
8
BLACK
6
CONTINUOUS
10
116.042
20
-128.365
11
116.267
21
-128.373
0
LINE
8
BLACK
6
CONTINUOUS
10
116.267
20
-128.373
11
116.491
21
-128.345
0
LINE
8
BLACK
6
CONTINUOUS
10
116.491
20
-128.345
11
116.707
21
-128.28
0
LINE
8
BLACK
6
CONTINUOUS
10
116.707
20
-128.28
11
116.909
21
-128.181
0
LINE
8
BLACK
6
CONTINUOUS
10
116.909
20
-128.181
11
117.092
21
-128.05
0
LINE
8
BLACK
6
CONTINUOUS
10
117.092
20
-128.05
11
117.252
21
-127.891
0
LINE
8
BLACK
6
CONTINUOUS
10
117.252
20
-127.891
11
117.383
21
-127.708
0
LINE
8
BLACK
6
CONTINUOUS
10
117.383
20
-127.708
11
117.483
21
-127.506
0
LINE
8
BLACK
6
CONTINUOUS
10
117.483
20
-127.506
11
117.549
21
-127.29
0
LINE
8
BLACK
6
CONTINUOUS
10
117.549
20
-127.29
11
117.578
21
-127.067
0
LINE
8
BLACK
6
CONTINUOUS
10
117.578
20
-127.067
11
117.58
21
-127
0
LINE
8
BLACK
6
CONTINUOUS
10
117.58
20
-127
11
117.561
21
-126.775
0
LINE
8
BLACK
6
CONTINUOUS
10
117.561
20
-126.775
11
117.506
21
-126.557
0
LINE
8
BLACK
6
CONTINUOUS
10
117.506
20
-126.557
11
117.416
21
-126.35
0
LINE
8
BLACK
6
CONTINUOUS
10
117.416
20
-126.35
11
117.294
21
-126.161
0
LINE
8
BLACK
6
CONTINUOUS
10
117.294
20
-126.161
11
117.142
21
-125.995
0
LINE
8
BLACK
6
CONTINUOUS
10
117.142
20
-125.995
11
116.966
21
-125.855
0
LINE
8
BLACK
6
CONTINUOUS
10
116.966
20
-125.855
11
116.768
21
-125.746
0
LINE
8
BLACK
6
CONTINUOUS
10
116.768
20
-125.746
11
116.556
21
-125.671
0
LINE
8
BLACK
6
CONTINUOUS
10
116.556
20
-125.671
11
116.334
21
-125.632
0
LINE
8
BLACK
6
CONTINUOUS
10
116.334
20
-125.632
11
116.109
21
-125.629
0
LINE
8
BLACK
6
CONTINUOUS
10
116.109
20
-125.629
11
115.886
21
-125.663
0
LINE
8
BLACK
6
CONTINUOUS
10
115.886
20
-125.663
11
115.672
21
-125.733
0
LINE
8
BLACK
6
CONTINUOUS
10
115.672
20
-125.733
11
115.473
21
-125.837
0
LINE
8
BLACK
6
CONTINUOUS
10
115.473
20
-125.837
11
115.292
21
-125.972
0
LINE
8
BLACK
6
CONTINUOUS
10
115.292
20
-125.972
11
115.137
21
-126.135
0
LINE
8
BLACK
6
CONTINUOUS
10
115.137
20
-126.135
11
115.01
21
-126.321
0
LINE
8
BLACK
6
CONTINUOUS
10
115.01
20
-126.321
11
114.915
21
-126.525
0
LINE
8
BLACK
6
CONTINUOUS
10
114.915
20
-126.525
11
114.855
21
-126.742
0
LINE
8
BLACK
6
CONTINUOUS
10
114.855
20
-126.742
11
114.831
21
-126.966
0
LINE
8
BLACK
6
CONTINUOUS
10
114.831
20
-126.966
11
114.844
21
-127.191
0
LINE
8
BLACK
6
CONTINUOUS
10
114.844
20
-127.191
11
114.893
21
-127.411
0
LINE
8
BLACK
6
CONTINUOUS
10
206.836
20
-126.725
11
206.901
21
-126.492
0
LINE
8
BLACK
6
CONTINUOUS
10
206.901
20
-126.492
11
207.002
21
-126.274
0
LINE
8
BLACK
6
CONTINUOUS
10
207.002
20
-126.274
11
207.138
21
-126.075
0
LINE
8
BLACK
6
CONTINUOUS
10
207.138
20
-126.075
11
207.304
21
-125.901
0
LINE
8
BLACK
6
CONTINUOUS
10
207.304
20
-125.901
11
207.497
21
-125.756
0
LINE
8
BLACK
6
CONTINUOUS
10
207.497
20
-125.756
11
207.71
21
-125.645
0
LINE
8
BLACK
6
CONTINUOUS
10
207.71
20
-125.645
11
207.939
21
-125.57
0
LINE
8
BLACK
6
CONTINUOUS
10
207.939
20
-125.57
11
208.177
21
-125.534
0
LINE
8
BLACK
6
CONTINUOUS
10
208.177
20
-125.534
11
208.418
21
-125.537
0
LINE
8
BLACK
6
CONTINUOUS
10
208.418
20
-125.537
11
208.655
21
-125.579
0
LINE
8
BLACK
6
CONTINUOUS
10
208.655
20
-125.579
11
208.883
21
-125.659
0
LINE
8
BLACK
6
CONTINUOUS
10
208.883
20
-125.659
11
209.093
21
-125.776
0
LINE
8
BLACK
6
CONTINUOUS
10
209.093
20
-125.776
11
209.282
21
-125.925
0
LINE
8
BLACK
6
CONTINUOUS
10
209.282
20
-125.925
11
209.445
21
-126.103
0
LINE
8
BLACK
6
CONTINUOUS
10
209.445
20
-126.103
11
209.575
21
-126.305
0
LINE
8
BLACK
6
CONTINUOUS
10
209.575
20
-126.305
11
209.671
21
-126.526
0
LINE
8
BLACK
6
CONTINUOUS
10
209.671
20
-126.526
11
209.73
21
-126.76
0
LINE
8
BLACK
6
CONTINUOUS
10
209.73
20
-126.76
11
209.75
21
-127
0
LINE
8
BLACK
6
CONTINUOUS
10
209.75
20
-127
11
209.748
21
-127.072
0
LINE
8
BLACK
6
CONTINUOUS
10
209.748
20
-127.072
11
209.717
21
-127.311
0
LINE
8
BLACK
6
CONTINUOUS
10
209.717
20
-127.311
11
209.647
21
-127.541
0
LINE
8
BLACK
6
CONTINUOUS
10
209.647
20
-127.541
11
209.54
21
-127.757
0
LINE
8
BLACK
6
CONTINUOUS
10
209.54
20
-127.757
11
209.399
21
-127.953
0
LINE
8
BLACK
6
CONTINUOUS
10
209.399
20
-127.953
11
209.229
21
-128.123
0
LINE
8
BLACK
6
CONTINUOUS
10
209.229
20
-128.123
11
209.033
21
-128.263
0
LINE
8
BLACK
6
CONTINUOUS
10
209.033
20
-128.263
11
208.816
21
-128.369
0
LINE
8
BLACK
6
CONTINUOUS
10
208.816
20
-128.369
11
208.586
21
-128.438
0
LINE
8
BLACK
6
CONTINUOUS
10
208.586
20
-128.438
11
208.347
21
-128.468
0
LINE
8
BLACK
6
CONTINUOUS
10
208.347
20
-128.468
11
208.106
21
-128.46
0
LINE
8
BLACK
6
CONTINUOUS
10
208.106
20
-128.46
11
207.87
21
-128.412
0
LINE
8
BLACK
6
CONTINUOUS
10
207.87
20
-128.412
11
207.645
21
-128.326
0
LINE
8
BLACK
6
CONTINUOUS
10
207.645
20
-128.326
11
207.437
21
-128.204
0
LINE
8
BLACK
6
CONTINUOUS
10
207.437
20
-128.204
11
207.252
21
-128.05
0
LINE
8
BLACK
6
CONTINUOUS
10
207.252
20
-128.05
11
207.094
21
-127.868
0
LINE
8
BLACK
6
CONTINUOUS
10
207.094
20
-127.868
11
206.968
21
-127.663
0
LINE
8
BLACK
6
CONTINUOUS
10
206.968
20
-127.663
11
206.877
21
-127.44
0
LINE
8
BLACK
6
CONTINUOUS
10
206.877
20
-127.44
11
206.824
21
-127.205
0
LINE
8
BLACK
6
CONTINUOUS
10
206.824
20
-127.205
11
206.811
21
-126.966
0
LINE
8
BLACK
6
CONTINUOUS
10
206.811
20
-126.966
11
206.811
21
-126.964
0
LINE
8
BLACK
6
CONTINUOUS
10
206.811
20
-126.964
11
206.836
21
-126.725
0
LINE
8
BLACK
6
CONTINUOUS
10
206.968
20
-127.411
11
207.053
21
-127.62
0
LINE
8
BLACK
6
CONTINUOUS
10
207.053
20
-127.62
11
207.171
21
-127.812
0
LINE
8
BLACK
6
CONTINUOUS
10
207.171
20
-127.812
11
207.318
21
-127.982
0
LINE
8
BLACK
6
CONTINUOUS
10
207.318
20
-127.982
11
207.492
21
-128.126
0
LINE
8
BLACK
6
CONTINUOUS
10
207.492
20
-128.126
11
207.686
21
-128.24
0
LINE
8
BLACK
6
CONTINUOUS
10
207.686
20
-128.24
11
207.896
21
-128.32
0
LINE
8
BLACK
6
CONTINUOUS
10
207.896
20
-128.32
11
208.117
21
-128.365
0
LINE
8
BLACK
6
CONTINUOUS
10
208.117
20
-128.365
11
208.342
21
-128.373
0
LINE
8
BLACK
6
CONTINUOUS
10
208.342
20
-128.373
11
208.566
21
-128.345
0
LINE
8
BLACK
6
CONTINUOUS
10
208.566
20
-128.345
11
208.782
21
-128.28
0
LINE
8
BLACK
6
CONTINUOUS
10
208.782
20
-128.28
11
208.984
21
-128.181
0
LINE
8
BLACK
6
CONTINUOUS
10
208.984
20
-128.181
11
209.167
21
-128.05
0
LINE
8
BLACK
6
CONTINUOUS
10
209.167
20
-128.05
11
209.327
21
-127.891
0
LINE
8
BLACK
6
CONTINUOUS
10
209.327
20
-127.891
11
209.458
21
-127.708
0
LINE
8
BLACK
6
CONTINUOUS
10
209.458
20
-127.708
11
209.558
21
-127.506
0
LINE
8
BLACK
6
CONTINUOUS
10
209.558
20
-127.506
11
209.624
21
-127.29
0
LINE
8
BLACK
6
CONTINUOUS
10
209.624
20
-127.29
11
209.653
21
-127.067
0
LINE
8
BLACK
6
CONTINUOUS
10
209.653
20
-127.067
11
209.655
21
-127
0
LINE
8
BLACK
6
CONTINUOUS
10
209.655
20
-127
11
209.636
21
-126.775
0
LINE
8
BLACK
6
CONTINUOUS
10
209.636
20
-126.775
11
209.581
21
-126.557
0
LINE
8
BLACK
6
CONTINUOUS
10
209.581
20
-126.557
11
209.491
21
-126.35
0
LINE
8
BLACK
6
CONTINUOUS
10
209.491
20
-126.35
11
209.369
21
-126.161
0
LINE
8
BLACK
6
CONTINUOUS
10
209.369
20
-126.161
11
209.217
21
-125.995
0
LINE
8
BLACK
6
CONTINUOUS
10
209.217
20
-125.995
11
209.041
21
-125.855
0
LINE
8
BLACK
6
CONTINUOUS
10
209.041
20
-125.855
11
208.843
21
-125.746
0
LINE
8
BLACK
6
CONTINUOUS
10
208.843
20
-125.746
11
208.631
21
-125.671
0
LINE
8
BLACK
6
CONTINUOUS
10
208.631
20
-125.671
11
208.409
21
-125.632
0
LINE
8
BLACK
6
CONTINUOUS
10
208.409
20
-125.632
11
208.184
21
-125.629
0
LINE
8
BLACK
6
CONTINUOUS
10
208.184
20
-125.629
11
207.961
21
-125.663
0
LINE
8
BLACK
6
CONTINUOUS
10
207.961
20
-125.663
11
207.747
21
-125.733
0
LINE
8
BLACK
6
CONTINUOUS
10
207.747
20
-125.733
11
207.548
21
-125.837
0
LINE
8
BLACK
6
CONTINUOUS
10
207.548
20
-125.837
11
207.367
21
-125.972
0
LINE
8
BLACK
6
CONTINUOUS
10
207.367
20
-125.972
11
207.212
21
-126.135
0
LINE
8
BLACK
6
CONTINUOUS
10
207.212
20
-126.135
11
207.085
21
-126.321
0
LINE
8
BLACK
6
CONTINUOUS
10
207.085
20
-126.321
11
206.99
21
-126.525
0
LINE
8
BLACK
6
CONTINUOUS
10
206.99
20
-126.525
11
206.93
21
-126.742
0
LINE
8
BLACK
6
CONTINUOUS
10
206.93
20
-126.742
11
206.906
21
-126.966
0
LINE
8
BLACK
6
CONTINUOUS
10
206.906
20
-126.966
11
206.919
21
-127.191
0
LINE
8
BLACK
6
CONTINUOUS
10
206.919
20
-127.191
11
206.968
21
-127.411
0
LINE
8
BLACK
6
CONTINUOUS
10
114.126
20
-84.1796
11
114.191
21
-83.9474
0
LINE
8
BLACK
6
CONTINUOUS
10
114.191
20
-83.9474
11
114.292
21
-83.729
0
LINE
8
BLACK
6
CONTINUOUS
10
114.292
20
-83.729
11
114.428
21
-83.53
0
LINE
8
BLACK
6
CONTINUOUS
10
114.428
20
-83.53
11
114.594
21
-83.3558
0
LINE
8
BLACK
6
CONTINUOUS
10
114.594
20
-83.3558
11
114.787
21
-83.2112
0
LINE
8
BLACK
6
CONTINUOUS
10
114.787
20
-83.2112
11
115
21
-83.1
0
LINE
8
BLACK
6
CONTINUOUS
10
115
20
-83.1
11
115.229
21
-83.0251
0
LINE
8
BLACK
6
CONTINUOUS
10
115.229
20
-83.0251
11
115.467
21
-82.9887
0
LINE
8
BLACK
6
CONTINUOUS
10
115.467
20
-82.9887
11
115.708
21
-82.9916
0
LINE
8
BLACK
6
CONTINUOUS
10
115.708
20
-82.9916
11
115.945
21
-83.0339
0
LINE
8
BLACK
6
CONTINUOUS
10
115.945
20
-83.0339
11
116.173
21
-83.1143
0
LINE
8
BLACK
6
CONTINUOUS
10
116.173
20
-83.1143
11
116.383
21
-83.2307
0
LINE
8
BLACK
6
CONTINUOUS
10
116.383
20
-83.2307
11
116.572
21
-83.38
0
LINE
8
BLACK
6
CONTINUOUS
10
116.572
20
-83.38
11
116.735
21
-83.5581
0
LINE
8
BLACK
6
CONTINUOUS
10
116.735
20
-83.5581
11
116.865
21
-83.7604
0
LINE
8
BLACK
6
CONTINUOUS
10
116.865
20
-83.7604
11
116.961
21
-83.9813
0
LINE
8
BLACK
6
CONTINUOUS
10
116.961
20
-83.9813
11
117.02
21
-84.2149
0
LINE
8
BLACK
6
CONTINUOUS
10
117.02
20
-84.2149
11
117.04
21
-84.455
0
LINE
8
BLACK
6
CONTINUOUS
10
117.04
20
-84.455
11
117.038
21
-84.5268
0
LINE
8
BLACK
6
CONTINUOUS
10
117.038
20
-84.5268
11
117.007
21
-84.7656
0
LINE
8
BLACK
6
CONTINUOUS
10
117.007
20
-84.7656
11
116.937
21
-84.9961
0
LINE
8
BLACK
6
CONTINUOUS
10
116.937
20
-84.9961
11
116.83
21
-85.2121
0
LINE
8
BLACK
6
CONTINUOUS
10
116.83
20
-85.2121
11
116.689
21
-85.4077
0
LINE
8
BLACK
6
CONTINUOUS
10
116.689
20
-85.4077
11
116.519
21
-85.5777
0
LINE
8
BLACK
6
CONTINUOUS
10
116.519
20
-85.5777
11
116.323
21
-85.7176
0
LINE
8
BLACK
6
CONTINUOUS
10
116.323
20
-85.7176
11
116.106
21
-85.8236
0
LINE
8
BLACK
6
CONTINUOUS
10
116.106
20
-85.8236
11
115.876
21
-85.8928
0
LINE
8
BLACK
6
CONTINUOUS
10
115.876
20
-85.8928
11
115.637
21
-85.9234
0
LINE
8
BLACK
6
CONTINUOUS
10
115.637
20
-85.9234
11
115.396
21
-85.9146
0
LINE
8
BLACK
6
CONTINUOUS
10
115.396
20
-85.9146
11
115.16
21
-85.8665
0
LINE
8
BLACK
6
CONTINUOUS
10
115.16
20
-85.8665
11
114.935
21
-85.7806
0
LINE
8
BLACK
6
CONTINUOUS
10
114.935
20
-85.7806
11
114.727
21
-85.6591
0
LINE
8
BLACK
6
CONTINUOUS
10
114.727
20
-85.6591
11
114.542
21
-85.5052
0
LINE
8
BLACK
6
CONTINUOUS
10
114.542
20
-85.5052
11
114.384
21
-85.3231
0
LINE
8
BLACK
6
CONTINUOUS
10
114.384
20
-85.3231
11
114.258
21
-85.1177
0
LINE
8
BLACK
6
CONTINUOUS
10
114.258
20
-85.1177
11
114.167
21
-84.8946
0
LINE
8
BLACK
6
CONTINUOUS
10
114.167
20
-84.8946
11
114.114
21
-84.6596
0
LINE
8
BLACK
6
CONTINUOUS
10
114.114
20
-84.6596
11
114.101
21
-84.4214
0
LINE
8
BLACK
6
CONTINUOUS
10
114.101
20
-84.4214
11
114.101
21
-84.4191
0
LINE
8
BLACK
6
CONTINUOUS
10
114.101
20
-84.4191
11
114.126
21
-84.1796
0
LINE
8
BLACK
6
CONTINUOUS
10
114.258
20
-84.8661
11
114.343
21
-85.0748
0
LINE
8
BLACK
6
CONTINUOUS
10
114.343
20
-85.0748
11
114.461
21
-85.2668
0
LINE
8
BLACK
6
CONTINUOUS
10
114.461
20
-85.2668
11
114.608
21
-85.4371
0
LINE
8
BLACK
6
CONTINUOUS
10
114.608
20
-85.4371
11
114.782
21
-85.581
0
LINE
8
BLACK
6
CONTINUOUS
10
114.782
20
-85.581
11
114.976
21
-85.6947
0
LINE
8
BLACK
6
CONTINUOUS
10
114.976
20
-85.6947
11
115.186
21
-85.775
0
LINE
8
BLACK
6
CONTINUOUS
10
115.186
20
-85.775
11
115.407
21
-85.8199
0
LINE
8
BLACK
6
CONTINUOUS
10
115.407
20
-85.8199
11
115.632
21
-85.8282
0
LINE
8
BLACK
6
CONTINUOUS
10
115.632
20
-85.8282
11
115.856
21
-85.7996
0
LINE
8
BLACK
6
CONTINUOUS
10
115.856
20
-85.7996
11
116.072
21
-85.7348
0
LINE
8
BLACK
6
CONTINUOUS
10
116.072
20
-85.7348
11
116.274
21
-85.6357
0
LINE
8
BLACK
6
CONTINUOUS
10
116.274
20
-85.6357
11
116.457
21
-85.5049
0
LINE
8
BLACK
6
CONTINUOUS
10
116.457
20
-85.5049
11
116.617
21
-85.3459
0
LINE
8
BLACK
6
CONTINUOUS
10
116.617
20
-85.3459
11
116.748
21
-85.163
0
LINE
8
BLACK
6
CONTINUOUS
10
116.748
20
-85.163
11
116.848
21
-84.961
0
LINE
8
BLACK
6
CONTINUOUS
10
116.848
20
-84.961
11
116.914
21
-84.7455
0
LINE
8
BLACK
6
CONTINUOUS
10
116.914
20
-84.7455
11
116.943
21
-84.5221
0
LINE
8
BLACK
6
CONTINUOUS
10
116.943
20
-84.5221
11
116.945
21
-84.455
0
LINE
8
BLACK
6
CONTINUOUS
10
116.945
20
-84.455
11
116.926
21
-84.2305
0
LINE
8
BLACK
6
CONTINUOUS
10
116.926
20
-84.2305
11
116.871
21
-84.012
0
LINE
8
BLACK
6
CONTINUOUS
10
116.871
20
-84.012
11
116.781
21
-83.8054
0
LINE
8
BLACK
6
CONTINUOUS
10
116.781
20
-83.8054
11
116.659
21
-83.6163
0
LINE
8
BLACK
6
CONTINUOUS
10
116.659
20
-83.6163
11
116.507
21
-83.4497
0
LINE
8
BLACK
6
CONTINUOUS
10
116.507
20
-83.4497
11
116.331
21
-83.3101
0
LINE
8
BLACK
6
CONTINUOUS
10
116.331
20
-83.3101
11
116.133
21
-83.2012
0
LINE
8
BLACK
6
CONTINUOUS
10
116.133
20
-83.2012
11
115.921
21
-83.126
0
LINE
8
BLACK
6
CONTINUOUS
10
115.921
20
-83.126
11
115.699
21
-83.0865
0
LINE
8
BLACK
6
CONTINUOUS
10
115.699
20
-83.0865
11
115.474
21
-83.0837
0
LINE
8
BLACK
6
CONTINUOUS
10
115.474
20
-83.0837
11
115.251
21
-83.1178
0
LINE
8
BLACK
6
CONTINUOUS
10
115.251
20
-83.1178
11
115.037
21
-83.1878
0
LINE
8
BLACK
6
CONTINUOUS
10
115.037
20
-83.1878
11
114.838
21
-83.2918
0
LINE
8
BLACK
6
CONTINUOUS
10
114.838
20
-83.2918
11
114.657
21
-83.4271
0
LINE
8
BLACK
6
CONTINUOUS
10
114.657
20
-83.4271
11
114.502
21
-83.5899
0
LINE
8
BLACK
6
CONTINUOUS
10
114.502
20
-83.5899
11
114.375
21
-83.776
0
LINE
8
BLACK
6
CONTINUOUS
10
114.375
20
-83.776
11
114.28
21
-83.9804
0
LINE
8
BLACK
6
CONTINUOUS
10
114.28
20
-83.9804
11
114.22
21
-84.1974
0
LINE
8
BLACK
6
CONTINUOUS
10
114.22
20
-84.1974
11
114.196
21
-84.4214
0
LINE
8
BLACK
6
CONTINUOUS
10
114.196
20
-84.4214
11
114.209
21
-84.6463
0
LINE
8
BLACK
6
CONTINUOUS
10
114.209
20
-84.6463
11
114.258
21
-84.8661
0
LINE
8
BLACK
6
CONTINUOUS
10
207.471
20
-84.1796
11
207.536
21
-83.9474
0
LINE
8
BLACK
6
CONTINUOUS
10
207.536
20
-83.9474
11
207.637
21
-83.729
0
LINE
8
BLACK
6
CONTINUOUS
10
207.637
20
-83.729
11
207.773
21
-83.53
0
LINE
8
BLACK
6
CONTINUOUS
10
207.773
20
-83.53
11
207.939
21
-83.3558
0
LINE
8
BLACK
6
CONTINUOUS
10
207.939
20
-83.3558
11
208.132
21
-83.2112
0
LINE
8
BLACK
6
CONTINUOUS
10
208.132
20
-83.2112
11
208.345
21
-83.1
0
LINE
8
BLACK
6
CONTINUOUS
10
208.345
20
-83.1
11
208.574
21
-83.0251
0
LINE
8
BLACK
6
CONTINUOUS
10
208.574
20
-83.0251
11
208.812
21
-82.9887
0
LINE
8
BLACK
6
CONTINUOUS
10
208.812
20
-82.9887
11
209.053
21
-82.9916
0
LINE
8
BLACK
6
CONTINUOUS
10
209.053
20
-82.9916
11
209.29
21
-83.0339
0
LINE
8
BLACK
6
CONTINUOUS
10
209.29
20
-83.0339
11
209.518
21
-83.1143
0
LINE
8
BLACK
6
CONTINUOUS
10
209.518
20
-83.1143
11
209.728
21
-83.2307
0
LINE
8
BLACK
6
CONTINUOUS
10
209.728
20
-83.2307
11
209.917
21
-83.38
0
LINE
8
BLACK
6
CONTINUOUS
10
209.917
20
-83.38
11
210.08
21
-83.5581
0
LINE
8
BLACK
6
CONTINUOUS
10
210.08
20
-83.5581
11
210.21
21
-83.7604
0
LINE
8
BLACK
6
CONTINUOUS
10
210.21
20
-83.7604
11
210.306
21
-83.9813
0
LINE
8
BLACK
6
CONTINUOUS
10
210.306
20
-83.9813
11
210.365
21
-84.2149
0
LINE
8
BLACK
6
CONTINUOUS
10
210.365
20
-84.2149
11
210.385
21
-84.455
0
LINE
8
BLACK
6
CONTINUOUS
10
210.385
20
-84.455
11
210.383
21
-84.5268
0
LINE
8
BLACK
6
CONTINUOUS
10
210.383
20
-84.5268
11
210.352
21
-84.7656
0
LINE
8
BLACK
6
CONTINUOUS
10
210.352
20
-84.7656
11
210.282
21
-84.9961
0
LINE
8
BLACK
6
CONTINUOUS
10
210.282
20
-84.9961
11
210.175
21
-85.2121
0
LINE
8
BLACK
6
CONTINUOUS
10
210.175
20
-85.2121
11
210.034
21
-85.4077
0
LINE
8
BLACK
6
CONTINUOUS
10
210.034
20
-85.4077
11
209.864
21
-85.5777
0
LINE
8
BLACK
6
CONTINUOUS
10
209.864
20
-85.5777
11
209.668
21
-85.7176
0
LINE
8
BLACK
6
CONTINUOUS
10
209.668
20
-85.7176
11
209.451
21
-85.8236
0
LINE
8
BLACK
6
CONTINUOUS
10
209.451
20
-85.8236
11
209.221
21
-85.8928
0
LINE
8
BLACK
6
CONTINUOUS
10
209.221
20
-85.8928
11
208.982
21
-85.9234
0
LINE
8
BLACK
6
CONTINUOUS
10
208.982
20
-85.9234
11
208.741
21
-85.9146
0
LINE
8
BLACK
6
CONTINUOUS
10
208.741
20
-85.9146
11
208.505
21
-85.8665
0
LINE
8
BLACK
6
CONTINUOUS
10
208.505
20
-85.8665
11
208.28
21
-85.7806
0
LINE
8
BLACK
6
CONTINUOUS
10
208.28
20
-85.7806
11
208.072
21
-85.6591
0
LINE
8
BLACK
6
CONTINUOUS
10
208.072
20
-85.6591
11
207.887
21
-85.5052
0
LINE
8
BLACK
6
CONTINUOUS
10
207.887
20
-85.5052
11
207.729
21
-85.3231
0
LINE
8
BLACK
6
CONTINUOUS
10
207.729
20
-85.3231
11
207.603
21
-85.1177
0
LINE
8
BLACK
6
CONTINUOUS
10
207.603
20
-85.1177
11
207.512
21
-84.8946
0
LINE
8
BLACK
6
CONTINUOUS
10
207.512
20
-84.8946
11
207.459
21
-84.6596
0
LINE
8
BLACK
6
CONTINUOUS
10
207.459
20
-84.6596
11
207.446
21
-84.4214
0
LINE
8
BLACK
6
CONTINUOUS
10
207.446
20
-84.4214
11
207.446
21
-84.4191
0
LINE
8
BLACK
6
CONTINUOUS
10
207.446
20
-84.4191
11
207.471
21
-84.1796
0
LINE
8
BLACK
6
CONTINUOUS
10
207.603
20
-84.8661
11
207.688
21
-85.0748
0
LINE
8
BLACK
6
CONTINUOUS
10
207.688
20
-85.0748
11
207.806
21
-85.2668
0
LINE
8
BLACK
6
CONTINUOUS
10
207.806
20
-85.2668
11
207.953
21
-85.4371
0
LINE
8
BLACK
6
CONTINUOUS
10
207.953
20
-85.4371
11
208.127
21
-85.581
0
LINE
8
BLACK
6
CONTINUOUS
10
208.127
20
-85.581
11
208.321
21
-85.6947
0
LINE
8
BLACK
6
CONTINUOUS
10
208.321
20
-85.6947
11
208.531
21
-85.775
0
LINE
8
BLACK
6
CONTINUOUS
10
208.531
20
-85.775
11
208.752
21
-85.8199
0
LINE
8
BLACK
6
CONTINUOUS
10
208.752
20
-85.8199
11
208.977
21
-85.8282
0
LINE
8
BLACK
6
CONTINUOUS
10
208.977
20
-85.8282
11
209.201
21
-85.7996
0
LINE
8
BLACK
6
CONTINUOUS
10
209.201
20
-85.7996
11
209.417
21
-85.7348
0
LINE
8
BLACK
6
CONTINUOUS
10
209.417
20
-85.7348
11
209.619
21
-85.6357
0
LINE
8
BLACK
6
CONTINUOUS
10
209.619
20
-85.6357
11
209.802
21
-85.5049
0
LINE
8
BLACK
6
CONTINUOUS
10
209.802
20
-85.5049
11
209.962
21
-85.3459
0
LINE
8
BLACK
6
CONTINUOUS
10
209.962
20
-85.3459
11
210.093
21
-85.163
0
LINE
8
BLACK
6
CONTINUOUS
10
210.093
20
-85.163
11
210.193
21
-84.961
0
LINE
8
BLACK
6
CONTINUOUS
10
210.193
20
-84.961
11
210.259
21
-84.7455
0
LINE
8
BLACK
6
CONTINUOUS
10
210.259
20
-84.7455
11
210.288
21
-84.5221
0
LINE
8
BLACK
6
CONTINUOUS
10
210.288
20
-84.5221
11
210.29
21
-84.455
0
LINE
8
BLACK
6
CONTINUOUS
10
210.29
20
-84.455
11
210.271
21
-84.2305
0
LINE
8
BLACK
6
CONTINUOUS
10
210.271
20
-84.2305
11
210.216
21
-84.012
0
LINE
8
BLACK
6
CONTINUOUS
10
210.216
20
-84.012
11
210.126
21
-83.8054
0
LINE
8
BLACK
6
CONTINUOUS
10
210.126
20
-83.8054
11
210.004
21
-83.6163
0
LINE
8
BLACK
6
CONTINUOUS
10
210.004
20
-83.6163
11
209.852
21
-83.4497
0
LINE
8
BLACK
6
CONTINUOUS
10
209.852
20
-83.4497
11
209.676
21
-83.3101
0
LINE
8
BLACK
6
CONTINUOUS
10
209.676
20
-83.3101
11
209.478
21
-83.2012
0
LINE
8
BLACK
6
CONTINUOUS
10
209.478
20
-83.2012
11
209.266
21
-83.126
0
LINE
8
BLACK
6
CONTINUOUS
10
209.266
20
-83.126
11
209.044
21
-83.0865
0
LINE
8
BLACK
6
CONTINUOUS
10
209.044
20
-83.0865
11
208.819
21
-83.0837
0
LINE
8
BLACK
6
CONTINUOUS
10
208.819
20
-83.0837
11
208.596
21
-83.1178
0
LINE
8
BLACK
6
CONTINUOUS
10
208.596
20
-83.1178
11
208.382
21
-83.1878
0
LINE
8
BLACK
6
CONTINUOUS
10
208.382
20
-83.1878
11
208.183
21
-83.2918
0
LINE
8
BLACK
6
CONTINUOUS
10
208.183
20
-83.2918
11
208.002
21
-83.4271
0
LINE
8
BLACK
6
CONTINUOUS
10
208.002
20
-83.4271
11
207.847
21
-83.5899
0
LINE
8
BLACK
6
CONTINUOUS
10
207.847
20
-83.5899
11
207.72
21
-83.776
0
LINE
8
BLACK
6
CONTINUOUS
10
207.72
20
-83.776
11
207.625
21
-83.9804
0
LINE
8
BLACK
6
CONTINUOUS
10
207.625
20
-83.9804
11
207.565
21
-84.1974
0
LINE
8
BLACK
6
CONTINUOUS
10
207.565
20
-84.1974
11
207.541
21
-84.4214
0
LINE
8
BLACK
6
CONTINUOUS
10
207.541
20
-84.4214
11
207.554
21
-84.6463
0
LINE
8
BLACK
6
CONTINUOUS
10
207.554
20
-84.6463
11
207.603
21
-84.8661
  0
ENDSEC
  0
EOF
