  0
SECTION
  2
HEADER
  9
$ANGBASE
  50
0.0
  9
$ANGDIR
  70
1
  9
$MEASUREMENT
  70
1
  0
ENDSEC
  0
SECTION
  2
TABLES
  0
TABLE
  2
LTYPE
  70
4
  0
LTYPE
  5
40F
  2
CONTINUOUS
  70
0
  3
Solid line
  72
65
  73
0
  40
0.0
  0
LTYPE
  5
410
  2
DASHDOT
 70
0
  3
Dash Dot ____ _ ____ _
 72
65
 73
4
 40
2.0
 49
1.25
 49
-0.25
 49
0.25
 49
-0.25
  0
LTYPE
  5
411
  2
DASHED
 70
0
  3
Dashed __ __ __ __ __
 72
65
 73
2
 40
0.75
 49
0.5
 49
-0.25
  0
LTYPE
  5
43B
  2
DOTTED
 70
0
  3
Dotted .  .  .  .
 72
65
 73
2
 40
0.2
 49
0.0
 49
-0.2
  0
ENDTAB
  0
TABLE
  2
STYLE
  70
4
  0
STYLE
  2
KICAD
  70
0
  40
0
  41
1
  42
1
  50
0
  71
0
  3
isocp.shx
  0
STYLE
  2
KICADB
  70
0
  40
0
  41
1
  42
1
  50
0
  71
0
  3
isocp.shx
  0
STYLE
  2
KICADI
  70
0
  40
0
  41
1
  42
1
  50
15
  71
0
  3
isocp.shx
  0
STYLE
  2
KICADBI
  70
0
  40
0
  41
1
  42
1
  50
15
  71
0
  3
isocp.shx
  0
ENDTAB
  0
TABLE
  2
LAYER
  70
1
  0
LAYER
  2
BLACK
  70
0
  62
7
  6
CONTINUOUS
  0
ENDTAB
  0
ENDSEC
  0
SECTION
  2
ENTITIES
0
CIRCLE
8
BLACK
10
115.57
20
-84.455
40
1.4199
0
LINE
8
BLACK
6
CONTINUOUS
10
212.09
20
-130.81
11
112.395
21
-130.81
0
CIRCLE
8
BLACK
10
116.205
20
-127
40
1.4199
0
LINE
8
BLACK
6
CONTINUOUS
10
112.395
20
-81.28
11
212.09
21
-81.28
0
LINE
8
BLACK
6
CONTINUOUS
10
212.09
20
-81.28
11
212.09
21
-130.81
0
CIRCLE
8
BLACK
10
208.28
20
-127
40
1.4199
0
CIRCLE
8
BLACK
10
208.915
20
-84.455
40
1.4199
0
LINE
8
BLACK
6
CONTINUOUS
10
112.395
20
-130.81
11
112.395
21
-81.28
0
LINE
8
BLACK
6
CONTINUOUS
10
164.62
20
-87.635
11
168.12
21
-91.135
0
LINE
8
BLACK
6
CONTINUOUS
10
168.12
20
-87.635
11
164.62
21
-91.135
0
LINE
8
BLACK
6
CONTINUOUS
10
114.921
20
-133.965
11
114.921
21
-131.965
0
LINE
8
BLACK
6
CONTINUOUS
10
114.921
20
-131.965
11
115.397
21
-131.965
0
LINE
8
BLACK
6
CONTINUOUS
10
115.397
20
-131.965
11
115.683
21
-132.06
0
LINE
8
BLACK
6
CONTINUOUS
10
115.683
20
-132.06
11
115.874
21
-132.25
0
LINE
8
BLACK
6
CONTINUOUS
10
115.874
20
-132.25
11
115.969
21
-132.441
0
LINE
8
BLACK
6
CONTINUOUS
10
115.969
20
-132.441
11
116.064
21
-132.822
0
LINE
8
BLACK
6
CONTINUOUS
10
116.064
20
-132.822
11
116.064
21
-133.108
0
LINE
8
BLACK
6
CONTINUOUS
10
116.064
20
-133.108
11
115.969
21
-133.489
0
LINE
8
BLACK
6
CONTINUOUS
10
115.969
20
-133.489
11
115.874
21
-133.679
0
LINE
8
BLACK
6
CONTINUOUS
10
115.874
20
-133.679
11
115.683
21
-133.87
0
LINE
8
BLACK
6
CONTINUOUS
10
115.683
20
-133.87
11
115.397
21
-133.965
0
LINE
8
BLACK
6
CONTINUOUS
10
115.397
20
-133.965
11
114.921
21
-133.965
0
LINE
8
BLACK
6
CONTINUOUS
10
116.921
20
-133.965
11
116.921
21
-132.631
0
LINE
8
BLACK
6
CONTINUOUS
10
116.921
20
-133.012
11
117.016
21
-132.822
0
LINE
8
BLACK
6
CONTINUOUS
10
117.016
20
-132.822
11
117.112
21
-132.727
0
LINE
8
BLACK
6
CONTINUOUS
10
117.112
20
-132.727
11
117.302
21
-132.631
0
LINE
8
BLACK
6
CONTINUOUS
10
117.302
20
-132.631
11
117.493
21
-132.631
0
LINE
8
BLACK
6
CONTINUOUS
10
118.159
20
-133.965
11
118.159
21
-132.631
0
LINE
8
BLACK
6
CONTINUOUS
10
118.159
20
-131.965
11
118.064
21
-132.06
0
LINE
8
BLACK
6
CONTINUOUS
10
118.064
20
-132.06
11
118.159
21
-132.155
0
LINE
8
BLACK
6
CONTINUOUS
10
118.159
20
-132.155
11
118.255
21
-132.06
0
LINE
8
BLACK
6
CONTINUOUS
10
118.255
20
-132.06
11
118.159
21
-131.965
0
LINE
8
BLACK
6
CONTINUOUS
10
118.159
20
-131.965
11
118.159
21
-132.155
0
LINE
8
BLACK
6
CONTINUOUS
10
119.397
20
-133.965
11
119.207
21
-133.87
0
LINE
8
BLACK
6
CONTINUOUS
10
119.207
20
-133.87
11
119.112
21
-133.679
0
LINE
8
BLACK
6
CONTINUOUS
10
119.112
20
-133.679
11
119.112
21
-131.965
0
LINE
8
BLACK
6
CONTINUOUS
10
120.445
20
-133.965
11
120.255
21
-133.87
0
LINE
8
BLACK
6
CONTINUOUS
10
120.255
20
-133.87
11
120.159
21
-133.679
0
LINE
8
BLACK
6
CONTINUOUS
10
120.159
20
-133.679
11
120.159
21
-131.965
0
LINE
8
BLACK
6
CONTINUOUS
10
122.731
20
-133.965
11
122.731
21
-131.965
0
LINE
8
BLACK
6
CONTINUOUS
10
122.731
20
-131.965
11
123.397
21
-133.393
0
LINE
8
BLACK
6
CONTINUOUS
10
123.397
20
-133.393
11
124.064
21
-131.965
0
LINE
8
BLACK
6
CONTINUOUS
10
124.064
20
-131.965
11
124.064
21
-133.965
0
LINE
8
BLACK
6
CONTINUOUS
10
125.874
20
-133.965
11
125.874
21
-132.917
0
LINE
8
BLACK
6
CONTINUOUS
10
125.874
20
-132.917
11
125.778
21
-132.727
0
LINE
8
BLACK
6
CONTINUOUS
10
125.778
20
-132.727
11
125.588
21
-132.631
0
LINE
8
BLACK
6
CONTINUOUS
10
125.588
20
-132.631
11
125.207
21
-132.631
0
LINE
8
BLACK
6
CONTINUOUS
10
125.207
20
-132.631
11
125.016
21
-132.727
0
LINE
8
BLACK
6
CONTINUOUS
10
125.874
20
-133.87
11
125.683
21
-133.965
0
LINE
8
BLACK
6
CONTINUOUS
10
125.683
20
-133.965
11
125.207
21
-133.965
0
LINE
8
BLACK
6
CONTINUOUS
10
125.207
20
-133.965
11
125.016
21
-133.87
0
LINE
8
BLACK
6
CONTINUOUS
10
125.016
20
-133.87
11
124.921
21
-133.679
0
LINE
8
BLACK
6
CONTINUOUS
10
124.921
20
-133.679
11
124.921
21
-133.489
0
LINE
8
BLACK
6
CONTINUOUS
10
124.921
20
-133.489
11
125.016
21
-133.298
0
LINE
8
BLACK
6
CONTINUOUS
10
125.016
20
-133.298
11
125.207
21
-133.203
0
LINE
8
BLACK
6
CONTINUOUS
10
125.207
20
-133.203
11
125.683
21
-133.203
0
LINE
8
BLACK
6
CONTINUOUS
10
125.683
20
-133.203
11
125.874
21
-133.108
0
LINE
8
BLACK
6
CONTINUOUS
10
126.826
20
-132.631
11
126.826
21
-134.631
0
LINE
8
BLACK
6
CONTINUOUS
10
126.826
20
-132.727
11
127.016
21
-132.631
0
LINE
8
BLACK
6
CONTINUOUS
10
127.016
20
-132.631
11
127.397
21
-132.631
0
LINE
8
BLACK
6
CONTINUOUS
10
127.397
20
-132.631
11
127.588
21
-132.727
0
LINE
8
BLACK
6
CONTINUOUS
10
127.588
20
-132.727
11
127.683
21
-132.822
0
LINE
8
BLACK
6
CONTINUOUS
10
127.683
20
-132.822
11
127.778
21
-133.012
0
LINE
8
BLACK
6
CONTINUOUS
10
127.778
20
-133.012
11
127.778
21
-133.584
0
LINE
8
BLACK
6
CONTINUOUS
10
127.778
20
-133.584
11
127.683
21
-133.774
0
LINE
8
BLACK
6
CONTINUOUS
10
127.683
20
-133.774
11
127.588
21
-133.87
0
LINE
8
BLACK
6
CONTINUOUS
10
127.588
20
-133.87
11
127.397
21
-133.965
0
LINE
8
BLACK
6
CONTINUOUS
10
127.397
20
-133.965
11
127.016
21
-133.965
0
LINE
8
BLACK
6
CONTINUOUS
10
127.016
20
-133.965
11
126.826
21
-133.87
0
LINE
8
BLACK
6
CONTINUOUS
10
128.635
20
-133.774
11
128.731
21
-133.87
0
LINE
8
BLACK
6
CONTINUOUS
10
128.731
20
-133.87
11
128.635
21
-133.965
0
LINE
8
BLACK
6
CONTINUOUS
10
128.635
20
-133.965
11
128.54
21
-133.87
0
LINE
8
BLACK
6
CONTINUOUS
10
128.54
20
-133.87
11
128.635
21
-133.774
0
LINE
8
BLACK
6
CONTINUOUS
10
128.635
20
-133.774
11
128.635
21
-133.965
0
LINE
8
BLACK
6
CONTINUOUS
10
128.635
20
-132.727
11
128.731
21
-132.822
0
LINE
8
BLACK
6
CONTINUOUS
10
128.731
20
-132.822
11
128.635
21
-132.917
0
LINE
8
BLACK
6
CONTINUOUS
10
128.635
20
-132.917
11
128.54
21
-132.822
0
LINE
8
BLACK
6
CONTINUOUS
10
128.54
20
-132.822
11
128.635
21
-132.727
0
LINE
8
BLACK
6
CONTINUOUS
10
128.635
20
-132.727
11
128.635
21
-132.917
0
LINE
8
BLACK
6
CONTINUOUS
10
110.345
20
-136.26
11
112.345
21
-138.26
0
LINE
8
BLACK
6
CONTINUOUS
10
112.345
20
-136.26
11
110.345
21
-138.26
0
LINE
8
BLACK
6
CONTINUOUS
10
114.731
20
-136.165
11
115.969
21
-136.165
0
LINE
8
BLACK
6
CONTINUOUS
10
115.969
20
-136.165
11
115.302
21
-136.927
0
LINE
8
BLACK
6
CONTINUOUS
10
115.302
20
-136.927
11
115.588
21
-136.927
0
LINE
8
BLACK
6
CONTINUOUS
10
115.588
20
-136.927
11
115.778
21
-137.022
0
LINE
8
BLACK
6
CONTINUOUS
10
115.778
20
-137.022
11
115.874
21
-137.117
0
LINE
8
BLACK
6
CONTINUOUS
10
115.874
20
-137.117
11
115.969
21
-137.308
0
LINE
8
BLACK
6
CONTINUOUS
10
115.969
20
-137.308
11
115.969
21
-137.784
0
LINE
8
BLACK
6
CONTINUOUS
10
115.969
20
-137.784
11
115.874
21
-137.974
0
LINE
8
BLACK
6
CONTINUOUS
10
115.874
20
-137.974
11
115.778
21
-138.07
0
LINE
8
BLACK
6
CONTINUOUS
10
115.778
20
-138.07
11
115.588
21
-138.165
0
LINE
8
BLACK
6
CONTINUOUS
10
115.588
20
-138.165
11
115.016
21
-138.165
0
LINE
8
BLACK
6
CONTINUOUS
10
115.016
20
-138.165
11
114.826
21
-138.07
0
LINE
8
BLACK
6
CONTINUOUS
10
114.826
20
-138.07
11
114.731
21
-137.974
0
LINE
8
BLACK
6
CONTINUOUS
10
116.826
20
-137.974
11
116.921
21
-138.07
0
LINE
8
BLACK
6
CONTINUOUS
10
116.921
20
-138.07
11
116.826
21
-138.165
0
LINE
8
BLACK
6
CONTINUOUS
10
116.826
20
-138.165
11
116.731
21
-138.07
0
LINE
8
BLACK
6
CONTINUOUS
10
116.731
20
-138.07
11
116.826
21
-137.974
0
LINE
8
BLACK
6
CONTINUOUS
10
116.826
20
-137.974
11
116.826
21
-138.165
0
LINE
8
BLACK
6
CONTINUOUS
10
118.731
20
-136.165
11
117.778
21
-136.165
0
LINE
8
BLACK
6
CONTINUOUS
10
117.778
20
-136.165
11
117.683
21
-137.117
0
LINE
8
BLACK
6
CONTINUOUS
10
117.683
20
-137.117
11
117.778
21
-137.022
0
LINE
8
BLACK
6
CONTINUOUS
10
117.778
20
-137.022
11
117.969
21
-136.927
0
LINE
8
BLACK
6
CONTINUOUS
10
117.969
20
-136.927
11
118.445
21
-136.927
0
LINE
8
BLACK
6
CONTINUOUS
10
118.445
20
-136.927
11
118.635
21
-137.022
0
LINE
8
BLACK
6
CONTINUOUS
10
118.635
20
-137.022
11
118.731
21
-137.117
0
LINE
8
BLACK
6
CONTINUOUS
10
118.731
20
-137.117
11
118.826
21
-137.308
0
LINE
8
BLACK
6
CONTINUOUS
10
118.826
20
-137.308
11
118.826
21
-137.784
0
LINE
8
BLACK
6
CONTINUOUS
10
118.826
20
-137.784
11
118.731
21
-137.974
0
LINE
8
BLACK
6
CONTINUOUS
10
118.731
20
-137.974
11
118.635
21
-138.07
0
LINE
8
BLACK
6
CONTINUOUS
10
118.635
20
-138.07
11
118.445
21
-138.165
0
LINE
8
BLACK
6
CONTINUOUS
10
118.445
20
-138.165
11
117.969
21
-138.165
0
LINE
8
BLACK
6
CONTINUOUS
10
117.969
20
-138.165
11
117.778
21
-138.07
0
LINE
8
BLACK
6
CONTINUOUS
10
117.778
20
-138.07
11
117.683
21
-137.974
0
LINE
8
BLACK
6
CONTINUOUS
10
120.064
20
-136.165
11
120.255
21
-136.165
0
LINE
8
BLACK
6
CONTINUOUS
10
120.255
20
-136.165
11
120.445
21
-136.26
0
LINE
8
BLACK
6
CONTINUOUS
10
120.445
20
-136.26
11
120.54
21
-136.355
0
LINE
8
BLACK
6
CONTINUOUS
10
120.54
20
-136.355
11
120.635
21
-136.546
0
LINE
8
BLACK
6
CONTINUOUS
10
120.635
20
-136.546
11
120.731
21
-136.927
0
LINE
8
BLACK
6
CONTINUOUS
10
120.731
20
-136.927
11
120.731
21
-137.403
0
LINE
8
BLACK
6
CONTINUOUS
10
120.731
20
-137.403
11
120.635
21
-137.784
0
LINE
8
BLACK
6
CONTINUOUS
10
120.635
20
-137.784
11
120.54
21
-137.974
0
LINE
8
BLACK
6
CONTINUOUS
10
120.54
20
-137.974
11
120.445
21
-138.07
0
LINE
8
BLACK
6
CONTINUOUS
10
120.445
20
-138.07
11
120.255
21
-138.165
0
LINE
8
BLACK
6
CONTINUOUS
10
120.255
20
-138.165
11
120.064
21
-138.165
0
LINE
8
BLACK
6
CONTINUOUS
10
120.064
20
-138.165
11
119.874
21
-138.07
0
LINE
8
BLACK
6
CONTINUOUS
10
119.874
20
-138.07
11
119.778
21
-137.974
0
LINE
8
BLACK
6
CONTINUOUS
10
119.778
20
-137.974
11
119.683
21
-137.784
0
LINE
8
BLACK
6
CONTINUOUS
10
119.683
20
-137.784
11
119.588
21
-137.403
0
LINE
8
BLACK
6
CONTINUOUS
10
119.588
20
-137.403
11
119.588
21
-136.927
0
LINE
8
BLACK
6
CONTINUOUS
10
119.588
20
-136.927
11
119.683
21
-136.546
0
LINE
8
BLACK
6
CONTINUOUS
10
119.683
20
-136.546
11
119.778
21
-136.355
0
LINE
8
BLACK
6
CONTINUOUS
10
119.778
20
-136.355
11
119.874
21
-136.26
0
LINE
8
BLACK
6
CONTINUOUS
10
119.874
20
-136.26
11
120.064
21
-136.165
0
LINE
8
BLACK
6
CONTINUOUS
10
121.969
20
-136.165
11
122.159
21
-136.165
0
LINE
8
BLACK
6
CONTINUOUS
10
122.159
20
-136.165
11
122.35
21
-136.26
0
LINE
8
BLACK
6
CONTINUOUS
10
122.35
20
-136.26
11
122.445
21
-136.355
0
LINE
8
BLACK
6
CONTINUOUS
10
122.445
20
-136.355
11
122.54
21
-136.546
0
LINE
8
BLACK
6
CONTINUOUS
10
122.54
20
-136.546
11
122.635
21
-136.927
0
LINE
8
BLACK
6
CONTINUOUS
10
122.635
20
-136.927
11
122.635
21
-137.403
0
LINE
8
BLACK
6
CONTINUOUS
10
122.635
20
-137.403
11
122.54
21
-137.784
0
LINE
8
BLACK
6
CONTINUOUS
10
122.54
20
-137.784
11
122.445
21
-137.974
0
LINE
8
BLACK
6
CONTINUOUS
10
122.445
20
-137.974
11
122.35
21
-138.07
0
LINE
8
BLACK
6
CONTINUOUS
10
122.35
20
-138.07
11
122.159
21
-138.165
0
LINE
8
BLACK
6
CONTINUOUS
10
122.159
20
-138.165
11
121.969
21
-138.165
0
LINE
8
BLACK
6
CONTINUOUS
10
121.969
20
-138.165
11
121.778
21
-138.07
0
LINE
8
BLACK
6
CONTINUOUS
10
121.778
20
-138.07
11
121.683
21
-137.974
0
LINE
8
BLACK
6
CONTINUOUS
10
121.683
20
-137.974
11
121.588
21
-137.784
0
LINE
8
BLACK
6
CONTINUOUS
10
121.588
20
-137.784
11
121.493
21
-137.403
0
LINE
8
BLACK
6
CONTINUOUS
10
121.493
20
-137.403
11
121.493
21
-136.927
0
LINE
8
BLACK
6
CONTINUOUS
10
121.493
20
-136.927
11
121.588
21
-136.546
0
LINE
8
BLACK
6
CONTINUOUS
10
121.588
20
-136.546
11
121.683
21
-136.355
0
LINE
8
BLACK
6
CONTINUOUS
10
121.683
20
-136.355
11
121.778
21
-136.26
0
LINE
8
BLACK
6
CONTINUOUS
10
121.778
20
-136.26
11
121.969
21
-136.165
0
LINE
8
BLACK
6
CONTINUOUS
10
123.493
20
-138.165
11
123.493
21
-136.831
0
LINE
8
BLACK
6
CONTINUOUS
10
123.493
20
-137.022
11
123.588
21
-136.927
0
LINE
8
BLACK
6
CONTINUOUS
10
123.588
20
-136.927
11
123.778
21
-136.831
0
LINE
8
BLACK
6
CONTINUOUS
10
123.778
20
-136.831
11
124.064
21
-136.831
0
LINE
8
BLACK
6
CONTINUOUS
10
124.064
20
-136.831
11
124.255
21
-136.927
0
LINE
8
BLACK
6
CONTINUOUS
10
124.255
20
-136.927
11
124.35
21
-137.117
0
LINE
8
BLACK
6
CONTINUOUS
10
124.35
20
-137.117
11
124.35
21
-138.165
0
LINE
8
BLACK
6
CONTINUOUS
10
124.35
20
-137.117
11
124.445
21
-136.927
0
LINE
8
BLACK
6
CONTINUOUS
10
124.445
20
-136.927
11
124.635
21
-136.831
0
LINE
8
BLACK
6
CONTINUOUS
10
124.635
20
-136.831
11
124.921
21
-136.831
0
LINE
8
BLACK
6
CONTINUOUS
10
124.921
20
-136.831
11
125.112
21
-136.927
0
LINE
8
BLACK
6
CONTINUOUS
10
125.112
20
-136.927
11
125.207
21
-137.117
0
LINE
8
BLACK
6
CONTINUOUS
10
125.207
20
-137.117
11
125.207
21
-138.165
0
LINE
8
BLACK
6
CONTINUOUS
10
126.159
20
-138.165
11
126.159
21
-136.831
0
LINE
8
BLACK
6
CONTINUOUS
10
126.159
20
-137.022
11
126.255
21
-136.927
0
LINE
8
BLACK
6
CONTINUOUS
10
126.255
20
-136.927
11
126.445
21
-136.831
0
LINE
8
BLACK
6
CONTINUOUS
10
126.445
20
-136.831
11
126.731
21
-136.831
0
LINE
8
BLACK
6
CONTINUOUS
10
126.731
20
-136.831
11
126.921
21
-136.927
0
LINE
8
BLACK
6
CONTINUOUS
10
126.921
20
-136.927
11
127.016
21
-137.117
0
LINE
8
BLACK
6
CONTINUOUS
10
127.016
20
-137.117
11
127.016
21
-138.165
0
LINE
8
BLACK
6
CONTINUOUS
10
127.016
20
-137.117
11
127.112
21
-136.927
0
LINE
8
BLACK
6
CONTINUOUS
10
127.112
20
-136.927
11
127.302
21
-136.831
0
LINE
8
BLACK
6
CONTINUOUS
10
127.302
20
-136.831
11
127.588
21
-136.831
0
LINE
8
BLACK
6
CONTINUOUS
10
127.588
20
-136.831
11
127.778
21
-136.927
0
LINE
8
BLACK
6
CONTINUOUS
10
127.778
20
-136.927
11
127.874
21
-137.117
0
LINE
8
BLACK
6
CONTINUOUS
10
127.874
20
-137.117
11
127.874
21
-138.165
0
LINE
8
BLACK
6
CONTINUOUS
10
131.778
20
-136.07
11
130.064
21
-138.641
0
LINE
8
BLACK
6
CONTINUOUS
10
134.35
20
-136.165
11
134.54
21
-136.165
0
LINE
8
BLACK
6
CONTINUOUS
10
134.54
20
-136.165
11
134.731
21
-136.26
0
LINE
8
BLACK
6
CONTINUOUS
10
134.731
20
-136.26
11
134.826
21
-136.355
0
LINE
8
BLACK
6
CONTINUOUS
10
134.826
20
-136.355
11
134.921
21
-136.546
0
LINE
8
BLACK
6
CONTINUOUS
10
134.921
20
-136.546
11
135.016
21
-136.927
0
LINE
8
BLACK
6
CONTINUOUS
10
135.016
20
-136.927
11
135.016
21
-137.403
0
LINE
8
BLACK
6
CONTINUOUS
10
135.016
20
-137.403
11
134.921
21
-137.784
0
LINE
8
BLACK
6
CONTINUOUS
10
134.921
20
-137.784
11
134.826
21
-137.974
0
LINE
8
BLACK
6
CONTINUOUS
10
134.826
20
-137.974
11
134.731
21
-138.07
0
LINE
8
BLACK
6
CONTINUOUS
10
134.731
20
-138.07
11
134.54
21
-138.165
0
LINE
8
BLACK
6
CONTINUOUS
10
134.54
20
-138.165
11
134.35
21
-138.165
0
LINE
8
BLACK
6
CONTINUOUS
10
134.35
20
-138.165
11
134.159
21
-138.07
0
LINE
8
BLACK
6
CONTINUOUS
10
134.159
20
-138.07
11
134.064
21
-137.974
0
LINE
8
BLACK
6
CONTINUOUS
10
134.064
20
-137.974
11
133.969
21
-137.784
0
LINE
8
BLACK
6
CONTINUOUS
10
133.969
20
-137.784
11
133.874
21
-137.403
0
LINE
8
BLACK
6
CONTINUOUS
10
133.874
20
-137.403
11
133.874
21
-136.927
0
LINE
8
BLACK
6
CONTINUOUS
10
133.874
20
-136.927
11
133.969
21
-136.546
0
LINE
8
BLACK
6
CONTINUOUS
10
133.969
20
-136.546
11
134.064
21
-136.355
0
LINE
8
BLACK
6
CONTINUOUS
10
134.064
20
-136.355
11
134.159
21
-136.26
0
LINE
8
BLACK
6
CONTINUOUS
10
134.159
20
-136.26
11
134.35
21
-136.165
0
LINE
8
BLACK
6
CONTINUOUS
10
135.874
20
-137.974
11
135.969
21
-138.07
0
LINE
8
BLACK
6
CONTINUOUS
10
135.969
20
-138.07
11
135.874
21
-138.165
0
LINE
8
BLACK
6
CONTINUOUS
10
135.874
20
-138.165
11
135.778
21
-138.07
0
LINE
8
BLACK
6
CONTINUOUS
10
135.778
20
-138.07
11
135.874
21
-137.974
0
LINE
8
BLACK
6
CONTINUOUS
10
135.874
20
-137.974
11
135.874
21
-138.165
0
LINE
8
BLACK
6
CONTINUOUS
10
137.874
20
-138.165
11
136.731
21
-138.165
0
LINE
8
BLACK
6
CONTINUOUS
10
137.302
20
-138.165
11
137.302
21
-136.165
0
LINE
8
BLACK
6
CONTINUOUS
10
137.302
20
-136.165
11
137.112
21
-136.45
0
LINE
8
BLACK
6
CONTINUOUS
10
137.112
20
-136.45
11
136.921
21
-136.641
0
LINE
8
BLACK
6
CONTINUOUS
10
136.921
20
-136.641
11
136.731
21
-136.736
0
LINE
8
BLACK
6
CONTINUOUS
10
138.54
20
-136.165
11
139.778
21
-136.165
0
LINE
8
BLACK
6
CONTINUOUS
10
139.778
20
-136.165
11
139.112
21
-136.927
0
LINE
8
BLACK
6
CONTINUOUS
10
139.112
20
-136.927
11
139.397
21
-136.927
0
LINE
8
BLACK
6
CONTINUOUS
10
139.397
20
-136.927
11
139.588
21
-137.022
0
LINE
8
BLACK
6
CONTINUOUS
10
139.588
20
-137.022
11
139.683
21
-137.117
0
LINE
8
BLACK
6
CONTINUOUS
10
139.683
20
-137.117
11
139.778
21
-137.308
0
LINE
8
BLACK
6
CONTINUOUS
10
139.778
20
-137.308
11
139.778
21
-137.784
0
LINE
8
BLACK
6
CONTINUOUS
10
139.778
20
-137.784
11
139.683
21
-137.974
0
LINE
8
BLACK
6
CONTINUOUS
10
139.683
20
-137.974
11
139.588
21
-138.07
0
LINE
8
BLACK
6
CONTINUOUS
10
139.588
20
-138.07
11
139.397
21
-138.165
0
LINE
8
BLACK
6
CONTINUOUS
10
139.397
20
-138.165
11
138.826
21
-138.165
0
LINE
8
BLACK
6
CONTINUOUS
10
138.826
20
-138.165
11
138.635
21
-138.07
0
LINE
8
BLACK
6
CONTINUOUS
10
138.635
20
-138.07
11
138.54
21
-137.974
0
LINE
8
BLACK
6
CONTINUOUS
10
140.445
20
-136.165
11
141.778
21
-136.165
0
LINE
8
BLACK
6
CONTINUOUS
10
141.778
20
-136.165
11
140.921
21
-138.165
0
LINE
8
BLACK
6
CONTINUOUS
10
142.826
20
-137.022
11
142.635
21
-136.927
0
LINE
8
BLACK
6
CONTINUOUS
10
142.635
20
-136.927
11
142.54
21
-136.831
0
LINE
8
BLACK
6
CONTINUOUS
10
142.54
20
-136.831
11
142.445
21
-136.641
0
LINE
8
BLACK
6
CONTINUOUS
10
142.445
20
-136.641
11
142.445
21
-136.546
0
LINE
8
BLACK
6
CONTINUOUS
10
142.445
20
-136.546
11
142.54
21
-136.355
0
LINE
8
BLACK
6
CONTINUOUS
10
142.54
20
-136.355
11
142.635
21
-136.26
0
LINE
8
BLACK
6
CONTINUOUS
10
142.635
20
-136.26
11
142.826
21
-136.165
0
LINE
8
BLACK
6
CONTINUOUS
10
142.826
20
-136.165
11
143.207
21
-136.165
0
LINE
8
BLACK
6
CONTINUOUS
10
143.207
20
-136.165
11
143.397
21
-136.26
0
LINE
8
BLACK
6
CONTINUOUS
10
143.397
20
-136.26
11
143.493
21
-136.355
0
LINE
8
BLACK
6
CONTINUOUS
10
143.493
20
-136.355
11
143.588
21
-136.546
0
LINE
8
BLACK
6
CONTINUOUS
10
143.588
20
-136.546
11
143.588
21
-136.641
0
LINE
8
BLACK
6
CONTINUOUS
10
143.588
20
-136.641
11
143.493
21
-136.831
0
LINE
8
BLACK
6
CONTINUOUS
10
143.493
20
-136.831
11
143.397
21
-136.927
0
LINE
8
BLACK
6
CONTINUOUS
10
143.397
20
-136.927
11
143.207
21
-137.022
0
LINE
8
BLACK
6
CONTINUOUS
10
143.207
20
-137.022
11
142.826
21
-137.022
0
LINE
8
BLACK
6
CONTINUOUS
10
142.826
20
-137.022
11
142.635
21
-137.117
0
LINE
8
BLACK
6
CONTINUOUS
10
142.635
20
-137.117
11
142.54
21
-137.212
0
LINE
8
BLACK
6
CONTINUOUS
10
142.54
20
-137.212
11
142.445
21
-137.403
0
LINE
8
BLACK
6
CONTINUOUS
10
142.445
20
-137.403
11
142.445
21
-137.784
0
LINE
8
BLACK
6
CONTINUOUS
10
142.445
20
-137.784
11
142.54
21
-137.974
0
LINE
8
BLACK
6
CONTINUOUS
10
142.54
20
-137.974
11
142.635
21
-138.07
0
LINE
8
BLACK
6
CONTINUOUS
10
142.635
20
-138.07
11
142.826
21
-138.165
0
LINE
8
BLACK
6
CONTINUOUS
10
142.826
20
-138.165
11
143.207
21
-138.165
0
LINE
8
BLACK
6
CONTINUOUS
10
143.207
20
-138.165
11
143.397
21
-138.07
0
LINE
8
BLACK
6
CONTINUOUS
10
143.397
20
-138.07
11
143.493
21
-137.974
0
LINE
8
BLACK
6
CONTINUOUS
10
143.493
20
-137.974
11
143.588
21
-137.784
0
LINE
8
BLACK
6
CONTINUOUS
10
143.588
20
-137.784
11
143.588
21
-137.403
0
LINE
8
BLACK
6
CONTINUOUS
10
143.588
20
-137.403
11
143.493
21
-137.212
0
LINE
8
BLACK
6
CONTINUOUS
10
143.493
20
-137.212
11
143.397
21
-137.117
0
LINE
8
BLACK
6
CONTINUOUS
10
143.397
20
-137.117
11
143.207
21
-137.022
0
LINE
8
BLACK
6
CONTINUOUS
10
144.35
20
-136.165
11
144.35
21
-136.546
0
LINE
8
BLACK
6
CONTINUOUS
10
145.112
20
-136.165
11
145.112
21
-136.546
0
LINE
8
BLACK
6
CONTINUOUS
10
148.064
20
-138.927
11
147.969
21
-138.831
0
LINE
8
BLACK
6
CONTINUOUS
10
147.969
20
-138.831
11
147.778
21
-138.546
0
LINE
8
BLACK
6
CONTINUOUS
10
147.778
20
-138.546
11
147.683
21
-138.355
0
LINE
8
BLACK
6
CONTINUOUS
10
147.683
20
-138.355
11
147.588
21
-138.07
0
LINE
8
BLACK
6
CONTINUOUS
10
147.588
20
-138.07
11
147.493
21
-137.593
0
LINE
8
BLACK
6
CONTINUOUS
10
147.493
20
-137.593
11
147.493
21
-137.212
0
LINE
8
BLACK
6
CONTINUOUS
10
147.493
20
-137.212
11
147.588
21
-136.736
0
LINE
8
BLACK
6
CONTINUOUS
10
147.588
20
-136.736
11
147.683
21
-136.45
0
LINE
8
BLACK
6
CONTINUOUS
10
147.683
20
-136.45
11
147.778
21
-136.26
0
LINE
8
BLACK
6
CONTINUOUS
10
147.778
20
-136.26
11
147.969
21
-135.974
0
LINE
8
BLACK
6
CONTINUOUS
10
147.969
20
-135.974
11
148.064
21
-135.879
0
LINE
8
BLACK
6
CONTINUOUS
10
149.874
20
-138.165
11
148.731
21
-138.165
0
LINE
8
BLACK
6
CONTINUOUS
10
149.302
20
-138.165
11
149.302
21
-136.165
0
LINE
8
BLACK
6
CONTINUOUS
10
149.302
20
-136.165
11
149.112
21
-136.45
0
LINE
8
BLACK
6
CONTINUOUS
10
149.112
20
-136.45
11
148.921
21
-136.641
0
LINE
8
BLACK
6
CONTINUOUS
10
148.921
20
-136.641
11
148.731
21
-136.736
0
LINE
8
BLACK
6
CONTINUOUS
10
152.255
20
-138.165
11
152.255
21
-136.165
0
LINE
8
BLACK
6
CONTINUOUS
10
153.112
20
-138.165
11
153.112
21
-137.117
0
LINE
8
BLACK
6
CONTINUOUS
10
153.112
20
-137.117
11
153.016
21
-136.927
0
LINE
8
BLACK
6
CONTINUOUS
10
153.016
20
-136.927
11
152.826
21
-136.831
0
LINE
8
BLACK
6
CONTINUOUS
10
152.826
20
-136.831
11
152.54
21
-136.831
0
LINE
8
BLACK
6
CONTINUOUS
10
152.54
20
-136.831
11
152.35
21
-136.927
0
LINE
8
BLACK
6
CONTINUOUS
10
152.35
20
-136.927
11
152.255
21
-137.022
0
LINE
8
BLACK
6
CONTINUOUS
10
154.35
20
-138.165
11
154.159
21
-138.07
0
LINE
8
BLACK
6
CONTINUOUS
10
154.159
20
-138.07
11
154.064
21
-137.974
0
LINE
8
BLACK
6
CONTINUOUS
10
154.064
20
-137.974
11
153.969
21
-137.784
0
LINE
8
BLACK
6
CONTINUOUS
10
153.969
20
-137.784
11
153.969
21
-137.212
0
LINE
8
BLACK
6
CONTINUOUS
10
153.969
20
-137.212
11
154.064
21
-137.022
0
LINE
8
BLACK
6
CONTINUOUS
10
154.064
20
-137.022
11
154.159
21
-136.927
0
LINE
8
BLACK
6
CONTINUOUS
10
154.159
20
-136.927
11
154.35
21
-136.831
0
LINE
8
BLACK
6
CONTINUOUS
10
154.35
20
-136.831
11
154.635
21
-136.831
0
LINE
8
BLACK
6
CONTINUOUS
10
154.635
20
-136.831
11
154.826
21
-136.927
0
LINE
8
BLACK
6
CONTINUOUS
10
154.826
20
-136.927
11
154.921
21
-137.022
0
LINE
8
BLACK
6
CONTINUOUS
10
154.921
20
-137.022
11
155.016
21
-137.212
0
LINE
8
BLACK
6
CONTINUOUS
10
155.016
20
-137.212
11
155.016
21
-137.784
0
LINE
8
BLACK
6
CONTINUOUS
10
155.016
20
-137.784
11
154.921
21
-137.974
0
LINE
8
BLACK
6
CONTINUOUS
10
154.921
20
-137.974
11
154.826
21
-138.07
0
LINE
8
BLACK
6
CONTINUOUS
10
154.826
20
-138.07
11
154.635
21
-138.165
0
LINE
8
BLACK
6
CONTINUOUS
10
154.635
20
-138.165
11
154.35
21
-138.165
0
LINE
8
BLACK
6
CONTINUOUS
10
156.159
20
-138.165
11
155.969
21
-138.07
0
LINE
8
BLACK
6
CONTINUOUS
10
155.969
20
-138.07
11
155.874
21
-137.879
0
LINE
8
BLACK
6
CONTINUOUS
10
155.874
20
-137.879
11
155.874
21
-136.165
0
LINE
8
BLACK
6
CONTINUOUS
10
157.683
20
-138.07
11
157.493
21
-138.165
0
LINE
8
BLACK
6
CONTINUOUS
10
157.493
20
-138.165
11
157.112
21
-138.165
0
LINE
8
BLACK
6
CONTINUOUS
10
157.112
20
-138.165
11
156.921
21
-138.07
0
LINE
8
BLACK
6
CONTINUOUS
10
156.921
20
-138.07
11
156.826
21
-137.879
0
LINE
8
BLACK
6
CONTINUOUS
10
156.826
20
-137.879
11
156.826
21
-137.117
0
LINE
8
BLACK
6
CONTINUOUS
10
156.826
20
-137.117
11
156.921
21
-136.927
0
LINE
8
BLACK
6
CONTINUOUS
10
156.921
20
-136.927
11
157.112
21
-136.831
0
LINE
8
BLACK
6
CONTINUOUS
10
157.112
20
-136.831
11
157.493
21
-136.831
0
LINE
8
BLACK
6
CONTINUOUS
10
157.493
20
-136.831
11
157.683
21
-136.927
0
LINE
8
BLACK
6
CONTINUOUS
10
157.683
20
-136.927
11
157.778
21
-137.117
0
LINE
8
BLACK
6
CONTINUOUS
10
157.778
20
-137.117
11
157.778
21
-137.308
0
LINE
8
BLACK
6
CONTINUOUS
10
157.778
20
-137.308
11
156.826
21
-137.498
0
LINE
8
BLACK
6
CONTINUOUS
10
158.445
20
-138.927
11
158.54
21
-138.831
0
LINE
8
BLACK
6
CONTINUOUS
10
158.54
20
-138.831
11
158.731
21
-138.546
0
LINE
8
BLACK
6
CONTINUOUS
10
158.731
20
-138.546
11
158.826
21
-138.355
0
LINE
8
BLACK
6
CONTINUOUS
10
158.826
20
-138.355
11
158.921
21
-138.07
0
LINE
8
BLACK
6
CONTINUOUS
10
158.921
20
-138.07
11
159.016
21
-137.593
0
LINE
8
BLACK
6
CONTINUOUS
10
159.016
20
-137.593
11
159.016
21
-137.212
0
LINE
8
BLACK
6
CONTINUOUS
10
159.016
20
-137.212
11
158.921
21
-136.736
0
LINE
8
BLACK
6
CONTINUOUS
10
158.921
20
-136.736
11
158.826
21
-136.45
0
LINE
8
BLACK
6
CONTINUOUS
10
158.826
20
-136.45
11
158.731
21
-136.26
0
LINE
8
BLACK
6
CONTINUOUS
10
158.731
20
-136.26
11
158.54
21
-135.974
0
LINE
8
BLACK
6
CONTINUOUS
10
158.54
20
-135.974
11
158.445
21
-135.879
0
LINE
8
BLACK
6
CONTINUOUS
10
162.064
20
-138.927
11
161.969
21
-138.831
0
LINE
8
BLACK
6
CONTINUOUS
10
161.969
20
-138.831
11
161.778
21
-138.546
0
LINE
8
BLACK
6
CONTINUOUS
10
161.778
20
-138.546
11
161.683
21
-138.355
0
LINE
8
BLACK
6
CONTINUOUS
10
161.683
20
-138.355
11
161.588
21
-138.07
0
LINE
8
BLACK
6
CONTINUOUS
10
161.588
20
-138.07
11
161.493
21
-137.593
0
LINE
8
BLACK
6
CONTINUOUS
10
161.493
20
-137.593
11
161.493
21
-137.212
0
LINE
8
BLACK
6
CONTINUOUS
10
161.493
20
-137.212
11
161.588
21
-136.736
0
LINE
8
BLACK
6
CONTINUOUS
10
161.588
20
-136.736
11
161.683
21
-136.45
0
LINE
8
BLACK
6
CONTINUOUS
10
161.683
20
-136.45
11
161.778
21
-136.26
0
LINE
8
BLACK
6
CONTINUOUS
10
161.778
20
-136.26
11
161.969
21
-135.974
0
LINE
8
BLACK
6
CONTINUOUS
10
161.969
20
-135.974
11
162.064
21
-135.879
0
LINE
8
BLACK
6
CONTINUOUS
10
162.826
20
-136.831
11
162.826
21
-138.165
0
LINE
8
BLACK
6
CONTINUOUS
10
162.826
20
-137.022
11
162.921
21
-136.927
0
LINE
8
BLACK
6
CONTINUOUS
10
162.921
20
-136.927
11
163.112
21
-136.831
0
LINE
8
BLACK
6
CONTINUOUS
10
163.112
20
-136.831
11
163.397
21
-136.831
0
LINE
8
BLACK
6
CONTINUOUS
10
163.397
20
-136.831
11
163.588
21
-136.927
0
LINE
8
BLACK
6
CONTINUOUS
10
163.588
20
-136.927
11
163.683
21
-137.117
0
LINE
8
BLACK
6
CONTINUOUS
10
163.683
20
-137.117
11
163.683
21
-138.165
0
LINE
8
BLACK
6
CONTINUOUS
10
164.921
20
-138.165
11
164.731
21
-138.07
0
LINE
8
BLACK
6
CONTINUOUS
10
164.731
20
-138.07
11
164.635
21
-137.974
0
LINE
8
BLACK
6
CONTINUOUS
10
164.635
20
-137.974
11
164.54
21
-137.784
0
LINE
8
BLACK
6
CONTINUOUS
10
164.54
20
-137.784
11
164.54
21
-137.212
0
LINE
8
BLACK
6
CONTINUOUS
10
164.54
20
-137.212
11
164.635
21
-137.022
0
LINE
8
BLACK
6
CONTINUOUS
10
164.635
20
-137.022
11
164.731
21
-136.927
0
LINE
8
BLACK
6
CONTINUOUS
10
164.731
20
-136.927
11
164.921
21
-136.831
0
LINE
8
BLACK
6
CONTINUOUS
10
164.921
20
-136.831
11
165.207
21
-136.831
0
LINE
8
BLACK
6
CONTINUOUS
10
165.207
20
-136.831
11
165.397
21
-136.927
0
LINE
8
BLACK
6
CONTINUOUS
10
165.397
20
-136.927
11
165.493
21
-137.022
0
LINE
8
BLACK
6
CONTINUOUS
10
165.493
20
-137.022
11
165.588
21
-137.212
0
LINE
8
BLACK
6
CONTINUOUS
10
165.588
20
-137.212
11
165.588
21
-137.784
0
LINE
8
BLACK
6
CONTINUOUS
10
165.588
20
-137.784
11
165.493
21
-137.974
0
LINE
8
BLACK
6
CONTINUOUS
10
165.493
20
-137.974
11
165.397
21
-138.07
0
LINE
8
BLACK
6
CONTINUOUS
10
165.397
20
-138.07
11
165.207
21
-138.165
0
LINE
8
BLACK
6
CONTINUOUS
10
165.207
20
-138.165
11
164.921
21
-138.165
0
LINE
8
BLACK
6
CONTINUOUS
10
166.159
20
-136.831
11
166.921
21
-136.831
0
LINE
8
BLACK
6
CONTINUOUS
10
166.445
20
-136.165
11
166.445
21
-137.879
0
LINE
8
BLACK
6
CONTINUOUS
10
166.445
20
-137.879
11
166.54
21
-138.07
0
LINE
8
BLACK
6
CONTINUOUS
10
166.54
20
-138.07
11
166.731
21
-138.165
0
LINE
8
BLACK
6
CONTINUOUS
10
166.731
20
-138.165
11
166.921
21
-138.165
0
LINE
8
BLACK
6
CONTINUOUS
10
169.112
20
-136.831
11
169.112
21
-138.831
0
LINE
8
BLACK
6
CONTINUOUS
10
169.112
20
-136.927
11
169.302
21
-136.831
0
LINE
8
BLACK
6
CONTINUOUS
10
169.302
20
-136.831
11
169.683
21
-136.831
0
LINE
8
BLACK
6
CONTINUOUS
10
169.683
20
-136.831
11
169.874
21
-136.927
0
LINE
8
BLACK
6
CONTINUOUS
10
169.874
20
-136.927
11
169.969
21
-137.022
0
LINE
8
BLACK
6
CONTINUOUS
10
169.969
20
-137.022
11
170.064
21
-137.212
0
LINE
8
BLACK
6
CONTINUOUS
10
170.064
20
-137.212
11
170.064
21
-137.784
0
LINE
8
BLACK
6
CONTINUOUS
10
170.064
20
-137.784
11
169.969
21
-137.974
0
LINE
8
BLACK
6
CONTINUOUS
10
169.969
20
-137.974
11
169.874
21
-138.07
0
LINE
8
BLACK
6
CONTINUOUS
10
169.874
20
-138.07
11
169.683
21
-138.165
0
LINE
8
BLACK
6
CONTINUOUS
10
169.683
20
-138.165
11
169.302
21
-138.165
0
LINE
8
BLACK
6
CONTINUOUS
10
169.302
20
-138.165
11
169.112
21
-138.07
0
LINE
8
BLACK
6
CONTINUOUS
10
171.207
20
-138.165
11
171.016
21
-138.07
0
LINE
8
BLACK
6
CONTINUOUS
10
171.016
20
-138.07
11
170.921
21
-137.879
0
LINE
8
BLACK
6
CONTINUOUS
10
170.921
20
-137.879
11
170.921
21
-136.165
0
LINE
8
BLACK
6
CONTINUOUS
10
172.826
20
-138.165
11
172.826
21
-137.117
0
LINE
8
BLACK
6
CONTINUOUS
10
172.826
20
-137.117
11
172.731
21
-136.927
0
LINE
8
BLACK
6
CONTINUOUS
10
172.731
20
-136.927
11
172.54
21
-136.831
0
LINE
8
BLACK
6
CONTINUOUS
10
172.54
20
-136.831
11
172.159
21
-136.831
0
LINE
8
BLACK
6
CONTINUOUS
10
172.159
20
-136.831
11
171.969
21
-136.927
0
LINE
8
BLACK
6
CONTINUOUS
10
172.826
20
-138.07
11
172.635
21
-138.165
0
LINE
8
BLACK
6
CONTINUOUS
10
172.635
20
-138.165
11
172.159
21
-138.165
0
LINE
8
BLACK
6
CONTINUOUS
10
172.159
20
-138.165
11
171.969
21
-138.07
0
LINE
8
BLACK
6
CONTINUOUS
10
171.969
20
-138.07
11
171.874
21
-137.879
0
LINE
8
BLACK
6
CONTINUOUS
10
171.874
20
-137.879
11
171.874
21
-137.689
0
LINE
8
BLACK
6
CONTINUOUS
10
171.874
20
-137.689
11
171.969
21
-137.498
0
LINE
8
BLACK
6
CONTINUOUS
10
171.969
20
-137.498
11
172.159
21
-137.403
0
LINE
8
BLACK
6
CONTINUOUS
10
172.159
20
-137.403
11
172.635
21
-137.403
0
LINE
8
BLACK
6
CONTINUOUS
10
172.635
20
-137.403
11
172.826
21
-137.308
0
LINE
8
BLACK
6
CONTINUOUS
10
173.493
20
-136.831
11
174.255
21
-136.831
0
LINE
8
BLACK
6
CONTINUOUS
10
173.778
20
-136.165
11
173.778
21
-137.879
0
LINE
8
BLACK
6
CONTINUOUS
10
173.778
20
-137.879
11
173.874
21
-138.07
0
LINE
8
BLACK
6
CONTINUOUS
10
173.874
20
-138.07
11
174.064
21
-138.165
0
LINE
8
BLACK
6
CONTINUOUS
10
174.064
20
-138.165
11
174.255
21
-138.165
0
LINE
8
BLACK
6
CONTINUOUS
10
175.683
20
-138.07
11
175.493
21
-138.165
0
LINE
8
BLACK
6
CONTINUOUS
10
175.493
20
-138.165
11
175.112
21
-138.165
0
LINE
8
BLACK
6
CONTINUOUS
10
175.112
20
-138.165
11
174.921
21
-138.07
0
LINE
8
BLACK
6
CONTINUOUS
10
174.921
20
-138.07
11
174.826
21
-137.879
0
LINE
8
BLACK
6
CONTINUOUS
10
174.826
20
-137.879
11
174.826
21
-137.117
0
LINE
8
BLACK
6
CONTINUOUS
10
174.826
20
-137.117
11
174.921
21
-136.927
0
LINE
8
BLACK
6
CONTINUOUS
10
174.921
20
-136.927
11
175.112
21
-136.831
0
LINE
8
BLACK
6
CONTINUOUS
10
175.112
20
-136.831
11
175.493
21
-136.831
0
LINE
8
BLACK
6
CONTINUOUS
10
175.493
20
-136.831
11
175.683
21
-136.927
0
LINE
8
BLACK
6
CONTINUOUS
10
175.683
20
-136.927
11
175.778
21
-137.117
0
LINE
8
BLACK
6
CONTINUOUS
10
175.778
20
-137.117
11
175.778
21
-137.308
0
LINE
8
BLACK
6
CONTINUOUS
10
175.778
20
-137.308
11
174.826
21
-137.498
0
LINE
8
BLACK
6
CONTINUOUS
10
177.493
20
-138.165
11
177.493
21
-136.165
0
LINE
8
BLACK
6
CONTINUOUS
10
177.493
20
-138.07
11
177.302
21
-138.165
0
LINE
8
BLACK
6
CONTINUOUS
10
177.302
20
-138.165
11
176.921
21
-138.165
0
LINE
8
BLACK
6
CONTINUOUS
10
176.921
20
-138.165
11
176.731
21
-138.07
0
LINE
8
BLACK
6
CONTINUOUS
10
176.731
20
-138.07
11
176.635
21
-137.974
0
LINE
8
BLACK
6
CONTINUOUS
10
176.635
20
-137.974
11
176.54
21
-137.784
0
LINE
8
BLACK
6
CONTINUOUS
10
176.54
20
-137.784
11
176.54
21
-137.212
0
LINE
8
BLACK
6
CONTINUOUS
10
176.54
20
-137.212
11
176.635
21
-137.022
0
LINE
8
BLACK
6
CONTINUOUS
10
176.635
20
-137.022
11
176.731
21
-136.927
0
LINE
8
BLACK
6
CONTINUOUS
10
176.731
20
-136.927
11
176.921
21
-136.831
0
LINE
8
BLACK
6
CONTINUOUS
10
176.921
20
-136.831
11
177.302
21
-136.831
0
LINE
8
BLACK
6
CONTINUOUS
10
177.302
20
-136.831
11
177.493
21
-136.927
0
LINE
8
BLACK
6
CONTINUOUS
10
178.255
20
-138.927
11
178.35
21
-138.831
0
LINE
8
BLACK
6
CONTINUOUS
10
178.35
20
-138.831
11
178.54
21
-138.546
0
LINE
8
BLACK
6
CONTINUOUS
10
178.54
20
-138.546
11
178.635
21
-138.355
0
LINE
8
BLACK
6
CONTINUOUS
10
178.635
20
-138.355
11
178.731
21
-138.07
0
LINE
8
BLACK
6
CONTINUOUS
10
178.731
20
-138.07
11
178.826
21
-137.593
0
LINE
8
BLACK
6
CONTINUOUS
10
178.826
20
-137.593
11
178.826
21
-137.212
0
LINE
8
BLACK
6
CONTINUOUS
10
178.826
20
-137.212
11
178.731
21
-136.736
0
LINE
8
BLACK
6
CONTINUOUS
10
178.731
20
-136.736
11
178.635
21
-136.45
0
LINE
8
BLACK
6
CONTINUOUS
10
178.635
20
-136.45
11
178.54
21
-136.26
0
LINE
8
BLACK
6
CONTINUOUS
10
178.54
20
-136.26
11
178.35
21
-135.974
0
LINE
8
BLACK
6
CONTINUOUS
10
178.35
20
-135.974
11
178.255
21
-135.879
  0
ENDSEC
  0
EOF
