  0
SECTION
  2
HEADER
  9
$ANGBASE
  50
0.0
  9
$ANGDIR
  70
1
  9
$MEASUREMENT
  70
1
  0
ENDSEC
  0
SECTION
  2
TABLES
  0
TABLE
  2
LTYPE
  70
4
  0
LTYPE
  5
40F
  2
CONTINUOUS
  70
0
  3
Solid line
  72
65
  73
0
  40
0.0
  0
LTYPE
  5
410
  2
DASHDOT
 70
0
  3
Dash Dot ____ _ ____ _
 72
65
 73
4
 40
2.0
 49
1.25
 49
-0.25
 49
0.25
 49
-0.25
  0
LTYPE
  5
411
  2
DASHED
 70
0
  3
Dashed __ __ __ __ __
 72
65
 73
2
 40
0.75
 49
0.5
 49
-0.25
  0
LTYPE
  5
43B
  2
DOTTED
 70
0
  3
Dotted .  .  .  .
 72
65
 73
2
 40
0.2
 49
0.0
 49
-0.2
  0
ENDTAB
  0
TABLE
  2
STYLE
  70
4
  0
STYLE
  2
KICAD
  70
0
  40
0
  41
1
  42
1
  50
0
  71
0
  3
isocp.shx
  0
STYLE
  2
KICADB
  70
0
  40
0
  41
1
  42
1
  50
0
  71
0
  3
isocp.shx
  0
STYLE
  2
KICADI
  70
0
  40
0
  41
1
  42
1
  50
15
  71
0
  3
isocp.shx
  0
STYLE
  2
KICADBI
  70
0
  40
0
  41
1
  42
1
  50
15
  71
0
  3
isocp.shx
  0
ENDTAB
  0
TABLE
  2
LAYER
  70
1
  0
LAYER
  2
BLACK
  70
0
  62
7
  6
CONTINUOUS
  0
ENDTAB
  0
ENDSEC
  0
SECTION
  2
ENTITIES
0
LINE
8
BLACK
6
CONTINUOUS
10
226.015
20
-62.9049
11
226.031
21
-62.9049
0
LINE
8
BLACK
6
CONTINUOUS
10
226.031
20
-62.9049
11
226.044
21
-62.9142
0
LINE
8
BLACK
6
CONTINUOUS
10
226.044
20
-62.9142
11
226.059
21
-62.9191
0
LINE
8
BLACK
6
CONTINUOUS
10
226.059
20
-62.9191
11
226.068
21
-62.9319
0
LINE
8
BLACK
6
CONTINUOUS
10
226.068
20
-62.9319
11
226.081
21
-62.9412
0
LINE
8
BLACK
6
CONTINUOUS
10
226.081
20
-62.9412
11
226.086
21
-62.9563
0
LINE
8
BLACK
6
CONTINUOUS
10
226.086
20
-62.9563
11
226.095
21
-62.9691
0
LINE
8
BLACK
6
CONTINUOUS
10
226.095
20
-62.9691
11
226.095
21
-62.9849
0
LINE
8
BLACK
6
CONTINUOUS
10
226.095
20
-62.9849
11
226.1
21
-63
0
LINE
8
BLACK
6
CONTINUOUS
10
226.1
20
-63
11
226.1
21
-133
0
LINE
8
BLACK
6
CONTINUOUS
10
226.1
20
-133
11
226.095
21
-133.015
0
LINE
8
BLACK
6
CONTINUOUS
10
226.095
20
-133.015
11
226.095
21
-133.031
0
LINE
8
BLACK
6
CONTINUOUS
10
226.095
20
-133.031
11
226.086
21
-133.044
0
LINE
8
BLACK
6
CONTINUOUS
10
226.086
20
-133.044
11
226.081
21
-133.059
0
LINE
8
BLACK
6
CONTINUOUS
10
226.081
20
-133.059
11
226.068
21
-133.068
0
LINE
8
BLACK
6
CONTINUOUS
10
226.068
20
-133.068
11
226.059
21
-133.081
0
LINE
8
BLACK
6
CONTINUOUS
10
226.059
20
-133.081
11
226.044
21
-133.086
0
LINE
8
BLACK
6
CONTINUOUS
10
226.044
20
-133.086
11
226.031
21
-133.095
0
LINE
8
BLACK
6
CONTINUOUS
10
226.031
20
-133.095
11
226.015
21
-133.095
0
LINE
8
BLACK
6
CONTINUOUS
10
226.015
20
-133.095
11
226
21
-133.1
0
LINE
8
BLACK
6
CONTINUOUS
10
226
20
-133.1
11
66
21
-133.1
0
LINE
8
BLACK
6
CONTINUOUS
10
66
20
-133.1
11
65.9849
21
-133.095
0
LINE
8
BLACK
6
CONTINUOUS
10
65.9849
20
-133.095
11
65.9691
21
-133.095
0
LINE
8
BLACK
6
CONTINUOUS
10
65.9691
20
-133.095
11
65.9563
21
-133.086
0
LINE
8
BLACK
6
CONTINUOUS
10
65.9563
20
-133.086
11
65.9412
21
-133.081
0
LINE
8
BLACK
6
CONTINUOUS
10
65.9412
20
-133.081
11
65.9319
21
-133.068
0
LINE
8
BLACK
6
CONTINUOUS
10
65.9319
20
-133.068
11
65.9191
21
-133.059
0
LINE
8
BLACK
6
CONTINUOUS
10
65.9191
20
-133.059
11
65.9142
21
-133.044
0
LINE
8
BLACK
6
CONTINUOUS
10
65.9142
20
-133.044
11
65.9049
21
-133.031
0
LINE
8
BLACK
6
CONTINUOUS
10
65.9049
20
-133.031
11
65.9049
21
-133.015
0
LINE
8
BLACK
6
CONTINUOUS
10
65.9049
20
-133.015
11
65.9
21
-133
0
LINE
8
BLACK
6
CONTINUOUS
10
65.9
20
-133
11
65.9
21
-63
0
LINE
8
BLACK
6
CONTINUOUS
10
65.9
20
-63
11
65.9049
21
-62.9849
0
LINE
8
BLACK
6
CONTINUOUS
10
65.9049
20
-62.9849
11
65.9049
21
-62.9691
0
LINE
8
BLACK
6
CONTINUOUS
10
65.9049
20
-62.9691
11
65.9142
21
-62.9563
0
LINE
8
BLACK
6
CONTINUOUS
10
65.9142
20
-62.9563
11
65.9191
21
-62.9412
0
LINE
8
BLACK
6
CONTINUOUS
10
65.9191
20
-62.9412
11
65.9319
21
-62.9319
0
LINE
8
BLACK
6
CONTINUOUS
10
65.9319
20
-62.9319
11
65.9412
21
-62.9191
0
LINE
8
BLACK
6
CONTINUOUS
10
65.9412
20
-62.9191
11
65.9563
21
-62.9142
0
LINE
8
BLACK
6
CONTINUOUS
10
65.9563
20
-62.9142
11
65.9691
21
-62.9049
0
LINE
8
BLACK
6
CONTINUOUS
10
65.9691
20
-62.9049
11
65.9849
21
-62.9049
0
LINE
8
BLACK
6
CONTINUOUS
10
65.9849
20
-62.9049
11
66
21
-62.9
0
LINE
8
BLACK
6
CONTINUOUS
10
66
20
-62.9
11
226
21
-62.9
0
LINE
8
BLACK
6
CONTINUOUS
10
226
20
-62.9
11
226.015
21
-62.9049
0
LINE
8
BLACK
6
CONTINUOUS
10
66.1
20
-63.1
11
66.1
21
-132.9
0
LINE
8
BLACK
6
CONTINUOUS
10
66.1
20
-132.9
11
225.9
21
-132.9
0
LINE
8
BLACK
6
CONTINUOUS
10
225.9
20
-132.9
11
225.9
21
-63.1
0
LINE
8
BLACK
6
CONTINUOUS
10
225.9
20
-63.1
11
66.1
21
-63.1
0
LINE
8
BLACK
6
CONTINUOUS
10
110.478
20
-122.506
11
110.574
21
-122.274
0
LINE
8
BLACK
6
CONTINUOUS
10
110.574
20
-122.274
11
110.706
21
-122.06
0
LINE
8
BLACK
6
CONTINUOUS
10
110.706
20
-122.06
11
110.869
21
-121.869
0
LINE
8
BLACK
6
CONTINUOUS
10
110.869
20
-121.869
11
111.06
21
-121.706
0
LINE
8
BLACK
6
CONTINUOUS
10
111.06
20
-121.706
11
111.274
21
-121.574
0
LINE
8
BLACK
6
CONTINUOUS
10
111.274
20
-121.574
11
111.506
21
-121.478
0
LINE
8
BLACK
6
CONTINUOUS
10
111.506
20
-121.478
11
111.75
21
-121.42
0
LINE
8
BLACK
6
CONTINUOUS
10
111.75
20
-121.42
11
112
21
-121.4
0
LINE
8
BLACK
6
CONTINUOUS
10
112
20
-121.4
11
112.25
21
-121.42
0
LINE
8
BLACK
6
CONTINUOUS
10
112.25
20
-121.42
11
112.494
21
-121.478
0
LINE
8
BLACK
6
CONTINUOUS
10
112.494
20
-121.478
11
112.726
21
-121.574
0
LINE
8
BLACK
6
CONTINUOUS
10
112.726
20
-121.574
11
112.94
21
-121.706
0
LINE
8
BLACK
6
CONTINUOUS
10
112.94
20
-121.706
11
113.131
21
-121.869
0
LINE
8
BLACK
6
CONTINUOUS
10
113.131
20
-121.869
11
113.294
21
-122.06
0
LINE
8
BLACK
6
CONTINUOUS
10
113.294
20
-122.06
11
113.426
21
-122.274
0
LINE
8
BLACK
6
CONTINUOUS
10
113.426
20
-122.274
11
113.522
21
-122.506
0
LINE
8
BLACK
6
CONTINUOUS
10
113.522
20
-122.506
11
113.58
21
-122.75
0
LINE
8
BLACK
6
CONTINUOUS
10
113.58
20
-122.75
11
113.6
21
-123
0
LINE
8
BLACK
6
CONTINUOUS
10
113.6
20
-123
11
113.58
21
-123.25
0
LINE
8
BLACK
6
CONTINUOUS
10
113.58
20
-123.25
11
113.522
21
-123.494
0
LINE
8
BLACK
6
CONTINUOUS
10
113.522
20
-123.494
11
113.426
21
-123.726
0
LINE
8
BLACK
6
CONTINUOUS
10
113.426
20
-123.726
11
113.294
21
-123.94
0
LINE
8
BLACK
6
CONTINUOUS
10
113.294
20
-123.94
11
113.131
21
-124.131
0
LINE
8
BLACK
6
CONTINUOUS
10
113.131
20
-124.131
11
112.94
21
-124.294
0
LINE
8
BLACK
6
CONTINUOUS
10
112.94
20
-124.294
11
112.726
21
-124.426
0
LINE
8
BLACK
6
CONTINUOUS
10
112.726
20
-124.426
11
112.494
21
-124.522
0
LINE
8
BLACK
6
CONTINUOUS
10
112.494
20
-124.522
11
112.25
21
-124.58
0
LINE
8
BLACK
6
CONTINUOUS
10
112.25
20
-124.58
11
112
21
-124.6
0
LINE
8
BLACK
6
CONTINUOUS
10
112
20
-124.6
11
111.75
21
-124.58
0
LINE
8
BLACK
6
CONTINUOUS
10
111.75
20
-124.58
11
111.506
21
-124.522
0
LINE
8
BLACK
6
CONTINUOUS
10
111.506
20
-124.522
11
111.274
21
-124.426
0
LINE
8
BLACK
6
CONTINUOUS
10
111.274
20
-124.426
11
111.06
21
-124.294
0
LINE
8
BLACK
6
CONTINUOUS
10
111.06
20
-124.294
11
110.869
21
-124.131
0
LINE
8
BLACK
6
CONTINUOUS
10
110.869
20
-124.131
11
110.706
21
-123.94
0
LINE
8
BLACK
6
CONTINUOUS
10
110.706
20
-123.94
11
110.574
21
-123.726
0
LINE
8
BLACK
6
CONTINUOUS
10
110.574
20
-123.726
11
110.478
21
-123.494
0
LINE
8
BLACK
6
CONTINUOUS
10
110.478
20
-123.494
11
110.42
21
-123.25
0
LINE
8
BLACK
6
CONTINUOUS
10
110.42
20
-123.25
11
110.4
21
-123
0
LINE
8
BLACK
6
CONTINUOUS
10
110.4
20
-123
11
110.403
21
-122.966
0
LINE
8
BLACK
6
CONTINUOUS
10
110.403
20
-122.966
11
110.42
21
-122.75
0
LINE
8
BLACK
6
CONTINUOUS
10
110.42
20
-122.75
11
110.478
21
-122.506
0
LINE
8
BLACK
6
CONTINUOUS
10
110.659
20
-123.42
11
110.746
21
-123.633
0
LINE
8
BLACK
6
CONTINUOUS
10
110.746
20
-123.633
11
110.866
21
-123.83
0
LINE
8
BLACK
6
CONTINUOUS
10
110.866
20
-123.83
11
111.017
21
-124.004
0
LINE
8
BLACK
6
CONTINUOUS
10
111.017
20
-124.004
11
111.194
21
-124.151
0
LINE
8
BLACK
6
CONTINUOUS
10
111.194
20
-124.151
11
111.393
21
-124.267
0
LINE
8
BLACK
6
CONTINUOUS
10
111.393
20
-124.267
11
111.608
21
-124.349
0
LINE
8
BLACK
6
CONTINUOUS
10
111.608
20
-124.349
11
111.834
21
-124.395
0
LINE
8
BLACK
6
CONTINUOUS
10
111.834
20
-124.395
11
112.064
21
-124.403
0
LINE
8
BLACK
6
CONTINUOUS
10
112.064
20
-124.403
11
112.292
21
-124.374
0
LINE
8
BLACK
6
CONTINUOUS
10
112.292
20
-124.374
11
112.513
21
-124.308
0
LINE
8
BLACK
6
CONTINUOUS
10
112.513
20
-124.308
11
112.719
21
-124.207
0
LINE
8
BLACK
6
CONTINUOUS
10
112.719
20
-124.207
11
112.907
21
-124.073
0
LINE
8
BLACK
6
CONTINUOUS
10
112.907
20
-124.073
11
113.07
21
-123.91
0
LINE
8
BLACK
6
CONTINUOUS
10
113.07
20
-123.91
11
113.204
21
-123.724
0
LINE
8
BLACK
6
CONTINUOUS
10
113.204
20
-123.724
11
113.306
21
-123.517
0
LINE
8
BLACK
6
CONTINUOUS
10
113.306
20
-123.517
11
113.373
21
-123.297
0
LINE
8
BLACK
6
CONTINUOUS
10
113.373
20
-123.297
11
113.403
21
-123.069
0
LINE
8
BLACK
6
CONTINUOUS
10
113.403
20
-123.069
11
113.405
21
-123
0
LINE
8
BLACK
6
CONTINUOUS
10
113.405
20
-123
11
113.386
21
-122.771
0
LINE
8
BLACK
6
CONTINUOUS
10
113.386
20
-122.771
11
113.33
21
-122.547
0
LINE
8
BLACK
6
CONTINUOUS
10
113.33
20
-122.547
11
113.238
21
-122.336
0
LINE
8
BLACK
6
CONTINUOUS
10
113.238
20
-122.336
11
113.113
21
-122.143
0
LINE
8
BLACK
6
CONTINUOUS
10
113.113
20
-122.143
11
112.958
21
-121.973
0
LINE
8
BLACK
6
CONTINUOUS
10
112.958
20
-121.973
11
112.777
21
-121.83
0
LINE
8
BLACK
6
CONTINUOUS
10
112.777
20
-121.83
11
112.576
21
-121.719
0
LINE
8
BLACK
6
CONTINUOUS
10
112.576
20
-121.719
11
112.359
21
-121.642
0
LINE
8
BLACK
6
CONTINUOUS
10
112.359
20
-121.642
11
112.132
21
-121.601
0
LINE
8
BLACK
6
CONTINUOUS
10
112.132
20
-121.601
11
111.902
21
-121.599
0
LINE
8
BLACK
6
CONTINUOUS
10
111.902
20
-121.599
11
111.674
21
-121.633
0
LINE
8
BLACK
6
CONTINUOUS
10
111.674
20
-121.633
11
111.456
21
-121.705
0
LINE
8
BLACK
6
CONTINUOUS
10
111.456
20
-121.705
11
111.251
21
-121.811
0
LINE
8
BLACK
6
CONTINUOUS
10
111.251
20
-121.811
11
111.067
21
-121.949
0
LINE
8
BLACK
6
CONTINUOUS
10
111.067
20
-121.949
11
110.908
21
-122.116
0
LINE
8
BLACK
6
CONTINUOUS
10
110.908
20
-122.116
11
110.779
21
-122.306
0
LINE
8
BLACK
6
CONTINUOUS
10
110.779
20
-122.306
11
110.682
21
-122.515
0
LINE
8
BLACK
6
CONTINUOUS
10
110.682
20
-122.515
11
110.62
21
-122.737
0
LINE
8
BLACK
6
CONTINUOUS
10
110.62
20
-122.737
11
110.596
21
-122.966
0
LINE
8
BLACK
6
CONTINUOUS
10
110.596
20
-122.966
11
110.609
21
-123.196
0
LINE
8
BLACK
6
CONTINUOUS
10
110.609
20
-123.196
11
110.659
21
-123.42
0
LINE
8
BLACK
6
CONTINUOUS
10
217.478
20
-122.506
11
217.574
21
-122.274
0
LINE
8
BLACK
6
CONTINUOUS
10
217.574
20
-122.274
11
217.706
21
-122.06
0
LINE
8
BLACK
6
CONTINUOUS
10
217.706
20
-122.06
11
217.869
21
-121.869
0
LINE
8
BLACK
6
CONTINUOUS
10
217.869
20
-121.869
11
218.06
21
-121.706
0
LINE
8
BLACK
6
CONTINUOUS
10
218.06
20
-121.706
11
218.274
21
-121.574
0
LINE
8
BLACK
6
CONTINUOUS
10
218.274
20
-121.574
11
218.506
21
-121.478
0
LINE
8
BLACK
6
CONTINUOUS
10
218.506
20
-121.478
11
218.75
21
-121.42
0
LINE
8
BLACK
6
CONTINUOUS
10
218.75
20
-121.42
11
219
21
-121.4
0
LINE
8
BLACK
6
CONTINUOUS
10
219
20
-121.4
11
219.25
21
-121.42
0
LINE
8
BLACK
6
CONTINUOUS
10
219.25
20
-121.42
11
219.494
21
-121.478
0
LINE
8
BLACK
6
CONTINUOUS
10
219.494
20
-121.478
11
219.726
21
-121.574
0
LINE
8
BLACK
6
CONTINUOUS
10
219.726
20
-121.574
11
219.94
21
-121.706
0
LINE
8
BLACK
6
CONTINUOUS
10
219.94
20
-121.706
11
220.131
21
-121.869
0
LINE
8
BLACK
6
CONTINUOUS
10
220.131
20
-121.869
11
220.294
21
-122.06
0
LINE
8
BLACK
6
CONTINUOUS
10
220.294
20
-122.06
11
220.426
21
-122.274
0
LINE
8
BLACK
6
CONTINUOUS
10
220.426
20
-122.274
11
220.522
21
-122.506
0
LINE
8
BLACK
6
CONTINUOUS
10
220.522
20
-122.506
11
220.58
21
-122.75
0
LINE
8
BLACK
6
CONTINUOUS
10
220.58
20
-122.75
11
220.6
21
-123
0
LINE
8
BLACK
6
CONTINUOUS
10
220.6
20
-123
11
220.58
21
-123.25
0
LINE
8
BLACK
6
CONTINUOUS
10
220.58
20
-123.25
11
220.522
21
-123.494
0
LINE
8
BLACK
6
CONTINUOUS
10
220.522
20
-123.494
11
220.426
21
-123.726
0
LINE
8
BLACK
6
CONTINUOUS
10
220.426
20
-123.726
11
220.294
21
-123.94
0
LINE
8
BLACK
6
CONTINUOUS
10
220.294
20
-123.94
11
220.131
21
-124.131
0
LINE
8
BLACK
6
CONTINUOUS
10
220.131
20
-124.131
11
219.94
21
-124.294
0
LINE
8
BLACK
6
CONTINUOUS
10
219.94
20
-124.294
11
219.726
21
-124.426
0
LINE
8
BLACK
6
CONTINUOUS
10
219.726
20
-124.426
11
219.494
21
-124.522
0
LINE
8
BLACK
6
CONTINUOUS
10
219.494
20
-124.522
11
219.25
21
-124.58
0
LINE
8
BLACK
6
CONTINUOUS
10
219.25
20
-124.58
11
219
21
-124.6
0
LINE
8
BLACK
6
CONTINUOUS
10
219
20
-124.6
11
218.75
21
-124.58
0
LINE
8
BLACK
6
CONTINUOUS
10
218.75
20
-124.58
11
218.506
21
-124.522
0
LINE
8
BLACK
6
CONTINUOUS
10
218.506
20
-124.522
11
218.274
21
-124.426
0
LINE
8
BLACK
6
CONTINUOUS
10
218.274
20
-124.426
11
218.06
21
-124.294
0
LINE
8
BLACK
6
CONTINUOUS
10
218.06
20
-124.294
11
217.869
21
-124.131
0
LINE
8
BLACK
6
CONTINUOUS
10
217.869
20
-124.131
11
217.706
21
-123.94
0
LINE
8
BLACK
6
CONTINUOUS
10
217.706
20
-123.94
11
217.574
21
-123.726
0
LINE
8
BLACK
6
CONTINUOUS
10
217.574
20
-123.726
11
217.478
21
-123.494
0
LINE
8
BLACK
6
CONTINUOUS
10
217.478
20
-123.494
11
217.42
21
-123.25
0
LINE
8
BLACK
6
CONTINUOUS
10
217.42
20
-123.25
11
217.4
21
-123
0
LINE
8
BLACK
6
CONTINUOUS
10
217.4
20
-123
11
217.403
21
-122.966
0
LINE
8
BLACK
6
CONTINUOUS
10
217.403
20
-122.966
11
217.42
21
-122.75
0
LINE
8
BLACK
6
CONTINUOUS
10
217.42
20
-122.75
11
217.478
21
-122.506
0
LINE
8
BLACK
6
CONTINUOUS
10
217.659
20
-123.42
11
217.746
21
-123.633
0
LINE
8
BLACK
6
CONTINUOUS
10
217.746
20
-123.633
11
217.866
21
-123.83
0
LINE
8
BLACK
6
CONTINUOUS
10
217.866
20
-123.83
11
218.017
21
-124.004
0
LINE
8
BLACK
6
CONTINUOUS
10
218.017
20
-124.004
11
218.194
21
-124.151
0
LINE
8
BLACK
6
CONTINUOUS
10
218.194
20
-124.151
11
218.393
21
-124.267
0
LINE
8
BLACK
6
CONTINUOUS
10
218.393
20
-124.267
11
218.608
21
-124.349
0
LINE
8
BLACK
6
CONTINUOUS
10
218.608
20
-124.349
11
218.834
21
-124.395
0
LINE
8
BLACK
6
CONTINUOUS
10
218.834
20
-124.395
11
219.064
21
-124.403
0
LINE
8
BLACK
6
CONTINUOUS
10
219.064
20
-124.403
11
219.292
21
-124.374
0
LINE
8
BLACK
6
CONTINUOUS
10
219.292
20
-124.374
11
219.513
21
-124.308
0
LINE
8
BLACK
6
CONTINUOUS
10
219.513
20
-124.308
11
219.719
21
-124.207
0
LINE
8
BLACK
6
CONTINUOUS
10
219.719
20
-124.207
11
219.907
21
-124.073
0
LINE
8
BLACK
6
CONTINUOUS
10
219.907
20
-124.073
11
220.07
21
-123.91
0
LINE
8
BLACK
6
CONTINUOUS
10
220.07
20
-123.91
11
220.204
21
-123.724
0
LINE
8
BLACK
6
CONTINUOUS
10
220.204
20
-123.724
11
220.306
21
-123.517
0
LINE
8
BLACK
6
CONTINUOUS
10
220.306
20
-123.517
11
220.373
21
-123.297
0
LINE
8
BLACK
6
CONTINUOUS
10
220.373
20
-123.297
11
220.403
21
-123.069
0
LINE
8
BLACK
6
CONTINUOUS
10
220.403
20
-123.069
11
220.405
21
-123
0
LINE
8
BLACK
6
CONTINUOUS
10
220.405
20
-123
11
220.386
21
-122.771
0
LINE
8
BLACK
6
CONTINUOUS
10
220.386
20
-122.771
11
220.33
21
-122.547
0
LINE
8
BLACK
6
CONTINUOUS
10
220.33
20
-122.547
11
220.238
21
-122.336
0
LINE
8
BLACK
6
CONTINUOUS
10
220.238
20
-122.336
11
220.113
21
-122.143
0
LINE
8
BLACK
6
CONTINUOUS
10
220.113
20
-122.143
11
219.958
21
-121.973
0
LINE
8
BLACK
6
CONTINUOUS
10
219.958
20
-121.973
11
219.777
21
-121.83
0
LINE
8
BLACK
6
CONTINUOUS
10
219.777
20
-121.83
11
219.576
21
-121.719
0
LINE
8
BLACK
6
CONTINUOUS
10
219.576
20
-121.719
11
219.359
21
-121.642
0
LINE
8
BLACK
6
CONTINUOUS
10
219.359
20
-121.642
11
219.132
21
-121.601
0
LINE
8
BLACK
6
CONTINUOUS
10
219.132
20
-121.601
11
218.902
21
-121.599
0
LINE
8
BLACK
6
CONTINUOUS
10
218.902
20
-121.599
11
218.674
21
-121.633
0
LINE
8
BLACK
6
CONTINUOUS
10
218.674
20
-121.633
11
218.456
21
-121.705
0
LINE
8
BLACK
6
CONTINUOUS
10
218.456
20
-121.705
11
218.251
21
-121.811
0
LINE
8
BLACK
6
CONTINUOUS
10
218.251
20
-121.811
11
218.067
21
-121.949
0
LINE
8
BLACK
6
CONTINUOUS
10
218.067
20
-121.949
11
217.908
21
-122.116
0
LINE
8
BLACK
6
CONTINUOUS
10
217.908
20
-122.116
11
217.779
21
-122.306
0
LINE
8
BLACK
6
CONTINUOUS
10
217.779
20
-122.306
11
217.682
21
-122.515
0
LINE
8
BLACK
6
CONTINUOUS
10
217.682
20
-122.515
11
217.62
21
-122.737
0
LINE
8
BLACK
6
CONTINUOUS
10
217.62
20
-122.737
11
217.596
21
-122.966
0
LINE
8
BLACK
6
CONTINUOUS
10
217.596
20
-122.966
11
217.609
21
-123.196
0
LINE
8
BLACK
6
CONTINUOUS
10
217.609
20
-123.196
11
217.659
21
-123.42
0
LINE
8
BLACK
6
CONTINUOUS
10
74.4783
20
-122.506
11
74.5744
21
-122.274
0
LINE
8
BLACK
6
CONTINUOUS
10
74.5744
20
-122.274
11
74.7056
21
-122.06
0
LINE
8
BLACK
6
CONTINUOUS
10
74.7056
20
-122.06
11
74.8686
21
-121.869
0
LINE
8
BLACK
6
CONTINUOUS
10
74.8686
20
-121.869
11
75.0595
21
-121.706
0
LINE
8
BLACK
6
CONTINUOUS
10
75.0595
20
-121.706
11
75.2736
21
-121.574
0
LINE
8
BLACK
6
CONTINUOUS
10
75.2736
20
-121.574
11
75.5056
21
-121.478
0
LINE
8
BLACK
6
CONTINUOUS
10
75.5056
20
-121.478
11
75.7497
21
-121.42
0
LINE
8
BLACK
6
CONTINUOUS
10
75.7497
20
-121.42
11
76
21
-121.4
0
LINE
8
BLACK
6
CONTINUOUS
10
76
20
-121.4
11
76.2503
21
-121.42
0
LINE
8
BLACK
6
CONTINUOUS
10
76.2503
20
-121.42
11
76.4944
21
-121.478
0
LINE
8
BLACK
6
CONTINUOUS
10
76.4944
20
-121.478
11
76.7264
21
-121.574
0
LINE
8
BLACK
6
CONTINUOUS
10
76.7264
20
-121.574
11
76.9405
21
-121.706
0
LINE
8
BLACK
6
CONTINUOUS
10
76.9405
20
-121.706
11
77.1314
21
-121.869
0
LINE
8
BLACK
6
CONTINUOUS
10
77.1314
20
-121.869
11
77.2944
21
-122.06
0
LINE
8
BLACK
6
CONTINUOUS
10
77.2944
20
-122.06
11
77.4256
21
-122.274
0
LINE
8
BLACK
6
CONTINUOUS
10
77.4256
20
-122.274
11
77.5217
21
-122.506
0
LINE
8
BLACK
6
CONTINUOUS
10
77.5217
20
-122.506
11
77.5803
21
-122.75
0
LINE
8
BLACK
6
CONTINUOUS
10
77.5803
20
-122.75
11
77.6
21
-123
0
LINE
8
BLACK
6
CONTINUOUS
10
77.6
20
-123
11
77.5803
21
-123.25
0
LINE
8
BLACK
6
CONTINUOUS
10
77.5803
20
-123.25
11
77.5217
21
-123.494
0
LINE
8
BLACK
6
CONTINUOUS
10
77.5217
20
-123.494
11
77.4256
21
-123.726
0
LINE
8
BLACK
6
CONTINUOUS
10
77.4256
20
-123.726
11
77.2944
21
-123.94
0
LINE
8
BLACK
6
CONTINUOUS
10
77.2944
20
-123.94
11
77.1314
21
-124.131
0
LINE
8
BLACK
6
CONTINUOUS
10
77.1314
20
-124.131
11
76.9405
21
-124.294
0
LINE
8
BLACK
6
CONTINUOUS
10
76.9405
20
-124.294
11
76.7264
21
-124.426
0
LINE
8
BLACK
6
CONTINUOUS
10
76.7264
20
-124.426
11
76.4944
21
-124.522
0
LINE
8
BLACK
6
CONTINUOUS
10
76.4944
20
-124.522
11
76.2503
21
-124.58
0
LINE
8
BLACK
6
CONTINUOUS
10
76.2503
20
-124.58
11
76
21
-124.6
0
LINE
8
BLACK
6
CONTINUOUS
10
76
20
-124.6
11
75.7497
21
-124.58
0
LINE
8
BLACK
6
CONTINUOUS
10
75.7497
20
-124.58
11
75.5056
21
-124.522
0
LINE
8
BLACK
6
CONTINUOUS
10
75.5056
20
-124.522
11
75.2736
21
-124.426
0
LINE
8
BLACK
6
CONTINUOUS
10
75.2736
20
-124.426
11
75.0595
21
-124.294
0
LINE
8
BLACK
6
CONTINUOUS
10
75.0595
20
-124.294
11
74.8686
21
-124.131
0
LINE
8
BLACK
6
CONTINUOUS
10
74.8686
20
-124.131
11
74.7056
21
-123.94
0
LINE
8
BLACK
6
CONTINUOUS
10
74.7056
20
-123.94
11
74.5744
21
-123.726
0
LINE
8
BLACK
6
CONTINUOUS
10
74.5744
20
-123.726
11
74.4783
21
-123.494
0
LINE
8
BLACK
6
CONTINUOUS
10
74.4783
20
-123.494
11
74.4197
21
-123.25
0
LINE
8
BLACK
6
CONTINUOUS
10
74.4197
20
-123.25
11
74.4
21
-123
0
LINE
8
BLACK
6
CONTINUOUS
10
74.4
20
-123
11
74.4027
21
-122.966
0
LINE
8
BLACK
6
CONTINUOUS
10
74.4027
20
-122.966
11
74.4197
21
-122.75
0
LINE
8
BLACK
6
CONTINUOUS
10
74.4197
20
-122.75
11
74.4783
21
-122.506
0
LINE
8
BLACK
6
CONTINUOUS
10
74.6595
20
-123.42
11
74.7461
21
-123.633
0
LINE
8
BLACK
6
CONTINUOUS
10
74.7461
20
-123.633
11
74.8664
21
-123.83
0
LINE
8
BLACK
6
CONTINUOUS
10
74.8664
20
-123.83
11
75.0171
21
-124.004
0
LINE
8
BLACK
6
CONTINUOUS
10
75.0171
20
-124.004
11
75.1942
21
-124.151
0
LINE
8
BLACK
6
CONTINUOUS
10
75.1942
20
-124.151
11
75.393
21
-124.267
0
LINE
8
BLACK
6
CONTINUOUS
10
75.393
20
-124.267
11
75.6081
21
-124.349
0
LINE
8
BLACK
6
CONTINUOUS
10
75.6081
20
-124.349
11
75.8337
21
-124.395
0
LINE
8
BLACK
6
CONTINUOUS
10
75.8337
20
-124.395
11
76.0637
21
-124.403
0
LINE
8
BLACK
6
CONTINUOUS
10
76.0637
20
-124.403
11
76.2921
21
-124.374
0
LINE
8
BLACK
6
CONTINUOUS
10
76.2921
20
-124.374
11
76.5126
21
-124.308
0
LINE
8
BLACK
6
CONTINUOUS
10
76.5126
20
-124.308
11
76.7193
21
-124.207
0
LINE
8
BLACK
6
CONTINUOUS
10
76.7193
20
-124.207
11
76.9067
21
-124.073
0
LINE
8
BLACK
6
CONTINUOUS
10
76.9067
20
-124.073
11
77.0698
21
-123.91
0
LINE
8
BLACK
6
CONTINUOUS
10
77.0698
20
-123.91
11
77.2041
21
-123.724
0
LINE
8
BLACK
6
CONTINUOUS
10
77.2041
20
-123.724
11
77.3061
21
-123.517
0
LINE
8
BLACK
6
CONTINUOUS
10
77.3061
20
-123.517
11
77.3731
21
-123.297
0
LINE
8
BLACK
6
CONTINUOUS
10
77.3731
20
-123.297
11
77.4031
21
-123.069
0
LINE
8
BLACK
6
CONTINUOUS
10
77.4031
20
-123.069
11
77.4048
21
-123
0
LINE
8
BLACK
6
CONTINUOUS
10
77.4048
20
-123
11
77.3859
21
-122.771
0
LINE
8
BLACK
6
CONTINUOUS
10
77.3859
20
-122.771
11
77.3299
21
-122.547
0
LINE
8
BLACK
6
CONTINUOUS
10
77.3299
20
-122.547
11
77.2381
21
-122.336
0
LINE
8
BLACK
6
CONTINUOUS
10
77.2381
20
-122.336
11
77.113
21
-122.143
0
LINE
8
BLACK
6
CONTINUOUS
10
77.113
20
-122.143
11
76.9581
21
-121.973
0
LINE
8
BLACK
6
CONTINUOUS
10
76.9581
20
-121.973
11
76.7774
21
-121.83
0
LINE
8
BLACK
6
CONTINUOUS
10
76.7774
20
-121.83
11
76.5759
21
-121.719
0
LINE
8
BLACK
6
CONTINUOUS
10
76.5759
20
-121.719
11
76.3588
21
-121.642
0
LINE
8
BLACK
6
CONTINUOUS
10
76.3588
20
-121.642
11
76.1322
21
-121.601
0
LINE
8
BLACK
6
CONTINUOUS
10
76.1322
20
-121.601
11
75.902
21
-121.599
0
LINE
8
BLACK
6
CONTINUOUS
10
75.902
20
-121.599
11
75.6744
21
-121.633
0
LINE
8
BLACK
6
CONTINUOUS
10
75.6744
20
-121.633
11
75.4556
21
-121.705
0
LINE
8
BLACK
6
CONTINUOUS
10
75.4556
20
-121.705
11
75.2514
21
-121.811
0
LINE
8
BLACK
6
CONTINUOUS
10
75.2514
20
-121.811
11
75.0673
21
-121.949
0
LINE
8
BLACK
6
CONTINUOUS
10
75.0673
20
-121.949
11
74.9083
21
-122.116
0
LINE
8
BLACK
6
CONTINUOUS
10
74.9083
20
-122.116
11
74.7785
21
-122.306
0
LINE
8
BLACK
6
CONTINUOUS
10
74.7785
20
-122.306
11
74.6816
21
-122.515
0
LINE
8
BLACK
6
CONTINUOUS
10
74.6816
20
-122.515
11
74.6201
21
-122.737
0
LINE
8
BLACK
6
CONTINUOUS
10
74.6201
20
-122.737
11
74.5956
21
-122.966
0
LINE
8
BLACK
6
CONTINUOUS
10
74.5956
20
-122.966
11
74.6089
21
-123.196
0
LINE
8
BLACK
6
CONTINUOUS
10
74.6089
20
-123.196
11
74.6595
21
-123.42
0
LINE
8
BLACK
6
CONTINUOUS
10
124.478
20
-122.506
11
124.574
21
-122.274
0
LINE
8
BLACK
6
CONTINUOUS
10
124.574
20
-122.274
11
124.706
21
-122.06
0
LINE
8
BLACK
6
CONTINUOUS
10
124.706
20
-122.06
11
124.869
21
-121.869
0
LINE
8
BLACK
6
CONTINUOUS
10
124.869
20
-121.869
11
125.06
21
-121.706
0
LINE
8
BLACK
6
CONTINUOUS
10
125.06
20
-121.706
11
125.274
21
-121.574
0
LINE
8
BLACK
6
CONTINUOUS
10
125.274
20
-121.574
11
125.506
21
-121.478
0
LINE
8
BLACK
6
CONTINUOUS
10
125.506
20
-121.478
11
125.75
21
-121.42
0
LINE
8
BLACK
6
CONTINUOUS
10
125.75
20
-121.42
11
126
21
-121.4
0
LINE
8
BLACK
6
CONTINUOUS
10
126
20
-121.4
11
126.25
21
-121.42
0
LINE
8
BLACK
6
CONTINUOUS
10
126.25
20
-121.42
11
126.494
21
-121.478
0
LINE
8
BLACK
6
CONTINUOUS
10
126.494
20
-121.478
11
126.726
21
-121.574
0
LINE
8
BLACK
6
CONTINUOUS
10
126.726
20
-121.574
11
126.94
21
-121.706
0
LINE
8
BLACK
6
CONTINUOUS
10
126.94
20
-121.706
11
127.131
21
-121.869
0
LINE
8
BLACK
6
CONTINUOUS
10
127.131
20
-121.869
11
127.294
21
-122.06
0
LINE
8
BLACK
6
CONTINUOUS
10
127.294
20
-122.06
11
127.426
21
-122.274
0
LINE
8
BLACK
6
CONTINUOUS
10
127.426
20
-122.274
11
127.522
21
-122.506
0
LINE
8
BLACK
6
CONTINUOUS
10
127.522
20
-122.506
11
127.58
21
-122.75
0
LINE
8
BLACK
6
CONTINUOUS
10
127.58
20
-122.75
11
127.6
21
-123
0
LINE
8
BLACK
6
CONTINUOUS
10
127.6
20
-123
11
127.58
21
-123.25
0
LINE
8
BLACK
6
CONTINUOUS
10
127.58
20
-123.25
11
127.522
21
-123.494
0
LINE
8
BLACK
6
CONTINUOUS
10
127.522
20
-123.494
11
127.426
21
-123.726
0
LINE
8
BLACK
6
CONTINUOUS
10
127.426
20
-123.726
11
127.294
21
-123.94
0
LINE
8
BLACK
6
CONTINUOUS
10
127.294
20
-123.94
11
127.131
21
-124.131
0
LINE
8
BLACK
6
CONTINUOUS
10
127.131
20
-124.131
11
126.94
21
-124.294
0
LINE
8
BLACK
6
CONTINUOUS
10
126.94
20
-124.294
11
126.726
21
-124.426
0
LINE
8
BLACK
6
CONTINUOUS
10
126.726
20
-124.426
11
126.494
21
-124.522
0
LINE
8
BLACK
6
CONTINUOUS
10
126.494
20
-124.522
11
126.25
21
-124.58
0
LINE
8
BLACK
6
CONTINUOUS
10
126.25
20
-124.58
11
126
21
-124.6
0
LINE
8
BLACK
6
CONTINUOUS
10
126
20
-124.6
11
125.75
21
-124.58
0
LINE
8
BLACK
6
CONTINUOUS
10
125.75
20
-124.58
11
125.506
21
-124.522
0
LINE
8
BLACK
6
CONTINUOUS
10
125.506
20
-124.522
11
125.274
21
-124.426
0
LINE
8
BLACK
6
CONTINUOUS
10
125.274
20
-124.426
11
125.06
21
-124.294
0
LINE
8
BLACK
6
CONTINUOUS
10
125.06
20
-124.294
11
124.869
21
-124.131
0
LINE
8
BLACK
6
CONTINUOUS
10
124.869
20
-124.131
11
124.706
21
-123.94
0
LINE
8
BLACK
6
CONTINUOUS
10
124.706
20
-123.94
11
124.574
21
-123.726
0
LINE
8
BLACK
6
CONTINUOUS
10
124.574
20
-123.726
11
124.478
21
-123.494
0
LINE
8
BLACK
6
CONTINUOUS
10
124.478
20
-123.494
11
124.42
21
-123.25
0
LINE
8
BLACK
6
CONTINUOUS
10
124.42
20
-123.25
11
124.4
21
-123
0
LINE
8
BLACK
6
CONTINUOUS
10
124.4
20
-123
11
124.403
21
-122.966
0
LINE
8
BLACK
6
CONTINUOUS
10
124.403
20
-122.966
11
124.42
21
-122.75
0
LINE
8
BLACK
6
CONTINUOUS
10
124.42
20
-122.75
11
124.478
21
-122.506
0
LINE
8
BLACK
6
CONTINUOUS
10
124.659
20
-123.42
11
124.746
21
-123.633
0
LINE
8
BLACK
6
CONTINUOUS
10
124.746
20
-123.633
11
124.866
21
-123.83
0
LINE
8
BLACK
6
CONTINUOUS
10
124.866
20
-123.83
11
125.017
21
-124.004
0
LINE
8
BLACK
6
CONTINUOUS
10
125.017
20
-124.004
11
125.194
21
-124.151
0
LINE
8
BLACK
6
CONTINUOUS
10
125.194
20
-124.151
11
125.393
21
-124.267
0
LINE
8
BLACK
6
CONTINUOUS
10
125.393
20
-124.267
11
125.608
21
-124.349
0
LINE
8
BLACK
6
CONTINUOUS
10
125.608
20
-124.349
11
125.834
21
-124.395
0
LINE
8
BLACK
6
CONTINUOUS
10
125.834
20
-124.395
11
126.064
21
-124.403
0
LINE
8
BLACK
6
CONTINUOUS
10
126.064
20
-124.403
11
126.292
21
-124.374
0
LINE
8
BLACK
6
CONTINUOUS
10
126.292
20
-124.374
11
126.513
21
-124.308
0
LINE
8
BLACK
6
CONTINUOUS
10
126.513
20
-124.308
11
126.719
21
-124.207
0
LINE
8
BLACK
6
CONTINUOUS
10
126.719
20
-124.207
11
126.907
21
-124.073
0
LINE
8
BLACK
6
CONTINUOUS
10
126.907
20
-124.073
11
127.07
21
-123.91
0
LINE
8
BLACK
6
CONTINUOUS
10
127.07
20
-123.91
11
127.204
21
-123.724
0
LINE
8
BLACK
6
CONTINUOUS
10
127.204
20
-123.724
11
127.306
21
-123.517
0
LINE
8
BLACK
6
CONTINUOUS
10
127.306
20
-123.517
11
127.373
21
-123.297
0
LINE
8
BLACK
6
CONTINUOUS
10
127.373
20
-123.297
11
127.403
21
-123.069
0
LINE
8
BLACK
6
CONTINUOUS
10
127.403
20
-123.069
11
127.405
21
-123
0
LINE
8
BLACK
6
CONTINUOUS
10
127.405
20
-123
11
127.386
21
-122.771
0
LINE
8
BLACK
6
CONTINUOUS
10
127.386
20
-122.771
11
127.33
21
-122.547
0
LINE
8
BLACK
6
CONTINUOUS
10
127.33
20
-122.547
11
127.238
21
-122.336
0
LINE
8
BLACK
6
CONTINUOUS
10
127.238
20
-122.336
11
127.113
21
-122.143
0
LINE
8
BLACK
6
CONTINUOUS
10
127.113
20
-122.143
11
126.958
21
-121.973
0
LINE
8
BLACK
6
CONTINUOUS
10
126.958
20
-121.973
11
126.777
21
-121.83
0
LINE
8
BLACK
6
CONTINUOUS
10
126.777
20
-121.83
11
126.576
21
-121.719
0
LINE
8
BLACK
6
CONTINUOUS
10
126.576
20
-121.719
11
126.359
21
-121.642
0
LINE
8
BLACK
6
CONTINUOUS
10
126.359
20
-121.642
11
126.132
21
-121.601
0
LINE
8
BLACK
6
CONTINUOUS
10
126.132
20
-121.601
11
125.902
21
-121.599
0
LINE
8
BLACK
6
CONTINUOUS
10
125.902
20
-121.599
11
125.674
21
-121.633
0
LINE
8
BLACK
6
CONTINUOUS
10
125.674
20
-121.633
11
125.456
21
-121.705
0
LINE
8
BLACK
6
CONTINUOUS
10
125.456
20
-121.705
11
125.251
21
-121.811
0
LINE
8
BLACK
6
CONTINUOUS
10
125.251
20
-121.811
11
125.067
21
-121.949
0
LINE
8
BLACK
6
CONTINUOUS
10
125.067
20
-121.949
11
124.908
21
-122.116
0
LINE
8
BLACK
6
CONTINUOUS
10
124.908
20
-122.116
11
124.779
21
-122.306
0
LINE
8
BLACK
6
CONTINUOUS
10
124.779
20
-122.306
11
124.682
21
-122.515
0
LINE
8
BLACK
6
CONTINUOUS
10
124.682
20
-122.515
11
124.62
21
-122.737
0
LINE
8
BLACK
6
CONTINUOUS
10
124.62
20
-122.737
11
124.596
21
-122.966
0
LINE
8
BLACK
6
CONTINUOUS
10
124.596
20
-122.966
11
124.609
21
-123.196
0
LINE
8
BLACK
6
CONTINUOUS
10
124.609
20
-123.196
11
124.659
21
-123.42
0
LINE
8
BLACK
6
CONTINUOUS
10
110.478
20
-82.5056
11
110.574
21
-82.2736
0
LINE
8
BLACK
6
CONTINUOUS
10
110.574
20
-82.2736
11
110.706
21
-82.0595
0
LINE
8
BLACK
6
CONTINUOUS
10
110.706
20
-82.0595
11
110.869
21
-81.8686
0
LINE
8
BLACK
6
CONTINUOUS
10
110.869
20
-81.8686
11
111.06
21
-81.7056
0
LINE
8
BLACK
6
CONTINUOUS
10
111.06
20
-81.7056
11
111.274
21
-81.5744
0
LINE
8
BLACK
6
CONTINUOUS
10
111.274
20
-81.5744
11
111.506
21
-81.4783
0
LINE
8
BLACK
6
CONTINUOUS
10
111.506
20
-81.4783
11
111.75
21
-81.4197
0
LINE
8
BLACK
6
CONTINUOUS
10
111.75
20
-81.4197
11
112
21
-81.4
0
LINE
8
BLACK
6
CONTINUOUS
10
112
20
-81.4
11
112.25
21
-81.4197
0
LINE
8
BLACK
6
CONTINUOUS
10
112.25
20
-81.4197
11
112.494
21
-81.4783
0
LINE
8
BLACK
6
CONTINUOUS
10
112.494
20
-81.4783
11
112.726
21
-81.5744
0
LINE
8
BLACK
6
CONTINUOUS
10
112.726
20
-81.5744
11
112.94
21
-81.7056
0
LINE
8
BLACK
6
CONTINUOUS
10
112.94
20
-81.7056
11
113.131
21
-81.8686
0
LINE
8
BLACK
6
CONTINUOUS
10
113.131
20
-81.8686
11
113.294
21
-82.0595
0
LINE
8
BLACK
6
CONTINUOUS
10
113.294
20
-82.0595
11
113.426
21
-82.2736
0
LINE
8
BLACK
6
CONTINUOUS
10
113.426
20
-82.2736
11
113.522
21
-82.5056
0
LINE
8
BLACK
6
CONTINUOUS
10
113.522
20
-82.5056
11
113.58
21
-82.7497
0
LINE
8
BLACK
6
CONTINUOUS
10
113.58
20
-82.7497
11
113.6
21
-83
0
LINE
8
BLACK
6
CONTINUOUS
10
113.6
20
-83
11
113.58
21
-83.2503
0
LINE
8
BLACK
6
CONTINUOUS
10
113.58
20
-83.2503
11
113.522
21
-83.4944
0
LINE
8
BLACK
6
CONTINUOUS
10
113.522
20
-83.4944
11
113.426
21
-83.7264
0
LINE
8
BLACK
6
CONTINUOUS
10
113.426
20
-83.7264
11
113.294
21
-83.9405
0
LINE
8
BLACK
6
CONTINUOUS
10
113.294
20
-83.9405
11
113.131
21
-84.1314
0
LINE
8
BLACK
6
CONTINUOUS
10
113.131
20
-84.1314
11
112.94
21
-84.2944
0
LINE
8
BLACK
6
CONTINUOUS
10
112.94
20
-84.2944
11
112.726
21
-84.4256
0
LINE
8
BLACK
6
CONTINUOUS
10
112.726
20
-84.4256
11
112.494
21
-84.5217
0
LINE
8
BLACK
6
CONTINUOUS
10
112.494
20
-84.5217
11
112.25
21
-84.5803
0
LINE
8
BLACK
6
CONTINUOUS
10
112.25
20
-84.5803
11
112
21
-84.6
0
LINE
8
BLACK
6
CONTINUOUS
10
112
20
-84.6
11
111.75
21
-84.5803
0
LINE
8
BLACK
6
CONTINUOUS
10
111.75
20
-84.5803
11
111.506
21
-84.5217
0
LINE
8
BLACK
6
CONTINUOUS
10
111.506
20
-84.5217
11
111.274
21
-84.4256
0
LINE
8
BLACK
6
CONTINUOUS
10
111.274
20
-84.4256
11
111.06
21
-84.2944
0
LINE
8
BLACK
6
CONTINUOUS
10
111.06
20
-84.2944
11
110.869
21
-84.1314
0
LINE
8
BLACK
6
CONTINUOUS
10
110.869
20
-84.1314
11
110.706
21
-83.9405
0
LINE
8
BLACK
6
CONTINUOUS
10
110.706
20
-83.9405
11
110.574
21
-83.7264
0
LINE
8
BLACK
6
CONTINUOUS
10
110.574
20
-83.7264
11
110.478
21
-83.4944
0
LINE
8
BLACK
6
CONTINUOUS
10
110.478
20
-83.4944
11
110.42
21
-83.2503
0
LINE
8
BLACK
6
CONTINUOUS
10
110.42
20
-83.2503
11
110.4
21
-83
0
LINE
8
BLACK
6
CONTINUOUS
10
110.4
20
-83
11
110.403
21
-82.9657
0
LINE
8
BLACK
6
CONTINUOUS
10
110.403
20
-82.9657
11
110.42
21
-82.7497
0
LINE
8
BLACK
6
CONTINUOUS
10
110.42
20
-82.7497
11
110.478
21
-82.5056
0
LINE
8
BLACK
6
CONTINUOUS
10
110.659
20
-83.4201
11
110.746
21
-83.6334
0
LINE
8
BLACK
6
CONTINUOUS
10
110.746
20
-83.6334
11
110.866
21
-83.8297
0
LINE
8
BLACK
6
CONTINUOUS
10
110.866
20
-83.8297
11
111.017
21
-84.0037
0
LINE
8
BLACK
6
CONTINUOUS
10
111.017
20
-84.0037
11
111.194
21
-84.1507
0
LINE
8
BLACK
6
CONTINUOUS
10
111.194
20
-84.1507
11
111.393
21
-84.2669
0
LINE
8
BLACK
6
CONTINUOUS
10
111.393
20
-84.2669
11
111.608
21
-84.349
0
LINE
8
BLACK
6
CONTINUOUS
10
111.608
20
-84.349
11
111.834
21
-84.3949
0
LINE
8
BLACK
6
CONTINUOUS
10
111.834
20
-84.3949
11
112.064
21
-84.4034
0
LINE
8
BLACK
6
CONTINUOUS
10
112.064
20
-84.4034
11
112.292
21
-84.3741
0
LINE
8
BLACK
6
CONTINUOUS
10
112.292
20
-84.3741
11
112.513
21
-84.3079
0
LINE
8
BLACK
6
CONTINUOUS
10
112.513
20
-84.3079
11
112.719
21
-84.2067
0
LINE
8
BLACK
6
CONTINUOUS
10
112.719
20
-84.2067
11
112.907
21
-84.073
0
LINE
8
BLACK
6
CONTINUOUS
10
112.907
20
-84.073
11
113.07
21
-83.9105
0
LINE
8
BLACK
6
CONTINUOUS
10
113.07
20
-83.9105
11
113.204
21
-83.7235
0
LINE
8
BLACK
6
CONTINUOUS
10
113.204
20
-83.7235
11
113.306
21
-83.5171
0
LINE
8
BLACK
6
CONTINUOUS
10
113.306
20
-83.5171
11
113.373
21
-83.2969
0
LINE
8
BLACK
6
CONTINUOUS
10
113.373
20
-83.2969
11
113.403
21
-83.0686
0
LINE
8
BLACK
6
CONTINUOUS
10
113.403
20
-83.0686
11
113.405
21
-83
0
LINE
8
BLACK
6
CONTINUOUS
10
113.405
20
-83
11
113.386
21
-82.7706
0
LINE
8
BLACK
6
CONTINUOUS
10
113.386
20
-82.7706
11
113.33
21
-82.5473
0
LINE
8
BLACK
6
CONTINUOUS
10
113.33
20
-82.5473
11
113.238
21
-82.3362
0
LINE
8
BLACK
6
CONTINUOUS
10
113.238
20
-82.3362
11
113.113
21
-82.1429
0
LINE
8
BLACK
6
CONTINUOUS
10
113.113
20
-82.1429
11
112.958
21
-81.9726
0
LINE
8
BLACK
6
CONTINUOUS
10
112.958
20
-81.9726
11
112.777
21
-81.8299
0
LINE
8
BLACK
6
CONTINUOUS
10
112.777
20
-81.8299
11
112.576
21
-81.7187
0
LINE
8
BLACK
6
CONTINUOUS
10
112.576
20
-81.7187
11
112.359
21
-81.6418
0
LINE
8
BLACK
6
CONTINUOUS
10
112.359
20
-81.6418
11
112.132
21
-81.6014
0
LINE
8
BLACK
6
CONTINUOUS
10
112.132
20
-81.6014
11
111.902
21
-81.5986
0
LINE
8
BLACK
6
CONTINUOUS
10
111.902
20
-81.5986
11
111.674
21
-81.6334
0
LINE
8
BLACK
6
CONTINUOUS
10
111.674
20
-81.6334
11
111.456
21
-81.705
0
LINE
8
BLACK
6
CONTINUOUS
10
111.456
20
-81.705
11
111.251
21
-81.8113
0
LINE
8
BLACK
6
CONTINUOUS
10
111.251
20
-81.8113
11
111.067
21
-81.9495
0
LINE
8
BLACK
6
CONTINUOUS
10
111.067
20
-81.9495
11
110.908
21
-82.1159
0
LINE
8
BLACK
6
CONTINUOUS
10
110.908
20
-82.1159
11
110.779
21
-82.3061
0
LINE
8
BLACK
6
CONTINUOUS
10
110.779
20
-82.3061
11
110.682
21
-82.5149
0
LINE
8
BLACK
6
CONTINUOUS
10
110.682
20
-82.5149
11
110.62
21
-82.7368
0
LINE
8
BLACK
6
CONTINUOUS
10
110.62
20
-82.7368
11
110.596
21
-82.9657
0
LINE
8
BLACK
6
CONTINUOUS
10
110.596
20
-82.9657
11
110.609
21
-83.1955
0
LINE
8
BLACK
6
CONTINUOUS
10
110.609
20
-83.1955
11
110.659
21
-83.4201
0
LINE
8
BLACK
6
CONTINUOUS
10
74.4783
20
-82.5056
11
74.5744
21
-82.2736
0
LINE
8
BLACK
6
CONTINUOUS
10
74.5744
20
-82.2736
11
74.7056
21
-82.0595
0
LINE
8
BLACK
6
CONTINUOUS
10
74.7056
20
-82.0595
11
74.8686
21
-81.8686
0
LINE
8
BLACK
6
CONTINUOUS
10
74.8686
20
-81.8686
11
75.0595
21
-81.7056
0
LINE
8
BLACK
6
CONTINUOUS
10
75.0595
20
-81.7056
11
75.2736
21
-81.5744
0
LINE
8
BLACK
6
CONTINUOUS
10
75.2736
20
-81.5744
11
75.5056
21
-81.4783
0
LINE
8
BLACK
6
CONTINUOUS
10
75.5056
20
-81.4783
11
75.7497
21
-81.4197
0
LINE
8
BLACK
6
CONTINUOUS
10
75.7497
20
-81.4197
11
76
21
-81.4
0
LINE
8
BLACK
6
CONTINUOUS
10
76
20
-81.4
11
76.2503
21
-81.4197
0
LINE
8
BLACK
6
CONTINUOUS
10
76.2503
20
-81.4197
11
76.4944
21
-81.4783
0
LINE
8
BLACK
6
CONTINUOUS
10
76.4944
20
-81.4783
11
76.7264
21
-81.5744
0
LINE
8
BLACK
6
CONTINUOUS
10
76.7264
20
-81.5744
11
76.9405
21
-81.7056
0
LINE
8
BLACK
6
CONTINUOUS
10
76.9405
20
-81.7056
11
77.1314
21
-81.8686
0
LINE
8
BLACK
6
CONTINUOUS
10
77.1314
20
-81.8686
11
77.2944
21
-82.0595
0
LINE
8
BLACK
6
CONTINUOUS
10
77.2944
20
-82.0595
11
77.4256
21
-82.2736
0
LINE
8
BLACK
6
CONTINUOUS
10
77.4256
20
-82.2736
11
77.5217
21
-82.5056
0
LINE
8
BLACK
6
CONTINUOUS
10
77.5217
20
-82.5056
11
77.5803
21
-82.7497
0
LINE
8
BLACK
6
CONTINUOUS
10
77.5803
20
-82.7497
11
77.6
21
-83
0
LINE
8
BLACK
6
CONTINUOUS
10
77.6
20
-83
11
77.5803
21
-83.2503
0
LINE
8
BLACK
6
CONTINUOUS
10
77.5803
20
-83.2503
11
77.5217
21
-83.4944
0
LINE
8
BLACK
6
CONTINUOUS
10
77.5217
20
-83.4944
11
77.4256
21
-83.7264
0
LINE
8
BLACK
6
CONTINUOUS
10
77.4256
20
-83.7264
11
77.2944
21
-83.9405
0
LINE
8
BLACK
6
CONTINUOUS
10
77.2944
20
-83.9405
11
77.1314
21
-84.1314
0
LINE
8
BLACK
6
CONTINUOUS
10
77.1314
20
-84.1314
11
76.9405
21
-84.2944
0
LINE
8
BLACK
6
CONTINUOUS
10
76.9405
20
-84.2944
11
76.7264
21
-84.4256
0
LINE
8
BLACK
6
CONTINUOUS
10
76.7264
20
-84.4256
11
76.4944
21
-84.5217
0
LINE
8
BLACK
6
CONTINUOUS
10
76.4944
20
-84.5217
11
76.2503
21
-84.5803
0
LINE
8
BLACK
6
CONTINUOUS
10
76.2503
20
-84.5803
11
76
21
-84.6
0
LINE
8
BLACK
6
CONTINUOUS
10
76
20
-84.6
11
75.7497
21
-84.5803
0
LINE
8
BLACK
6
CONTINUOUS
10
75.7497
20
-84.5803
11
75.5056
21
-84.5217
0
LINE
8
BLACK
6
CONTINUOUS
10
75.5056
20
-84.5217
11
75.2736
21
-84.4256
0
LINE
8
BLACK
6
CONTINUOUS
10
75.2736
20
-84.4256
11
75.0595
21
-84.2944
0
LINE
8
BLACK
6
CONTINUOUS
10
75.0595
20
-84.2944
11
74.8686
21
-84.1314
0
LINE
8
BLACK
6
CONTINUOUS
10
74.8686
20
-84.1314
11
74.7056
21
-83.9405
0
LINE
8
BLACK
6
CONTINUOUS
10
74.7056
20
-83.9405
11
74.5744
21
-83.7264
0
LINE
8
BLACK
6
CONTINUOUS
10
74.5744
20
-83.7264
11
74.4783
21
-83.4944
0
LINE
8
BLACK
6
CONTINUOUS
10
74.4783
20
-83.4944
11
74.4197
21
-83.2503
0
LINE
8
BLACK
6
CONTINUOUS
10
74.4197
20
-83.2503
11
74.4
21
-83
0
LINE
8
BLACK
6
CONTINUOUS
10
74.4
20
-83
11
74.4027
21
-82.9657
0
LINE
8
BLACK
6
CONTINUOUS
10
74.4027
20
-82.9657
11
74.4197
21
-82.7497
0
LINE
8
BLACK
6
CONTINUOUS
10
74.4197
20
-82.7497
11
74.4783
21
-82.5056
0
LINE
8
BLACK
6
CONTINUOUS
10
74.6595
20
-83.4201
11
74.7461
21
-83.6334
0
LINE
8
BLACK
6
CONTINUOUS
10
74.7461
20
-83.6334
11
74.8664
21
-83.8297
0
LINE
8
BLACK
6
CONTINUOUS
10
74.8664
20
-83.8297
11
75.0171
21
-84.0037
0
LINE
8
BLACK
6
CONTINUOUS
10
75.0171
20
-84.0037
11
75.1942
21
-84.1507
0
LINE
8
BLACK
6
CONTINUOUS
10
75.1942
20
-84.1507
11
75.393
21
-84.2669
0
LINE
8
BLACK
6
CONTINUOUS
10
75.393
20
-84.2669
11
75.6081
21
-84.349
0
LINE
8
BLACK
6
CONTINUOUS
10
75.6081
20
-84.349
11
75.8337
21
-84.3949
0
LINE
8
BLACK
6
CONTINUOUS
10
75.8337
20
-84.3949
11
76.0637
21
-84.4034
0
LINE
8
BLACK
6
CONTINUOUS
10
76.0637
20
-84.4034
11
76.2921
21
-84.3741
0
LINE
8
BLACK
6
CONTINUOUS
10
76.2921
20
-84.3741
11
76.5126
21
-84.3079
0
LINE
8
BLACK
6
CONTINUOUS
10
76.5126
20
-84.3079
11
76.7193
21
-84.2067
0
LINE
8
BLACK
6
CONTINUOUS
10
76.7193
20
-84.2067
11
76.9067
21
-84.073
0
LINE
8
BLACK
6
CONTINUOUS
10
76.9067
20
-84.073
11
77.0698
21
-83.9105
0
LINE
8
BLACK
6
CONTINUOUS
10
77.0698
20
-83.9105
11
77.2041
21
-83.7235
0
LINE
8
BLACK
6
CONTINUOUS
10
77.2041
20
-83.7235
11
77.3061
21
-83.5171
0
LINE
8
BLACK
6
CONTINUOUS
10
77.3061
20
-83.5171
11
77.3731
21
-83.2969
0
LINE
8
BLACK
6
CONTINUOUS
10
77.3731
20
-83.2969
11
77.4031
21
-83.0686
0
LINE
8
BLACK
6
CONTINUOUS
10
77.4031
20
-83.0686
11
77.4048
21
-83
0
LINE
8
BLACK
6
CONTINUOUS
10
77.4048
20
-83
11
77.3859
21
-82.7706
0
LINE
8
BLACK
6
CONTINUOUS
10
77.3859
20
-82.7706
11
77.3299
21
-82.5473
0
LINE
8
BLACK
6
CONTINUOUS
10
77.3299
20
-82.5473
11
77.2381
21
-82.3362
0
LINE
8
BLACK
6
CONTINUOUS
10
77.2381
20
-82.3362
11
77.113
21
-82.1429
0
LINE
8
BLACK
6
CONTINUOUS
10
77.113
20
-82.1429
11
76.9581
21
-81.9726
0
LINE
8
BLACK
6
CONTINUOUS
10
76.9581
20
-81.9726
11
76.7774
21
-81.8299
0
LINE
8
BLACK
6
CONTINUOUS
10
76.7774
20
-81.8299
11
76.5759
21
-81.7187
0
LINE
8
BLACK
6
CONTINUOUS
10
76.5759
20
-81.7187
11
76.3588
21
-81.6418
0
LINE
8
BLACK
6
CONTINUOUS
10
76.3588
20
-81.6418
11
76.1322
21
-81.6014
0
LINE
8
BLACK
6
CONTINUOUS
10
76.1322
20
-81.6014
11
75.902
21
-81.5986
0
LINE
8
BLACK
6
CONTINUOUS
10
75.902
20
-81.5986
11
75.6744
21
-81.6334
0
LINE
8
BLACK
6
CONTINUOUS
10
75.6744
20
-81.6334
11
75.4556
21
-81.705
0
LINE
8
BLACK
6
CONTINUOUS
10
75.4556
20
-81.705
11
75.2514
21
-81.8113
0
LINE
8
BLACK
6
CONTINUOUS
10
75.2514
20
-81.8113
11
75.0673
21
-81.9495
0
LINE
8
BLACK
6
CONTINUOUS
10
75.0673
20
-81.9495
11
74.9083
21
-82.1159
0
LINE
8
BLACK
6
CONTINUOUS
10
74.9083
20
-82.1159
11
74.7785
21
-82.3061
0
LINE
8
BLACK
6
CONTINUOUS
10
74.7785
20
-82.3061
11
74.6816
21
-82.5149
0
LINE
8
BLACK
6
CONTINUOUS
10
74.6816
20
-82.5149
11
74.6201
21
-82.7368
0
LINE
8
BLACK
6
CONTINUOUS
10
74.6201
20
-82.7368
11
74.5956
21
-82.9657
0
LINE
8
BLACK
6
CONTINUOUS
10
74.5956
20
-82.9657
11
74.6089
21
-83.1955
0
LINE
8
BLACK
6
CONTINUOUS
10
74.6089
20
-83.1955
11
74.6595
21
-83.4201
0
LINE
8
BLACK
6
CONTINUOUS
10
124.478
20
-67.5056
11
124.574
21
-67.2736
0
LINE
8
BLACK
6
CONTINUOUS
10
124.574
20
-67.2736
11
124.706
21
-67.0595
0
LINE
8
BLACK
6
CONTINUOUS
10
124.706
20
-67.0595
11
124.869
21
-66.8686
0
LINE
8
BLACK
6
CONTINUOUS
10
124.869
20
-66.8686
11
125.06
21
-66.7056
0
LINE
8
BLACK
6
CONTINUOUS
10
125.06
20
-66.7056
11
125.274
21
-66.5744
0
LINE
8
BLACK
6
CONTINUOUS
10
125.274
20
-66.5744
11
125.506
21
-66.4783
0
LINE
8
BLACK
6
CONTINUOUS
10
125.506
20
-66.4783
11
125.75
21
-66.4197
0
LINE
8
BLACK
6
CONTINUOUS
10
125.75
20
-66.4197
11
126
21
-66.4
0
LINE
8
BLACK
6
CONTINUOUS
10
126
20
-66.4
11
126.25
21
-66.4197
0
LINE
8
BLACK
6
CONTINUOUS
10
126.25
20
-66.4197
11
126.494
21
-66.4783
0
LINE
8
BLACK
6
CONTINUOUS
10
126.494
20
-66.4783
11
126.726
21
-66.5744
0
LINE
8
BLACK
6
CONTINUOUS
10
126.726
20
-66.5744
11
126.94
21
-66.7056
0
LINE
8
BLACK
6
CONTINUOUS
10
126.94
20
-66.7056
11
127.131
21
-66.8686
0
LINE
8
BLACK
6
CONTINUOUS
10
127.131
20
-66.8686
11
127.294
21
-67.0595
0
LINE
8
BLACK
6
CONTINUOUS
10
127.294
20
-67.0595
11
127.426
21
-67.2736
0
LINE
8
BLACK
6
CONTINUOUS
10
127.426
20
-67.2736
11
127.522
21
-67.5056
0
LINE
8
BLACK
6
CONTINUOUS
10
127.522
20
-67.5056
11
127.58
21
-67.7497
0
LINE
8
BLACK
6
CONTINUOUS
10
127.58
20
-67.7497
11
127.6
21
-68
0
LINE
8
BLACK
6
CONTINUOUS
10
127.6
20
-68
11
127.58
21
-68.2503
0
LINE
8
BLACK
6
CONTINUOUS
10
127.58
20
-68.2503
11
127.522
21
-68.4944
0
LINE
8
BLACK
6
CONTINUOUS
10
127.522
20
-68.4944
11
127.426
21
-68.7264
0
LINE
8
BLACK
6
CONTINUOUS
10
127.426
20
-68.7264
11
127.294
21
-68.9405
0
LINE
8
BLACK
6
CONTINUOUS
10
127.294
20
-68.9405
11
127.131
21
-69.1314
0
LINE
8
BLACK
6
CONTINUOUS
10
127.131
20
-69.1314
11
126.94
21
-69.2944
0
LINE
8
BLACK
6
CONTINUOUS
10
126.94
20
-69.2944
11
126.726
21
-69.4256
0
LINE
8
BLACK
6
CONTINUOUS
10
126.726
20
-69.4256
11
126.494
21
-69.5217
0
LINE
8
BLACK
6
CONTINUOUS
10
126.494
20
-69.5217
11
126.25
21
-69.5803
0
LINE
8
BLACK
6
CONTINUOUS
10
126.25
20
-69.5803
11
126
21
-69.6
0
LINE
8
BLACK
6
CONTINUOUS
10
126
20
-69.6
11
125.75
21
-69.5803
0
LINE
8
BLACK
6
CONTINUOUS
10
125.75
20
-69.5803
11
125.506
21
-69.5217
0
LINE
8
BLACK
6
CONTINUOUS
10
125.506
20
-69.5217
11
125.274
21
-69.4256
0
LINE
8
BLACK
6
CONTINUOUS
10
125.274
20
-69.4256
11
125.06
21
-69.2944
0
LINE
8
BLACK
6
CONTINUOUS
10
125.06
20
-69.2944
11
124.869
21
-69.1314
0
LINE
8
BLACK
6
CONTINUOUS
10
124.869
20
-69.1314
11
124.706
21
-68.9405
0
LINE
8
BLACK
6
CONTINUOUS
10
124.706
20
-68.9405
11
124.574
21
-68.7264
0
LINE
8
BLACK
6
CONTINUOUS
10
124.574
20
-68.7264
11
124.478
21
-68.4944
0
LINE
8
BLACK
6
CONTINUOUS
10
124.478
20
-68.4944
11
124.42
21
-68.2503
0
LINE
8
BLACK
6
CONTINUOUS
10
124.42
20
-68.2503
11
124.4
21
-68
0
LINE
8
BLACK
6
CONTINUOUS
10
124.4
20
-68
11
124.403
21
-67.9657
0
LINE
8
BLACK
6
CONTINUOUS
10
124.403
20
-67.9657
11
124.42
21
-67.7497
0
LINE
8
BLACK
6
CONTINUOUS
10
124.42
20
-67.7497
11
124.478
21
-67.5056
0
LINE
8
BLACK
6
CONTINUOUS
10
124.659
20
-68.4201
11
124.746
21
-68.6334
0
LINE
8
BLACK
6
CONTINUOUS
10
124.746
20
-68.6334
11
124.866
21
-68.8297
0
LINE
8
BLACK
6
CONTINUOUS
10
124.866
20
-68.8297
11
125.017
21
-69.0037
0
LINE
8
BLACK
6
CONTINUOUS
10
125.017
20
-69.0037
11
125.194
21
-69.1507
0
LINE
8
BLACK
6
CONTINUOUS
10
125.194
20
-69.1507
11
125.393
21
-69.2669
0
LINE
8
BLACK
6
CONTINUOUS
10
125.393
20
-69.2669
11
125.608
21
-69.349
0
LINE
8
BLACK
6
CONTINUOUS
10
125.608
20
-69.349
11
125.834
21
-69.3949
0
LINE
8
BLACK
6
CONTINUOUS
10
125.834
20
-69.3949
11
126.064
21
-69.4034
0
LINE
8
BLACK
6
CONTINUOUS
10
126.064
20
-69.4034
11
126.292
21
-69.3741
0
LINE
8
BLACK
6
CONTINUOUS
10
126.292
20
-69.3741
11
126.513
21
-69.3079
0
LINE
8
BLACK
6
CONTINUOUS
10
126.513
20
-69.3079
11
126.719
21
-69.2067
0
LINE
8
BLACK
6
CONTINUOUS
10
126.719
20
-69.2067
11
126.907
21
-69.073
0
LINE
8
BLACK
6
CONTINUOUS
10
126.907
20
-69.073
11
127.07
21
-68.9105
0
LINE
8
BLACK
6
CONTINUOUS
10
127.07
20
-68.9105
11
127.204
21
-68.7235
0
LINE
8
BLACK
6
CONTINUOUS
10
127.204
20
-68.7235
11
127.306
21
-68.5171
0
LINE
8
BLACK
6
CONTINUOUS
10
127.306
20
-68.5171
11
127.373
21
-68.2969
0
LINE
8
BLACK
6
CONTINUOUS
10
127.373
20
-68.2969
11
127.403
21
-68.0686
0
LINE
8
BLACK
6
CONTINUOUS
10
127.403
20
-68.0686
11
127.405
21
-68
0
LINE
8
BLACK
6
CONTINUOUS
10
127.405
20
-68
11
127.386
21
-67.7706
0
LINE
8
BLACK
6
CONTINUOUS
10
127.386
20
-67.7706
11
127.33
21
-67.5473
0
LINE
8
BLACK
6
CONTINUOUS
10
127.33
20
-67.5473
11
127.238
21
-67.3362
0
LINE
8
BLACK
6
CONTINUOUS
10
127.238
20
-67.3362
11
127.113
21
-67.1429
0
LINE
8
BLACK
6
CONTINUOUS
10
127.113
20
-67.1429
11
126.958
21
-66.9726
0
LINE
8
BLACK
6
CONTINUOUS
10
126.958
20
-66.9726
11
126.777
21
-66.8299
0
LINE
8
BLACK
6
CONTINUOUS
10
126.777
20
-66.8299
11
126.576
21
-66.7187
0
LINE
8
BLACK
6
CONTINUOUS
10
126.576
20
-66.7187
11
126.359
21
-66.6418
0
LINE
8
BLACK
6
CONTINUOUS
10
126.359
20
-66.6418
11
126.132
21
-66.6014
0
LINE
8
BLACK
6
CONTINUOUS
10
126.132
20
-66.6014
11
125.902
21
-66.5986
0
LINE
8
BLACK
6
CONTINUOUS
10
125.902
20
-66.5986
11
125.674
21
-66.6334
0
LINE
8
BLACK
6
CONTINUOUS
10
125.674
20
-66.6334
11
125.456
21
-66.705
0
LINE
8
BLACK
6
CONTINUOUS
10
125.456
20
-66.705
11
125.251
21
-66.8113
0
LINE
8
BLACK
6
CONTINUOUS
10
125.251
20
-66.8113
11
125.067
21
-66.9495
0
LINE
8
BLACK
6
CONTINUOUS
10
125.067
20
-66.9495
11
124.908
21
-67.1159
0
LINE
8
BLACK
6
CONTINUOUS
10
124.908
20
-67.1159
11
124.779
21
-67.3061
0
LINE
8
BLACK
6
CONTINUOUS
10
124.779
20
-67.3061
11
124.682
21
-67.5149
0
LINE
8
BLACK
6
CONTINUOUS
10
124.682
20
-67.5149
11
124.62
21
-67.7368
0
LINE
8
BLACK
6
CONTINUOUS
10
124.62
20
-67.7368
11
124.596
21
-67.9657
0
LINE
8
BLACK
6
CONTINUOUS
10
124.596
20
-67.9657
11
124.609
21
-68.1955
0
LINE
8
BLACK
6
CONTINUOUS
10
124.609
20
-68.1955
11
124.659
21
-68.4201
0
LINE
8
BLACK
6
CONTINUOUS
10
217.478
20
-67.5056
11
217.574
21
-67.2736
0
LINE
8
BLACK
6
CONTINUOUS
10
217.574
20
-67.2736
11
217.706
21
-67.0595
0
LINE
8
BLACK
6
CONTINUOUS
10
217.706
20
-67.0595
11
217.869
21
-66.8686
0
LINE
8
BLACK
6
CONTINUOUS
10
217.869
20
-66.8686
11
218.06
21
-66.7056
0
LINE
8
BLACK
6
CONTINUOUS
10
218.06
20
-66.7056
11
218.274
21
-66.5744
0
LINE
8
BLACK
6
CONTINUOUS
10
218.274
20
-66.5744
11
218.506
21
-66.4783
0
LINE
8
BLACK
6
CONTINUOUS
10
218.506
20
-66.4783
11
218.75
21
-66.4197
0
LINE
8
BLACK
6
CONTINUOUS
10
218.75
20
-66.4197
11
219
21
-66.4
0
LINE
8
BLACK
6
CONTINUOUS
10
219
20
-66.4
11
219.25
21
-66.4197
0
LINE
8
BLACK
6
CONTINUOUS
10
219.25
20
-66.4197
11
219.494
21
-66.4783
0
LINE
8
BLACK
6
CONTINUOUS
10
219.494
20
-66.4783
11
219.726
21
-66.5744
0
LINE
8
BLACK
6
CONTINUOUS
10
219.726
20
-66.5744
11
219.94
21
-66.7056
0
LINE
8
BLACK
6
CONTINUOUS
10
219.94
20
-66.7056
11
220.131
21
-66.8686
0
LINE
8
BLACK
6
CONTINUOUS
10
220.131
20
-66.8686
11
220.294
21
-67.0595
0
LINE
8
BLACK
6
CONTINUOUS
10
220.294
20
-67.0595
11
220.426
21
-67.2736
0
LINE
8
BLACK
6
CONTINUOUS
10
220.426
20
-67.2736
11
220.522
21
-67.5056
0
LINE
8
BLACK
6
CONTINUOUS
10
220.522
20
-67.5056
11
220.58
21
-67.7497
0
LINE
8
BLACK
6
CONTINUOUS
10
220.58
20
-67.7497
11
220.6
21
-68
0
LINE
8
BLACK
6
CONTINUOUS
10
220.6
20
-68
11
220.58
21
-68.2503
0
LINE
8
BLACK
6
CONTINUOUS
10
220.58
20
-68.2503
11
220.522
21
-68.4944
0
LINE
8
BLACK
6
CONTINUOUS
10
220.522
20
-68.4944
11
220.426
21
-68.7264
0
LINE
8
BLACK
6
CONTINUOUS
10
220.426
20
-68.7264
11
220.294
21
-68.9405
0
LINE
8
BLACK
6
CONTINUOUS
10
220.294
20
-68.9405
11
220.131
21
-69.1314
0
LINE
8
BLACK
6
CONTINUOUS
10
220.131
20
-69.1314
11
219.94
21
-69.2944
0
LINE
8
BLACK
6
CONTINUOUS
10
219.94
20
-69.2944
11
219.726
21
-69.4256
0
LINE
8
BLACK
6
CONTINUOUS
10
219.726
20
-69.4256
11
219.494
21
-69.5217
0
LINE
8
BLACK
6
CONTINUOUS
10
219.494
20
-69.5217
11
219.25
21
-69.5803
0
LINE
8
BLACK
6
CONTINUOUS
10
219.25
20
-69.5803
11
219
21
-69.6
0
LINE
8
BLACK
6
CONTINUOUS
10
219
20
-69.6
11
218.75
21
-69.5803
0
LINE
8
BLACK
6
CONTINUOUS
10
218.75
20
-69.5803
11
218.506
21
-69.5217
0
LINE
8
BLACK
6
CONTINUOUS
10
218.506
20
-69.5217
11
218.274
21
-69.4256
0
LINE
8
BLACK
6
CONTINUOUS
10
218.274
20
-69.4256
11
218.06
21
-69.2944
0
LINE
8
BLACK
6
CONTINUOUS
10
218.06
20
-69.2944
11
217.869
21
-69.1314
0
LINE
8
BLACK
6
CONTINUOUS
10
217.869
20
-69.1314
11
217.706
21
-68.9405
0
LINE
8
BLACK
6
CONTINUOUS
10
217.706
20
-68.9405
11
217.574
21
-68.7264
0
LINE
8
BLACK
6
CONTINUOUS
10
217.574
20
-68.7264
11
217.478
21
-68.4944
0
LINE
8
BLACK
6
CONTINUOUS
10
217.478
20
-68.4944
11
217.42
21
-68.2503
0
LINE
8
BLACK
6
CONTINUOUS
10
217.42
20
-68.2503
11
217.4
21
-68
0
LINE
8
BLACK
6
CONTINUOUS
10
217.4
20
-68
11
217.403
21
-67.9657
0
LINE
8
BLACK
6
CONTINUOUS
10
217.403
20
-67.9657
11
217.42
21
-67.7497
0
LINE
8
BLACK
6
CONTINUOUS
10
217.42
20
-67.7497
11
217.478
21
-67.5056
0
LINE
8
BLACK
6
CONTINUOUS
10
217.659
20
-68.4201
11
217.746
21
-68.6334
0
LINE
8
BLACK
6
CONTINUOUS
10
217.746
20
-68.6334
11
217.866
21
-68.8297
0
LINE
8
BLACK
6
CONTINUOUS
10
217.866
20
-68.8297
11
218.017
21
-69.0037
0
LINE
8
BLACK
6
CONTINUOUS
10
218.017
20
-69.0037
11
218.194
21
-69.1507
0
LINE
8
BLACK
6
CONTINUOUS
10
218.194
20
-69.1507
11
218.393
21
-69.2669
0
LINE
8
BLACK
6
CONTINUOUS
10
218.393
20
-69.2669
11
218.608
21
-69.349
0
LINE
8
BLACK
6
CONTINUOUS
10
218.608
20
-69.349
11
218.834
21
-69.3949
0
LINE
8
BLACK
6
CONTINUOUS
10
218.834
20
-69.3949
11
219.064
21
-69.4034
0
LINE
8
BLACK
6
CONTINUOUS
10
219.064
20
-69.4034
11
219.292
21
-69.3741
0
LINE
8
BLACK
6
CONTINUOUS
10
219.292
20
-69.3741
11
219.513
21
-69.3079
0
LINE
8
BLACK
6
CONTINUOUS
10
219.513
20
-69.3079
11
219.719
21
-69.2067
0
LINE
8
BLACK
6
CONTINUOUS
10
219.719
20
-69.2067
11
219.907
21
-69.073
0
LINE
8
BLACK
6
CONTINUOUS
10
219.907
20
-69.073
11
220.07
21
-68.9105
0
LINE
8
BLACK
6
CONTINUOUS
10
220.07
20
-68.9105
11
220.204
21
-68.7235
0
LINE
8
BLACK
6
CONTINUOUS
10
220.204
20
-68.7235
11
220.306
21
-68.5171
0
LINE
8
BLACK
6
CONTINUOUS
10
220.306
20
-68.5171
11
220.373
21
-68.2969
0
LINE
8
BLACK
6
CONTINUOUS
10
220.373
20
-68.2969
11
220.403
21
-68.0686
0
LINE
8
BLACK
6
CONTINUOUS
10
220.403
20
-68.0686
11
220.405
21
-68
0
LINE
8
BLACK
6
CONTINUOUS
10
220.405
20
-68
11
220.386
21
-67.7706
0
LINE
8
BLACK
6
CONTINUOUS
10
220.386
20
-67.7706
11
220.33
21
-67.5473
0
LINE
8
BLACK
6
CONTINUOUS
10
220.33
20
-67.5473
11
220.238
21
-67.3362
0
LINE
8
BLACK
6
CONTINUOUS
10
220.238
20
-67.3362
11
220.113
21
-67.1429
0
LINE
8
BLACK
6
CONTINUOUS
10
220.113
20
-67.1429
11
219.958
21
-66.9726
0
LINE
8
BLACK
6
CONTINUOUS
10
219.958
20
-66.9726
11
219.777
21
-66.8299
0
LINE
8
BLACK
6
CONTINUOUS
10
219.777
20
-66.8299
11
219.576
21
-66.7187
0
LINE
8
BLACK
6
CONTINUOUS
10
219.576
20
-66.7187
11
219.359
21
-66.6418
0
LINE
8
BLACK
6
CONTINUOUS
10
219.359
20
-66.6418
11
219.132
21
-66.6014
0
LINE
8
BLACK
6
CONTINUOUS
10
219.132
20
-66.6014
11
218.902
21
-66.5986
0
LINE
8
BLACK
6
CONTINUOUS
10
218.902
20
-66.5986
11
218.674
21
-66.6334
0
LINE
8
BLACK
6
CONTINUOUS
10
218.674
20
-66.6334
11
218.456
21
-66.705
0
LINE
8
BLACK
6
CONTINUOUS
10
218.456
20
-66.705
11
218.251
21
-66.8113
0
LINE
8
BLACK
6
CONTINUOUS
10
218.251
20
-66.8113
11
218.067
21
-66.9495
0
LINE
8
BLACK
6
CONTINUOUS
10
218.067
20
-66.9495
11
217.908
21
-67.1159
0
LINE
8
BLACK
6
CONTINUOUS
10
217.908
20
-67.1159
11
217.779
21
-67.3061
0
LINE
8
BLACK
6
CONTINUOUS
10
217.779
20
-67.3061
11
217.682
21
-67.5149
0
LINE
8
BLACK
6
CONTINUOUS
10
217.682
20
-67.5149
11
217.62
21
-67.7368
0
LINE
8
BLACK
6
CONTINUOUS
10
217.62
20
-67.7368
11
217.596
21
-67.9657
0
LINE
8
BLACK
6
CONTINUOUS
10
217.596
20
-67.9657
11
217.609
21
-68.1955
0
LINE
8
BLACK
6
CONTINUOUS
10
217.609
20
-68.1955
11
217.659
21
-68.4201
  0
ENDSEC
  0
EOF
