%TF.GenerationSoftware,KiCad,Pcbnew,6.0.11-2627ca5db0~126~ubuntu20.04.1*%
%TF.CreationDate,2024-06-12T14:53:08+02:00*%
%TF.ProjectId,aan-uit Temperatuur controller,61616e2d-7569-4742-9054-656d70657261,rev?*%
%TF.SameCoordinates,Original*%
%TF.FileFunction,Plated,1,2,PTH,Mixed*%
%TF.FilePolarity,Positive*%
%FSLAX46Y46*%
G04 Gerber Fmt 4.6, Leading zero omitted, Abs format (unit mm)*
G04 Created by KiCad (PCBNEW 6.0.11-2627ca5db0~126~ubuntu20.04.1) date 2024-06-12 14:53:08*
%MOMM*%
%LPD*%
G01*
G04 APERTURE LIST*
%TA.AperFunction,ComponentDrill*%
%ADD10C,0.762000*%
%TD*%
%TA.AperFunction,ViaDrill*%
%ADD11C,0.800000*%
%TD*%
G04 aperture for slot hole*
%TA.AperFunction,ComponentDrill*%
%ADD12O,0.800000X0.800000*%
%TD*%
%TA.AperFunction,ComponentDrill*%
%ADD13C,0.800000*%
%TD*%
%TA.AperFunction,ComponentDrill*%
%ADD14C,1.000000*%
%TD*%
%TA.AperFunction,ComponentDrill*%
%ADD15C,1.100000*%
%TD*%
%TA.AperFunction,ComponentDrill*%
%ADD16C,1.200000*%
%TD*%
G04 APERTURE END LIST*
D10*
%TO.C,J1*%
X101096000Y-144886200D03*
X101096000Y-149890000D03*
%TO.C,U2*%
X166340000Y-96900000D03*
X166340000Y-99440000D03*
X166340000Y-122300000D03*
X168880000Y-96900000D03*
X168880000Y-99440000D03*
X168880000Y-122300000D03*
X171420000Y-96900000D03*
X171420000Y-99440000D03*
X171420000Y-122300000D03*
X173960000Y-96900000D03*
X173960000Y-99440000D03*
X173960000Y-122300000D03*
X176500000Y-96900000D03*
X176500000Y-99440000D03*
X176500000Y-122300000D03*
X179040000Y-96900000D03*
X179040000Y-99440000D03*
X179040000Y-122300000D03*
X181580000Y-96900000D03*
X181580000Y-99440000D03*
X181580000Y-122300000D03*
X184120000Y-96900000D03*
X184120000Y-99440000D03*
X184120000Y-122300000D03*
X186660000Y-96900000D03*
X186660000Y-99440000D03*
X186660000Y-122300000D03*
X189200000Y-96900000D03*
X189200000Y-99440000D03*
X189200000Y-122300000D03*
X191740000Y-96900000D03*
X191740000Y-99440000D03*
X191740000Y-122300000D03*
X194280000Y-96900000D03*
X194280000Y-99440000D03*
X194280000Y-122300000D03*
X196820000Y-96900000D03*
X196820000Y-99440000D03*
X196820000Y-122300000D03*
X199360000Y-96900000D03*
X199360000Y-99440000D03*
X199360000Y-122300000D03*
X201900000Y-96900000D03*
X201900000Y-99440000D03*
X201900000Y-122300000D03*
X204440000Y-96900000D03*
X204440000Y-99440000D03*
X204440000Y-122300000D03*
X206980000Y-96900000D03*
X206980000Y-99440000D03*
X206980000Y-122300000D03*
X209520000Y-96900000D03*
X209520000Y-99440000D03*
X209520000Y-122300000D03*
X212060000Y-96900000D03*
X212060000Y-99440000D03*
X212060000Y-122300000D03*
%TD*%
D11*
X129800000Y-97950000D03*
X133300000Y-101300000D03*
X135450000Y-121250000D03*
X140750000Y-82750000D03*
X145700000Y-88900000D03*
X152400000Y-110500000D03*
X152550000Y-120200000D03*
X160450000Y-122600000D03*
D12*
%TO.C,J2*%
X92890000Y-83510000D03*
D13*
X95430000Y-83510000D03*
X97970000Y-83510000D03*
X100510000Y-83510000D03*
%TO.C,U3*%
X119720000Y-113800000D03*
X119720000Y-116340000D03*
X119720000Y-118880000D03*
X119720000Y-121420000D03*
X119720000Y-123960000D03*
X119720000Y-126500000D03*
X129880000Y-113800000D03*
X129880000Y-116340000D03*
X129880000Y-118880000D03*
X129880000Y-121420000D03*
X129880000Y-123960000D03*
X129880000Y-126500000D03*
%TO.C,C2*%
X130800000Y-148500000D03*
X130800000Y-149750000D03*
X130800000Y-152250000D03*
X130800000Y-153500000D03*
%TO.C,C1*%
X130850000Y-140050000D03*
X130850000Y-142550000D03*
%TO.C,C3*%
X161900000Y-132900000D03*
X163150000Y-132900000D03*
X165650000Y-132900000D03*
X166900000Y-132900000D03*
D14*
%TO.C,D1*%
X113050000Y-140100000D03*
X113050000Y-145100000D03*
X113050000Y-150100000D03*
X113050000Y-155100000D03*
%TO.C,J4*%
X123900000Y-79200000D03*
X123900000Y-81740000D03*
X123900000Y-84280000D03*
X123900000Y-86820000D03*
%TO.C,J3*%
X150400000Y-134400000D03*
X152940000Y-134400000D03*
X155480000Y-134400000D03*
X158020000Y-134400000D03*
D15*
%TO.C,U1*%
X139620000Y-148310000D03*
X139620000Y-150850000D03*
X139620000Y-153390000D03*
%TO.C,SW1*%
X171700000Y-139400000D03*
X171700000Y-143900000D03*
X178200000Y-139400000D03*
X178200000Y-143900000D03*
%TO.C,SW2*%
X183700000Y-139400000D03*
X183700000Y-143900000D03*
X190200000Y-139400000D03*
X190200000Y-143900000D03*
%TO.C,SW3*%
X195650000Y-139400000D03*
X195650000Y-143900000D03*
X202150000Y-139400000D03*
X202150000Y-143900000D03*
D16*
%TO.C,R1*%
X166800000Y-128100000D03*
%TO.C,R3*%
X167780000Y-115900000D03*
%TO.C,R2*%
X168280000Y-109300000D03*
%TO.C,R1*%
X182040000Y-128100000D03*
%TO.C,R3*%
X183020000Y-115900000D03*
%TO.C,R2*%
X183520000Y-109300000D03*
%TO.C,R5*%
X187080000Y-115550000D03*
%TO.C,R4*%
X187130000Y-109250000D03*
%TO.C,R5*%
X202320000Y-115550000D03*
%TO.C,R4*%
X202370000Y-109250000D03*
M02*
