  0
SECTION
  2
HEADER
  9
$ANGBASE
  50
0.0
  9
$ANGDIR
  70
1
  9
$MEASUREMENT
  70
1
  0
ENDSEC
  0
SECTION
  2
TABLES
  0
TABLE
  2
LTYPE
  70
4
  0
LTYPE
  5
40F
  2
CONTINUOUS
  70
0
  3
Solid line
  72
65
  73
0
  40
0.0
  0
LTYPE
  5
410
  2
DASHDOT
 70
0
  3
Dash Dot ____ _ ____ _
 72
65
 73
4
 40
2.0
 49
1.25
 49
-0.25
 49
0.25
 49
-0.25
  0
LTYPE
  5
411
  2
DASHED
 70
0
  3
Dashed __ __ __ __ __
 72
65
 73
2
 40
0.75
 49
0.5
 49
-0.25
  0
LTYPE
  5
43B
  2
DOTTED
 70
0
  3
Dotted .  .  .  .
 72
65
 73
2
 40
0.2
 49
0.0
 49
-0.2
  0
ENDTAB
  0
TABLE
  2
STYLE
  70
4
  0
STYLE
  2
KICAD
  70
0
  40
0
  41
1
  42
1
  50
0
  71
0
  3
isocp.shx
  0
STYLE
  2
KICADB
  70
0
  40
0
  41
1
  42
1
  50
0
  71
0
  3
isocp.shx
  0
STYLE
  2
KICADI
  70
0
  40
0
  41
1
  42
1
  50
15
  71
0
  3
isocp.shx
  0
STYLE
  2
KICADBI
  70
0
  40
0
  41
1
  42
1
  50
15
  71
0
  3
isocp.shx
  0
ENDTAB
  0
TABLE
  2
LAYER
  70
1
  0
LAYER
  2
BLACK
  70
0
  62
7
  6
CONTINUOUS
  0
ENDTAB
  0
ENDSEC
  0
SECTION
  2
ENTITIES
0
LINE
8
BLACK
6
CONTINUOUS
10
70.6646
20
-163.035
11
70.65
21
-163
0
LINE
8
BLACK
6
CONTINUOUS
10
70.65
20
-163
11
70.65
21
-63
0
LINE
8
BLACK
6
CONTINUOUS
10
70.65
20
-63
11
70.6646
21
-62.9646
0
LINE
8
BLACK
6
CONTINUOUS
10
70.6646
20
-62.9646
11
70.7
21
-62.95
0
LINE
8
BLACK
6
CONTINUOUS
10
70.7
20
-62.95
11
220.7
21
-62.95
0
LINE
8
BLACK
6
CONTINUOUS
10
220.7
20
-62.95
11
220.735
21
-62.9646
0
LINE
8
BLACK
6
CONTINUOUS
10
220.735
20
-62.9646
11
220.75
21
-63
0
LINE
8
BLACK
6
CONTINUOUS
10
220.75
20
-63
11
220.75
21
-163
0
LINE
8
BLACK
6
CONTINUOUS
10
220.75
20
-163
11
220.735
21
-163.035
0
LINE
8
BLACK
6
CONTINUOUS
10
220.735
20
-163.035
11
220.7
21
-163.05
0
LINE
8
BLACK
6
CONTINUOUS
10
220.7
20
-163.05
11
70.7
21
-163.05
0
LINE
8
BLACK
6
CONTINUOUS
10
70.7
20
-163.05
11
70.6646
21
-163.035
0
LINE
8
BLACK
6
CONTINUOUS
10
70.75
20
-63.05
11
70.75
21
-162.95
0
LINE
8
BLACK
6
CONTINUOUS
10
70.75
20
-162.95
11
220.65
21
-162.95
0
LINE
8
BLACK
6
CONTINUOUS
10
220.65
20
-162.95
11
220.65
21
-63.05
0
LINE
8
BLACK
6
CONTINUOUS
10
220.65
20
-63.05
11
70.75
21
-63.05
0
LINE
8
BLACK
6
CONTINUOUS
10
215.519
20
-159.729
11
215.58
21
-159.488
0
LINE
8
BLACK
6
CONTINUOUS
10
215.58
20
-159.488
11
215.676
21
-159.259
0
LINE
8
BLACK
6
CONTINUOUS
10
215.676
20
-159.259
11
215.805
21
-159.047
0
LINE
8
BLACK
6
CONTINUOUS
10
215.805
20
-159.047
11
215.964
21
-158.856
0
LINE
8
BLACK
6
CONTINUOUS
10
215.964
20
-158.856
11
216.15
21
-158.69
0
LINE
8
BLACK
6
CONTINUOUS
10
216.15
20
-158.69
11
216.357
21
-158.554
0
LINE
8
BLACK
6
CONTINUOUS
10
216.357
20
-158.554
11
216.583
21
-158.45
0
LINE
8
BLACK
6
CONTINUOUS
10
216.583
20
-158.45
11
216.821
21
-158.38
0
LINE
8
BLACK
6
CONTINUOUS
10
216.821
20
-158.38
11
217.068
21
-158.347
0
LINE
8
BLACK
6
CONTINUOUS
10
217.068
20
-158.347
11
217.316
21
-158.35
0
LINE
8
BLACK
6
CONTINUOUS
10
217.316
20
-158.35
11
217.561
21
-158.39
0
LINE
8
BLACK
6
CONTINUOUS
10
217.561
20
-158.39
11
217.798
21
-158.466
0
LINE
8
BLACK
6
CONTINUOUS
10
217.798
20
-158.466
11
218.021
21
-158.576
0
LINE
8
BLACK
6
CONTINUOUS
10
218.021
20
-158.576
11
218.225
21
-158.717
0
LINE
8
BLACK
6
CONTINUOUS
10
218.225
20
-158.717
11
218.406
21
-158.887
0
LINE
8
BLACK
6
CONTINUOUS
10
218.406
20
-158.887
11
218.56
21
-159.083
0
LINE
8
BLACK
6
CONTINUOUS
10
218.56
20
-159.083
11
218.683
21
-159.298
0
LINE
8
BLACK
6
CONTINUOUS
10
218.683
20
-159.298
11
218.773
21
-159.53
0
LINE
8
BLACK
6
CONTINUOUS
10
218.773
20
-159.53
11
218.828
21
-159.772
0
LINE
8
BLACK
6
CONTINUOUS
10
218.828
20
-159.772
11
218.846
21
-160.02
0
LINE
8
BLACK
6
CONTINUOUS
10
218.846
20
-160.02
11
218.844
21
-160.108
0
LINE
8
BLACK
6
CONTINUOUS
10
218.844
20
-160.108
11
218.813
21
-160.354
0
LINE
8
BLACK
6
CONTINUOUS
10
218.813
20
-160.354
11
218.745
21
-160.593
0
LINE
8
BLACK
6
CONTINUOUS
10
218.745
20
-160.593
11
218.643
21
-160.82
0
LINE
8
BLACK
6
CONTINUOUS
10
218.643
20
-160.82
11
218.509
21
-161.029
0
LINE
8
BLACK
6
CONTINUOUS
10
218.509
20
-161.029
11
218.345
21
-161.216
0
LINE
8
BLACK
6
CONTINUOUS
10
218.345
20
-161.216
11
218.155
21
-161.376
0
LINE
8
BLACK
6
CONTINUOUS
10
218.155
20
-161.376
11
217.944
21
-161.507
0
LINE
8
BLACK
6
CONTINUOUS
10
217.944
20
-161.507
11
217.716
21
-161.605
0
LINE
8
BLACK
6
CONTINUOUS
10
217.716
20
-161.605
11
217.475
21
-161.668
0
LINE
8
BLACK
6
CONTINUOUS
10
217.475
20
-161.668
11
217.229
21
-161.695
0
LINE
8
BLACK
6
CONTINUOUS
10
217.229
20
-161.695
11
216.98
21
-161.686
0
LINE
8
BLACK
6
CONTINUOUS
10
216.98
20
-161.686
11
216.736
21
-161.639
0
LINE
8
BLACK
6
CONTINUOUS
10
216.736
20
-161.639
11
216.502
21
-161.557
0
LINE
8
BLACK
6
CONTINUOUS
10
216.502
20
-161.557
11
216.282
21
-161.442
0
LINE
8
BLACK
6
CONTINUOUS
10
216.282
20
-161.442
11
216.081
21
-161.295
0
LINE
8
BLACK
6
CONTINUOUS
10
216.081
20
-161.295
11
215.905
21
-161.12
0
LINE
8
BLACK
6
CONTINUOUS
10
215.905
20
-161.12
11
215.756
21
-160.921
0
LINE
8
BLACK
6
CONTINUOUS
10
215.756
20
-160.921
11
215.639
21
-160.702
0
LINE
8
BLACK
6
CONTINUOUS
10
215.639
20
-160.702
11
215.555
21
-160.468
0
LINE
8
BLACK
6
CONTINUOUS
10
215.555
20
-160.468
11
215.506
21
-160.224
0
LINE
8
BLACK
6
CONTINUOUS
10
215.506
20
-160.224
11
215.496
21
-160.02
0
LINE
8
BLACK
6
CONTINUOUS
10
215.496
20
-160.02
11
215.494
21
-159.976
0
LINE
8
BLACK
6
CONTINUOUS
10
215.494
20
-159.976
11
215.519
21
-159.729
0
LINE
8
BLACK
6
CONTINUOUS
10
215.666
20
-160.509
11
215.761
21
-160.738
0
LINE
8
BLACK
6
CONTINUOUS
10
215.761
20
-160.738
11
215.891
21
-160.949
0
LINE
8
BLACK
6
CONTINUOUS
10
215.891
20
-160.949
11
216.052
21
-161.138
0
LINE
8
BLACK
6
CONTINUOUS
10
216.052
20
-161.138
11
216.241
21
-161.299
0
LINE
8
BLACK
6
CONTINUOUS
10
216.241
20
-161.299
11
216.452
21
-161.429
0
LINE
8
BLACK
6
CONTINUOUS
10
216.452
20
-161.429
11
216.681
21
-161.524
0
LINE
8
BLACK
6
CONTINUOUS
10
216.681
20
-161.524
11
216.923
21
-161.582
0
LINE
8
BLACK
6
CONTINUOUS
10
216.923
20
-161.582
11
217.17
21
-161.601
0
LINE
8
BLACK
6
CONTINUOUS
10
217.17
20
-161.601
11
217.417
21
-161.582
0
LINE
8
BLACK
6
CONTINUOUS
10
217.417
20
-161.582
11
217.659
21
-161.524
0
LINE
8
BLACK
6
CONTINUOUS
10
217.659
20
-161.524
11
217.888
21
-161.429
0
LINE
8
BLACK
6
CONTINUOUS
10
217.888
20
-161.429
11
218.099
21
-161.299
0
LINE
8
BLACK
6
CONTINUOUS
10
218.099
20
-161.299
11
218.288
21
-161.138
0
LINE
8
BLACK
6
CONTINUOUS
10
218.288
20
-161.138
11
218.449
21
-160.949
0
LINE
8
BLACK
6
CONTINUOUS
10
218.449
20
-160.949
11
218.579
21
-160.738
0
LINE
8
BLACK
6
CONTINUOUS
10
218.579
20
-160.738
11
218.674
21
-160.509
0
LINE
8
BLACK
6
CONTINUOUS
10
218.674
20
-160.509
11
218.732
21
-160.267
0
LINE
8
BLACK
6
CONTINUOUS
10
218.732
20
-160.267
11
218.751
21
-160.02
0
LINE
8
BLACK
6
CONTINUOUS
10
218.751
20
-160.02
11
218.732
21
-159.773
0
LINE
8
BLACK
6
CONTINUOUS
10
218.732
20
-159.773
11
218.674
21
-159.531
0
LINE
8
BLACK
6
CONTINUOUS
10
218.674
20
-159.531
11
218.579
21
-159.302
0
LINE
8
BLACK
6
CONTINUOUS
10
218.579
20
-159.302
11
218.449
21
-159.091
0
LINE
8
BLACK
6
CONTINUOUS
10
218.449
20
-159.091
11
218.288
21
-158.902
0
LINE
8
BLACK
6
CONTINUOUS
10
218.288
20
-158.902
11
218.099
21
-158.741
0
LINE
8
BLACK
6
CONTINUOUS
10
218.099
20
-158.741
11
217.888
21
-158.611
0
LINE
8
BLACK
6
CONTINUOUS
10
217.888
20
-158.611
11
217.659
21
-158.516
0
LINE
8
BLACK
6
CONTINUOUS
10
217.659
20
-158.516
11
217.417
21
-158.458
0
LINE
8
BLACK
6
CONTINUOUS
10
217.417
20
-158.458
11
217.17
21
-158.439
0
LINE
8
BLACK
6
CONTINUOUS
10
217.17
20
-158.439
11
216.923
21
-158.458
0
LINE
8
BLACK
6
CONTINUOUS
10
216.923
20
-158.458
11
216.681
21
-158.516
0
LINE
8
BLACK
6
CONTINUOUS
10
216.681
20
-158.516
11
216.452
21
-158.611
0
LINE
8
BLACK
6
CONTINUOUS
10
216.452
20
-158.611
11
216.241
21
-158.741
0
LINE
8
BLACK
6
CONTINUOUS
10
216.241
20
-158.741
11
216.052
21
-158.902
0
LINE
8
BLACK
6
CONTINUOUS
10
216.052
20
-158.902
11
215.891
21
-159.091
0
LINE
8
BLACK
6
CONTINUOUS
10
215.891
20
-159.091
11
215.761
21
-159.302
0
LINE
8
BLACK
6
CONTINUOUS
10
215.761
20
-159.302
11
215.666
21
-159.531
0
LINE
8
BLACK
6
CONTINUOUS
10
215.666
20
-159.531
11
215.608
21
-159.773
0
LINE
8
BLACK
6
CONTINUOUS
10
215.608
20
-159.773
11
215.589
21
-160.02
0
LINE
8
BLACK
6
CONTINUOUS
10
215.589
20
-160.02
11
215.608
21
-160.267
0
LINE
8
BLACK
6
CONTINUOUS
10
215.608
20
-160.267
11
215.666
21
-160.509
0
LINE
8
BLACK
6
CONTINUOUS
10
73.3608
20
-159.51
11
73.4598
21
-159.271
0
LINE
8
BLACK
6
CONTINUOUS
10
73.4598
20
-159.271
11
73.5951
21
-159.05
0
LINE
8
BLACK
6
CONTINUOUS
10
73.5951
20
-159.05
11
73.7633
21
-158.853
0
LINE
8
BLACK
6
CONTINUOUS
10
73.7633
20
-158.853
11
73.9602
21
-158.685
0
LINE
8
BLACK
6
CONTINUOUS
10
73.9602
20
-158.685
11
74.1809
21
-158.55
0
LINE
8
BLACK
6
CONTINUOUS
10
74.1809
20
-158.55
11
74.4201
21
-158.451
0
LINE
8
BLACK
6
CONTINUOUS
10
74.4201
20
-158.451
11
74.6719
21
-158.39
0
LINE
8
BLACK
6
CONTINUOUS
10
74.6719
20
-158.39
11
74.93
21
-158.37
0
LINE
8
BLACK
6
CONTINUOUS
10
74.93
20
-158.37
11
75.1881
21
-158.39
0
LINE
8
BLACK
6
CONTINUOUS
10
75.1881
20
-158.39
11
75.4399
21
-158.451
0
LINE
8
BLACK
6
CONTINUOUS
10
75.4399
20
-158.451
11
75.6791
21
-158.55
0
LINE
8
BLACK
6
CONTINUOUS
10
75.6791
20
-158.55
11
75.8998
21
-158.685
0
LINE
8
BLACK
6
CONTINUOUS
10
75.8998
20
-158.685
11
76.0967
21
-158.853
0
LINE
8
BLACK
6
CONTINUOUS
10
76.0967
20
-158.853
11
76.2649
21
-159.05
0
LINE
8
BLACK
6
CONTINUOUS
10
76.2649
20
-159.05
11
76.4002
21
-159.271
0
LINE
8
BLACK
6
CONTINUOUS
10
76.4002
20
-159.271
11
76.4992
21
-159.51
0
LINE
8
BLACK
6
CONTINUOUS
10
76.4992
20
-159.51
11
76.5597
21
-159.762
0
LINE
8
BLACK
6
CONTINUOUS
10
76.5597
20
-159.762
11
76.58
21
-160.02
0
LINE
8
BLACK
6
CONTINUOUS
10
76.58
20
-160.02
11
76.5597
21
-160.278
0
LINE
8
BLACK
6
CONTINUOUS
10
76.5597
20
-160.278
11
76.4992
21
-160.53
0
LINE
8
BLACK
6
CONTINUOUS
10
76.4992
20
-160.53
11
76.4002
21
-160.769
0
LINE
8
BLACK
6
CONTINUOUS
10
76.4002
20
-160.769
11
76.2649
21
-160.99
0
LINE
8
BLACK
6
CONTINUOUS
10
76.2649
20
-160.99
11
76.0967
21
-161.187
0
LINE
8
BLACK
6
CONTINUOUS
10
76.0967
20
-161.187
11
75.8998
21
-161.355
0
LINE
8
BLACK
6
CONTINUOUS
10
75.8998
20
-161.355
11
75.6791
21
-161.49
0
LINE
8
BLACK
6
CONTINUOUS
10
75.6791
20
-161.49
11
75.4399
21
-161.589
0
LINE
8
BLACK
6
CONTINUOUS
10
75.4399
20
-161.589
11
75.1881
21
-161.65
0
LINE
8
BLACK
6
CONTINUOUS
10
75.1881
20
-161.65
11
74.93
21
-161.67
0
LINE
8
BLACK
6
CONTINUOUS
10
74.93
20
-161.67
11
74.6719
21
-161.65
0
LINE
8
BLACK
6
CONTINUOUS
10
74.6719
20
-161.65
11
74.4201
21
-161.589
0
LINE
8
BLACK
6
CONTINUOUS
10
74.4201
20
-161.589
11
74.1809
21
-161.49
0
LINE
8
BLACK
6
CONTINUOUS
10
74.1809
20
-161.49
11
73.9602
21
-161.355
0
LINE
8
BLACK
6
CONTINUOUS
10
73.9602
20
-161.355
11
73.7633
21
-161.187
0
LINE
8
BLACK
6
CONTINUOUS
10
73.7633
20
-161.187
11
73.5951
21
-160.99
0
LINE
8
BLACK
6
CONTINUOUS
10
73.5951
20
-160.99
11
73.4598
21
-160.769
0
LINE
8
BLACK
6
CONTINUOUS
10
73.4598
20
-160.769
11
73.3608
21
-160.53
0
LINE
8
BLACK
6
CONTINUOUS
10
73.3608
20
-160.53
11
73.3003
21
-160.278
0
LINE
8
BLACK
6
CONTINUOUS
10
73.3003
20
-160.278
11
73.28
21
-160.02
0
LINE
8
BLACK
6
CONTINUOUS
10
73.28
20
-160.02
11
73.3003
21
-159.762
0
LINE
8
BLACK
6
CONTINUOUS
10
73.3003
20
-159.762
11
73.3608
21
-159.51
0
LINE
8
BLACK
6
CONTINUOUS
10
73.4513
20
-160.5
11
73.5447
21
-160.726
0
LINE
8
BLACK
6
CONTINUOUS
10
73.5447
20
-160.726
11
73.6721
21
-160.934
0
LINE
8
BLACK
6
CONTINUOUS
10
73.6721
20
-160.934
11
73.8306
21
-161.119
0
LINE
8
BLACK
6
CONTINUOUS
10
73.8306
20
-161.119
11
74.0161
21
-161.278
0
LINE
8
BLACK
6
CONTINUOUS
10
74.0161
20
-161.278
11
74.2241
21
-161.405
0
LINE
8
BLACK
6
CONTINUOUS
10
74.2241
20
-161.405
11
74.4495
21
-161.499
0
LINE
8
BLACK
6
CONTINUOUS
10
74.4495
20
-161.499
11
74.6868
21
-161.556
0
LINE
8
BLACK
6
CONTINUOUS
10
74.6868
20
-161.556
11
74.93
21
-161.575
0
LINE
8
BLACK
6
CONTINUOUS
10
74.93
20
-161.575
11
75.1732
21
-161.556
0
LINE
8
BLACK
6
CONTINUOUS
10
75.1732
20
-161.556
11
75.4105
21
-161.499
0
LINE
8
BLACK
6
CONTINUOUS
10
75.4105
20
-161.499
11
75.6359
21
-161.405
0
LINE
8
BLACK
6
CONTINUOUS
10
75.6359
20
-161.405
11
75.8439
21
-161.278
0
LINE
8
BLACK
6
CONTINUOUS
10
75.8439
20
-161.278
11
76.0294
21
-161.119
0
LINE
8
BLACK
6
CONTINUOUS
10
76.0294
20
-161.119
11
76.1879
21
-160.934
0
LINE
8
BLACK
6
CONTINUOUS
10
76.1879
20
-160.934
11
76.3153
21
-160.726
0
LINE
8
BLACK
6
CONTINUOUS
10
76.3153
20
-160.726
11
76.4087
21
-160.5
0
LINE
8
BLACK
6
CONTINUOUS
10
76.4087
20
-160.5
11
76.4657
21
-160.263
0
LINE
8
BLACK
6
CONTINUOUS
10
76.4657
20
-160.263
11
76.4848
21
-160.02
0
LINE
8
BLACK
6
CONTINUOUS
10
76.4848
20
-160.02
11
76.4657
21
-159.777
0
LINE
8
BLACK
6
CONTINUOUS
10
76.4657
20
-159.777
11
76.4087
21
-159.54
0
LINE
8
BLACK
6
CONTINUOUS
10
76.4087
20
-159.54
11
76.3153
21
-159.314
0
LINE
8
BLACK
6
CONTINUOUS
10
76.3153
20
-159.314
11
76.1879
21
-159.106
0
LINE
8
BLACK
6
CONTINUOUS
10
76.1879
20
-159.106
11
76.0294
21
-158.921
0
LINE
8
BLACK
6
CONTINUOUS
10
76.0294
20
-158.921
11
75.8439
21
-158.762
0
LINE
8
BLACK
6
CONTINUOUS
10
75.8439
20
-158.762
11
75.6359
21
-158.635
0
LINE
8
BLACK
6
CONTINUOUS
10
75.6359
20
-158.635
11
75.4105
21
-158.541
0
LINE
8
BLACK
6
CONTINUOUS
10
75.4105
20
-158.541
11
75.1732
21
-158.484
0
LINE
8
BLACK
6
CONTINUOUS
10
75.1732
20
-158.484
11
74.93
21
-158.465
0
LINE
8
BLACK
6
CONTINUOUS
10
74.93
20
-158.465
11
74.6868
21
-158.484
0
LINE
8
BLACK
6
CONTINUOUS
10
74.6868
20
-158.484
11
74.4495
21
-158.541
0
LINE
8
BLACK
6
CONTINUOUS
10
74.4495
20
-158.541
11
74.2241
21
-158.635
0
LINE
8
BLACK
6
CONTINUOUS
10
74.2241
20
-158.635
11
74.0161
21
-158.762
0
LINE
8
BLACK
6
CONTINUOUS
10
74.0161
20
-158.762
11
73.8306
21
-158.921
0
LINE
8
BLACK
6
CONTINUOUS
10
73.8306
20
-158.921
11
73.6721
21
-159.106
0
LINE
8
BLACK
6
CONTINUOUS
10
73.6721
20
-159.106
11
73.5447
21
-159.314
0
LINE
8
BLACK
6
CONTINUOUS
10
73.5447
20
-159.314
11
73.4513
21
-159.54
0
LINE
8
BLACK
6
CONTINUOUS
10
73.4513
20
-159.54
11
73.3943
21
-159.777
0
LINE
8
BLACK
6
CONTINUOUS
10
73.3943
20
-159.777
11
73.3752
21
-160.02
0
LINE
8
BLACK
6
CONTINUOUS
10
73.3752
20
-160.02
11
73.3943
21
-160.263
0
LINE
8
BLACK
6
CONTINUOUS
10
73.3943
20
-160.263
11
73.4513
21
-160.5
0
LINE
8
BLACK
6
CONTINUOUS
10
114.376
20
-129.321
11
114.469
21
-129.096
0
LINE
8
BLACK
6
CONTINUOUS
10
114.469
20
-129.096
11
114.596
21
-128.889
0
LINE
8
BLACK
6
CONTINUOUS
10
114.596
20
-128.889
11
114.754
21
-128.704
0
LINE
8
BLACK
6
CONTINUOUS
10
114.754
20
-128.704
11
114.939
21
-128.546
0
LINE
8
BLACK
6
CONTINUOUS
10
114.939
20
-128.546
11
115.146
21
-128.419
0
LINE
8
BLACK
6
CONTINUOUS
10
115.146
20
-128.419
11
115.371
21
-128.326
0
LINE
8
BLACK
6
CONTINUOUS
10
115.371
20
-128.326
11
115.608
21
-128.269
0
LINE
8
BLACK
6
CONTINUOUS
10
115.608
20
-128.269
11
115.85
21
-128.25
0
LINE
8
BLACK
6
CONTINUOUS
10
115.85
20
-128.25
11
116.092
21
-128.269
0
LINE
8
BLACK
6
CONTINUOUS
10
116.092
20
-128.269
11
116.329
21
-128.326
0
LINE
8
BLACK
6
CONTINUOUS
10
116.329
20
-128.326
11
116.554
21
-128.419
0
LINE
8
BLACK
6
CONTINUOUS
10
116.554
20
-128.419
11
116.761
21
-128.546
0
LINE
8
BLACK
6
CONTINUOUS
10
116.761
20
-128.546
11
116.946
21
-128.704
0
LINE
8
BLACK
6
CONTINUOUS
10
116.946
20
-128.704
11
117.104
21
-128.889
0
LINE
8
BLACK
6
CONTINUOUS
10
117.104
20
-128.889
11
117.231
21
-129.096
0
LINE
8
BLACK
6
CONTINUOUS
10
117.231
20
-129.096
11
117.324
21
-129.321
0
LINE
8
BLACK
6
CONTINUOUS
10
117.324
20
-129.321
11
117.381
21
-129.558
0
LINE
8
BLACK
6
CONTINUOUS
10
117.381
20
-129.558
11
117.4
21
-129.8
0
LINE
8
BLACK
6
CONTINUOUS
10
117.4
20
-129.8
11
117.381
21
-130.042
0
LINE
8
BLACK
6
CONTINUOUS
10
117.381
20
-130.042
11
117.324
21
-130.279
0
LINE
8
BLACK
6
CONTINUOUS
10
117.324
20
-130.279
11
117.231
21
-130.504
0
LINE
8
BLACK
6
CONTINUOUS
10
117.231
20
-130.504
11
117.104
21
-130.711
0
LINE
8
BLACK
6
CONTINUOUS
10
117.104
20
-130.711
11
116.946
21
-130.896
0
LINE
8
BLACK
6
CONTINUOUS
10
116.946
20
-130.896
11
116.761
21
-131.054
0
LINE
8
BLACK
6
CONTINUOUS
10
116.761
20
-131.054
11
116.554
21
-131.181
0
LINE
8
BLACK
6
CONTINUOUS
10
116.554
20
-131.181
11
116.329
21
-131.274
0
LINE
8
BLACK
6
CONTINUOUS
10
116.329
20
-131.274
11
116.092
21
-131.331
0
LINE
8
BLACK
6
CONTINUOUS
10
116.092
20
-131.331
11
115.85
21
-131.35
0
LINE
8
BLACK
6
CONTINUOUS
10
115.85
20
-131.35
11
115.608
21
-131.331
0
LINE
8
BLACK
6
CONTINUOUS
10
115.608
20
-131.331
11
115.371
21
-131.274
0
LINE
8
BLACK
6
CONTINUOUS
10
115.371
20
-131.274
11
115.146
21
-131.181
0
LINE
8
BLACK
6
CONTINUOUS
10
115.146
20
-131.181
11
114.939
21
-131.054
0
LINE
8
BLACK
6
CONTINUOUS
10
114.939
20
-131.054
11
114.754
21
-130.896
0
LINE
8
BLACK
6
CONTINUOUS
10
114.754
20
-130.896
11
114.596
21
-130.711
0
LINE
8
BLACK
6
CONTINUOUS
10
114.596
20
-130.711
11
114.469
21
-130.504
0
LINE
8
BLACK
6
CONTINUOUS
10
114.469
20
-130.504
11
114.376
21
-130.279
0
LINE
8
BLACK
6
CONTINUOUS
10
114.376
20
-130.279
11
114.319
21
-130.042
0
LINE
8
BLACK
6
CONTINUOUS
10
114.319
20
-130.042
11
114.3
21
-129.8
0
LINE
8
BLACK
6
CONTINUOUS
10
114.3
20
-129.8
11
114.303
21
-129.764
0
LINE
8
BLACK
6
CONTINUOUS
10
114.303
20
-129.764
11
114.319
21
-129.558
0
LINE
8
BLACK
6
CONTINUOUS
10
114.319
20
-129.558
11
114.376
21
-129.321
0
LINE
8
BLACK
6
CONTINUOUS
10
114.462
20
-130.235
11
114.551
21
-130.456
0
LINE
8
BLACK
6
CONTINUOUS
10
114.551
20
-130.456
11
114.676
21
-130.659
0
LINE
8
BLACK
6
CONTINUOUS
10
114.676
20
-130.659
11
114.832
21
-130.84
0
LINE
8
BLACK
6
CONTINUOUS
10
114.832
20
-130.84
11
115.015
21
-130.992
0
LINE
8
BLACK
6
CONTINUOUS
10
115.015
20
-130.992
11
115.221
21
-131.112
0
LINE
8
BLACK
6
CONTINUOUS
10
115.221
20
-131.112
11
115.444
21
-131.197
0
LINE
8
BLACK
6
CONTINUOUS
10
115.444
20
-131.197
11
115.678
21
-131.245
0
LINE
8
BLACK
6
CONTINUOUS
10
115.678
20
-131.245
11
115.916
21
-131.253
0
LINE
8
BLACK
6
CONTINUOUS
10
115.916
20
-131.253
11
116.153
21
-131.223
0
LINE
8
BLACK
6
CONTINUOUS
10
116.153
20
-131.223
11
116.381
21
-131.155
0
LINE
8
BLACK
6
CONTINUOUS
10
116.381
20
-131.155
11
116.595
21
-131.05
0
LINE
8
BLACK
6
CONTINUOUS
10
116.595
20
-131.05
11
116.789
21
-130.911
0
LINE
8
BLACK
6
CONTINUOUS
10
116.789
20
-130.911
11
116.958
21
-130.743
0
LINE
8
BLACK
6
CONTINUOUS
10
116.958
20
-130.743
11
117.097
21
-130.549
0
LINE
8
BLACK
6
CONTINUOUS
10
117.097
20
-130.549
11
117.203
21
-130.336
0
LINE
8
BLACK
6
CONTINUOUS
10
117.203
20
-130.336
11
117.272
21
-130.107
0
LINE
8
BLACK
6
CONTINUOUS
10
117.272
20
-130.107
11
117.303
21
-129.871
0
LINE
8
BLACK
6
CONTINUOUS
10
117.303
20
-129.871
11
117.305
21
-129.8
0
LINE
8
BLACK
6
CONTINUOUS
10
117.305
20
-129.8
11
117.285
21
-129.562
0
LINE
8
BLACK
6
CONTINUOUS
10
117.285
20
-129.562
11
117.227
21
-129.331
0
LINE
8
BLACK
6
CONTINUOUS
10
117.227
20
-129.331
11
117.132
21
-129.112
0
LINE
8
BLACK
6
CONTINUOUS
10
117.132
20
-129.112
11
117.003
21
-128.912
0
LINE
8
BLACK
6
CONTINUOUS
10
117.003
20
-128.912
11
116.842
21
-128.736
0
LINE
8
BLACK
6
CONTINUOUS
10
116.842
20
-128.736
11
116.655
21
-128.588
0
LINE
8
BLACK
6
CONTINUOUS
10
116.655
20
-128.588
11
116.446
21
-128.473
0
LINE
8
BLACK
6
CONTINUOUS
10
116.446
20
-128.473
11
116.222
21
-128.393
0
LINE
8
BLACK
6
CONTINUOUS
10
116.222
20
-128.393
11
115.987
21
-128.351
0
LINE
8
BLACK
6
CONTINUOUS
10
115.987
20
-128.351
11
115.749
21
-128.349
0
LINE
8
BLACK
6
CONTINUOUS
10
115.749
20
-128.349
11
115.513
21
-128.385
0
LINE
8
BLACK
6
CONTINUOUS
10
115.513
20
-128.385
11
115.286
21
-128.459
0
LINE
8
BLACK
6
CONTINUOUS
10
115.286
20
-128.459
11
115.075
21
-128.569
0
LINE
8
BLACK
6
CONTINUOUS
10
115.075
20
-128.569
11
114.884
21
-128.712
0
LINE
8
BLACK
6
CONTINUOUS
10
114.884
20
-128.712
11
114.719
21
-128.884
0
LINE
8
BLACK
6
CONTINUOUS
10
114.719
20
-128.884
11
114.585
21
-129.081
0
LINE
8
BLACK
6
CONTINUOUS
10
114.585
20
-129.081
11
114.485
21
-129.298
0
LINE
8
BLACK
6
CONTINUOUS
10
114.485
20
-129.298
11
114.421
21
-129.527
0
LINE
8
BLACK
6
CONTINUOUS
10
114.421
20
-129.527
11
114.395
21
-129.764
0
LINE
8
BLACK
6
CONTINUOUS
10
114.395
20
-129.764
11
114.409
21
-130.002
0
LINE
8
BLACK
6
CONTINUOUS
10
114.409
20
-130.002
11
114.462
21
-130.235
0
LINE
8
BLACK
6
CONTINUOUS
10
207.426
20
-129.321
11
207.519
21
-129.096
0
LINE
8
BLACK
6
CONTINUOUS
10
207.519
20
-129.096
11
207.646
21
-128.889
0
LINE
8
BLACK
6
CONTINUOUS
10
207.646
20
-128.889
11
207.804
21
-128.704
0
LINE
8
BLACK
6
CONTINUOUS
10
207.804
20
-128.704
11
207.989
21
-128.546
0
LINE
8
BLACK
6
CONTINUOUS
10
207.989
20
-128.546
11
208.196
21
-128.419
0
LINE
8
BLACK
6
CONTINUOUS
10
208.196
20
-128.419
11
208.421
21
-128.326
0
LINE
8
BLACK
6
CONTINUOUS
10
208.421
20
-128.326
11
208.658
21
-128.269
0
LINE
8
BLACK
6
CONTINUOUS
10
208.658
20
-128.269
11
208.9
21
-128.25
0
LINE
8
BLACK
6
CONTINUOUS
10
208.9
20
-128.25
11
209.142
21
-128.269
0
LINE
8
BLACK
6
CONTINUOUS
10
209.142
20
-128.269
11
209.379
21
-128.326
0
LINE
8
BLACK
6
CONTINUOUS
10
209.379
20
-128.326
11
209.604
21
-128.419
0
LINE
8
BLACK
6
CONTINUOUS
10
209.604
20
-128.419
11
209.811
21
-128.546
0
LINE
8
BLACK
6
CONTINUOUS
10
209.811
20
-128.546
11
209.996
21
-128.704
0
LINE
8
BLACK
6
CONTINUOUS
10
209.996
20
-128.704
11
210.154
21
-128.889
0
LINE
8
BLACK
6
CONTINUOUS
10
210.154
20
-128.889
11
210.281
21
-129.096
0
LINE
8
BLACK
6
CONTINUOUS
10
210.281
20
-129.096
11
210.374
21
-129.321
0
LINE
8
BLACK
6
CONTINUOUS
10
210.374
20
-129.321
11
210.431
21
-129.558
0
LINE
8
BLACK
6
CONTINUOUS
10
210.431
20
-129.558
11
210.45
21
-129.8
0
LINE
8
BLACK
6
CONTINUOUS
10
210.45
20
-129.8
11
210.431
21
-130.042
0
LINE
8
BLACK
6
CONTINUOUS
10
210.431
20
-130.042
11
210.374
21
-130.279
0
LINE
8
BLACK
6
CONTINUOUS
10
210.374
20
-130.279
11
210.281
21
-130.504
0
LINE
8
BLACK
6
CONTINUOUS
10
210.281
20
-130.504
11
210.154
21
-130.711
0
LINE
8
BLACK
6
CONTINUOUS
10
210.154
20
-130.711
11
209.996
21
-130.896
0
LINE
8
BLACK
6
CONTINUOUS
10
209.996
20
-130.896
11
209.811
21
-131.054
0
LINE
8
BLACK
6
CONTINUOUS
10
209.811
20
-131.054
11
209.604
21
-131.181
0
LINE
8
BLACK
6
CONTINUOUS
10
209.604
20
-131.181
11
209.379
21
-131.274
0
LINE
8
BLACK
6
CONTINUOUS
10
209.379
20
-131.274
11
209.142
21
-131.331
0
LINE
8
BLACK
6
CONTINUOUS
10
209.142
20
-131.331
11
208.9
21
-131.35
0
LINE
8
BLACK
6
CONTINUOUS
10
208.9
20
-131.35
11
208.658
21
-131.331
0
LINE
8
BLACK
6
CONTINUOUS
10
208.658
20
-131.331
11
208.421
21
-131.274
0
LINE
8
BLACK
6
CONTINUOUS
10
208.421
20
-131.274
11
208.196
21
-131.181
0
LINE
8
BLACK
6
CONTINUOUS
10
208.196
20
-131.181
11
207.989
21
-131.054
0
LINE
8
BLACK
6
CONTINUOUS
10
207.989
20
-131.054
11
207.804
21
-130.896
0
LINE
8
BLACK
6
CONTINUOUS
10
207.804
20
-130.896
11
207.646
21
-130.711
0
LINE
8
BLACK
6
CONTINUOUS
10
207.646
20
-130.711
11
207.519
21
-130.504
0
LINE
8
BLACK
6
CONTINUOUS
10
207.519
20
-130.504
11
207.426
21
-130.279
0
LINE
8
BLACK
6
CONTINUOUS
10
207.426
20
-130.279
11
207.369
21
-130.042
0
LINE
8
BLACK
6
CONTINUOUS
10
207.369
20
-130.042
11
207.35
21
-129.8
0
LINE
8
BLACK
6
CONTINUOUS
10
207.35
20
-129.8
11
207.353
21
-129.764
0
LINE
8
BLACK
6
CONTINUOUS
10
207.353
20
-129.764
11
207.369
21
-129.558
0
LINE
8
BLACK
6
CONTINUOUS
10
207.369
20
-129.558
11
207.426
21
-129.321
0
LINE
8
BLACK
6
CONTINUOUS
10
207.512
20
-130.235
11
207.601
21
-130.456
0
LINE
8
BLACK
6
CONTINUOUS
10
207.601
20
-130.456
11
207.726
21
-130.659
0
LINE
8
BLACK
6
CONTINUOUS
10
207.726
20
-130.659
11
207.882
21
-130.84
0
LINE
8
BLACK
6
CONTINUOUS
10
207.882
20
-130.84
11
208.065
21
-130.992
0
LINE
8
BLACK
6
CONTINUOUS
10
208.065
20
-130.992
11
208.271
21
-131.112
0
LINE
8
BLACK
6
CONTINUOUS
10
208.271
20
-131.112
11
208.494
21
-131.197
0
LINE
8
BLACK
6
CONTINUOUS
10
208.494
20
-131.197
11
208.728
21
-131.245
0
LINE
8
BLACK
6
CONTINUOUS
10
208.728
20
-131.245
11
208.966
21
-131.253
0
LINE
8
BLACK
6
CONTINUOUS
10
208.966
20
-131.253
11
209.203
21
-131.223
0
LINE
8
BLACK
6
CONTINUOUS
10
209.203
20
-131.223
11
209.431
21
-131.155
0
LINE
8
BLACK
6
CONTINUOUS
10
209.431
20
-131.155
11
209.645
21
-131.05
0
LINE
8
BLACK
6
CONTINUOUS
10
209.645
20
-131.05
11
209.839
21
-130.911
0
LINE
8
BLACK
6
CONTINUOUS
10
209.839
20
-130.911
11
210.008
21
-130.743
0
LINE
8
BLACK
6
CONTINUOUS
10
210.008
20
-130.743
11
210.147
21
-130.549
0
LINE
8
BLACK
6
CONTINUOUS
10
210.147
20
-130.549
11
210.253
21
-130.336
0
LINE
8
BLACK
6
CONTINUOUS
10
210.253
20
-130.336
11
210.322
21
-130.107
0
LINE
8
BLACK
6
CONTINUOUS
10
210.322
20
-130.107
11
210.353
21
-129.871
0
LINE
8
BLACK
6
CONTINUOUS
10
210.353
20
-129.871
11
210.355
21
-129.8
0
LINE
8
BLACK
6
CONTINUOUS
10
210.355
20
-129.8
11
210.335
21
-129.562
0
LINE
8
BLACK
6
CONTINUOUS
10
210.335
20
-129.562
11
210.277
21
-129.331
0
LINE
8
BLACK
6
CONTINUOUS
10
210.277
20
-129.331
11
210.182
21
-129.112
0
LINE
8
BLACK
6
CONTINUOUS
10
210.182
20
-129.112
11
210.053
21
-128.912
0
LINE
8
BLACK
6
CONTINUOUS
10
210.053
20
-128.912
11
209.892
21
-128.736
0
LINE
8
BLACK
6
CONTINUOUS
10
209.892
20
-128.736
11
209.705
21
-128.588
0
LINE
8
BLACK
6
CONTINUOUS
10
209.705
20
-128.588
11
209.496
21
-128.473
0
LINE
8
BLACK
6
CONTINUOUS
10
209.496
20
-128.473
11
209.272
21
-128.393
0
LINE
8
BLACK
6
CONTINUOUS
10
209.272
20
-128.393
11
209.037
21
-128.351
0
LINE
8
BLACK
6
CONTINUOUS
10
209.037
20
-128.351
11
208.799
21
-128.349
0
LINE
8
BLACK
6
CONTINUOUS
10
208.799
20
-128.349
11
208.563
21
-128.385
0
LINE
8
BLACK
6
CONTINUOUS
10
208.563
20
-128.385
11
208.336
21
-128.459
0
LINE
8
BLACK
6
CONTINUOUS
10
208.336
20
-128.459
11
208.125
21
-128.569
0
LINE
8
BLACK
6
CONTINUOUS
10
208.125
20
-128.569
11
207.934
21
-128.712
0
LINE
8
BLACK
6
CONTINUOUS
10
207.934
20
-128.712
11
207.769
21
-128.884
0
LINE
8
BLACK
6
CONTINUOUS
10
207.769
20
-128.884
11
207.635
21
-129.081
0
LINE
8
BLACK
6
CONTINUOUS
10
207.635
20
-129.081
11
207.535
21
-129.298
0
LINE
8
BLACK
6
CONTINUOUS
10
207.535
20
-129.298
11
207.471
21
-129.527
0
LINE
8
BLACK
6
CONTINUOUS
10
207.471
20
-129.527
11
207.445
21
-129.764
0
LINE
8
BLACK
6
CONTINUOUS
10
207.445
20
-129.764
11
207.459
21
-130.002
0
LINE
8
BLACK
6
CONTINUOUS
10
207.459
20
-130.002
11
207.512
21
-130.235
0
LINE
8
BLACK
6
CONTINUOUS
10
108.295
20
-123.272
11
108.395
21
-123.031
0
LINE
8
BLACK
6
CONTINUOUS
10
108.395
20
-123.031
11
108.531
21
-122.809
0
LINE
8
BLACK
6
CONTINUOUS
10
108.531
20
-122.809
11
108.7
21
-122.611
0
LINE
8
BLACK
6
CONTINUOUS
10
108.7
20
-122.611
11
108.898
21
-122.442
0
LINE
8
BLACK
6
CONTINUOUS
10
108.898
20
-122.442
11
109.12
21
-122.306
0
LINE
8
BLACK
6
CONTINUOUS
10
109.12
20
-122.306
11
109.361
21
-122.206
0
LINE
8
BLACK
6
CONTINUOUS
10
109.361
20
-122.206
11
109.614
21
-122.146
0
LINE
8
BLACK
6
CONTINUOUS
10
109.614
20
-122.146
11
109.874
21
-122.125
0
LINE
8
BLACK
6
CONTINUOUS
10
109.874
20
-122.125
11
110.133
21
-122.146
0
LINE
8
BLACK
6
CONTINUOUS
10
110.133
20
-122.146
11
110.387
21
-122.206
0
LINE
8
BLACK
6
CONTINUOUS
10
110.387
20
-122.206
11
110.627
21
-122.306
0
LINE
8
BLACK
6
CONTINUOUS
10
110.627
20
-122.306
11
110.849
21
-122.442
0
LINE
8
BLACK
6
CONTINUOUS
10
110.849
20
-122.442
11
111.047
21
-122.611
0
LINE
8
BLACK
6
CONTINUOUS
10
111.047
20
-122.611
11
111.217
21
-122.809
0
LINE
8
BLACK
6
CONTINUOUS
10
111.217
20
-122.809
11
111.353
21
-123.031
0
LINE
8
BLACK
6
CONTINUOUS
10
111.353
20
-123.031
11
111.452
21
-123.272
0
LINE
8
BLACK
6
CONTINUOUS
10
111.452
20
-123.272
11
111.513
21
-123.525
0
LINE
8
BLACK
6
CONTINUOUS
10
111.513
20
-123.525
11
111.534
21
-123.785
0
LINE
8
BLACK
6
CONTINUOUS
10
111.534
20
-123.785
11
111.513
21
-124.045
0
LINE
8
BLACK
6
CONTINUOUS
10
111.513
20
-124.045
11
111.452
21
-124.298
0
LINE
8
BLACK
6
CONTINUOUS
10
111.452
20
-124.298
11
111.353
21
-124.538
0
LINE
8
BLACK
6
CONTINUOUS
10
111.353
20
-124.538
11
111.217
21
-124.76
0
LINE
8
BLACK
6
CONTINUOUS
10
111.217
20
-124.76
11
111.047
21
-124.959
0
LINE
8
BLACK
6
CONTINUOUS
10
111.047
20
-124.959
11
110.849
21
-125.128
0
LINE
8
BLACK
6
CONTINUOUS
10
110.849
20
-125.128
11
110.627
21
-125.264
0
LINE
8
BLACK
6
CONTINUOUS
10
110.627
20
-125.264
11
110.387
21
-125.363
0
LINE
8
BLACK
6
CONTINUOUS
10
110.387
20
-125.363
11
110.133
21
-125.424
0
LINE
8
BLACK
6
CONTINUOUS
10
110.133
20
-125.424
11
109.874
21
-125.445
0
LINE
8
BLACK
6
CONTINUOUS
10
109.874
20
-125.445
11
109.614
21
-125.424
0
LINE
8
BLACK
6
CONTINUOUS
10
109.614
20
-125.424
11
109.361
21
-125.363
0
LINE
8
BLACK
6
CONTINUOUS
10
109.361
20
-125.363
11
109.12
21
-125.264
0
LINE
8
BLACK
6
CONTINUOUS
10
109.12
20
-125.264
11
108.898
21
-125.128
0
LINE
8
BLACK
6
CONTINUOUS
10
108.898
20
-125.128
11
108.7
21
-124.959
0
LINE
8
BLACK
6
CONTINUOUS
10
108.7
20
-124.959
11
108.531
21
-124.76
0
LINE
8
BLACK
6
CONTINUOUS
10
108.531
20
-124.76
11
108.395
21
-124.538
0
LINE
8
BLACK
6
CONTINUOUS
10
108.395
20
-124.538
11
108.295
21
-124.298
0
LINE
8
BLACK
6
CONTINUOUS
10
108.295
20
-124.298
11
108.235
21
-124.045
0
LINE
8
BLACK
6
CONTINUOUS
10
108.235
20
-124.045
11
108.214
21
-123.785
0
LINE
8
BLACK
6
CONTINUOUS
10
108.214
20
-123.785
11
108.235
21
-123.525
0
LINE
8
BLACK
6
CONTINUOUS
10
108.235
20
-123.525
11
108.295
21
-123.272
0
LINE
8
BLACK
6
CONTINUOUS
10
108.405
20
-124.262
11
108.498
21
-124.486
0
LINE
8
BLACK
6
CONTINUOUS
10
108.498
20
-124.486
11
108.624
21
-124.693
0
LINE
8
BLACK
6
CONTINUOUS
10
108.624
20
-124.693
11
108.782
21
-124.877
0
LINE
8
BLACK
6
CONTINUOUS
10
108.782
20
-124.877
11
108.966
21
-125.034
0
LINE
8
BLACK
6
CONTINUOUS
10
108.966
20
-125.034
11
109.173
21
-125.161
0
LINE
8
BLACK
6
CONTINUOUS
10
109.173
20
-125.161
11
109.397
21
-125.254
0
LINE
8
BLACK
6
CONTINUOUS
10
109.397
20
-125.254
11
109.632
21
-125.31
0
LINE
8
BLACK
6
CONTINUOUS
10
109.632
20
-125.31
11
109.874
21
-125.329
0
LINE
8
BLACK
6
CONTINUOUS
10
109.874
20
-125.329
11
110.115
21
-125.31
0
LINE
8
BLACK
6
CONTINUOUS
10
110.115
20
-125.31
11
110.351
21
-125.254
0
LINE
8
BLACK
6
CONTINUOUS
10
110.351
20
-125.254
11
110.575
21
-125.161
0
LINE
8
BLACK
6
CONTINUOUS
10
110.575
20
-125.161
11
110.782
21
-125.034
0
LINE
8
BLACK
6
CONTINUOUS
10
110.782
20
-125.034
11
110.966
21
-124.877
0
LINE
8
BLACK
6
CONTINUOUS
10
110.966
20
-124.877
11
111.123
21
-124.693
0
LINE
8
BLACK
6
CONTINUOUS
10
111.123
20
-124.693
11
111.25
21
-124.486
0
LINE
8
BLACK
6
CONTINUOUS
10
111.25
20
-124.486
11
111.343
21
-124.262
0
LINE
8
BLACK
6
CONTINUOUS
10
111.343
20
-124.262
11
111.399
21
-124.027
0
LINE
8
BLACK
6
CONTINUOUS
10
111.399
20
-124.027
11
111.418
21
-123.785
0
LINE
8
BLACK
6
CONTINUOUS
10
111.418
20
-123.785
11
111.399
21
-123.543
0
LINE
8
BLACK
6
CONTINUOUS
10
111.399
20
-123.543
11
111.343
21
-123.308
0
LINE
8
BLACK
6
CONTINUOUS
10
111.343
20
-123.308
11
111.25
21
-123.084
0
LINE
8
BLACK
6
CONTINUOUS
10
111.25
20
-123.084
11
111.123
21
-122.877
0
LINE
8
BLACK
6
CONTINUOUS
10
111.123
20
-122.877
11
110.966
21
-122.693
0
LINE
8
BLACK
6
CONTINUOUS
10
110.966
20
-122.693
11
110.782
21
-122.535
0
LINE
8
BLACK
6
CONTINUOUS
10
110.782
20
-122.535
11
110.575
21
-122.409
0
LINE
8
BLACK
6
CONTINUOUS
10
110.575
20
-122.409
11
110.351
21
-122.316
0
LINE
8
BLACK
6
CONTINUOUS
10
110.351
20
-122.316
11
110.115
21
-122.26
0
LINE
8
BLACK
6
CONTINUOUS
10
110.115
20
-122.26
11
109.874
21
-122.24
0
LINE
8
BLACK
6
CONTINUOUS
10
109.874
20
-122.24
11
109.632
21
-122.26
0
LINE
8
BLACK
6
CONTINUOUS
10
109.632
20
-122.26
11
109.397
21
-122.316
0
LINE
8
BLACK
6
CONTINUOUS
10
109.397
20
-122.316
11
109.173
21
-122.409
0
LINE
8
BLACK
6
CONTINUOUS
10
109.173
20
-122.409
11
108.966
21
-122.535
0
LINE
8
BLACK
6
CONTINUOUS
10
108.966
20
-122.535
11
108.782
21
-122.693
0
LINE
8
BLACK
6
CONTINUOUS
10
108.782
20
-122.693
11
108.624
21
-122.877
0
LINE
8
BLACK
6
CONTINUOUS
10
108.624
20
-122.877
11
108.498
21
-123.084
0
LINE
8
BLACK
6
CONTINUOUS
10
108.498
20
-123.084
11
108.405
21
-123.308
0
LINE
8
BLACK
6
CONTINUOUS
10
108.405
20
-123.308
11
108.348
21
-123.543
0
LINE
8
BLACK
6
CONTINUOUS
10
108.348
20
-123.543
11
108.329
21
-123.785
0
LINE
8
BLACK
6
CONTINUOUS
10
108.329
20
-123.785
11
108.348
21
-124.027
0
LINE
8
BLACK
6
CONTINUOUS
10
108.348
20
-124.027
11
108.405
21
-124.262
0
LINE
8
BLACK
6
CONTINUOUS
10
72.2246
20
-123.481
11
72.2857
21
-123.24
0
LINE
8
BLACK
6
CONTINUOUS
10
72.2857
20
-123.24
11
72.3817
21
-123.011
0
LINE
8
BLACK
6
CONTINUOUS
10
72.3817
20
-123.011
11
72.5106
21
-122.799
0
LINE
8
BLACK
6
CONTINUOUS
10
72.5106
20
-122.799
11
72.6694
21
-122.608
0
LINE
8
BLACK
6
CONTINUOUS
10
72.6694
20
-122.608
11
72.8546
21
-122.442
0
LINE
8
BLACK
6
CONTINUOUS
10
72.8546
20
-122.442
11
73.0623
21
-122.306
0
LINE
8
BLACK
6
CONTINUOUS
10
73.0623
20
-122.306
11
73.2878
21
-122.202
0
LINE
8
BLACK
6
CONTINUOUS
10
73.2878
20
-122.202
11
73.5263
21
-122.133
0
LINE
8
BLACK
6
CONTINUOUS
10
73.5263
20
-122.133
11
73.7723
21
-122.099
0
LINE
8
BLACK
6
CONTINUOUS
10
73.7723
20
-122.099
11
74.0206
21
-122.102
0
LINE
8
BLACK
6
CONTINUOUS
10
74.0206
20
-122.102
11
74.2658
21
-122.142
0
LINE
8
BLACK
6
CONTINUOUS
10
74.2658
20
-122.142
11
74.5023
21
-122.218
0
LINE
8
BLACK
6
CONTINUOUS
10
74.5023
20
-122.218
11
74.725
21
-122.328
0
LINE
8
BLACK
6
CONTINUOUS
10
74.725
20
-122.328
11
74.929
21
-122.469
0
LINE
8
BLACK
6
CONTINUOUS
10
74.929
20
-122.469
11
75.1099
21
-122.64
0
LINE
8
BLACK
6
CONTINUOUS
10
75.1099
20
-122.64
11
75.2637
21
-122.835
0
LINE
8
BLACK
6
CONTINUOUS
10
75.2637
20
-122.835
11
75.3869
21
-123.05
0
LINE
8
BLACK
6
CONTINUOUS
10
75.3869
20
-123.05
11
75.4769
21
-123.282
0
LINE
8
BLACK
6
CONTINUOUS
10
75.4769
20
-123.282
11
75.5317
21
-123.524
0
LINE
8
BLACK
6
CONTINUOUS
10
75.5317
20
-123.524
11
75.5501
21
-123.772
0
LINE
8
BLACK
6
CONTINUOUS
10
75.5501
20
-123.772
11
75.5478
21
-123.859
0
LINE
8
BLACK
6
CONTINUOUS
10
75.5478
20
-123.859
11
75.5165
21
-124.106
0
LINE
8
BLACK
6
CONTINUOUS
10
75.5165
20
-124.106
11
75.4491
21
-124.345
0
LINE
8
BLACK
6
CONTINUOUS
10
75.4491
20
-124.345
11
75.3471
21
-124.571
0
LINE
8
BLACK
6
CONTINUOUS
10
75.3471
20
-124.571
11
75.2127
21
-124.78
0
LINE
8
BLACK
6
CONTINUOUS
10
75.2127
20
-124.78
11
75.049
21
-124.967
0
LINE
8
BLACK
6
CONTINUOUS
10
75.049
20
-124.967
11
74.8594
21
-125.127
0
LINE
8
BLACK
6
CONTINUOUS
10
74.8594
20
-125.127
11
74.6483
21
-125.258
0
LINE
8
BLACK
6
CONTINUOUS
10
74.6483
20
-125.258
11
74.4201
21
-125.356
0
LINE
8
BLACK
6
CONTINUOUS
10
74.4201
20
-125.356
11
74.18
21
-125.419
0
LINE
8
BLACK
6
CONTINUOUS
10
74.18
20
-125.419
11
73.9331
21
-125.446
0
LINE
8
BLACK
6
CONTINUOUS
10
73.9331
20
-125.446
11
73.6849
21
-125.436
0
LINE
8
BLACK
6
CONTINUOUS
10
73.6849
20
-125.436
11
73.441
21
-125.39
0
LINE
8
BLACK
6
CONTINUOUS
10
73.441
20
-125.39
11
73.2065
21
-125.308
0
LINE
8
BLACK
6
CONTINUOUS
10
73.2065
20
-125.308
11
72.9867
21
-125.192
0
LINE
8
BLACK
6
CONTINUOUS
10
72.9867
20
-125.192
11
72.7865
21
-125.046
0
LINE
8
BLACK
6
CONTINUOUS
10
72.7865
20
-125.046
11
72.6101
21
-124.871
0
LINE
8
BLACK
6
CONTINUOUS
10
72.6101
20
-124.871
11
72.4615
21
-124.672
0
LINE
8
BLACK
6
CONTINUOUS
10
72.4615
20
-124.672
11
72.344
21
-124.453
0
LINE
8
BLACK
6
CONTINUOUS
10
72.344
20
-124.453
11
72.2601
21
-124.219
0
LINE
8
BLACK
6
CONTINUOUS
10
72.2601
20
-124.219
11
72.2116
21
-123.976
0
LINE
8
BLACK
6
CONTINUOUS
10
72.2116
20
-123.976
11
72.2018
21
-123.772
0
LINE
8
BLACK
6
CONTINUOUS
10
72.2018
20
-123.772
11
72.1997
21
-123.728
0
LINE
8
BLACK
6
CONTINUOUS
10
72.1997
20
-123.728
11
72.2246
21
-123.481
0
LINE
8
BLACK
6
CONTINUOUS
10
72.3907
20
-124.254
11
72.4844
21
-124.48
0
LINE
8
BLACK
6
CONTINUOUS
10
72.4844
20
-124.48
11
72.6123
21
-124.689
0
LINE
8
BLACK
6
CONTINUOUS
10
72.6123
20
-124.689
11
72.7713
21
-124.875
0
LINE
8
BLACK
6
CONTINUOUS
10
72.7713
20
-124.875
11
72.9575
21
-125.034
0
LINE
8
BLACK
6
CONTINUOUS
10
72.9575
20
-125.034
11
73.1663
21
-125.162
0
LINE
8
BLACK
6
CONTINUOUS
10
73.1663
20
-125.162
11
73.3925
21
-125.256
0
LINE
8
BLACK
6
CONTINUOUS
10
73.3925
20
-125.256
11
73.6305
21
-125.313
0
LINE
8
BLACK
6
CONTINUOUS
10
73.6305
20
-125.313
11
73.8746
21
-125.332
0
LINE
8
BLACK
6
CONTINUOUS
10
73.8746
20
-125.332
11
74.1187
21
-125.313
0
LINE
8
BLACK
6
CONTINUOUS
10
74.1187
20
-125.313
11
74.3568
21
-125.256
0
LINE
8
BLACK
6
CONTINUOUS
10
74.3568
20
-125.256
11
74.583
21
-125.162
0
LINE
8
BLACK
6
CONTINUOUS
10
74.583
20
-125.162
11
74.7917
21
-125.034
0
LINE
8
BLACK
6
CONTINUOUS
10
74.7917
20
-125.034
11
74.9779
21
-124.875
0
LINE
8
BLACK
6
CONTINUOUS
10
74.9779
20
-124.875
11
75.1369
21
-124.689
0
LINE
8
BLACK
6
CONTINUOUS
10
75.1369
20
-124.689
11
75.2649
21
-124.48
0
LINE
8
BLACK
6
CONTINUOUS
10
75.2649
20
-124.48
11
75.3586
21
-124.254
0
LINE
8
BLACK
6
CONTINUOUS
10
75.3586
20
-124.254
11
75.4157
21
-124.016
0
LINE
8
BLACK
6
CONTINUOUS
10
75.4157
20
-124.016
11
75.4349
21
-123.772
0
LINE
8
BLACK
6
CONTINUOUS
10
75.4349
20
-123.772
11
75.4157
21
-123.528
0
LINE
8
BLACK
6
CONTINUOUS
10
75.4157
20
-123.528
11
75.3586
21
-123.289
0
LINE
8
BLACK
6
CONTINUOUS
10
75.3586
20
-123.289
11
75.2649
21
-123.063
0
LINE
8
BLACK
6
CONTINUOUS
10
75.2649
20
-123.063
11
75.1369
21
-122.854
0
LINE
8
BLACK
6
CONTINUOUS
10
75.1369
20
-122.854
11
74.9779
21
-122.668
0
LINE
8
BLACK
6
CONTINUOUS
10
74.9779
20
-122.668
11
74.7917
21
-122.509
0
LINE
8
BLACK
6
CONTINUOUS
10
74.7917
20
-122.509
11
74.583
21
-122.381
0
LINE
8
BLACK
6
CONTINUOUS
10
74.583
20
-122.381
11
74.3568
21
-122.288
0
LINE
8
BLACK
6
CONTINUOUS
10
74.3568
20
-122.288
11
74.1187
21
-122.23
0
LINE
8
BLACK
6
CONTINUOUS
10
74.1187
20
-122.23
11
73.8746
21
-122.211
0
LINE
8
BLACK
6
CONTINUOUS
10
73.8746
20
-122.211
11
73.6305
21
-122.23
0
LINE
8
BLACK
6
CONTINUOUS
10
73.6305
20
-122.23
11
73.3925
21
-122.288
0
LINE
8
BLACK
6
CONTINUOUS
10
73.3925
20
-122.288
11
73.1663
21
-122.381
0
LINE
8
BLACK
6
CONTINUOUS
10
73.1663
20
-122.381
11
72.9575
21
-122.509
0
LINE
8
BLACK
6
CONTINUOUS
10
72.9575
20
-122.509
11
72.7713
21
-122.668
0
LINE
8
BLACK
6
CONTINUOUS
10
72.7713
20
-122.668
11
72.6123
21
-122.854
0
LINE
8
BLACK
6
CONTINUOUS
10
72.6123
20
-122.854
11
72.4844
21
-123.063
0
LINE
8
BLACK
6
CONTINUOUS
10
72.4844
20
-123.063
11
72.3907
21
-123.289
0
LINE
8
BLACK
6
CONTINUOUS
10
72.3907
20
-123.289
11
72.3335
21
-123.528
0
LINE
8
BLACK
6
CONTINUOUS
10
72.3335
20
-123.528
11
72.3143
21
-123.772
0
LINE
8
BLACK
6
CONTINUOUS
10
72.3143
20
-123.772
11
72.3335
21
-124.016
0
LINE
8
BLACK
6
CONTINUOUS
10
72.3335
20
-124.016
11
72.3907
21
-124.254
0
LINE
8
BLACK
6
CONTINUOUS
10
72.1634
20
-84.4814
11
72.2251
21
-84.2383
0
LINE
8
BLACK
6
CONTINUOUS
10
72.2251
20
-84.2383
11
72.3221
21
-84.007
0
LINE
8
BLACK
6
CONTINUOUS
10
72.3221
20
-84.007
11
72.4522
21
-83.7926
0
LINE
8
BLACK
6
CONTINUOUS
10
72.4522
20
-83.7926
11
72.6126
21
-83.5998
0
LINE
8
BLACK
6
CONTINUOUS
10
72.6126
20
-83.5998
11
72.7997
21
-83.4328
0
LINE
8
BLACK
6
CONTINUOUS
10
72.7997
20
-83.4328
11
73.0094
21
-83.2953
0
LINE
8
BLACK
6
CONTINUOUS
10
73.0094
20
-83.2953
11
73.2371
21
-83.1904
0
LINE
8
BLACK
6
CONTINUOUS
10
73.2371
20
-83.1904
11
73.4779
21
-83.1202
0
LINE
8
BLACK
6
CONTINUOUS
10
73.4779
20
-83.1202
11
73.7264
21
-83.0864
0
LINE
8
BLACK
6
CONTINUOUS
10
73.7264
20
-83.0864
11
73.9771
21
-83.0897
0
LINE
8
BLACK
6
CONTINUOUS
10
73.9771
20
-83.0897
11
74.2246
21
-83.13
0
LINE
8
BLACK
6
CONTINUOUS
10
74.2246
20
-83.13
11
74.4635
21
-83.2064
0
LINE
8
BLACK
6
CONTINUOUS
10
74.4635
20
-83.2064
11
74.6884
21
-83.3173
0
LINE
8
BLACK
6
CONTINUOUS
10
74.6884
20
-83.3173
11
74.8944
21
-83.4603
0
LINE
8
BLACK
6
CONTINUOUS
10
74.8944
20
-83.4603
11
75.0771
21
-83.6321
0
LINE
8
BLACK
6
CONTINUOUS
10
75.0771
20
-83.6321
11
75.2323
21
-83.829
0
LINE
8
BLACK
6
CONTINUOUS
10
75.2323
20
-83.829
11
75.3568
21
-84.0468
0
LINE
8
BLACK
6
CONTINUOUS
10
75.3568
20
-84.0468
11
75.4477
21
-84.2805
0
LINE
8
BLACK
6
CONTINUOUS
10
75.4477
20
-84.2805
11
75.503
21
-84.5251
0
LINE
8
BLACK
6
CONTINUOUS
10
75.503
20
-84.5251
11
75.5216
21
-84.7752
0
LINE
8
BLACK
6
CONTINUOUS
10
75.5216
20
-84.7752
11
75.5193
21
-84.8637
0
LINE
8
BLACK
6
CONTINUOUS
10
75.5193
20
-84.8637
11
75.4876
21
-85.1125
0
LINE
8
BLACK
6
CONTINUOUS
10
75.4876
20
-85.1125
11
75.4195
21
-85.3538
0
LINE
8
BLACK
6
CONTINUOUS
10
75.4195
20
-85.3538
11
75.3166
21
-85.5825
0
LINE
8
BLACK
6
CONTINUOUS
10
75.3166
20
-85.5825
11
75.1809
21
-85.7934
0
LINE
8
BLACK
6
CONTINUOUS
10
75.1809
20
-85.7934
11
75.0155
21
-85.9819
0
LINE
8
BLACK
6
CONTINUOUS
10
75.0155
20
-85.9819
11
74.8241
21
-86.144
0
LINE
8
BLACK
6
CONTINUOUS
10
74.8241
20
-86.144
11
74.6109
21
-86.2759
0
LINE
8
BLACK
6
CONTINUOUS
10
74.6109
20
-86.2759
11
74.3805
21
-86.3749
0
LINE
8
BLACK
6
CONTINUOUS
10
74.3805
20
-86.3749
11
74.138
21
-86.4388
0
LINE
8
BLACK
6
CONTINUOUS
10
74.138
20
-86.4388
11
73.8887
21
-86.4661
0
LINE
8
BLACK
6
CONTINUOUS
10
73.8887
20
-86.4661
11
73.6381
21
-86.4562
0
LINE
8
BLACK
6
CONTINUOUS
10
73.6381
20
-86.4562
11
73.3917
21
-86.4094
0
LINE
8
BLACK
6
CONTINUOUS
10
73.3917
20
-86.4094
11
73.155
21
-86.3268
0
LINE
8
BLACK
6
CONTINUOUS
10
73.155
20
-86.3268
11
72.9331
21
-86.21
0
LINE
8
BLACK
6
CONTINUOUS
10
72.9331
20
-86.21
11
72.7308
21
-86.0617
0
LINE
8
BLACK
6
CONTINUOUS
10
72.7308
20
-86.0617
11
72.5527
21
-85.8852
0
LINE
8
BLACK
6
CONTINUOUS
10
72.5527
20
-85.8852
11
72.4027
21
-85.6842
0
LINE
8
BLACK
6
CONTINUOUS
10
72.4027
20
-85.6842
11
72.284
21
-85.4633
0
LINE
8
BLACK
6
CONTINUOUS
10
72.284
20
-85.4633
11
72.1992
21
-85.2273
0
LINE
8
BLACK
6
CONTINUOUS
10
72.1992
20
-85.2273
11
72.1503
21
-84.9813
0
LINE
8
BLACK
6
CONTINUOUS
10
72.1503
20
-84.9813
11
72.1404
21
-84.7752
0
LINE
8
BLACK
6
CONTINUOUS
10
72.1404
20
-84.7752
11
72.1383
21
-84.7309
0
LINE
8
BLACK
6
CONTINUOUS
10
72.1383
20
-84.7309
11
72.1634
21
-84.4814
0
LINE
8
BLACK
6
CONTINUOUS
10
72.33
20
-85.2624
11
72.4247
21
-85.491
0
LINE
8
BLACK
6
CONTINUOUS
10
72.4247
20
-85.491
11
72.554
21
-85.702
0
LINE
8
BLACK
6
CONTINUOUS
10
72.554
20
-85.702
11
72.7147
21
-85.8901
0
LINE
8
BLACK
6
CONTINUOUS
10
72.7147
20
-85.8901
11
72.9028
21
-86.0508
0
LINE
8
BLACK
6
CONTINUOUS
10
72.9028
20
-86.0508
11
73.1138
21
-86.1801
0
LINE
8
BLACK
6
CONTINUOUS
10
73.1138
20
-86.1801
11
73.3424
21
-86.2748
0
LINE
8
BLACK
6
CONTINUOUS
10
73.3424
20
-86.2748
11
73.583
21
-86.3325
0
LINE
8
BLACK
6
CONTINUOUS
10
73.583
20
-86.3325
11
73.8296
21
-86.352
0
LINE
8
BLACK
6
CONTINUOUS
10
73.8296
20
-86.352
11
74.0763
21
-86.3325
0
LINE
8
BLACK
6
CONTINUOUS
10
74.0763
20
-86.3325
11
74.3169
21
-86.2748
0
LINE
8
BLACK
6
CONTINUOUS
10
74.3169
20
-86.2748
11
74.5455
21
-86.1801
0
LINE
8
BLACK
6
CONTINUOUS
10
74.5455
20
-86.1801
11
74.7565
21
-86.0508
0
LINE
8
BLACK
6
CONTINUOUS
10
74.7565
20
-86.0508
11
74.9446
21
-85.8901
0
LINE
8
BLACK
6
CONTINUOUS
10
74.9446
20
-85.8901
11
75.1053
21
-85.702
0
LINE
8
BLACK
6
CONTINUOUS
10
75.1053
20
-85.702
11
75.2346
21
-85.491
0
LINE
8
BLACK
6
CONTINUOUS
10
75.2346
20
-85.491
11
75.3293
21
-85.2624
0
LINE
8
BLACK
6
CONTINUOUS
10
75.3293
20
-85.2624
11
75.387
21
-85.0218
0
LINE
8
BLACK
6
CONTINUOUS
10
75.387
20
-85.0218
11
75.4064
21
-84.7752
0
LINE
8
BLACK
6
CONTINUOUS
10
75.4064
20
-84.7752
11
75.387
21
-84.5285
0
LINE
8
BLACK
6
CONTINUOUS
10
75.387
20
-84.5285
11
75.3293
21
-84.2879
0
LINE
8
BLACK
6
CONTINUOUS
10
75.3293
20
-84.2879
11
75.2346
21
-84.0593
0
LINE
8
BLACK
6
CONTINUOUS
10
75.2346
20
-84.0593
11
75.1053
21
-83.8483
0
LINE
8
BLACK
6
CONTINUOUS
10
75.1053
20
-83.8483
11
74.9446
21
-83.6602
0
LINE
8
BLACK
6
CONTINUOUS
10
74.9446
20
-83.6602
11
74.7565
21
-83.4995
0
LINE
8
BLACK
6
CONTINUOUS
10
74.7565
20
-83.4995
11
74.5455
21
-83.3702
0
LINE
8
BLACK
6
CONTINUOUS
10
74.5455
20
-83.3702
11
74.3169
21
-83.2755
0
LINE
8
BLACK
6
CONTINUOUS
10
74.3169
20
-83.2755
11
74.0763
21
-83.2178
0
LINE
8
BLACK
6
CONTINUOUS
10
74.0763
20
-83.2178
11
73.8296
21
-83.1984
0
LINE
8
BLACK
6
CONTINUOUS
10
73.8296
20
-83.1984
11
73.583
21
-83.2178
0
LINE
8
BLACK
6
CONTINUOUS
10
73.583
20
-83.2178
11
73.3424
21
-83.2755
0
LINE
8
BLACK
6
CONTINUOUS
10
73.3424
20
-83.2755
11
73.1138
21
-83.3702
0
LINE
8
BLACK
6
CONTINUOUS
10
73.1138
20
-83.3702
11
72.9028
21
-83.4995
0
LINE
8
BLACK
6
CONTINUOUS
10
72.9028
20
-83.4995
11
72.7147
21
-83.6602
0
LINE
8
BLACK
6
CONTINUOUS
10
72.7147
20
-83.6602
11
72.554
21
-83.8483
0
LINE
8
BLACK
6
CONTINUOUS
10
72.554
20
-83.8483
11
72.4247
21
-84.0593
0
LINE
8
BLACK
6
CONTINUOUS
10
72.4247
20
-84.0593
11
72.33
21
-84.2879
0
LINE
8
BLACK
6
CONTINUOUS
10
72.33
20
-84.2879
11
72.2723
21
-84.5285
0
LINE
8
BLACK
6
CONTINUOUS
10
72.2723
20
-84.5285
11
72.2528
21
-84.7752
0
LINE
8
BLACK
6
CONTINUOUS
10
72.2528
20
-84.7752
11
72.2723
21
-85.0218
0
LINE
8
BLACK
6
CONTINUOUS
10
72.2723
20
-85.0218
11
72.33
21
-85.2624
0
LINE
8
BLACK
6
CONTINUOUS
10
108.209
20
-84.4741
11
108.269
21
-84.2349
0
LINE
8
BLACK
6
CONTINUOUS
10
108.269
20
-84.2349
11
108.365
21
-84.0073
0
LINE
8
BLACK
6
CONTINUOUS
10
108.365
20
-84.0073
11
108.493
21
-83.7964
0
LINE
8
BLACK
6
CONTINUOUS
10
108.493
20
-83.7964
11
108.651
21
-83.6066
0
LINE
8
BLACK
6
CONTINUOUS
10
108.651
20
-83.6066
11
108.835
21
-83.4423
0
LINE
8
BLACK
6
CONTINUOUS
10
108.835
20
-83.4423
11
109.041
21
-83.307
0
LINE
8
BLACK
6
CONTINUOUS
10
109.041
20
-83.307
11
109.265
21
-83.2036
0
LINE
8
BLACK
6
CONTINUOUS
10
109.265
20
-83.2036
11
109.502
21
-83.1346
0
LINE
8
BLACK
6
CONTINUOUS
10
109.502
20
-83.1346
11
109.747
21
-83.1013
0
LINE
8
BLACK
6
CONTINUOUS
10
109.747
20
-83.1013
11
109.994
21
-83.1045
0
LINE
8
BLACK
6
CONTINUOUS
10
109.994
20
-83.1045
11
110.237
21
-83.1442
0
LINE
8
BLACK
6
CONTINUOUS
10
110.237
20
-83.1442
11
110.472
21
-83.2194
0
LINE
8
BLACK
6
CONTINUOUS
10
110.472
20
-83.2194
11
110.694
21
-83.3286
0
LINE
8
BLACK
6
CONTINUOUS
10
110.694
20
-83.3286
11
110.896
21
-83.4693
0
LINE
8
BLACK
6
CONTINUOUS
10
110.896
20
-83.4693
11
111.076
21
-83.6384
0
LINE
8
BLACK
6
CONTINUOUS
10
111.076
20
-83.6384
11
111.229
21
-83.8322
0
LINE
8
BLACK
6
CONTINUOUS
10
111.229
20
-83.8322
11
111.351
21
-84.0464
0
LINE
8
BLACK
6
CONTINUOUS
10
111.351
20
-84.0464
11
111.441
21
-84.2764
0
LINE
8
BLACK
6
CONTINUOUS
10
111.441
20
-84.2764
11
111.495
21
-84.5172
0
LINE
8
BLACK
6
CONTINUOUS
10
111.495
20
-84.5172
11
111.514
21
-84.7633
0
LINE
8
BLACK
6
CONTINUOUS
10
111.514
20
-84.7633
11
111.511
21
-84.8504
0
LINE
8
BLACK
6
CONTINUOUS
10
111.511
20
-84.8504
11
111.48
21
-85.0952
0
LINE
8
BLACK
6
CONTINUOUS
10
111.48
20
-85.0952
11
111.413
21
-85.3328
0
LINE
8
BLACK
6
CONTINUOUS
10
111.413
20
-85.3328
11
111.312
21
-85.5578
0
LINE
8
BLACK
6
CONTINUOUS
10
111.312
20
-85.5578
11
111.178
21
-85.7654
0
LINE
8
BLACK
6
CONTINUOUS
10
111.178
20
-85.7654
11
111.016
21
-85.9509
0
LINE
8
BLACK
6
CONTINUOUS
10
111.016
20
-85.9509
11
110.827
21
-86.1104
0
LINE
8
BLACK
6
CONTINUOUS
10
110.827
20
-86.1104
11
110.617
21
-86.2402
0
LINE
8
BLACK
6
CONTINUOUS
10
110.617
20
-86.2402
11
110.391
21
-86.3377
0
LINE
8
BLACK
6
CONTINUOUS
10
110.391
20
-86.3377
11
110.152
21
-86.4005
0
LINE
8
BLACK
6
CONTINUOUS
10
110.152
20
-86.4005
11
109.907
21
-86.4274
0
LINE
8
BLACK
6
CONTINUOUS
10
109.907
20
-86.4274
11
109.66
21
-86.4177
0
LINE
8
BLACK
6
CONTINUOUS
10
109.66
20
-86.4177
11
109.417
21
-86.3716
0
LINE
8
BLACK
6
CONTINUOUS
10
109.417
20
-86.3716
11
109.184
21
-86.2903
0
LINE
8
BLACK
6
CONTINUOUS
10
109.184
20
-86.2903
11
108.966
21
-86.1754
0
LINE
8
BLACK
6
CONTINUOUS
10
108.966
20
-86.1754
11
108.767
21
-86.0294
0
LINE
8
BLACK
6
CONTINUOUS
10
108.767
20
-86.0294
11
108.592
21
-85.8557
0
LINE
8
BLACK
6
CONTINUOUS
10
108.592
20
-85.8557
11
108.444
21
-85.6579
0
LINE
8
BLACK
6
CONTINUOUS
10
108.444
20
-85.6579
11
108.327
21
-85.4405
0
LINE
8
BLACK
6
CONTINUOUS
10
108.327
20
-85.4405
11
108.244
21
-85.2083
0
LINE
8
BLACK
6
CONTINUOUS
10
108.244
20
-85.2083
11
108.196
21
-84.9662
0
LINE
8
BLACK
6
CONTINUOUS
10
108.196
20
-84.9662
11
108.186
21
-84.7633
0
LINE
8
BLACK
6
CONTINUOUS
10
108.186
20
-84.7633
11
108.184
21
-84.7197
0
LINE
8
BLACK
6
CONTINUOUS
10
108.184
20
-84.7197
11
108.209
21
-84.4741
0
LINE
8
BLACK
6
CONTINUOUS
10
108.374
20
-85.2422
11
108.467
21
-85.4669
0
LINE
8
BLACK
6
CONTINUOUS
10
108.467
20
-85.4669
11
108.595
21
-85.6743
0
LINE
8
BLACK
6
CONTINUOUS
10
108.595
20
-85.6743
11
108.753
21
-85.8592
0
LINE
8
BLACK
6
CONTINUOUS
10
108.753
20
-85.8592
11
108.937
21
-86.0172
0
LINE
8
BLACK
6
CONTINUOUS
10
108.937
20
-86.0172
11
109.145
21
-86.1442
0
LINE
8
BLACK
6
CONTINUOUS
10
109.145
20
-86.1442
11
109.37
21
-86.2373
0
LINE
8
BLACK
6
CONTINUOUS
10
109.37
20
-86.2373
11
109.606
21
-86.2941
0
LINE
8
BLACK
6
CONTINUOUS
10
109.606
20
-86.2941
11
109.848
21
-86.3131
0
LINE
8
BLACK
6
CONTINUOUS
10
109.848
20
-86.3131
11
110.091
21
-86.2941
0
LINE
8
BLACK
6
CONTINUOUS
10
110.091
20
-86.2941
11
110.327
21
-86.2373
0
LINE
8
BLACK
6
CONTINUOUS
10
110.327
20
-86.2373
11
110.552
21
-86.1442
0
LINE
8
BLACK
6
CONTINUOUS
10
110.552
20
-86.1442
11
110.759
21
-86.0172
0
LINE
8
BLACK
6
CONTINUOUS
10
110.759
20
-86.0172
11
110.944
21
-85.8592
0
LINE
8
BLACK
6
CONTINUOUS
10
110.944
20
-85.8592
11
111.102
21
-85.6743
0
LINE
8
BLACK
6
CONTINUOUS
10
111.102
20
-85.6743
11
111.229
21
-85.4669
0
LINE
8
BLACK
6
CONTINUOUS
10
111.229
20
-85.4669
11
111.322
21
-85.2422
0
LINE
8
BLACK
6
CONTINUOUS
10
111.322
20
-85.2422
11
111.379
21
-85.0057
0
LINE
8
BLACK
6
CONTINUOUS
10
111.379
20
-85.0057
11
111.398
21
-84.7633
0
LINE
8
BLACK
6
CONTINUOUS
10
111.398
20
-84.7633
11
111.379
21
-84.5208
0
LINE
8
BLACK
6
CONTINUOUS
10
111.379
20
-84.5208
11
111.322
21
-84.2843
0
LINE
8
BLACK
6
CONTINUOUS
10
111.322
20
-84.2843
11
111.229
21
-84.0596
0
LINE
8
BLACK
6
CONTINUOUS
10
111.229
20
-84.0596
11
111.102
21
-83.8523
0
LINE
8
BLACK
6
CONTINUOUS
10
111.102
20
-83.8523
11
110.944
21
-83.6674
0
LINE
8
BLACK
6
CONTINUOUS
10
110.944
20
-83.6674
11
110.759
21
-83.5094
0
LINE
8
BLACK
6
CONTINUOUS
10
110.759
20
-83.5094
11
110.552
21
-83.3823
0
LINE
8
BLACK
6
CONTINUOUS
10
110.552
20
-83.3823
11
110.327
21
-83.2893
0
LINE
8
BLACK
6
CONTINUOUS
10
110.327
20
-83.2893
11
110.091
21
-83.2325
0
LINE
8
BLACK
6
CONTINUOUS
10
110.091
20
-83.2325
11
109.848
21
-83.2134
0
LINE
8
BLACK
6
CONTINUOUS
10
109.848
20
-83.2134
11
109.606
21
-83.2325
0
LINE
8
BLACK
6
CONTINUOUS
10
109.606
20
-83.2325
11
109.37
21
-83.2893
0
LINE
8
BLACK
6
CONTINUOUS
10
109.37
20
-83.2893
11
109.145
21
-83.3823
0
LINE
8
BLACK
6
CONTINUOUS
10
109.145
20
-83.3823
11
108.937
21
-83.5094
0
LINE
8
BLACK
6
CONTINUOUS
10
108.937
20
-83.5094
11
108.753
21
-83.6674
0
LINE
8
BLACK
6
CONTINUOUS
10
108.753
20
-83.6674
11
108.595
21
-83.8523
0
LINE
8
BLACK
6
CONTINUOUS
10
108.595
20
-83.8523
11
108.467
21
-84.0596
0
LINE
8
BLACK
6
CONTINUOUS
10
108.467
20
-84.0596
11
108.374
21
-84.2843
0
LINE
8
BLACK
6
CONTINUOUS
10
108.374
20
-84.2843
11
108.318
21
-84.5208
0
LINE
8
BLACK
6
CONTINUOUS
10
108.318
20
-84.5208
11
108.299
21
-84.7633
0
LINE
8
BLACK
6
CONTINUOUS
10
108.299
20
-84.7633
11
108.318
21
-85.0057
0
LINE
8
BLACK
6
CONTINUOUS
10
108.318
20
-85.0057
11
108.374
21
-85.2422
0
LINE
8
BLACK
6
CONTINUOUS
10
207.373
20
-74.4482
11
207.469
21
-74.2154
0
LINE
8
BLACK
6
CONTINUOUS
10
207.469
20
-74.2154
11
207.601
21
-74.0006
0
LINE
8
BLACK
6
CONTINUOUS
10
207.601
20
-74.0006
11
207.765
21
-73.809
0
LINE
8
BLACK
6
CONTINUOUS
10
207.765
20
-73.809
11
207.956
21
-73.6454
0
LINE
8
BLACK
6
CONTINUOUS
10
207.956
20
-73.6454
11
208.171
21
-73.5137
0
LINE
8
BLACK
6
CONTINUOUS
10
208.171
20
-73.5137
11
208.404
21
-73.4173
0
LINE
8
BLACK
6
CONTINUOUS
10
208.404
20
-73.4173
11
208.649
21
-73.3585
0
LINE
8
BLACK
6
CONTINUOUS
10
208.649
20
-73.3585
11
208.9
21
-73.3387
0
LINE
8
BLACK
6
CONTINUOUS
10
208.9
20
-73.3387
11
209.151
21
-73.3585
0
LINE
8
BLACK
6
CONTINUOUS
10
209.151
20
-73.3585
11
209.396
21
-73.4173
0
LINE
8
BLACK
6
CONTINUOUS
10
209.396
20
-73.4173
11
209.629
21
-73.5137
0
LINE
8
BLACK
6
CONTINUOUS
10
209.629
20
-73.5137
11
209.844
21
-73.6454
0
LINE
8
BLACK
6
CONTINUOUS
10
209.844
20
-73.6454
11
210.035
21
-73.809
0
LINE
8
BLACK
6
CONTINUOUS
10
210.035
20
-73.809
11
210.199
21
-74.0006
0
LINE
8
BLACK
6
CONTINUOUS
10
210.199
20
-74.0006
11
210.331
21
-74.2154
0
LINE
8
BLACK
6
CONTINUOUS
10
210.331
20
-74.2154
11
210.427
21
-74.4482
0
LINE
8
BLACK
6
CONTINUOUS
10
210.427
20
-74.4482
11
210.486
21
-74.6932
0
LINE
8
BLACK
6
CONTINUOUS
10
210.486
20
-74.6932
11
210.506
21
-74.9444
0
LINE
8
BLACK
6
CONTINUOUS
10
210.506
20
-74.9444
11
210.486
21
-75.1955
0
LINE
8
BLACK
6
CONTINUOUS
10
210.486
20
-75.1955
11
210.427
21
-75.4405
0
LINE
8
BLACK
6
CONTINUOUS
10
210.427
20
-75.4405
11
210.331
21
-75.6733
0
LINE
8
BLACK
6
CONTINUOUS
10
210.331
20
-75.6733
11
210.199
21
-75.8881
0
LINE
8
BLACK
6
CONTINUOUS
10
210.199
20
-75.8881
11
210.035
21
-76.0797
0
LINE
8
BLACK
6
CONTINUOUS
10
210.035
20
-76.0797
11
209.844
21
-76.2434
0
LINE
8
BLACK
6
CONTINUOUS
10
209.844
20
-76.2434
11
209.629
21
-76.375
0
LINE
8
BLACK
6
CONTINUOUS
10
209.629
20
-76.375
11
209.396
21
-76.4714
0
LINE
8
BLACK
6
CONTINUOUS
10
209.396
20
-76.4714
11
209.151
21
-76.5302
0
LINE
8
BLACK
6
CONTINUOUS
10
209.151
20
-76.5302
11
208.9
21
-76.55
0
LINE
8
BLACK
6
CONTINUOUS
10
208.9
20
-76.55
11
208.649
21
-76.5302
0
LINE
8
BLACK
6
CONTINUOUS
10
208.649
20
-76.5302
11
208.404
21
-76.4714
0
LINE
8
BLACK
6
CONTINUOUS
10
208.404
20
-76.4714
11
208.171
21
-76.375
0
LINE
8
BLACK
6
CONTINUOUS
10
208.171
20
-76.375
11
207.956
21
-76.2434
0
LINE
8
BLACK
6
CONTINUOUS
10
207.956
20
-76.2434
11
207.765
21
-76.0797
0
LINE
8
BLACK
6
CONTINUOUS
10
207.765
20
-76.0797
11
207.601
21
-75.8881
0
LINE
8
BLACK
6
CONTINUOUS
10
207.601
20
-75.8881
11
207.469
21
-75.6733
0
LINE
8
BLACK
6
CONTINUOUS
10
207.469
20
-75.6733
11
207.373
21
-75.4405
0
LINE
8
BLACK
6
CONTINUOUS
10
207.373
20
-75.4405
11
207.314
21
-75.1955
0
LINE
8
BLACK
6
CONTINUOUS
10
207.314
20
-75.1955
11
207.294
21
-74.9444
0
LINE
8
BLACK
6
CONTINUOUS
10
207.294
20
-74.9444
11
207.314
21
-74.6932
0
LINE
8
BLACK
6
CONTINUOUS
10
207.314
20
-74.6932
11
207.373
21
-74.4482
0
LINE
8
BLACK
6
CONTINUOUS
10
207.464
20
-75.4111
11
207.554
21
-75.63
0
LINE
8
BLACK
6
CONTINUOUS
10
207.554
20
-75.63
11
207.678
21
-75.8321
0
LINE
8
BLACK
6
CONTINUOUS
10
207.678
20
-75.8321
11
207.832
21
-76.0123
0
LINE
8
BLACK
6
CONTINUOUS
10
207.832
20
-76.0123
11
208.012
21
-76.1662
0
LINE
8
BLACK
6
CONTINUOUS
10
208.012
20
-76.1662
11
208.214
21
-76.29
0
LINE
8
BLACK
6
CONTINUOUS
10
208.214
20
-76.29
11
208.433
21
-76.3807
0
LINE
8
BLACK
6
CONTINUOUS
10
208.433
20
-76.3807
11
208.664
21
-76.4361
0
LINE
8
BLACK
6
CONTINUOUS
10
208.664
20
-76.4361
11
208.9
21
-76.4547
0
LINE
8
BLACK
6
CONTINUOUS
10
208.9
20
-76.4547
11
209.136
21
-76.4361
0
LINE
8
BLACK
6
CONTINUOUS
10
209.136
20
-76.4361
11
209.367
21
-76.3807
0
LINE
8
BLACK
6
CONTINUOUS
10
209.367
20
-76.3807
11
209.586
21
-76.29
0
LINE
8
BLACK
6
CONTINUOUS
10
209.586
20
-76.29
11
209.788
21
-76.1662
0
LINE
8
BLACK
6
CONTINUOUS
10
209.788
20
-76.1662
11
209.968
21
-76.0123
0
LINE
8
BLACK
6
CONTINUOUS
10
209.968
20
-76.0123
11
210.122
21
-75.8321
0
LINE
8
BLACK
6
CONTINUOUS
10
210.122
20
-75.8321
11
210.246
21
-75.63
0
LINE
8
BLACK
6
CONTINUOUS
10
210.246
20
-75.63
11
210.336
21
-75.4111
0
LINE
8
BLACK
6
CONTINUOUS
10
210.336
20
-75.4111
11
210.392
21
-75.1806
0
LINE
8
BLACK
6
CONTINUOUS
10
210.392
20
-75.1806
11
210.41
21
-74.9444
0
LINE
8
BLACK
6
CONTINUOUS
10
210.41
20
-74.9444
11
210.392
21
-74.7081
0
LINE
8
BLACK
6
CONTINUOUS
10
210.392
20
-74.7081
11
210.336
21
-74.4777
0
LINE
8
BLACK
6
CONTINUOUS
10
210.336
20
-74.4777
11
210.246
21
-74.2587
0
LINE
8
BLACK
6
CONTINUOUS
10
210.246
20
-74.2587
11
210.122
21
-74.0566
0
LINE
8
BLACK
6
CONTINUOUS
10
210.122
20
-74.0566
11
209.968
21
-73.8764
0
LINE
8
BLACK
6
CONTINUOUS
10
209.968
20
-73.8764
11
209.788
21
-73.7225
0
LINE
8
BLACK
6
CONTINUOUS
10
209.788
20
-73.7225
11
209.586
21
-73.5987
0
LINE
8
BLACK
6
CONTINUOUS
10
209.586
20
-73.5987
11
209.367
21
-73.508
0
LINE
8
BLACK
6
CONTINUOUS
10
209.367
20
-73.508
11
209.136
21
-73.4527
0
LINE
8
BLACK
6
CONTINUOUS
10
209.136
20
-73.4527
11
208.9
21
-73.4341
0
LINE
8
BLACK
6
CONTINUOUS
10
208.9
20
-73.4341
11
208.664
21
-73.4527
0
LINE
8
BLACK
6
CONTINUOUS
10
208.664
20
-73.4527
11
208.433
21
-73.508
0
LINE
8
BLACK
6
CONTINUOUS
10
208.433
20
-73.508
11
208.214
21
-73.5987
0
LINE
8
BLACK
6
CONTINUOUS
10
208.214
20
-73.5987
11
208.012
21
-73.7225
0
LINE
8
BLACK
6
CONTINUOUS
10
208.012
20
-73.7225
11
207.832
21
-73.8764
0
LINE
8
BLACK
6
CONTINUOUS
10
207.832
20
-73.8764
11
207.678
21
-74.0566
0
LINE
8
BLACK
6
CONTINUOUS
10
207.678
20
-74.0566
11
207.554
21
-74.2587
0
LINE
8
BLACK
6
CONTINUOUS
10
207.554
20
-74.2587
11
207.464
21
-74.4777
0
LINE
8
BLACK
6
CONTINUOUS
10
207.464
20
-74.4777
11
207.408
21
-74.7081
0
LINE
8
BLACK
6
CONTINUOUS
10
207.408
20
-74.7081
11
207.39
21
-74.9444
0
LINE
8
BLACK
6
CONTINUOUS
10
207.39
20
-74.9444
11
207.408
21
-75.1806
0
LINE
8
BLACK
6
CONTINUOUS
10
207.408
20
-75.1806
11
207.464
21
-75.4111
0
LINE
8
BLACK
6
CONTINUOUS
10
114.273
20
-74.3538
11
114.369
21
-74.1211
0
LINE
8
BLACK
6
CONTINUOUS
10
114.369
20
-74.1211
11
114.501
21
-73.9062
0
LINE
8
BLACK
6
CONTINUOUS
10
114.501
20
-73.9062
11
114.665
21
-73.7146
0
LINE
8
BLACK
6
CONTINUOUS
10
114.665
20
-73.7146
11
114.856
21
-73.551
0
LINE
8
BLACK
6
CONTINUOUS
10
114.856
20
-73.551
11
115.071
21
-73.4194
0
LINE
8
BLACK
6
CONTINUOUS
10
115.071
20
-73.4194
11
115.304
21
-73.3229
0
LINE
8
BLACK
6
CONTINUOUS
10
115.304
20
-73.3229
11
115.549
21
-73.2641
0
LINE
8
BLACK
6
CONTINUOUS
10
115.549
20
-73.2641
11
115.8
21
-73.2444
0
LINE
8
BLACK
6
CONTINUOUS
10
115.8
20
-73.2444
11
116.051
21
-73.2641
0
LINE
8
BLACK
6
CONTINUOUS
10
116.051
20
-73.2641
11
116.296
21
-73.3229
0
LINE
8
BLACK
6
CONTINUOUS
10
116.296
20
-73.3229
11
116.529
21
-73.4194
0
LINE
8
BLACK
6
CONTINUOUS
10
116.529
20
-73.4194
11
116.744
21
-73.551
0
LINE
8
BLACK
6
CONTINUOUS
10
116.744
20
-73.551
11
116.935
21
-73.7146
0
LINE
8
BLACK
6
CONTINUOUS
10
116.935
20
-73.7146
11
117.099
21
-73.9062
0
LINE
8
BLACK
6
CONTINUOUS
10
117.099
20
-73.9062
11
117.231
21
-74.1211
0
LINE
8
BLACK
6
CONTINUOUS
10
117.231
20
-74.1211
11
117.327
21
-74.3538
0
LINE
8
BLACK
6
CONTINUOUS
10
117.327
20
-74.3538
11
117.386
21
-74.5988
0
LINE
8
BLACK
6
CONTINUOUS
10
117.386
20
-74.5988
11
117.406
21
-74.85
0
LINE
8
BLACK
6
CONTINUOUS
10
117.406
20
-74.85
11
117.386
21
-75.1012
0
LINE
8
BLACK
6
CONTINUOUS
10
117.386
20
-75.1012
11
117.327
21
-75.3462
0
LINE
8
BLACK
6
CONTINUOUS
10
117.327
20
-75.3462
11
117.231
21
-75.5789
0
LINE
8
BLACK
6
CONTINUOUS
10
117.231
20
-75.5789
11
117.099
21
-75.7938
0
LINE
8
BLACK
6
CONTINUOUS
10
117.099
20
-75.7938
11
116.935
21
-75.9854
0
LINE
8
BLACK
6
CONTINUOUS
10
116.935
20
-75.9854
11
116.744
21
-76.149
0
LINE
8
BLACK
6
CONTINUOUS
10
116.744
20
-76.149
11
116.529
21
-76.2806
0
LINE
8
BLACK
6
CONTINUOUS
10
116.529
20
-76.2806
11
116.296
21
-76.377
0
LINE
8
BLACK
6
CONTINUOUS
10
116.296
20
-76.377
11
116.051
21
-76.4359
0
LINE
8
BLACK
6
CONTINUOUS
10
116.051
20
-76.4359
11
115.8
21
-76.4556
0
LINE
8
BLACK
6
CONTINUOUS
10
115.8
20
-76.4556
11
115.549
21
-76.4359
0
LINE
8
BLACK
6
CONTINUOUS
10
115.549
20
-76.4359
11
115.304
21
-76.377
0
LINE
8
BLACK
6
CONTINUOUS
10
115.304
20
-76.377
11
115.071
21
-76.2806
0
LINE
8
BLACK
6
CONTINUOUS
10
115.071
20
-76.2806
11
114.856
21
-76.149
0
LINE
8
BLACK
6
CONTINUOUS
10
114.856
20
-76.149
11
114.665
21
-75.9854
0
LINE
8
BLACK
6
CONTINUOUS
10
114.665
20
-75.9854
11
114.501
21
-75.7938
0
LINE
8
BLACK
6
CONTINUOUS
10
114.501
20
-75.7938
11
114.369
21
-75.5789
0
LINE
8
BLACK
6
CONTINUOUS
10
114.369
20
-75.5789
11
114.273
21
-75.3462
0
LINE
8
BLACK
6
CONTINUOUS
10
114.273
20
-75.3462
11
114.214
21
-75.1012
0
LINE
8
BLACK
6
CONTINUOUS
10
114.214
20
-75.1012
11
114.194
21
-74.85
0
LINE
8
BLACK
6
CONTINUOUS
10
114.194
20
-74.85
11
114.214
21
-74.5988
0
LINE
8
BLACK
6
CONTINUOUS
10
114.214
20
-74.5988
11
114.273
21
-74.3538
0
LINE
8
BLACK
6
CONTINUOUS
10
114.364
20
-75.3167
11
114.454
21
-75.5357
0
LINE
8
BLACK
6
CONTINUOUS
10
114.454
20
-75.5357
11
114.578
21
-75.7377
0
LINE
8
BLACK
6
CONTINUOUS
10
114.578
20
-75.7377
11
114.732
21
-75.9179
0
LINE
8
BLACK
6
CONTINUOUS
10
114.732
20
-75.9179
11
114.912
21
-76.0719
0
LINE
8
BLACK
6
CONTINUOUS
10
114.912
20
-76.0719
11
115.114
21
-76.1957
0
LINE
8
BLACK
6
CONTINUOUS
10
115.114
20
-76.1957
11
115.333
21
-76.2864
0
LINE
8
BLACK
6
CONTINUOUS
10
115.333
20
-76.2864
11
115.564
21
-76.3417
0
LINE
8
BLACK
6
CONTINUOUS
10
115.564
20
-76.3417
11
115.8
21
-76.3603
0
LINE
8
BLACK
6
CONTINUOUS
10
115.8
20
-76.3603
11
116.036
21
-76.3417
0
LINE
8
BLACK
6
CONTINUOUS
10
116.036
20
-76.3417
11
116.267
21
-76.2864
0
LINE
8
BLACK
6
CONTINUOUS
10
116.267
20
-76.2864
11
116.486
21
-76.1957
0
LINE
8
BLACK
6
CONTINUOUS
10
116.486
20
-76.1957
11
116.688
21
-76.0719
0
LINE
8
BLACK
6
CONTINUOUS
10
116.688
20
-76.0719
11
116.868
21
-75.9179
0
LINE
8
BLACK
6
CONTINUOUS
10
116.868
20
-75.9179
11
117.022
21
-75.7377
0
LINE
8
BLACK
6
CONTINUOUS
10
117.022
20
-75.7377
11
117.146
21
-75.5357
0
LINE
8
BLACK
6
CONTINUOUS
10
117.146
20
-75.5357
11
117.236
21
-75.3167
0
LINE
8
BLACK
6
CONTINUOUS
10
117.236
20
-75.3167
11
117.292
21
-75.0863
0
LINE
8
BLACK
6
CONTINUOUS
10
117.292
20
-75.0863
11
117.31
21
-74.85
0
LINE
8
BLACK
6
CONTINUOUS
10
117.31
20
-74.85
11
117.292
21
-74.6137
0
LINE
8
BLACK
6
CONTINUOUS
10
117.292
20
-74.6137
11
117.236
21
-74.3833
0
LINE
8
BLACK
6
CONTINUOUS
10
117.236
20
-74.3833
11
117.146
21
-74.1643
0
LINE
8
BLACK
6
CONTINUOUS
10
117.146
20
-74.1643
11
117.022
21
-73.9623
0
LINE
8
BLACK
6
CONTINUOUS
10
117.022
20
-73.9623
11
116.868
21
-73.7821
0
LINE
8
BLACK
6
CONTINUOUS
10
116.868
20
-73.7821
11
116.688
21
-73.6281
0
LINE
8
BLACK
6
CONTINUOUS
10
116.688
20
-73.6281
11
116.486
21
-73.5043
0
LINE
8
BLACK
6
CONTINUOUS
10
116.486
20
-73.5043
11
116.267
21
-73.4136
0
LINE
8
BLACK
6
CONTINUOUS
10
116.267
20
-73.4136
11
116.036
21
-73.3583
0
LINE
8
BLACK
6
CONTINUOUS
10
116.036
20
-73.3583
11
115.8
21
-73.3397
0
LINE
8
BLACK
6
CONTINUOUS
10
115.8
20
-73.3397
11
115.564
21
-73.3583
0
LINE
8
BLACK
6
CONTINUOUS
10
115.564
20
-73.3583
11
115.333
21
-73.4136
0
LINE
8
BLACK
6
CONTINUOUS
10
115.333
20
-73.4136
11
115.114
21
-73.5043
0
LINE
8
BLACK
6
CONTINUOUS
10
115.114
20
-73.5043
11
114.912
21
-73.6281
0
LINE
8
BLACK
6
CONTINUOUS
10
114.912
20
-73.6281
11
114.732
21
-73.7821
0
LINE
8
BLACK
6
CONTINUOUS
10
114.732
20
-73.7821
11
114.578
21
-73.9623
0
LINE
8
BLACK
6
CONTINUOUS
10
114.578
20
-73.9623
11
114.454
21
-74.1643
0
LINE
8
BLACK
6
CONTINUOUS
10
114.454
20
-74.1643
11
114.364
21
-74.3833
0
LINE
8
BLACK
6
CONTINUOUS
10
114.364
20
-74.3833
11
114.308
21
-74.6137
0
LINE
8
BLACK
6
CONTINUOUS
10
114.308
20
-74.6137
11
114.29
21
-74.85
0
LINE
8
BLACK
6
CONTINUOUS
10
114.29
20
-74.85
11
114.308
21
-75.0863
0
LINE
8
BLACK
6
CONTINUOUS
10
114.308
20
-75.0863
11
114.364
21
-75.3167
0
LINE
8
BLACK
6
CONTINUOUS
10
73.4808
20
-66.8401
11
73.5798
21
-66.6009
0
LINE
8
BLACK
6
CONTINUOUS
10
73.5798
20
-66.6009
11
73.7151
21
-66.3802
0
LINE
8
BLACK
6
CONTINUOUS
10
73.7151
20
-66.3802
11
73.8833
21
-66.1833
0
LINE
8
BLACK
6
CONTINUOUS
10
73.8833
20
-66.1833
11
74.0802
21
-66.0151
0
LINE
8
BLACK
6
CONTINUOUS
10
74.0802
20
-66.0151
11
74.3009
21
-65.8798
0
LINE
8
BLACK
6
CONTINUOUS
10
74.3009
20
-65.8798
11
74.5401
21
-65.7808
0
LINE
8
BLACK
6
CONTINUOUS
10
74.5401
20
-65.7808
11
74.7919
21
-65.7203
0
LINE
8
BLACK
6
CONTINUOUS
10
74.7919
20
-65.7203
11
75.05
21
-65.7
0
LINE
8
BLACK
6
CONTINUOUS
10
75.05
20
-65.7
11
75.3081
21
-65.7203
0
LINE
8
BLACK
6
CONTINUOUS
10
75.3081
20
-65.7203
11
75.5599
21
-65.7808
0
LINE
8
BLACK
6
CONTINUOUS
10
75.5599
20
-65.7808
11
75.7991
21
-65.8798
0
LINE
8
BLACK
6
CONTINUOUS
10
75.7991
20
-65.8798
11
76.0198
21
-66.0151
0
LINE
8
BLACK
6
CONTINUOUS
10
76.0198
20
-66.0151
11
76.2167
21
-66.1833
0
LINE
8
BLACK
6
CONTINUOUS
10
76.2167
20
-66.1833
11
76.3849
21
-66.3802
0
LINE
8
BLACK
6
CONTINUOUS
10
76.3849
20
-66.3802
11
76.5202
21
-66.6009
0
LINE
8
BLACK
6
CONTINUOUS
10
76.5202
20
-66.6009
11
76.6192
21
-66.8401
0
LINE
8
BLACK
6
CONTINUOUS
10
76.6192
20
-66.8401
11
76.6797
21
-67.0919
0
LINE
8
BLACK
6
CONTINUOUS
10
76.6797
20
-67.0919
11
76.7
21
-67.35
0
LINE
8
BLACK
6
CONTINUOUS
10
76.7
20
-67.35
11
76.6797
21
-67.6081
0
LINE
8
BLACK
6
CONTINUOUS
10
76.6797
20
-67.6081
11
76.6192
21
-67.8599
0
LINE
8
BLACK
6
CONTINUOUS
10
76.6192
20
-67.8599
11
76.5202
21
-68.0991
0
LINE
8
BLACK
6
CONTINUOUS
10
76.5202
20
-68.0991
11
76.3849
21
-68.3198
0
LINE
8
BLACK
6
CONTINUOUS
10
76.3849
20
-68.3198
11
76.2167
21
-68.5167
0
LINE
8
BLACK
6
CONTINUOUS
10
76.2167
20
-68.5167
11
76.0198
21
-68.6849
0
LINE
8
BLACK
6
CONTINUOUS
10
76.0198
20
-68.6849
11
75.7991
21
-68.8202
0
LINE
8
BLACK
6
CONTINUOUS
10
75.7991
20
-68.8202
11
75.5599
21
-68.9192
0
LINE
8
BLACK
6
CONTINUOUS
10
75.5599
20
-68.9192
11
75.3081
21
-68.9797
0
LINE
8
BLACK
6
CONTINUOUS
10
75.3081
20
-68.9797
11
75.05
21
-69
0
LINE
8
BLACK
6
CONTINUOUS
10
75.05
20
-69
11
74.7919
21
-68.9797
0
LINE
8
BLACK
6
CONTINUOUS
10
74.7919
20
-68.9797
11
74.5401
21
-68.9192
0
LINE
8
BLACK
6
CONTINUOUS
10
74.5401
20
-68.9192
11
74.3009
21
-68.8202
0
LINE
8
BLACK
6
CONTINUOUS
10
74.3009
20
-68.8202
11
74.0802
21
-68.6849
0
LINE
8
BLACK
6
CONTINUOUS
10
74.0802
20
-68.6849
11
73.8833
21
-68.5167
0
LINE
8
BLACK
6
CONTINUOUS
10
73.8833
20
-68.5167
11
73.7151
21
-68.3198
0
LINE
8
BLACK
6
CONTINUOUS
10
73.7151
20
-68.3198
11
73.5798
21
-68.0991
0
LINE
8
BLACK
6
CONTINUOUS
10
73.5798
20
-68.0991
11
73.4808
21
-67.8599
0
LINE
8
BLACK
6
CONTINUOUS
10
73.4808
20
-67.8599
11
73.4203
21
-67.6081
0
LINE
8
BLACK
6
CONTINUOUS
10
73.4203
20
-67.6081
11
73.4
21
-67.35
0
LINE
8
BLACK
6
CONTINUOUS
10
73.4
20
-67.35
11
73.4203
21
-67.0919
0
LINE
8
BLACK
6
CONTINUOUS
10
73.4203
20
-67.0919
11
73.4808
21
-66.8401
0
LINE
8
BLACK
6
CONTINUOUS
10
73.5713
20
-67.8305
11
73.6647
21
-68.0559
0
LINE
8
BLACK
6
CONTINUOUS
10
73.6647
20
-68.0559
11
73.7921
21
-68.2639
0
LINE
8
BLACK
6
CONTINUOUS
10
73.7921
20
-68.2639
11
73.9506
21
-68.4494
0
LINE
8
BLACK
6
CONTINUOUS
10
73.9506
20
-68.4494
11
74.1361
21
-68.6079
0
LINE
8
BLACK
6
CONTINUOUS
10
74.1361
20
-68.6079
11
74.3441
21
-68.7353
0
LINE
8
BLACK
6
CONTINUOUS
10
74.3441
20
-68.7353
11
74.5695
21
-68.8287
0
LINE
8
BLACK
6
CONTINUOUS
10
74.5695
20
-68.8287
11
74.8068
21
-68.8857
0
LINE
8
BLACK
6
CONTINUOUS
10
74.8068
20
-68.8857
11
75.05
21
-68.9048
0
LINE
8
BLACK
6
CONTINUOUS
10
75.05
20
-68.9048
11
75.2932
21
-68.8857
0
LINE
8
BLACK
6
CONTINUOUS
10
75.2932
20
-68.8857
11
75.5305
21
-68.8287
0
LINE
8
BLACK
6
CONTINUOUS
10
75.5305
20
-68.8287
11
75.7559
21
-68.7353
0
LINE
8
BLACK
6
CONTINUOUS
10
75.7559
20
-68.7353
11
75.9639
21
-68.6079
0
LINE
8
BLACK
6
CONTINUOUS
10
75.9639
20
-68.6079
11
76.1494
21
-68.4494
0
LINE
8
BLACK
6
CONTINUOUS
10
76.1494
20
-68.4494
11
76.3079
21
-68.2639
0
LINE
8
BLACK
6
CONTINUOUS
10
76.3079
20
-68.2639
11
76.4353
21
-68.0559
0
LINE
8
BLACK
6
CONTINUOUS
10
76.4353
20
-68.0559
11
76.5287
21
-67.8305
0
LINE
8
BLACK
6
CONTINUOUS
10
76.5287
20
-67.8305
11
76.5857
21
-67.5932
0
LINE
8
BLACK
6
CONTINUOUS
10
76.5857
20
-67.5932
11
76.6048
21
-67.35
0
LINE
8
BLACK
6
CONTINUOUS
10
76.6048
20
-67.35
11
76.5857
21
-67.1068
0
LINE
8
BLACK
6
CONTINUOUS
10
76.5857
20
-67.1068
11
76.5287
21
-66.8695
0
LINE
8
BLACK
6
CONTINUOUS
10
76.5287
20
-66.8695
11
76.4353
21
-66.6441
0
LINE
8
BLACK
6
CONTINUOUS
10
76.4353
20
-66.6441
11
76.3079
21
-66.4361
0
LINE
8
BLACK
6
CONTINUOUS
10
76.3079
20
-66.4361
11
76.1494
21
-66.2506
0
LINE
8
BLACK
6
CONTINUOUS
10
76.1494
20
-66.2506
11
75.9639
21
-66.0921
0
LINE
8
BLACK
6
CONTINUOUS
10
75.9639
20
-66.0921
11
75.7559
21
-65.9647
0
LINE
8
BLACK
6
CONTINUOUS
10
75.7559
20
-65.9647
11
75.5305
21
-65.8713
0
LINE
8
BLACK
6
CONTINUOUS
10
75.5305
20
-65.8713
11
75.2932
21
-65.8143
0
LINE
8
BLACK
6
CONTINUOUS
10
75.2932
20
-65.8143
11
75.05
21
-65.7952
0
LINE
8
BLACK
6
CONTINUOUS
10
75.05
20
-65.7952
11
74.8068
21
-65.8143
0
LINE
8
BLACK
6
CONTINUOUS
10
74.8068
20
-65.8143
11
74.5695
21
-65.8713
0
LINE
8
BLACK
6
CONTINUOUS
10
74.5695
20
-65.8713
11
74.3441
21
-65.9647
0
LINE
8
BLACK
6
CONTINUOUS
10
74.3441
20
-65.9647
11
74.1361
21
-66.0921
0
LINE
8
BLACK
6
CONTINUOUS
10
74.1361
20
-66.0921
11
73.9506
21
-66.2506
0
LINE
8
BLACK
6
CONTINUOUS
10
73.9506
20
-66.2506
11
73.7921
21
-66.4361
0
LINE
8
BLACK
6
CONTINUOUS
10
73.7921
20
-66.4361
11
73.6647
21
-66.6441
0
LINE
8
BLACK
6
CONTINUOUS
10
73.6647
20
-66.6441
11
73.5713
21
-66.8695
0
LINE
8
BLACK
6
CONTINUOUS
10
73.5713
20
-66.8695
11
73.5143
21
-67.1068
0
LINE
8
BLACK
6
CONTINUOUS
10
73.5143
20
-67.1068
11
73.4952
21
-67.35
0
LINE
8
BLACK
6
CONTINUOUS
10
73.4952
20
-67.35
11
73.5143
21
-67.5932
0
LINE
8
BLACK
6
CONTINUOUS
10
73.5143
20
-67.5932
11
73.5713
21
-67.8305
0
LINE
8
BLACK
6
CONTINUOUS
10
215.601
20
-66.8401
11
215.7
21
-66.6009
0
LINE
8
BLACK
6
CONTINUOUS
10
215.7
20
-66.6009
11
215.835
21
-66.3802
0
LINE
8
BLACK
6
CONTINUOUS
10
215.835
20
-66.3802
11
216.003
21
-66.1833
0
LINE
8
BLACK
6
CONTINUOUS
10
216.003
20
-66.1833
11
216.2
21
-66.0151
0
LINE
8
BLACK
6
CONTINUOUS
10
216.2
20
-66.0151
11
216.421
21
-65.8798
0
LINE
8
BLACK
6
CONTINUOUS
10
216.421
20
-65.8798
11
216.66
21
-65.7808
0
LINE
8
BLACK
6
CONTINUOUS
10
216.66
20
-65.7808
11
216.912
21
-65.7203
0
LINE
8
BLACK
6
CONTINUOUS
10
216.912
20
-65.7203
11
217.17
21
-65.7
0
LINE
8
BLACK
6
CONTINUOUS
10
217.17
20
-65.7
11
217.428
21
-65.7203
0
LINE
8
BLACK
6
CONTINUOUS
10
217.428
20
-65.7203
11
217.68
21
-65.7808
0
LINE
8
BLACK
6
CONTINUOUS
10
217.68
20
-65.7808
11
217.919
21
-65.8798
0
LINE
8
BLACK
6
CONTINUOUS
10
217.919
20
-65.8798
11
218.14
21
-66.0151
0
LINE
8
BLACK
6
CONTINUOUS
10
218.14
20
-66.0151
11
218.337
21
-66.1833
0
LINE
8
BLACK
6
CONTINUOUS
10
218.337
20
-66.1833
11
218.505
21
-66.3802
0
LINE
8
BLACK
6
CONTINUOUS
10
218.505
20
-66.3802
11
218.64
21
-66.6009
0
LINE
8
BLACK
6
CONTINUOUS
10
218.64
20
-66.6009
11
218.739
21
-66.8401
0
LINE
8
BLACK
6
CONTINUOUS
10
218.739
20
-66.8401
11
218.8
21
-67.0919
0
LINE
8
BLACK
6
CONTINUOUS
10
218.8
20
-67.0919
11
218.82
21
-67.35
0
LINE
8
BLACK
6
CONTINUOUS
10
218.82
20
-67.35
11
218.8
21
-67.6081
0
LINE
8
BLACK
6
CONTINUOUS
10
218.8
20
-67.6081
11
218.739
21
-67.8599
0
LINE
8
BLACK
6
CONTINUOUS
10
218.739
20
-67.8599
11
218.64
21
-68.0991
0
LINE
8
BLACK
6
CONTINUOUS
10
218.64
20
-68.0991
11
218.505
21
-68.3198
0
LINE
8
BLACK
6
CONTINUOUS
10
218.505
20
-68.3198
11
218.337
21
-68.5167
0
LINE
8
BLACK
6
CONTINUOUS
10
218.337
20
-68.5167
11
218.14
21
-68.6849
0
LINE
8
BLACK
6
CONTINUOUS
10
218.14
20
-68.6849
11
217.919
21
-68.8202
0
LINE
8
BLACK
6
CONTINUOUS
10
217.919
20
-68.8202
11
217.68
21
-68.9192
0
LINE
8
BLACK
6
CONTINUOUS
10
217.68
20
-68.9192
11
217.428
21
-68.9797
0
LINE
8
BLACK
6
CONTINUOUS
10
217.428
20
-68.9797
11
217.17
21
-69
0
LINE
8
BLACK
6
CONTINUOUS
10
217.17
20
-69
11
216.912
21
-68.9797
0
LINE
8
BLACK
6
CONTINUOUS
10
216.912
20
-68.9797
11
216.66
21
-68.9192
0
LINE
8
BLACK
6
CONTINUOUS
10
216.66
20
-68.9192
11
216.421
21
-68.8202
0
LINE
8
BLACK
6
CONTINUOUS
10
216.421
20
-68.8202
11
216.2
21
-68.6849
0
LINE
8
BLACK
6
CONTINUOUS
10
216.2
20
-68.6849
11
216.003
21
-68.5167
0
LINE
8
BLACK
6
CONTINUOUS
10
216.003
20
-68.5167
11
215.835
21
-68.3198
0
LINE
8
BLACK
6
CONTINUOUS
10
215.835
20
-68.3198
11
215.7
21
-68.0991
0
LINE
8
BLACK
6
CONTINUOUS
10
215.7
20
-68.0991
11
215.601
21
-67.8599
0
LINE
8
BLACK
6
CONTINUOUS
10
215.601
20
-67.8599
11
215.54
21
-67.6081
0
LINE
8
BLACK
6
CONTINUOUS
10
215.54
20
-67.6081
11
215.52
21
-67.35
0
LINE
8
BLACK
6
CONTINUOUS
10
215.52
20
-67.35
11
215.54
21
-67.0919
0
LINE
8
BLACK
6
CONTINUOUS
10
215.54
20
-67.0919
11
215.601
21
-66.8401
0
LINE
8
BLACK
6
CONTINUOUS
10
215.691
20
-67.8305
11
215.785
21
-68.0559
0
LINE
8
BLACK
6
CONTINUOUS
10
215.785
20
-68.0559
11
215.912
21
-68.2639
0
LINE
8
BLACK
6
CONTINUOUS
10
215.912
20
-68.2639
11
216.071
21
-68.4494
0
LINE
8
BLACK
6
CONTINUOUS
10
216.071
20
-68.4494
11
216.256
21
-68.6079
0
LINE
8
BLACK
6
CONTINUOUS
10
216.256
20
-68.6079
11
216.464
21
-68.7353
0
LINE
8
BLACK
6
CONTINUOUS
10
216.464
20
-68.7353
11
216.69
21
-68.8287
0
LINE
8
BLACK
6
CONTINUOUS
10
216.69
20
-68.8287
11
216.927
21
-68.8857
0
LINE
8
BLACK
6
CONTINUOUS
10
216.927
20
-68.8857
11
217.17
21
-68.9048
0
LINE
8
BLACK
6
CONTINUOUS
10
217.17
20
-68.9048
11
217.413
21
-68.8857
0
LINE
8
BLACK
6
CONTINUOUS
10
217.413
20
-68.8857
11
217.65
21
-68.8287
0
LINE
8
BLACK
6
CONTINUOUS
10
217.65
20
-68.8287
11
217.876
21
-68.7353
0
LINE
8
BLACK
6
CONTINUOUS
10
217.876
20
-68.7353
11
218.084
21
-68.6079
0
LINE
8
BLACK
6
CONTINUOUS
10
218.084
20
-68.6079
11
218.269
21
-68.4494
0
LINE
8
BLACK
6
CONTINUOUS
10
218.269
20
-68.4494
11
218.428
21
-68.2639
0
LINE
8
BLACK
6
CONTINUOUS
10
218.428
20
-68.2639
11
218.555
21
-68.0559
0
LINE
8
BLACK
6
CONTINUOUS
10
218.555
20
-68.0559
11
218.649
21
-67.8305
0
LINE
8
BLACK
6
CONTINUOUS
10
218.649
20
-67.8305
11
218.706
21
-67.5932
0
LINE
8
BLACK
6
CONTINUOUS
10
218.706
20
-67.5932
11
218.725
21
-67.35
0
LINE
8
BLACK
6
CONTINUOUS
10
218.725
20
-67.35
11
218.706
21
-67.1068
0
LINE
8
BLACK
6
CONTINUOUS
10
218.706
20
-67.1068
11
218.649
21
-66.8695
0
LINE
8
BLACK
6
CONTINUOUS
10
218.649
20
-66.8695
11
218.555
21
-66.6441
0
LINE
8
BLACK
6
CONTINUOUS
10
218.555
20
-66.6441
11
218.428
21
-66.4361
0
LINE
8
BLACK
6
CONTINUOUS
10
218.428
20
-66.4361
11
218.269
21
-66.2506
0
LINE
8
BLACK
6
CONTINUOUS
10
218.269
20
-66.2506
11
218.084
21
-66.0921
0
LINE
8
BLACK
6
CONTINUOUS
10
218.084
20
-66.0921
11
217.876
21
-65.9647
0
LINE
8
BLACK
6
CONTINUOUS
10
217.876
20
-65.9647
11
217.65
21
-65.8713
0
LINE
8
BLACK
6
CONTINUOUS
10
217.65
20
-65.8713
11
217.413
21
-65.8143
0
LINE
8
BLACK
6
CONTINUOUS
10
217.413
20
-65.8143
11
217.17
21
-65.7952
0
LINE
8
BLACK
6
CONTINUOUS
10
217.17
20
-65.7952
11
216.927
21
-65.8143
0
LINE
8
BLACK
6
CONTINUOUS
10
216.927
20
-65.8143
11
216.69
21
-65.8713
0
LINE
8
BLACK
6
CONTINUOUS
10
216.69
20
-65.8713
11
216.464
21
-65.9647
0
LINE
8
BLACK
6
CONTINUOUS
10
216.464
20
-65.9647
11
216.256
21
-66.0921
0
LINE
8
BLACK
6
CONTINUOUS
10
216.256
20
-66.0921
11
216.071
21
-66.2506
0
LINE
8
BLACK
6
CONTINUOUS
10
216.071
20
-66.2506
11
215.912
21
-66.4361
0
LINE
8
BLACK
6
CONTINUOUS
10
215.912
20
-66.4361
11
215.785
21
-66.6441
0
LINE
8
BLACK
6
CONTINUOUS
10
215.785
20
-66.6441
11
215.691
21
-66.8695
0
LINE
8
BLACK
6
CONTINUOUS
10
215.691
20
-66.8695
11
215.634
21
-67.1068
0
LINE
8
BLACK
6
CONTINUOUS
10
215.634
20
-67.1068
11
215.615
21
-67.35
0
LINE
8
BLACK
6
CONTINUOUS
10
215.615
20
-67.35
11
215.634
21
-67.5932
0
LINE
8
BLACK
6
CONTINUOUS
10
215.634
20
-67.5932
11
215.691
21
-67.8305
  0
ENDSEC
  0
EOF
